<?xml version="1.0" encoding="utf-8"?>
<!-- Generator: Adobe Illustrator 16.0.0, SVG Export Plug-In . SVG Version: 6.00 Build 0)  -->
<!DOCTYPE svg PUBLIC "-//W3C//DTD SVG 1.1//EN" "http://www.w3.org/Graphics/SVG/1.1/DTD/svg11.dtd">
<svg version="1.1" id="Layer_1" xmlns="http://www.w3.org/2000/svg" xmlns:xlink="http://www.w3.org/1999/xlink" x="0px" y="0px"
	 width="48px" height="48px" viewBox="0 0 48 48" enable-background="new 0 0 48 48" xml:space="preserve">
<g id="Layer_1_1_" display="none">
	<path display="inline" d="M47,41c0,3.313-2.688,6-6,6H7c-3.313,0-6-2.688-6-6V7c0-3.313,2.687-6,6-6h34c3.313,0,6,2.687,6,6V41z"/>
	<path display="inline" fill="none" stroke="#FFFFFF" stroke-width="5" d="M-7,20.5c0,0,6.632,0,14.601,0
		c7.815,0,10.993-10.467,13.093-10.467c3.335,0,5.958,26.467,36.474,26.467c10.001,0,24.833,0,24.833,0"/>
</g>
<g id="Combined">
	<g>
		<path d="M47.001,18V7c0-3.313-2.687-6-6-6H7C3.687,1,1,3.687,1,7v25.783c13.448-3.498,18.375-13.738,21.26-19.743
			c1.594-3.316,2.646-5.507,5.047-5.507c2.028,0,3.219,1.724,4.727,3.906C33.945,14.208,36.564,18,40.4,18H47.001z"/>
		<path d="M1.001,37.943V41c0,3.313,2.688,6,6,6h34c3.313,0,6-2.688,6-6V23H40.4c-6.459,0-10.229-5.458-12.48-8.719
			c-0.129-0.187-0.27-0.389-0.412-0.593c-0.246,0.49-0.505,1.028-0.74,1.518C23.63,21.74,17.618,34.247,1.001,37.943z"/>
	</g>
</g>
</svg>
