<?xml version="1.0" encoding="utf-8"?>
<!-- Generator: Adobe Illustrator 16.0.0, SVG Export Plug-In . SVG Version: 6.00 Build 0)  -->
<!DOCTYPE svg PUBLIC "-//W3C//DTD SVG 1.1//EN" "http://www.w3.org/Graphics/SVG/1.1/DTD/svg11.dtd">
<svg version="1.1" id="Layer_1" xmlns="http://www.w3.org/2000/svg" xmlns:xlink="http://www.w3.org/1999/xlink" x="0px" y="0px"
	 width="48px" height="48px" viewBox="0 0 48 48" enable-background="new 0 0 48 48" xml:space="preserve">
<circle display="none" cx="24" cy="23.999" r="23"/>
<path d="M47,41c0,3.313-2.687,6-6,6H7c-3.313,0-6-2.687-6-6V7c0-3.313,2.687-6,6-6h34c3.313,0,6,2.687,6,6V41z"/>
<path fill="#FFFFFF" d="M87.423,64.516L87.423,64.516l-0.002-0.001c-0.002-0.001-0.004-0.001-0.006-0.002
	c-2.628-0.964-4.021-5.2-5.782-10.562c-0.004-0.012-0.007-0.022-0.011-0.033c-0.804-2.443-2.107-6.399-2.971-7.479
	c-0.864,0.451-2.172,3.476-2.972,5.327l0,0c-0.002,0.004-0.004,0.009-0.006,0.014c-1.759,4.075-3.148,7.297-5.775,6.354
	c-0.004-0.001-0.009-0.003-0.013-0.004c-0.006-0.003-0.009-0.004-0.013-0.005c-2.621-0.968-4.011-5.178-5.761-10.51
	c-0.006-0.017-0.011-0.031-0.017-0.048l-0.009-0.028c-0.8-2.429-2.105-6.399-2.97-7.479c-0.864,0.451-2.17,3.472-2.97,5.318
	l-1.414-1.016l0.05,0.036l-0.021-0.015l1.37,1.028c-1.756,4.063-3.144,7.274-5.762,6.344c-0.006-0.003-0.013-0.003-0.02-0.007
	c-0.007-0.001-0.013-0.005-0.02-0.008c-2.616-0.974-4.007-5.188-5.76-10.521c-0.004-0.012-0.008-0.023-0.012-0.035
	c-0.801-2.438-2.11-6.422-2.978-7.508c-0.864,0.453-2.173,3.473-2.974,5.321l0,0c-0.002,0.006-0.004,0.011-0.007,0.017
	c-1.758,4.071-3.147,7.291-5.769,6.357c-0.006-0.002-0.014-0.002-0.02-0.007c-0.008-0.001-0.014-0.005-0.02-0.007
	c-2.613-0.973-4-5.181-5.752-10.506c-0.006-0.016-0.011-0.032-0.017-0.049L29.024,34.8c-0.801-2.437-2.11-6.421-2.978-7.503
	c-0.867,0.451-2.176,3.484-2.977,5.34c-0.004,0.009-0.008,0.018-0.012,0.027c-1.759,4.063-3.15,7.271-5.773,6.323
	c-0.002-0.001-0.005-0.004-0.006-0.002c-0.004-0.004-0.004-0.002-0.006-0.003c-2.625-0.962-4.016-5.193-5.778-10.548
	c-0.004-0.012-0.008-0.023-0.011-0.035c-0.802-2.44-2.105-6.406-2.971-7.487c-0.866,0.453-2.177,3.482-2.979,5.337l-1.405-1.034
	l0.166,0.123l-0.147-0.109l1.378,1.042c-1.757,4.062-3.146,7.272-5.764,6.337c-0.006-0.002-0.011-0.003-0.017-0.006
	c-0.005,0-0.01-0.004-0.017-0.006C-2.89,31.625-4.28,27.4-6.039,22.057c-0.29-0.882,0.101-1.611,0.876-1.619
	c0.774-0.01,1.637,0.691,1.927,1.572l0.006,0.02c0.8,2.432,2.109,6.406,2.974,7.49c0.864-0.453,2.171-3.474,2.97-5.322l1.412,1.018
	L4.108,25.2l0.002,0.001l-1.386-1.024c1.762-4.073,3.153-7.292,5.776-6.353c0.004,0.003,0.008,0.006,0.013,0.006
	c0.003,0.002,0.009,0.003,0.013,0.004c2.625,0.971,4.016,5.203,5.775,10.561c0.004,0.011,0.007,0.021,0.011,0.033
	c0.802,2.436,2.106,6.396,2.968,7.476c0.865-0.452,2.175-3.479,2.976-5.33h0c0.001-0.002,0.002-0.006,0.003-0.008
	c1.759-4.076,3.149-7.297,5.775-6.355c0.004,0.001,0.007,0.002,0.013,0.005c0.003-0.001,0.009,0.003,0.013,0.005
	c2.615,0.966,4.006,5.175,5.76,10.508c0.006,0.017,0.011,0.032,0.017,0.048l0.009,0.027c0.799,2.43,2.104,6.399,2.969,7.481
	c0.867-0.452,2.177-3.485,2.978-5.34v-0.001l1.405,1.037l-1.405-1.037c0.003-0.006,0.006-0.012,0.008-0.018l0,0
	c1.761-4.065,3.152-7.277,5.773-6.333c0.002,0.001,0.005,0.001,0.01,0.003l0.001,0.001c0.003,0.001,0.006,0.002,0.008,0.003
	c2.621,0.964,4.012,5.183,5.768,10.524c0.004,0.012,0.008,0.022,0.012,0.034l0.001,0.003c0.802,2.439,2.111,6.425,2.979,7.506
	c0.865-0.452,2.172-3.476,2.972-5.327l1.411,1.023l-0.071-0.052l0.043,0.03l-1.367-1.035c1.756-4.059,3.144-7.267,5.76-6.336
	c0.006,0.003,0.014,0.004,0.02,0.008c0.008,0.001,0.014,0.005,0.02,0.007c2.613,0.973,4,5.179,5.753,10.505
	c0.006,0.017,0.012,0.033,0.017,0.05c0.801,2.438,2.109,6.425,2.979,7.509c0.869-0.452,2.178-3.484,2.979-5.341
	c0.002-0.004,0.004-0.009,0.006-0.015l0,0c1.76-4.07,3.149-7.287,5.776-6.338c0.002,0.001,0.004,0.002,0.006,0.002l0.001,0.001
	h0.001c0.002,0.001,0.004,0.002,0.006,0.003c2.625,0.962,4.02,5.199,5.784,10.562c0.004,0.013,0.008,0.023,0.011,0.035
	c0.803,2.442,2.104,6.395,2.968,7.475c0.868-0.453,2.178-3.484,2.979-5.339c0.29-0.672,1.154-0.75,1.93-0.179
	c0.776,0.572,1.171,1.579,0.881,2.25c-1.762,4.079-3.154,7.302-5.782,6.353C87.427,64.517,87.425,64.516,87.423,64.516z
	 M21.665,31.6l1.405,1.037L21.665,31.6z M72.863,49.708l1.405,1.036L72.863,49.708z"/>
<path fill="#FFFFFF" d="M89.423,50.243L89.423,50.243l-0.002-0.001c-0.002,0-0.004-0.001-0.006-0.002
	c-2.628-0.963-4.021-5.199-5.782-10.562c-0.004-0.011-0.007-0.022-0.011-0.034c-0.804-2.441-2.107-6.398-2.971-7.477
	c-0.864,0.45-2.172,3.476-2.972,5.326l0,0c-0.002,0.004-0.004,0.01-0.006,0.014c-1.759,4.076-3.148,7.298-5.775,6.355
	c-0.004-0.002-0.009-0.004-0.013-0.005c-0.006-0.002-0.009-0.003-0.013-0.005c-2.621-0.968-4.011-5.178-5.761-10.51
	c-0.006-0.016-0.011-0.031-0.017-0.047l-0.009-0.028c-0.8-2.429-2.105-6.399-2.97-7.48c-0.864,0.452-2.17,3.472-2.97,5.319
	l-1.414-1.017l0.05,0.036l-0.021-0.014l1.37,1.027c-1.756,4.063-3.144,7.275-5.762,6.344c-0.006-0.002-0.014-0.005-0.02-0.007
	c-0.008-0.003-0.013-0.005-0.02-0.007c-2.616-0.975-4.007-5.188-5.76-10.522c-0.004-0.011-0.008-0.022-0.012-0.034
	c-0.801-2.438-2.11-6.423-2.978-7.508c-0.864,0.453-2.173,3.473-2.974,5.32l0,0c-0.002,0.006-0.004,0.012-0.007,0.018
	c-1.758,4.071-3.147,7.29-5.769,6.357c-0.006-0.002-0.014-0.005-0.02-0.007c-0.008-0.003-0.014-0.005-0.02-0.008
	c-2.613-0.972-4-5.18-5.752-10.505c-0.006-0.017-0.011-0.033-0.017-0.049l-0.002-0.005c-0.801-2.438-2.11-6.42-2.977-7.504
	c-0.868,0.452-2.177,3.485-2.978,5.341c-0.004,0.008-0.008,0.018-0.012,0.026c-1.759,4.064-3.15,7.271-5.773,6.323
	c-0.002,0-0.003-0.003-0.006-0.002c-0.002-0.002-0.004-0.001-0.006-0.002c-2.625-0.962-4.016-5.193-5.778-10.548
	c-0.004-0.013-0.008-0.024-0.011-0.036c-0.802-2.44-2.105-6.406-2.971-7.487c-0.866,0.453-2.177,3.483-2.979,5.338l-1.405-1.034
	l0.166,0.122l-0.147-0.108l1.378,1.041c-1.757,4.063-3.146,7.272-5.764,6.338c-0.006-0.003-0.01-0.003-0.017-0.007
	c-0.004,0.001-0.011-0.004-0.017-0.006C-0.89,17.353-2.28,13.129-4.039,7.784c-0.29-0.882,0.101-1.612,0.876-1.619
	c0.776-0.009,1.637,0.691,1.927,1.573l0.006,0.018c0.8,2.433,2.109,6.408,2.974,7.491c0.864-0.453,2.171-3.474,2.97-5.322
	l1.412,1.019l-0.02-0.015L6.11,10.93L4.724,9.904C6.485,5.831,7.877,2.612,10.5,3.553c0.004,0.002,0.008,0.002,0.013,0.005
	c0.003-0.001,0.009,0.003,0.013,0.005c2.625,0.97,4.016,5.203,5.775,10.56c0.004,0.011,0.007,0.022,0.011,0.033
	c0.802,2.437,2.106,6.396,2.968,7.477c0.865-0.453,2.175-3.479,2.976-5.331l0,0.001c0.001-0.003,0.002-0.006,0.003-0.009
	c1.759-4.076,3.148-7.297,5.775-6.355c0.004,0.002,0.007,0.002,0.013,0.005c0.004,0.001,0.009,0.003,0.013,0.005
	c2.615,0.966,4.006,5.176,5.76,10.509c0.006,0.017,0.011,0.032,0.017,0.048l0.009,0.026c0.799,2.43,2.104,6.4,2.969,7.481
	c0.867-0.453,2.177-3.484,2.978-5.34c0,0,0,0,0-0.001l1.405,1.037l-1.405-1.037c0.003-0.006,0.006-0.012,0.008-0.018l0,0
	c1.761-4.065,3.152-7.276,5.773-6.333c0.002,0.001,0.005,0.002,0.01,0.004h0.001c0.003,0.001,0.006,0.002,0.008,0.003
	c2.621,0.964,4.012,5.183,5.768,10.524c0.004,0.012,0.008,0.023,0.012,0.035l0.001,0.003c0.802,2.438,2.111,6.424,2.979,7.505
	c0.865-0.451,2.172-3.476,2.972-5.326l1.411,1.023l-0.071-0.053l0.043,0.031l-1.367-1.036c1.756-4.059,3.144-7.267,5.76-6.335
	c0.006,0.002,0.014,0.005,0.02,0.007c0.008,0.003,0.014,0.005,0.02,0.007c2.613,0.973,4,5.18,5.753,10.506
	c0.006,0.017,0.012,0.033,0.017,0.05c0.801,2.438,2.109,6.425,2.979,7.508c0.869-0.452,2.178-3.484,2.979-5.34
	c0.002-0.005,0.004-0.01,0.006-0.015l0,0c1.76-4.071,3.149-7.287,5.776-6.338c0.002,0,0.004,0.001,0.006,0.002h0.001l0.001,0.001
	c0.002,0,0.004,0.001,0.006,0.002c2.625,0.962,4.02,5.199,5.784,10.562c0.004,0.013,0.008,0.024,0.011,0.035
	c0.803,2.441,2.104,6.395,2.968,7.476c0.868-0.454,2.178-3.485,2.979-5.34c0.29-0.673,1.156-0.749,1.93-0.179
	c0.776,0.572,1.171,1.58,0.881,2.25c-1.762,4.08-3.154,7.303-5.782,6.353C89.427,50.244,89.425,50.244,89.423,50.243z
	 M23.665,17.328l1.405,1.037L23.665,17.328z M74.863,35.436l1.405,1.037L74.863,35.436z"/>
</svg>
