<?xml version="1.0" encoding="utf-8"?>
<!-- Generator: Adobe Illustrator 16.0.0, SVG Export Plug-In . SVG Version: 6.00 Build 0)  -->
<!DOCTYPE svg PUBLIC "-//W3C//DTD SVG 1.1//EN" "http://www.w3.org/Graphics/SVG/1.1/DTD/svg11.dtd">
<svg version="1.1" xmlns="http://www.w3.org/2000/svg" xmlns:xlink="http://www.w3.org/1999/xlink" x="0px" y="0px" width="48px"
	 height="48px" viewBox="0 0 48 48" style="enable-background:new 0 0 48 48;" xml:space="preserve">
<g id="Layer_2">
	<g>
		<path d="M8.5,17.824c0.004,0.003,0.008,0.006,0.013,0.006c0.003,0.002,0.009,0.003,0.013,0.004
			c2.625,0.971,4.016,5.203,5.775,10.561c0.004,0.012,0.007,0.021,0.011,0.033c0.802,2.437,2.106,6.396,2.968,7.477
			c0.865-0.452,2.175-3.479,2.976-5.33c0.001-0.002,0.002-0.006,0.003-0.008c1.759-4.076,3.149-7.297,5.775-6.355
			c0.004,0.001,0.007,0.002,0.013,0.005c0.003-0.001,0.01,0.003,0.014,0.005c2.614,0.966,4.006,5.175,5.76,10.507
			c0.006,0.018,0.011,0.032,0.017,0.049l0.009,0.027c0.799,2.43,2.104,6.398,2.969,7.48c0.867-0.452,2.178-3.485,2.979-5.34v-0.002
			c0.003-0.006,0.006-0.012,0.008-0.018c1.762-4.064,3.152-7.277,5.773-6.333c0.002,0.001,0.005,0.001,0.01,0.003l0.001,0.002
			c0.003,0,0.006,0.002,0.008,0.002c1.409,0.519,2.461,1.983,3.407,4.051V22.409c-0.506-1.334-1.013-2.493-1.422-3.005
			c-0.864,0.453-2.174,3.473-2.975,5.321c-0.002,0.006-0.004,0.012-0.006,0.018c-1.759,4.07-3.147,7.29-5.77,6.357
			c-0.006-0.002-0.014-0.006-0.02-0.008c-0.009-0.003-0.015-0.005-0.021-0.008c-2.613-0.973-4-5.18-5.752-10.505
			c-0.007-0.017-0.011-0.033-0.017-0.049l-0.002-0.005c-0.802-2.438-2.11-6.42-2.978-7.504c-0.868,0.452-2.177,3.485-2.978,5.341
			c-0.004,0.008-0.008,0.018-0.013,0.026c-1.759,4.064-3.15,7.271-5.773,6.323c-0.002,0-0.003-0.003-0.006-0.002
			c-0.002-0.002-0.004-0.001-0.006-0.002c-2.625-0.962-4.016-5.193-5.778-10.548c-0.004-0.013-0.008-0.024-0.011-0.036
			c-0.802-2.44-2.105-6.406-2.971-7.487c-0.866,0.453-2.177,3.483-2.979,5.338l-1.314-0.967L6.14,10.954l1.378,1.041
			c-1.757,4.063-3.146,7.272-5.764,6.338c-0.006-0.003-0.01-0.003-0.017-0.007c-0.004,0.001-0.011-0.004-0.017-0.006
			C1.468,18.227,1.23,18.094,1,17.942v9.917c0.619-1.13,1.251-2.591,1.714-3.66l1.412,1.018L4.108,25.2l0.002,0.001l-1.386-1.024
			C4.486,20.104,5.877,16.885,8.5,17.824z"/>
		<path d="M1.744,15.247c0.864-0.453,2.171-3.474,2.97-5.322l1.412,1.019l-0.02-0.015L6.11,10.93L4.724,9.904
			C6.485,5.831,7.877,2.612,10.5,3.553c0.004,0.002,0.008,0.002,0.013,0.005c0.003-0.001,0.009,0.003,0.013,0.005
			c2.625,0.97,4.016,5.203,5.775,10.56c0.004,0.011,0.007,0.022,0.011,0.033c0.802,2.437,2.106,6.396,2.968,7.477
			c0.865-0.453,2.175-3.479,2.976-5.331v0.001c0.001-0.003,0.002-0.006,0.003-0.009c1.759-4.076,3.148-7.297,5.775-6.355
			c0.004,0.002,0.007,0.002,0.013,0.005c0.004,0.001,0.01,0.003,0.014,0.005c2.614,0.966,4.006,5.176,5.76,10.509
			c0.006,0.017,0.011,0.032,0.017,0.048l0.009,0.026c0.799,2.43,2.104,6.399,2.969,7.481c0.867-0.453,2.178-3.484,2.979-5.341
			c0,0,0,0,0-0.001c0.003-0.006,0.006-0.012,0.008-0.018c1.762-4.065,3.152-7.276,5.773-6.333c0.002,0.001,0.005,0.002,0.01,0.004
			h0.001c0.003,0.001,0.006,0.002,0.008,0.003c0.513,0.188,0.977,0.505,1.407,0.926V7c0-3.313-2.688-6-6-6H7C3.687,1,1,3.687,1,7
			v6.901C1.267,14.491,1.521,14.967,1.744,15.247z"/>
		<polygon points="4.157,25.236 4.175,25.25 4.188,25.26 4.147,25.229 		"/>
		<path d="M46.568,41.219c-0.004-0.012-0.008-0.023-0.012-0.035c-0.802-2.438-2.111-6.422-2.979-7.508
			c-0.864,0.453-2.174,3.473-2.975,5.321c-0.002,0.006-0.004,0.011-0.006,0.017c-1.759,4.071-3.147,7.291-5.77,6.357
			c-0.006-0.002-0.014-0.002-0.02-0.007c-0.009-0.001-0.015-0.005-0.021-0.007c-2.613-0.974-4-5.182-5.752-10.506
			c-0.007-0.017-0.011-0.033-0.017-0.05l0.004-0.002c-0.801-2.437-2.109-6.421-2.978-7.503c-0.866,0.451-2.176,3.484-2.977,5.34
			c-0.004,0.01-0.008,0.019-0.012,0.027c-1.759,4.063-3.15,7.271-5.773,6.322c-0.002,0-0.005-0.004-0.006-0.002
			c-0.004-0.004-0.004-0.002-0.006-0.002c-2.625-0.963-4.016-5.193-5.778-10.549c-0.004-0.012-0.008-0.022-0.011-0.035
			c-0.802-2.439-2.105-6.405-2.971-7.486c-0.866,0.453-2.177,3.482-2.979,5.337L4.188,25.26L4.18,25.254l1.345,1.018
			C4.068,29.64,2.861,32.414,1,32.732V41c0,3.313,2.687,6,6,6h34c2.91,0,5.336-2.075,5.883-4.825
			C46.779,41.86,46.675,41.542,46.568,41.219z"/>
	</g>
</g>
<g id="Layer_1" style="display:none;">
	<circle cx="24" cy="23.999" r="23"/>
	<path style="display:inline;" d="M47,41c0,3.313-2.688,6-6,6H7c-3.313,0-6-2.688-6-6V7c0-3.313,2.687-6,6-6h34c3.313,0,6,2.687,6,6
		V41z"/>
	<path style="display:inline;fill:#FFFFFF;" d="M87.423,64.516L87.423,64.516h-0.002c-0.002-0.002-0.004-0.002-0.006-0.002
		c-2.628-0.965-4.021-5.201-5.782-10.563c-0.004-0.012-0.007-0.021-0.011-0.033c-0.804-2.443-2.106-6.398-2.972-7.479
		c-0.863,0.451-2.172,3.476-2.971,5.326l0,0c-0.003,0.004-0.005,0.01-0.007,0.015c-1.759,4.075-3.147,7.297-5.774,6.354
		c-0.004-0.001-0.01-0.003-0.014-0.004c-0.006-0.003-0.009-0.004-0.013-0.005c-2.621-0.968-4.011-5.178-5.761-10.51
		c-0.006-0.018-0.012-0.031-0.018-0.049l-0.009-0.027c-0.8-2.43-2.104-6.398-2.97-7.479c-0.864,0.45-2.17,3.472-2.971,5.317
		l-1.414-1.017l0.051,0.037l-0.021-0.016l1.37,1.028c-1.756,4.063-3.144,7.274-5.762,6.344c-0.007-0.003-0.013-0.003-0.021-0.007
		c-0.007-0.001-0.013-0.005-0.02-0.008c-2.616-0.975-4.008-5.188-5.76-10.521c-0.004-0.012-0.008-0.023-0.012-0.035
		c-0.802-2.438-2.111-6.422-2.979-7.508c-0.864,0.453-2.174,3.473-2.975,5.321l0,0c-0.002,0.006-0.004,0.011-0.006,0.017
		c-1.759,4.071-3.147,7.291-5.77,6.357c-0.006-0.002-0.014-0.002-0.02-0.007c-0.009-0.001-0.015-0.005-0.021-0.007
		c-2.613-0.974-4-5.182-5.752-10.506c-0.007-0.017-0.011-0.033-0.017-0.05l0.004-0.002c-0.801-2.437-2.109-6.421-2.978-7.503
		c-0.866,0.451-2.176,3.484-2.977,5.34c-0.004,0.01-0.008,0.019-0.012,0.027c-1.759,4.063-3.15,7.271-5.773,6.322
		c-0.002,0-0.005-0.004-0.006-0.002c-0.004-0.004-0.004-0.002-0.006-0.002c-2.625-0.963-4.016-5.193-5.778-10.549
		c-0.004-0.012-0.008-0.022-0.011-0.035c-0.802-2.439-2.105-6.405-2.971-7.486c-0.866,0.453-2.177,3.482-2.979,5.337l-1.405-1.034
		l0.166,0.123l-0.147-0.109l1.378,1.043c-1.757,4.062-3.146,7.271-5.764,6.336c-0.006-0.002-0.011-0.002-0.017-0.006
		c-0.005,0-0.01-0.004-0.017-0.006C-2.89,31.625-4.28,27.4-6.039,22.057c-0.29-0.882,0.101-1.611,0.876-1.619
		c0.774-0.01,1.637,0.691,1.927,1.572l0.006,0.021c0.8,2.432,2.109,6.405,2.974,7.489c0.864-0.453,2.171-3.474,2.97-5.321
		l1.412,1.018L4.108,25.2l0.002,0.001l-1.386-1.024c1.762-4.073,3.153-7.292,5.776-6.353c0.004,0.003,0.008,0.006,0.013,0.006
		c0.003,0.002,0.009,0.003,0.013,0.004c2.625,0.971,4.016,5.203,5.775,10.561c0.004,0.012,0.007,0.021,0.011,0.033
		c0.802,2.437,2.106,6.396,2.968,7.477c0.865-0.452,2.175-3.479,2.976-5.33l0,0c0.001-0.002,0.002-0.006,0.003-0.008
		c1.759-4.076,3.149-7.297,5.775-6.355c0.004,0.001,0.007,0.002,0.013,0.005c0.003-0.001,0.01,0.003,0.014,0.005
		c2.614,0.966,4.006,5.175,5.76,10.507c0.006,0.018,0.011,0.032,0.017,0.049l0.009,0.027c0.799,2.43,2.104,6.398,2.969,7.48
		c0.867-0.452,2.178-3.485,2.979-5.34v-0.002l1.405,1.037l-1.405-1.037c0.003-0.006,0.006-0.012,0.008-0.018l0,0
		c1.762-4.064,3.152-7.277,5.773-6.333c0.002,0.001,0.005,0.001,0.01,0.003l0.001,0.002c0.003,0,0.006,0.002,0.008,0.002
		c2.621,0.965,4.013,5.184,5.769,10.524c0.004,0.012,0.008,0.022,0.012,0.034l0.001,0.003c0.802,2.438,2.11,6.425,2.979,7.506
		c0.864-0.452,2.172-3.476,2.972-5.327l1.411,1.023l-0.071-0.053l0.043,0.03l-1.367-1.034c1.757-4.06,3.144-7.268,5.761-6.337
		c0.006,0.003,0.014,0.005,0.02,0.009c0.008,0,0.014,0.004,0.02,0.006c2.613,0.974,4,5.18,5.754,10.506
		c0.006,0.017,0.012,0.033,0.017,0.05c0.801,2.438,2.108,6.425,2.979,7.509c0.868-0.451,2.178-3.484,2.979-5.341
		c0.002-0.004,0.004-0.009,0.006-0.015l0,0c1.76-4.07,3.148-7.287,5.775-6.338c0.002,0,0.004,0.002,0.007,0.002h0.001h0.001
		c0.002,0.002,0.004,0.002,0.006,0.004c2.625,0.962,4.021,5.199,5.784,10.562c0.004,0.013,0.008,0.022,0.011,0.035
		c0.804,2.442,2.104,6.396,2.968,7.476c0.868-0.453,2.178-3.484,2.979-5.34c0.29-0.672,1.153-0.75,1.93-0.179
		s1.171,1.579,0.881,2.25c-1.762,4.079-3.153,7.302-5.782,6.353C87.427,64.518,87.425,64.516,87.423,64.516z M21.665,31.6
		l1.405,1.037L21.665,31.6z M72.863,49.708l1.404,1.036L72.863,49.708z"/>
	<path style="display:inline;fill:#FFFFFF;" d="M89.423,50.243L89.423,50.243l-0.002-0.001c-0.002,0-0.004-0.001-0.006-0.002
		c-2.628-0.963-4.021-5.199-5.782-10.563c-0.004-0.011-0.007-0.021-0.011-0.033c-0.804-2.441-2.106-6.398-2.972-7.478
		c-0.863,0.45-2.172,3.476-2.971,5.326l0,0c-0.003,0.004-0.005,0.01-0.007,0.014c-1.759,4.076-3.147,7.298-5.774,6.354
		c-0.004-0.002-0.01-0.004-0.014-0.004c-0.006-0.002-0.009-0.004-0.013-0.006c-2.621-0.968-4.011-5.178-5.761-10.51
		c-0.006-0.016-0.012-0.031-0.018-0.047l-0.009-0.027c-0.8-2.43-2.104-6.399-2.97-7.48c-0.864,0.452-2.17,3.472-2.971,5.318
		l-1.414-1.017l0.051,0.036l-0.021-0.014l1.37,1.027c-1.756,4.063-3.144,7.274-5.762,6.344c-0.007-0.002-0.015-0.006-0.021-0.008
		c-0.008-0.002-0.013-0.005-0.02-0.007c-2.616-0.975-4.008-5.188-5.76-10.522c-0.004-0.01-0.008-0.021-0.012-0.033
		c-0.802-2.438-2.111-6.423-2.979-7.508c-0.864,0.453-2.174,3.473-2.975,5.321l0,0c-0.002,0.006-0.004,0.012-0.006,0.018
		c-1.759,4.07-3.147,7.29-5.77,6.357c-0.006-0.002-0.014-0.006-0.02-0.008c-0.009-0.003-0.015-0.005-0.021-0.008
		c-2.613-0.973-4-5.18-5.752-10.505c-0.007-0.017-0.011-0.033-0.017-0.049l-0.002-0.005c-0.802-2.438-2.11-6.42-2.978-7.504
		c-0.868,0.452-2.177,3.485-2.978,5.341c-0.004,0.008-0.008,0.018-0.013,0.026c-1.759,4.064-3.15,7.271-5.773,6.323
		c-0.002,0-0.003-0.003-0.006-0.002c-0.002-0.002-0.004-0.001-0.006-0.002c-2.625-0.962-4.016-5.193-5.778-10.548
		c-0.004-0.013-0.008-0.024-0.011-0.036c-0.802-2.44-2.105-6.406-2.971-7.487c-0.866,0.453-2.177,3.483-2.979,5.338L6.121,10.94
		l0.166,0.122L6.14,10.954l1.378,1.041c-1.757,4.063-3.146,7.272-5.764,6.338c-0.006-0.003-0.01-0.003-0.017-0.007
		c-0.004,0.001-0.011-0.004-0.017-0.006c-2.61-0.967-4-5.191-5.759-10.536c-0.29-0.882,0.101-1.612,0.876-1.619
		c0.776-0.009,1.637,0.691,1.927,1.573l0.006,0.018c0.8,2.433,2.109,6.408,2.974,7.491c0.864-0.453,2.171-3.474,2.97-5.322
		l1.412,1.019l-0.02-0.015L6.11,10.93L4.724,9.904C6.485,5.831,7.877,2.612,10.5,3.553c0.004,0.002,0.008,0.002,0.013,0.005
		c0.003-0.001,0.009,0.003,0.013,0.005c2.625,0.97,4.016,5.203,5.775,10.56c0.004,0.011,0.007,0.022,0.011,0.033
		c0.802,2.437,2.106,6.396,2.968,7.477c0.865-0.453,2.175-3.479,2.976-5.331v0.001c0.001-0.003,0.002-0.006,0.003-0.009
		c1.759-4.076,3.148-7.297,5.775-6.355c0.004,0.002,0.007,0.002,0.013,0.005c0.004,0.001,0.01,0.003,0.014,0.005
		c2.614,0.966,4.006,5.176,5.76,10.509c0.006,0.017,0.011,0.032,0.017,0.048l0.009,0.026c0.799,2.43,2.104,6.399,2.969,7.481
		c0.867-0.453,2.178-3.484,2.979-5.341c0,0,0,0,0-0.001l1.405,1.037l-1.405-1.037c0.003-0.006,0.006-0.012,0.008-0.018l0,0
		c1.762-4.065,3.152-7.276,5.773-6.333c0.002,0.001,0.005,0.002,0.01,0.004h0.001c0.003,0.001,0.006,0.002,0.008,0.003
		c2.621,0.964,4.013,5.183,5.769,10.523c0.004,0.013,0.008,0.023,0.012,0.035l0.001,0.004c0.802,2.438,2.11,6.424,2.979,7.504
		c0.864-0.451,2.172-3.476,2.972-5.326l1.411,1.023l-0.071-0.053l0.043,0.031l-1.367-1.036c1.757-4.06,3.144-7.267,5.761-6.335
		c0.006,0.002,0.014,0.005,0.02,0.007c0.008,0.003,0.014,0.005,0.02,0.007c2.613,0.973,4,5.18,5.754,10.506
		c0.006,0.018,0.012,0.033,0.017,0.051c0.801,2.438,2.108,6.424,2.979,7.508c0.868-0.452,2.178-3.484,2.979-5.34
		c0.002-0.006,0.004-0.011,0.006-0.016l0,0c1.76-4.07,3.148-7.287,5.775-6.338c0.002,0,0.004,0.001,0.007,0.002h0.001l0.001,0.001
		c0.002,0,0.004,0.001,0.006,0.002c2.625,0.962,4.021,5.199,5.784,10.562c0.004,0.014,0.008,0.024,0.011,0.035
		c0.804,2.441,2.104,6.396,2.968,7.477c0.868-0.454,2.178-3.485,2.979-5.34c0.29-0.674,1.155-0.749,1.93-0.18
		c0.776,0.572,1.171,1.58,0.881,2.25c-1.762,4.08-3.153,7.303-5.782,6.354C89.427,50.244,89.425,50.244,89.423,50.243z
		 M23.665,17.328l1.405,1.037L23.665,17.328z M74.863,35.436l1.404,1.037L74.863,35.436z"/>
</g>
</svg>
