<?xml version="1.0" encoding="utf-8"?>
<!-- Generator: Adobe Illustrator 16.0.0, SVG Export Plug-In . SVG Version: 6.00 Build 0)  -->
<!DOCTYPE svg PUBLIC "-//W3C//DTD SVG 1.1//EN" "http://www.w3.org/Graphics/SVG/1.1/DTD/svg11.dtd">
<svg version="1.1" xmlns="http://www.w3.org/2000/svg" xmlns:xlink="http://www.w3.org/1999/xlink" x="0px" y="0px" width="48px"
	 height="48px" viewBox="0 0 48 48" enable-background="new 0 0 48 48" xml:space="preserve">
<g id="Layer_1" display="none">
	<path display="inline" fill="#8A0000" d="M47,41c0,3.313-2.688,6-6,6H7c-3.313,0-6-2.688-6-6V7c0-3.313,2.687-6,6-6h34
		c3.313,0,6,2.687,6,6V41z"/>
	<text transform="matrix(1 0 0 1 12.3809 36.5205)" display="inline" fill="#FFFFFF" font-family="'Roboto-Black'" font-size="36">B</text>
</g>
<g id="Composed">
	<g>
		<path fill="#8A0000" d="M24.809,25.64h-4.324v6.135h4.043c1.113,0,1.969-0.255,2.566-0.765s0.896-1.228,0.896-2.153
			C27.99,26.724,26.93,25.651,24.809,25.64z"/>
		<path fill="#8A0000" d="M26.584,20.856c0.574-0.482,0.861-1.193,0.861-2.133c0-1.082-0.311-1.86-0.932-2.336
			c-0.621-0.476-1.623-0.714-3.006-0.714h-3.023v5.924h3.217C25.049,21.585,26.01,21.338,26.584,20.856z"/>
		<path fill="#8A0000" d="M41,1H7C3.687,1,1,3.687,1,7v34c0,3.313,2.687,6,6,6h34c3.313,0,6-2.688,6-6V7C47,3.687,44.313,1,41,1z
			 M31.761,34.596c-1.588,1.26-3.94,1.901-7.058,1.925H14.314V10.927h9.193c3.293,0,5.798,0.604,7.515,1.811
			s2.575,2.959,2.575,5.256c0,1.324-0.305,2.455-0.914,3.393s-1.506,1.629-2.689,2.074c1.336,0.352,2.361,1.008,3.076,1.969
			s1.072,2.133,1.072,3.516C34.143,31.452,33.349,33.336,31.761,34.596z"/>
	</g>
</g>
</svg>
