<?xml version="1.0" encoding="utf-8"?>
<!-- Generator: Adobe Illustrator 16.0.0, SVG Export Plug-In . SVG Version: 6.00 Build 0)  -->
<!DOCTYPE svg PUBLIC "-//W3C//DTD SVG 1.1//EN" "http://www.w3.org/Graphics/SVG/1.1/DTD/svg11.dtd">
<svg version="1.1" xmlns="http://www.w3.org/2000/svg" xmlns:xlink="http://www.w3.org/1999/xlink" x="0px" y="0px" width="48px"
	 height="48px" viewBox="0 0 48 48" enable-background="new 0 0 48 48" xml:space="preserve">
<g id="Layer_1" display="none">
	<path display="inline" fill="#004000" d="M47,41c0,3.313-2.688,6-6,6H7c-3.313,0-6-2.688-6-6V7c0-3.313,2.687-6,6-6h34
		c3.313,0,6,2.687,6,6V41z"/>
	<text transform="matrix(1 0 0 1 11.7305 36.5205)" display="inline" fill="#FFFFFF" font-family="'Roboto-Black'" font-size="36">A</text>
</g>
<g id="Composed">
	<g>
		<polygon fill="#004000" points="21.223,26.976 26.725,26.976 23.965,18.099 		"/>
		<path fill="#004000" d="M41,1H7C3.687,1,1,3.687,1,7v34c0,3.313,2.687,6,6,6h34c3.313,0,6-2.688,6-6V7C47,3.687,44.313,1,41,1z
			 M29.695,36.521l-1.494-4.781h-8.455l-1.477,4.781h-6.592l9.387-25.594h5.801l9.457,25.594H29.695z"/>
	</g>
</g>
</svg>
