<?xml version="1.0" encoding="utf-8"?>
<!-- Generator: Adobe Illustrator 16.0.0, SVG Export Plug-In . SVG Version: 6.00 Build 0)  -->
<!DOCTYPE svg PUBLIC "-//W3C//DTD SVG 1.1//EN" "http://www.w3.org/Graphics/SVG/1.1/DTD/svg11.dtd">
<svg version="1.1" id="Layer_1" xmlns="http://www.w3.org/2000/svg" xmlns:xlink="http://www.w3.org/1999/xlink" x="0px" y="0px"
	 width="218px" height="64px" viewBox="0 0 218 64" enable-background="new 0 0 218 64" xml:space="preserve">
<rect x="-1" y="1" display="none" fill="#0032B1" width="219" height="64"/>
<g>
	<path fill="#FFFFFF" d="M55.069,23.069c2.359,2.28,3.54,5.4,3.54,9.36c0,1.24-0.12,2.521-0.36,3.84
		c-0.6,3.4-1.791,6.351-3.57,8.851c-1.78,2.5-3.98,4.42-6.6,5.76c-2.62,1.341-5.47,2.01-8.55,2.01c-3.76,0-6.75-0.999-8.97-3
		c-2.22-2-3.471-4.62-3.75-7.86l-4.56,25.681h-1.14l8.4-47.64h1.14l-1.8,10.44c1.44-3.24,3.62-5.859,6.54-7.86
		c2.919-2,6.26-3,10.02-3C49.489,19.649,52.708,20.789,55.069,23.069z M51.049,47.639c3.12-2.779,5.12-6.57,6-11.37
		c0.24-1.319,0.36-2.56,0.36-3.72c0-3.72-1.08-6.62-3.24-8.7c-2.16-2.079-5.16-3.12-9-3.12c-2.8,0-5.421,0.651-7.86,1.95
		c-2.44,1.3-4.5,3.12-6.18,5.46c-1.68,2.34-2.781,5.051-3.3,8.13c-0.201,1.001-0.3,2.141-0.3,3.42c0,3.721,1.1,6.671,3.3,8.851
		c2.2,2.181,5.16,3.27,8.88,3.27C44.149,51.809,47.929,50.419,51.049,47.639z"/>
	<path fill="#FFFFFF" d="M70.788,20.069l-5.76,32.4h-1.2l5.76-32.4H70.788z M70.878,9.089c0.38-0.36,0.83-0.54,1.35-0.54
		c0.36,0,0.669,0.12,0.93,0.36c0.259,0.24,0.39,0.54,0.39,0.9c0,0.6-0.19,1.08-0.57,1.44c-0.381,0.36-0.831,0.54-1.35,0.54
		c-0.36,0-0.67-0.12-0.93-0.36c-0.261-0.24-0.39-0.54-0.39-0.9C70.308,9.929,70.498,9.449,70.878,9.089z"/>
	<path fill="#FFFFFF" d="M112.248,8.069l-7.86,44.4h-1.14l1.86-10.44c-1.44,3.24-3.621,5.86-6.54,7.86c-2.92,2.001-6.261,3-10.02,3
		c-4.08,0-7.3-1.14-9.66-3.42c-2.36-2.28-3.54-5.4-3.54-9.36c0-1.239,0.12-2.52,0.36-3.84c0.6-3.399,1.779-6.35,3.54-8.85
		c1.76-2.5,3.96-4.419,6.6-5.76c2.64-1.34,5.499-2.01,8.58-2.01c3.72,0,6.69,1,8.91,3c2.22,2,3.489,4.62,3.81,7.86l3.96-22.44
		H112.248z M82.848,24.899c-3.12,2.78-5.1,6.57-5.94,11.37c-0.24,1.32-0.36,2.561-0.36,3.72c0,3.721,1.07,6.621,3.21,8.7
		c2.14,2.081,5.13,3.12,8.97,3.12c2.799,0,5.43-0.649,7.89-1.95c2.46-1.299,4.52-3.12,6.18-5.46c1.66-2.34,2.77-5.049,3.33-8.13
		c0.2-1.319,0.3-2.438,0.3-3.36c0-3.72-1.11-6.68-3.33-8.88c-2.22-2.199-5.17-3.3-8.85-3.3
		C89.767,20.729,85.967,22.119,82.848,24.899z"/>
	<path fill="#FFFFFF" d="M152.507,8.069l-7.86,44.4h-1.14l1.86-10.44c-1.44,3.24-3.621,5.86-6.54,7.86c-2.92,2.001-6.261,3-10.02,3
		c-4.08,0-7.3-1.14-9.66-3.42c-2.36-2.28-3.54-5.4-3.54-9.36c0-1.239,0.12-2.52,0.36-3.84c0.6-3.399,1.779-6.35,3.54-8.85
		c1.76-2.5,3.96-4.419,6.6-5.76c2.64-1.34,5.499-2.01,8.58-2.01c3.72,0,6.69,1,8.91,3c2.22,2,3.489,4.62,3.81,7.86l3.96-22.44
		H152.507z M123.107,24.899c-3.12,2.78-5.1,6.57-5.94,11.37c-0.24,1.32-0.36,2.561-0.36,3.72c0,3.721,1.07,6.621,3.21,8.7
		c2.14,2.081,5.13,3.12,8.97,3.12c2.799,0,5.43-0.649,7.89-1.95c2.46-1.299,4.52-3.12,6.18-5.46c1.66-2.34,2.77-5.049,3.33-8.13
		c0.2-1.319,0.3-2.438,0.3-3.36c0-3.72-1.11-6.68-3.33-8.88c-2.22-2.199-5.17-3.3-8.85-3.3
		C130.026,20.729,126.227,22.119,123.107,24.899z"/>
	<path fill="#FFFFFF" d="M165.046,8.069l-7.8,44.4h-1.2l7.8-44.4H165.046z"/>
	<path fill="#FFFFFF" d="M194.176,21.239c1.898,1.06,3.318,2.451,4.26,4.17c0.939,1.72,1.41,3.621,1.41,5.7
		c0,0.52-0.08,1.34-0.24,2.459c-0.281,1.44-0.561,2.521-0.84,3.24h-29.04c-0.201,1.32-0.3,2.421-0.3,3.3
		c0,3.841,1.14,6.75,3.42,8.73c2.28,1.979,5.16,2.97,8.64,2.97c3.64,0,6.87-0.93,9.69-2.79c2.821-1.859,4.77-4.369,5.85-7.53h1.199
		c-1.16,3.4-3.238,6.15-6.239,8.25c-3,2.101-6.561,3.15-10.68,3.15c-3.96,0-7.12-1.13-9.48-3.39c-2.36-2.26-3.54-5.39-3.54-9.391
		c0-1.2,0.12-2.479,0.36-3.84c0.6-3.399,1.79-6.36,3.57-8.88c1.779-2.52,3.969-4.44,6.57-5.76c2.6-1.32,5.4-1.98,8.4-1.98
		C189.945,19.649,192.275,20.179,194.176,21.239z M198.705,31.529c0-3.56-1.119-6.25-3.359-8.07c-2.241-1.82-5.021-2.73-8.34-2.73
		c-2.56,0-5.021,0.551-7.38,1.65c-2.361,1.101-4.41,2.77-6.15,5.01c-1.74,2.241-2.91,5.021-3.51,8.34h28.201
		C198.525,34.169,198.705,32.769,198.705,31.529z"/>
</g>
</svg>
