<?xml version="1.0" encoding="utf-8"?>
<!-- Generator: Adobe Illustrator 16.0.0, SVG Export Plug-In . SVG Version: 6.00 Build 0)  -->
<!DOCTYPE svg PUBLIC "-//W3C//DTD SVG 1.1//EN" "http://www.w3.org/Graphics/SVG/1.1/DTD/svg11.dtd">
<svg version="1.1" id="Layer_1" xmlns="http://www.w3.org/2000/svg" xmlns:xlink="http://www.w3.org/1999/xlink" x="0px" y="0px"
	 width="24px" height="24px" viewBox="0 0 24 24" enable-background="new 0 0 24 24" xml:space="preserve">
<path d="M17.493,10.993L17.49,7c0-1.1-0.891-2-1.99-2h-4h-3h-4C3.4,5,2.51,5.9,2.51,7l-0.003,3.993L2.5,11v10c0,1.1,0.891,2,1.99,2
	H4.5h11h0.01c1.1,0,1.99-0.9,1.99-2V11L17.493,10.993z M15.5,12v9h-11v-9V7h5h1h5V12z"/>
<path d="M20.493,7.993L20.49,4c0-1.1-0.891-2-1.99-2h-4h-3h-4C6.4,2,5.51,2.9,5.51,4H7.5h5h1h5v5v9v2h0.01c1.1,0,1.99-0.9,1.99-2V8
	L20.493,7.993z"/>
<line fill="none" stroke="#000000" stroke-width="2" stroke-linecap="round" stroke-miterlimit="10" x1="4" y1="14" x2="10" y2="14"/>
<line fill="none" stroke="#000000" stroke-width="2" stroke-linecap="round" stroke-miterlimit="10" x1="13.259" y1="14" x2="16.064" y2="14"/>
<path d="M10,10c-1.474,0-2.75,0.81-3.443,2H10c1.103,0,2,0.897,2,2s-0.897,2-2,2H6.556c0.694,1.189,1.97,2,3.444,2
	c2.206,0,4-1.794,4-4C14,11.794,12.206,10,10,10z"/>
</svg>
