<?xml version="1.0" encoding="utf-8"?>
<!-- Generator: Adobe Illustrator 16.0.0, SVG Export Plug-In . SVG Version: 6.00 Build 0)  -->
<!DOCTYPE svg PUBLIC "-//W3C//DTD SVG 1.1//EN" "http://www.w3.org/Graphics/SVG/1.1/DTD/svg11.dtd">
<svg version="1.1" id="Layer_1" xmlns="http://www.w3.org/2000/svg" xmlns:xlink="http://www.w3.org/1999/xlink" x="0px" y="0px"
	 width="24px" height="24px" viewBox="0 0 24 24" enable-background="new 0 0 24 24" xml:space="preserve">
<path d="M19.495,8.991l-0.003-3.993c0-1.1-0.891-2-1.99-2h-4h-3h-4c-1.1,0-1.99,0.9-1.99,2L4.509,8.991L4.502,8.998v10
	c0,1.1,0.891,2,1.99,2h0.01h11h0.01c1.1,0,1.99-0.9,1.99-2v-10L19.495,8.991z M17.502,9.998v9h-11v-9v-5h5h1h5V9.998z"/>
<line fill="none" stroke="#000000" stroke-width="2" stroke-linecap="round" stroke-miterlimit="10" x1="6.002" y1="11.998" x2="12.002" y2="11.998"/>
<line fill="none" stroke="#000000" stroke-width="2" stroke-linecap="round" stroke-miterlimit="10" x1="15.261" y1="11.998" x2="18.066" y2="11.998"/>
<path d="M12.002,7.998c-1.474,0-2.75,0.81-3.443,2h3.443c1.103,0,2,0.896,2,2s-0.897,2-2,2H8.558c0.694,1.189,1.97,2,3.444,2
	c2.206,0,4-1.794,4-4S14.208,7.998,12.002,7.998z"/>
</svg>
