<?xml version="1.0" encoding="utf-8"?>
<!-- Generator: Adobe Illustrator 16.0.0, SVG Export Plug-In . SVG Version: 6.00 Build 0)  -->
<!DOCTYPE svg PUBLIC "-//W3C//DTD SVG 1.1//EN" "http://www.w3.org/Graphics/SVG/1.1/DTD/svg11.dtd">
<svg version="1.1" id="Layer_1" xmlns="http://www.w3.org/2000/svg" xmlns:xlink="http://www.w3.org/1999/xlink" x="0px" y="0px"
	 width="24px" height="24px" viewBox="0 0 24 24" enable-background="new 0 0 24 24" xml:space="preserve" fill="#FFFFFF">
<path d="M16,1H4C2.9,1,2,1.9,2,3v14h2V3h12V1z"/>
<path d="M20.993,10.993L20.99,7c0-1.1-0.891-2-1.99-2h-4h-3H8C6.9,5,6.01,5.9,6.01,7l-0.003,3.993L6,11v10c0,1.1,0.891,2,1.99,2H8
	h11h0.01c1.1,0,1.99-0.9,1.99-2V11L20.993,10.993z M19,12v9H8v-9V7h5h1h5V12z"/>
<rect x="10" y="9" width="2" height="2"/>
<rect x="14" y="9" width="3" height="2"/>
<rect x="10" y="13" width="2" height="2"/>
<rect x="14" y="13" width="3" height="2"/>
<rect x="10" y="17" width="2" height="2"/>
<rect x="14" y="17" width="3" height="2"/>
</svg>
