<?xml version="1.0" encoding="UTF-8" standalone="no"?>
<svg
   xmlns:dc="http://purl.org/dc/elements/1.1/"
   xmlns:cc="http://creativecommons.org/ns#"
   xmlns:rdf="http://www.w3.org/1999/02/22-rdf-syntax-ns#"
   xmlns:svg="http://www.w3.org/2000/svg"
   xmlns="http://www.w3.org/2000/svg"
   xmlns:sodipodi="http://sodipodi.sourceforge.net/DTD/sodipodi-0.dtd"
   xmlns:inkscape="http://www.inkscape.org/namespaces/inkscape"
   version="1.1"
   id="Layer_1"
   x="0px"
   y="0px"
   viewBox="0 0 123.64451 57.061291"
   xml:space="preserve"
   sodipodi:docname="vst.svg"
   width="123.64451"
   height="57.061291"
   inkscape:version="1.0.2 (e86c870879, 2021-01-15)"><metadata
   id="metadata1016"><rdf:RDF><cc:Work
       rdf:about=""><dc:format>image/svg+xml</dc:format><dc:type
         rdf:resource="http://purl.org/dc/dcmitype/StillImage" /><dc:title></dc:title></cc:Work></rdf:RDF></metadata><defs
   id="defs1014" /><sodipodi:namedview
   pagecolor="#ffffff"
   bordercolor="#666666"
   borderopacity="1"
   objecttolerance="10"
   gridtolerance="10"
   guidetolerance="10"
   inkscape:pageopacity="0"
   inkscape:pageshadow="2"
   inkscape:window-width="1920"
   inkscape:window-height="1019"
   id="namedview1012"
   showgrid="false"
   fit-margin-top="2"
   fit-margin-left="2"
   fit-margin-right="2"
   fit-margin-bottom="2"
   inkscape:zoom="7.3537604"
   inkscape:cx="51.146503"
   inkscape:cy="48.566934"
   inkscape:window-x="0"
   inkscape:window-y="0"
   inkscape:window-maximized="1"
   inkscape:current-layer="Layer_1" />
<style
   type="text/css"
   id="style849">
	.st0{fill-rule:evenodd;clip-rule:evenodd;fill:#030304;stroke:#FFFFFF;stroke-width:0.8877;stroke-miterlimit:10;}
	.st1{fill-rule:evenodd;clip-rule:evenodd;fill:#FFFFFF;}
	.st2{fill:#030304;}
	.st3{fill-rule:evenodd;clip-rule:evenodd;fill:#030304;}
	.st4{fill:#FFFFFF;}
</style>



<path
   class="st3"
   d="m 72.920741,18.998501 h 36.199999 l 0.1,6.4 h -1.7 c -0.6,-2.2 -2.2,-3.7 -4.9,-4.4 -1.5,-0.4 -3.799999,-0.7 -6.799999,-0.7 v 16 c 0,1.1 0.4,1.6 1.1,1.9 0.8,0.4 2.4,0.4 4.799999,0.4 v 1.4 H 80.420741 v -1.4 c 2.3,0 3.9,-0.2 4.7,-0.5 0.8,-0.4 1.2,-0.7 1.2,-1.8 v -16 c -2.9,0 -5.2,0.3 -6.7,0.7 -2.9,0.8 -4.5,2.3 -4.9,4.4 -0.5,0 -1.7,0 -1.7,0 z"
   id="path879" />
<g
   id="g885"
   transform="translate(3.6207414,-0.00149918)">
	<path
   class="st3"
   d="m 40.9,29.8 3.3,0.4 0.1,0.1 c 1.3,2.7 3.4,4.8 6.3,6 2.9,1.3 6.3,1.9 10.1,1.9 3.6,0 6.3,-0.4 7.8,-1.3 1.5,-0.8 2.2,-1.7 2.2,-2.6 0,-1 -0.8,-1.9 -2.3,-2.5 C 67.3,31.3 65.1,30.7 61.9,30 L 56.6,28.8 C 51.4,27.6 47.6,26.4 45.5,25.2 43.1,24 42,22.5 42,20.7 c 0,-1.9 1.5,-3.7 4.4,-5.4 2.9,-1.6 7.3,-2.4 13.2,-2.4 3,0 5.9,0.2 8.7,0.6 1.8,0.3 4.3,0.6 4.8,0.6 1.1,0 1.5,-0.2 1.7,-0.3 0.3,-0.2 0.6,-0.5 0.8,-0.9 l 0.1,-0.1 h 2.8 v 8.7 h -2.6 l -0.1,-0.1 c -1.1,-1.8 -3,-3.5 -5.7,-4.8 -2.7,-1.4 -6,-2 -9.8,-2 -2.7,0 -4.9,0.3 -6.4,1 -1.5,0.6 -2.2,1.4 -2.2,2.3 0,1.1 0.7,1.9 2.1,2.5 1.5,0.6 4.8,1.5 9.8,2.6 l 6.1,1.4 c 2.7,0.6 4.9,1.3 6.5,2.1 3.1,1.5 4.7,3.3 4.7,5.4 0,2 -1.7,3.9 -5,5.6 C 72.4,39.2 67.2,40 60,40 58.4,40 56.7,39.9 55,39.8 53.3,39.7 51.6,39.4 50,39.2 l -1.6,-0.3 c -0.4,0 -0.7,-0.1 -1,-0.1 -0.3,0 -0.6,-0.1 -0.9,-0.1 -0.8,0 -1.3,0.1 -1.6,0.3 -0.3,0.2 -0.5,0.5 -0.8,0.9 V 40 h -3.2 z"
   id="path881" />
	<path
   class="st4"
   d="m 78.1,13.1 v 8.2 h -2.3 c -1.1,-1.9 -3,-3.5 -5.7,-4.9 -2.7,-1.4 -6,-2.1 -9.9,-2.1 -2.8,0 -4.9,0.3 -6.5,1 -1.6,0.7 -2.4,1.5 -2.4,2.5 0,1.2 0.8,2.1 2.3,2.7 1.5,0.6 4.8,1.5 9.9,2.6 l 6.1,1.4 c 2.7,0.6 4.9,1.3 6.5,2.1 3,1.4 4.5,3.2 4.5,5.2 0,1.9 -1.6,3.7 -4.9,5.4 -3.2,1.7 -8.4,2.5 -15.5,2.5 -1.6,0 -3.3,-0.1 -5,-0.2 -1.7,-0.1 -3.3,-0.3 -5,-0.6 l -1.6,-0.3 c -0.4,0 -0.7,-0.1 -1.1,-0.1 -0.3,0 -0.6,-0.1 -0.9,-0.1 -0.8,0 -1.4,0.1 -1.7,0.3 -0.3,0.2 -0.6,0.5 -0.8,1 H 41.2 V 30 l 2.9,0.4 c 1.3,2.8 3.4,4.9 6.4,6.1 3,1.3 6.3,1.9 10.1,1.9 3.7,0 6.3,-0.4 7.9,-1.3 1.6,-0.9 2.3,-1.8 2.3,-2.8 0,-1.1 -0.8,-2 -2.5,-2.8 C 67.2,31 65,30.4 61.8,29.7 l -5.3,-1.2 c -5.2,-1.2 -8.9,-2.4 -11.1,-3.6 -2.1,-1.2 -3.2,-2.6 -3.2,-4.4 0,-1.8 1.4,-3.6 4.2,-5.2 2.9,-1.6 7.2,-2.4 13.1,-2.4 3,0 5.9,0.2 8.6,0.6 2.8,0.4 4.4,0.6 4.8,0.6 0.9,0 1.5,-0.1 1.9,-0.3 0.3,-0.2 0.6,-0.6 0.8,-1 h 2.5 m 0.4,-0.2 H 78 75.6 75.3 l -0.1,0.2 c -0.2,0.3 -0.4,0.6 -0.7,0.8 -0.1,0.1 -0.5,0.3 -1.6,0.3 -0.5,0 -3.7,-0.5 -4.7,-0.6 -2.8,-0.4 -5.7,-0.6 -8.7,-0.6 -5.9,0 -10.4,0.8 -13.3,2.5 -3,1.7 -4.5,3.5 -4.5,5.6 0,1.9 1.2,3.5 3.5,4.8 2.2,1.2 5.9,2.4 11.2,3.6 l 5.3,1.2 c 3.2,0.7 5.4,1.3 6.5,1.8 1.4,0.6 2.2,1.4 2.2,2.3 0,0.8 -0.7,1.6 -2.1,2.4 -1.5,0.8 -4.1,1.2 -7.7,1.2 -3.7,0 -7.1,-0.6 -10,-1.9 C 47.8,35 45.7,33 44.5,30.3 L 44.3,30 H 44 l -2.9,-0.4 -0.5,-0.1 v 0.5 9.7 0.5 h 0.5 2.9 0.3 L 44.4,40 c 0.2,-0.4 0.4,-0.6 0.7,-0.8 0.1,-0.1 0.5,-0.3 1.5,-0.3 0.2,0 0.5,0 0.8,0.1 0.3,0 0.7,0.1 1.1,0.1 l 1.6,0.3 c 1.6,0.3 3.3,0.5 5,0.6 1.7,0.1 3.4,0.2 5,0.2 7.2,0 12.5,-0.9 15.8,-2.6 3.4,-1.8 5.1,-3.7 5.1,-5.8 0,-2.2 -1.6,-4.1 -4.8,-5.6 -1.6,-0.8 -3.9,-1.5 -6.6,-2.1 l -6.1,-1.4 c -5,-1.1 -8.3,-2 -9.8,-2.6 -1.3,-0.5 -2,-1.3 -2,-2.2 0,-0.8 0.7,-1.5 2.1,-2.1 1.5,-0.7 3.7,-1 6.4,-1 3.8,0 7.1,0.7 9.7,2 2.7,1.3 4.5,2.9 5.6,4.7 l 0.1,0.2 h 0.3 2.3 0.5 V 21.2 13 12.6 Z"
   id="path883" />
</g>
<g
   id="g893"
   transform="translate(3.6207414,-0.00149918)">
	<g
   id="g891">
		<path
   class="st3"
   d="M 28.3,40.6 13.2,22.9 C 12.6,22.2 12,21.7 11.4,21.4 10.8,21.1 9.1,20.9 7.6,20.9 H 7.4 v -1.4 h 21 V 21 h -0.2 c -2.1,0.1 -3.4,0.1 -4.1,0.3 -0.7,0.1 -0.7,0.4 -0.7,0.7 0,0.1 0,0.3 0,0.4 0,0.1 0.1,0.2 0.2,0.3 l 8.8,10.8 h 0.1 l 7.6,-9.9 c 0.2,-0.2 0.3,-0.4 0.4,-0.6 0.3,-0.4 0.3,-0.7 0.3,-0.8 0,-0.3 -0.1,-0.7 -0.8,-0.8 -0.6,-0.1 -2,-0.2 -4,-0.3 H 35.8 V 19.6 H 49.6 V 21 h -0.2 c -1.5,0.1 -3.4,0.3 -4,0.6 -0.7,0.3 -1.3,0.9 -2,1.7 L 30.1,40.6 Z"
   id="path887" />
		<path
   class="st4"
   d="m 49.5,19.7 v 1 c -1.4,0.1 -3.4,0.3 -4.1,0.6 -0.7,0.3 -1.4,0.9 -2.1,1.8 L 30,40.4 H 28.4 L 13.3,22.7 C 12.7,22 12.1,21.5 11.4,21.2 10.8,20.9 8.9,20.7 7.5,20.6 v -1 H 28 v 1 c -2.1,0.1 -3.5,0.2 -4.1,0.3 -0.6,0.1 -0.9,0.4 -0.9,0.9 0,0.1 0,0.3 0.1,0.4 0.1,0.1 0.2,0.3 0.3,0.4 l 8.9,10.9 h 0.3 l 7.7,-9.9 c 0.2,-0.2 0.3,-0.4 0.5,-0.7 0.2,-0.4 0.3,-0.7 0.3,-0.9 0,-0.6 -0.3,-0.9 -1,-1 -0.6,-0.1 -2,-0.3 -4,-0.3 v -1 H 49.5 M 50,19.2 H 49.5 36.2 35.7 v 0.5 1 0.5 h 0.5 c 2,0.1 3.3,0.2 3.9,0.3 0.6,0.1 0.6,0.4 0.6,0.6 0,0.1 0,0.3 -0.3,0.7 -0.1,0.2 -0.3,0.4 -0.4,0.6 L 32.5,33 23.8,22.4 c -0.1,-0.1 -0.2,-0.2 -0.2,-0.3 0,-0.1 0,-0.2 0,-0.3 0,-0.1 0,-0.3 0.5,-0.4 0.6,-0.1 1.9,-0.2 4,-0.3 h 0.5 v -0.5 -1 -0.5 H 28.1 7.6 7.1 v 0.5 1 0.4 h 0.4 c 1.7,0.1 3.2,0.3 3.7,0.5 0.6,0.3 1.2,0.8 1.7,1.4 l 15.1,17.6 0.1,0.2 h 0.2 1.7 0.2 l 0.1,-0.2 13.4,-17.3 c 0.6,-0.8 1.3,-1.3 1.9,-1.6 0.5,-0.3 2.1,-0.5 3.9,-0.6 h 0.4 v -0.4 -1 -0.4 z"
   id="path889" />
	</g>
</g>
<g
   id="g1009"
   transform="translate(3.6207414,-0.00149918)">
	<path
   class="st4"
   d="m 14.1,87.1 h -0.5 l -1.2,-7.3 h 0.5 l 1,6.3 1.1,-6.3 h 0.5 z"
   id="path895" />
	<path
   class="st4"
   d="m 16.8,84.7 v 0.6 c 0,0.6 0,0.9 0.2,1.1 0.2,0.3 0.6,0.4 0.9,0.4 0.7,0 0.9,-0.5 0.9,-1.2 0,-0.8 -0.2,-1.1 -1.1,-2 -0.8,-0.8 -1.3,-1.3 -1.3,-2.3 0,-0.6 0.1,-1.6 1.4,-1.6 1.3,0 1.4,1 1.4,1.7 v 0.5 h -0.5 v -0.7 c 0,-0.4 0,-1.1 -0.9,-1.1 -0.6,0 -0.9,0.4 -0.9,1.1 0,0.7 0.1,1 1.2,2.1 0.8,0.8 1.1,1.2 1.1,2.1 0,0.7 -0.1,1.7 -1.5,1.7 -0.9,0 -1.5,-0.4 -1.5,-1.5 v -1 h 0.6 z"
   id="path897" />
	<path
   class="st4"
   d="m 21.7,80.2 v 6.9 H 21.2 V 80.2 H 19.9 V 79.7 H 23 v 0.5 z"
   id="path899" />
	<path
   class="st4"
   d="m 25.8,81.3 v -0.8 h 0.4 v 0.8 z m 0,5.8 v -5.2 h 0.4 v 5.2 z"
   id="path901" />
	<path
   class="st4"
   d="m 27.6,85.3 v 0.5 c 0,0.3 0,1 0.8,1 0.4,0 0.8,-0.2 0.8,-0.9 0,-0.5 -0.1,-0.7 -0.9,-1.3 -0.6,-0.5 -0.9,-0.8 -0.9,-1.6 0,-0.4 0.1,-1.1 1.1,-1.1 1.1,0 1.1,0.8 1.1,1.2 v 0.4 h -0.4 v -0.4 c 0,-0.6 -0.2,-0.8 -0.6,-0.8 -0.6,0 -0.7,0.4 -0.7,0.7 0,0.5 0,0.6 1,1.4 0.5,0.4 0.8,0.7 0.8,1.4 0,0.8 -0.3,1.3 -1.2,1.3 -1.1,0 -1.2,-0.6 -1.2,-1.5 v -0.4 h 0.3 z"
   id="path903" />
	<path
   class="st4"
   d="m 35.1,87.1 c -0.4,0 -0.6,-0.1 -0.7,-0.4 -0.2,0.1 -0.5,0.4 -1,0.4 -0.7,0 -1,-0.6 -1,-1.2 0,-1.5 1.4,-1.6 2,-2.2 V 83 c 0,-0.4 -0.1,-0.7 -0.6,-0.7 -0.5,0 -0.7,0.3 -0.7,1 v 0.3 h -0.4 v -0.3 c 0,-1 0.4,-1.4 1.2,-1.4 0.7,0 1.1,0.4 1.1,1.1 v 3.6 c 0,0.2 0.1,0.2 0.3,0.2 z m -0.7,-2.9 c -0.3,0.2 -0.6,0.3 -0.9,0.5 -0.5,0.3 -0.7,0.6 -0.7,1.2 0,0.2 0,0.8 0.7,0.8 0.4,0 0.7,-0.2 0.9,-0.5 z"
   id="path905" />
	<path
   class="st4"
   d="m 38.5,81.9 v 0.9 c 0.2,-0.6 0.7,-0.9 1.1,-1.1 v 0.6 c -0.1,0 -0.3,0.1 -0.4,0.2 -0.4,0.2 -0.6,0.8 -0.7,0.9 v 3.7 H 38 v -5.2 z"
   id="path907" />
	<path
   class="st4"
   d="m 42.6,85.9 c 0,0.6 -0.3,1.2 -1.2,1.2 -0.7,0 -1.2,-0.4 -1.2,-1.2 v -2.8 c 0,-0.6 0.3,-1.2 1.2,-1.2 0.8,0 1.2,0.4 1.2,1.4 v 1.3 h -2 v 1.3 c 0,0.3 0.1,0.9 0.7,0.9 0.7,0 0.8,-0.6 0.8,-1.1 v -0.4 h 0.4 v 0.6 z m -0.5,-2.8 c 0,-0.6 -0.3,-0.9 -0.7,-0.9 -0.5,0 -0.8,0.4 -0.8,0.9 v 1 h 1.5 z"
   id="path909" />
	<path
   class="st4"
   d="m 46,87.5 c 0,0.9 -0.6,1.3 -1.3,1.3 -0.4,0 -0.9,-0.1 -1,-0.5 C 43.6,88.2 43.6,88 43.6,87.7 H 44 c 0,0 0,0.2 0.1,0.4 0.2,0.3 0.6,0.3 0.6,0.3 0.1,0 0.8,-0.1 0.8,-0.8 v -0.9 c -0.1,0.1 -0.4,0.5 -0.9,0.5 -0.7,0 -1,-0.6 -1,-1.2 v -3 c 0,-0.9 0.5,-1.2 1.1,-1.2 0.5,0 0.8,0.3 0.9,0.5 V 81.9 H 46 Z M 45.6,83 c -0.1,-0.4 -0.4,-0.7 -0.8,-0.7 -0.6,0 -0.7,0.5 -0.7,0.9 v 2.6 c 0,0.7 0.3,0.9 0.7,0.9 0.3,0 0.7,-0.2 0.8,-0.8 z"
   id="path911" />
	<path
   class="st4"
   d="m 47.2,81.3 v -0.8 h 0.4 v 0.8 z m 0,5.8 v -5.2 h 0.4 v 5.2 z"
   id="path913" />
	<path
   class="st4"
   d="m 49,85.3 v 0.5 c 0,0.3 0,1 0.8,1 0.4,0 0.8,-0.2 0.8,-0.9 0,-0.5 -0.1,-0.7 -0.9,-1.3 -0.6,-0.5 -0.9,-0.8 -0.9,-1.6 0,-0.4 0.1,-1.1 1.1,-1.1 1.1,0 1.1,0.8 1.1,1.2 v 0.4 h -0.4 v -0.4 c 0,-0.6 -0.2,-0.8 -0.6,-0.8 -0.6,0 -0.7,0.4 -0.7,0.7 0,0.5 0,0.6 1,1.4 0.5,0.4 0.8,0.7 0.8,1.4 0,0.8 -0.3,1.3 -1.2,1.3 -1.1,0 -1.2,-0.6 -1.2,-1.5 V 85.2 H 49 Z"
   id="path915" />
	<path
   class="st4"
   d="m 51.5,81.9 h 0.6 v -1.4 h 0.4 v 1.4 h 0.8 v 0.4 h -0.8 v 4.1 c 0,0.3 0.3,0.3 0.4,0.3 0.1,0 0.3,0 0.4,0 v 0.4 c -0.2,0 -0.3,0 -0.5,0 -0.6,0 -0.8,-0.2 -0.8,-0.6 v -4.2 h -0.6 v -0.4 z"
   id="path917" />
	<path
   class="st4"
   d="m 56.3,85.9 c 0,0.6 -0.3,1.2 -1.2,1.2 -0.7,0 -1.2,-0.4 -1.2,-1.2 v -2.8 c 0,-0.6 0.3,-1.2 1.2,-1.2 0.8,0 1.2,0.4 1.2,1.4 v 1.3 h -2 v 1.3 c 0,0.3 0.1,0.9 0.7,0.9 0.7,0 0.8,-0.6 0.8,-1.1 v -0.4 h 0.4 v 0.6 z m -0.4,-2.8 c 0,-0.6 -0.3,-0.9 -0.7,-0.9 -0.5,0 -0.8,0.4 -0.8,0.9 v 1 h 1.5 z"
   id="path919" />
	<path
   class="st4"
   d="m 57.8,81.9 v 0.9 c 0.2,-0.6 0.7,-0.9 1.1,-1.1 v 0.6 c -0.1,0 -0.3,0.1 -0.4,0.2 -0.4,0.2 -0.6,0.8 -0.7,0.9 v 3.7 h -0.4 v -5.2 z"
   id="path921" />
	<path
   class="st4"
   d="m 62,85.9 c 0,0.6 -0.3,1.2 -1.2,1.2 -0.7,0 -1.2,-0.4 -1.2,-1.2 v -2.8 c 0,-0.6 0.3,-1.2 1.2,-1.2 0.8,0 1.2,0.4 1.2,1.4 v 1.3 h -2 v 1.3 c 0,0.3 0.1,0.9 0.7,0.9 0.7,0 0.8,-0.6 0.8,-1.1 V 85.3 H 62 Z m -0.5,-2.8 c 0,-0.6 -0.3,-0.9 -0.7,-0.9 -0.5,0 -0.8,0.4 -0.8,0.9 v 1 h 1.5 z"
   id="path923" />
	<path
   class="st4"
   d="m 65,87.1 v -0.6 c -0.1,0.2 -0.4,0.6 -1,0.6 -0.5,0 -1,-0.3 -1,-1.2 v -2.8 c 0,-0.9 0.5,-1.3 1.1,-1.3 0.6,0 0.8,0.4 0.9,0.5 v -2.6 h 0.4 V 87 H 65 Z m 0,-3.9 c -0.1,-0.5 -0.3,-0.9 -0.8,-0.9 -0.5,0 -0.7,0.4 -0.7,0.8 v 2.7 c 0,0.3 0.1,0.9 0.7,0.9 0.4,0 0.7,-0.4 0.8,-0.8 z"
   id="path925" />
	<path
   class="st4"
   d="m 68.2,81.9 h 0.6 v -1.4 h 0.4 v 1.4 H 70 v 0.4 h -0.8 v 4.1 c 0,0.3 0.3,0.3 0.4,0.3 0.1,0 0.3,0 0.4,0 v 0.4 c -0.2,0 -0.3,0 -0.5,0 -0.6,0 -0.8,-0.2 -0.8,-0.6 v -4.2 h -0.6 v -0.4 z"
   id="path927" />
	<path
   class="st4"
   d="m 71.1,81.9 v 0.9 c 0.2,-0.6 0.7,-0.9 1.1,-1.1 v 0.6 c -0.1,0 -0.3,0.1 -0.4,0.2 -0.4,0.2 -0.6,0.8 -0.7,0.9 v 3.7 h -0.4 v -5.2 z"
   id="path929" />
	<path
   class="st4"
   d="m 75.4,87.1 c -0.4,0 -0.6,-0.1 -0.7,-0.4 -0.2,0.1 -0.5,0.4 -1,0.4 -0.7,0 -1,-0.6 -1,-1.2 0,-1.5 1.4,-1.6 2,-2.2 V 83 c 0,-0.4 -0.1,-0.7 -0.6,-0.7 -0.5,0 -0.7,0.3 -0.7,1 v 0.3 H 73 v -0.3 c 0,-1 0.4,-1.4 1.2,-1.4 0.8,0 1.1,0.4 1.1,1.1 v 3.6 c 0,0.2 0.1,0.2 0.3,0.2 z m -0.7,-2.9 c -0.3,0.2 -0.6,0.3 -0.9,0.5 -0.5,0.3 -0.7,0.6 -0.7,1.2 0,0.2 0,0.8 0.7,0.8 0.4,0 0.7,-0.2 0.9,-0.5 z"
   id="path931" />
	<path
   class="st4"
   d="m 78.3,87.1 v -0.6 c -0.1,0.2 -0.4,0.6 -1,0.6 -0.5,0 -1,-0.3 -1,-1.2 v -2.8 c 0,-0.9 0.5,-1.3 1.1,-1.3 0.6,0 0.8,0.4 0.9,0.5 v -2.6 h 0.4 V 87 h -0.4 z m -0.1,-3.9 c -0.1,-0.5 -0.3,-0.9 -0.8,-0.9 -0.5,0 -0.7,0.4 -0.7,0.8 v 2.7 c 0,0.3 0.1,0.9 0.7,0.9 0.4,0 0.8,-0.4 0.8,-0.8 z"
   id="path933" />
	<path
   class="st4"
   d="m 82.2,85.9 c 0,0.6 -0.3,1.2 -1.2,1.2 -0.7,0 -1.2,-0.4 -1.2,-1.2 v -2.8 c 0,-0.6 0.3,-1.2 1.2,-1.2 0.8,0 1.2,0.4 1.2,1.4 v 1.3 h -2 v 1.3 c 0,0.3 0.1,0.9 0.7,0.9 0.7,0 0.8,-0.6 0.8,-1.1 v -0.4 h 0.4 v 0.6 z m -0.5,-2.8 c 0,-0.6 -0.3,-0.9 -0.7,-0.9 -0.5,0 -0.8,0.4 -0.8,0.9 v 1 h 1.5 z"
   id="path935" />
	<path
   class="st4"
   d="m 87.2,87.1 v -4 c 0,-0.5 -0.1,-0.9 -0.7,-0.9 -0.4,0 -0.7,0.3 -0.9,0.6 V 87 h -0.4 v -4 c 0,-0.5 -0.2,-0.7 -0.7,-0.7 -0.5,0 -0.8,0.4 -0.8,0.6 v 4.3 H 83.3 V 82 h 0.4 v 0.4 c 0.1,-0.2 0.5,-0.5 1,-0.5 0.6,0 0.8,0.4 0.9,0.6 0.1,-0.2 0.4,-0.6 1.1,-0.6 0.5,0 1,0.3 1,1.2 v 4.2 h -0.5 z"
   id="path937" />
	<path
   class="st4"
   d="m 91.2,87.1 c -0.4,0 -0.6,-0.1 -0.7,-0.4 -0.2,0.1 -0.5,0.4 -1,0.4 -0.7,0 -1,-0.6 -1,-1.2 0,-1.5 1.4,-1.6 2,-2.2 V 83 c 0,-0.4 -0.1,-0.7 -0.6,-0.7 -0.5,0 -0.7,0.3 -0.7,1 v 0.3 h -0.4 v -0.3 c 0,-1 0.4,-1.4 1.2,-1.4 0.7,0 1.1,0.4 1.1,1.1 v 3.6 c 0,0.2 0.1,0.2 0.3,0.2 z m -0.6,-2.9 c -0.3,0.2 -0.6,0.3 -0.9,0.5 -0.5,0.3 -0.7,0.6 -0.7,1.2 0,0.2 0,0.8 0.7,0.8 0.4,0 0.7,-0.2 0.9,-0.5 z"
   id="path939" />
	<path
   class="st4"
   d="m 92.6,81.9 v 0.9 c 0.2,-0.6 0.7,-0.9 1.1,-1.1 v 0.6 c -0.1,0 -0.3,0.1 -0.4,0.2 -0.4,0.2 -0.6,0.8 -0.7,0.9 v 3.7 h -0.4 v -5.2 z"
   id="path941" />
	<path
   class="st4"
   d="m 96.5,87.1 -1.1,-2.8 -0.5,0.8 V 87 h -0.4 v -7.3 h 0.4 v 4.6 l 1.5,-2.5 h 0.5 l -1.2,2 1.3,3.2 h -0.5 z"
   id="path943" />
	<path
   class="st4"
   d="m 102.1,85.7 c 0,1 -0.6,1.4 -1.2,1.4 -0.7,0 -1.2,-0.4 -1.2,-1.1 v -2.9 c 0,-0.6 0.3,-1.3 1.3,-1.3 0.8,0 1.2,0.5 1.2,1.3 v 2.6 z m -0.4,-2.5 c 0,-0.4 -0.1,-0.9 -0.7,-0.9 -0.7,0 -0.8,0.5 -0.8,1 v 2.6 c 0,0.6 0.3,0.8 0.8,0.8 0.7,0 0.8,-0.6 0.8,-0.9 v -2.6 z"
   id="path945" />
	<path
   class="st4"
   d="m 102.8,81.9 h 0.6 v -1.3 c 0,-0.4 0.2,-0.8 0.9,-0.8 0.1,0 0.2,0 0.3,0 v 0.4 c 0,0 -0.1,0 -0.2,0 -0.3,0 -0.6,0.1 -0.6,0.6 v 1.1 h 0.6 v 0.4 h -0.7 v 4.8 h -0.4 v -4.8 h -0.6 v -0.4 z"
   id="path947" />
	<path
   class="st4"
   d="m 6.9,96.7 v 0.6 c 0,0.6 0,0.9 0.2,1.1 0.2,0.3 0.6,0.4 0.9,0.4 0.7,0 0.9,-0.5 0.9,-1.2 0,-0.8 -0.2,-1.1 -1.1,-2 C 7,94.8 6.5,94.3 6.5,93.3 c 0,-0.6 0.1,-1.6 1.4,-1.6 1.3,0 1.4,1 1.4,1.7 v 0.5 H 8.8 v -0.7 c 0,-0.4 0,-1.1 -0.9,-1.1 -0.6,0 -0.9,0.4 -0.9,1.1 0,0.7 0.1,1 1.2,2.1 0.8,0.8 1.1,1.2 1.1,2.1 0,0.7 -0.1,1.7 -1.5,1.7 -0.9,0 -1.5,-0.4 -1.5,-1.5 v -1 h 0.6 z"
   id="path949" />
	<path
   class="st4"
   d="m 9.9,93.9 h 0.6 v -1.4 h 0.4 v 1.4 h 0.8 v 0.4 h -0.8 v 4.1 c 0,0.3 0.3,0.3 0.4,0.3 0.1,0 0.3,0 0.4,0 v 0.4 c -0.2,0 -0.3,0 -0.5,0 -0.6,0 -0.8,-0.2 -0.8,-0.6 V 94.3 H 9.9 Z"
   id="path951" />
	<path
   class="st4"
   d="m 14.7,98 c 0,0.6 -0.3,1.2 -1.2,1.2 -0.7,0 -1.2,-0.4 -1.2,-1.2 v -2.8 c 0,-0.6 0.3,-1.2 1.2,-1.2 0.8,0 1.2,0.4 1.2,1.4 v 1.3 h -2 V 98 c 0,0.3 0.1,0.9 0.7,0.9 0.7,0 0.8,-0.6 0.8,-1.1 v -0.4 h 0.4 V 98 Z m -0.5,-2.8 c 0,-0.6 -0.3,-0.9 -0.7,-0.9 -0.5,0 -0.8,0.4 -0.8,0.9 v 1 h 1.5 z"
   id="path953" />
	<path
   class="st4"
   d="m 15.7,93.3 v -0.8 h 0.4 v 0.8 z m 0,5.9 V 94 h 0.4 v 5.2 z"
   id="path955" />
	<path
   class="st4"
   d="M 19.3,99.2 V 95 c 0,-0.4 -0.1,-0.8 -0.6,-0.8 -0.4,0 -0.7,0.2 -0.9,0.7 v 4.3 H 17.4 V 94 h 0.4 v 0.5 c 0.3,-0.5 0.8,-0.6 1,-0.6 0.4,0 1,0.2 1,1.1 v 4.2 z"
   id="path957" />
	<path
   class="st4"
   d="m 20.9,91.8 h 0.4 v 2.6 c 0.3,-0.4 0.7,-0.5 1,-0.5 0.9,0 1,0.8 1,1.3 v 2.7 c 0,0.5 -0.3,1.2 -1.1,1.2 -0.1,0 -0.6,0 -0.8,-0.5 V 99 h -0.5 z m 0.5,5.9 c 0,0.9 0.6,1 0.8,1 0.5,0 0.7,-0.4 0.7,-1 v -2.6 c 0,-0.2 0,-0.9 -0.7,-0.9 -0.5,0 -0.8,0.4 -0.8,0.9 z"
   id="path959" />
	<path
   class="st4"
   d="m 26.8,98 c 0,0.6 -0.3,1.2 -1.2,1.2 -0.7,0 -1.2,-0.4 -1.2,-1.2 v -2.8 c 0,-0.6 0.3,-1.2 1.2,-1.2 0.8,0 1.2,0.4 1.2,1.4 v 1.3 h -2 V 98 c 0,0.3 0.1,0.9 0.7,0.9 0.7,0 0.8,-0.6 0.8,-1.1 v -0.4 h 0.4 V 98 Z m -0.5,-2.8 c 0,-0.6 -0.3,-0.9 -0.7,-0.9 -0.5,0 -0.8,0.4 -0.8,0.9 v 1 h 1.5 z"
   id="path961" />
	<path
   class="st4"
   d="m 28.3,93.9 v 0.9 c 0.2,-0.6 0.7,-0.9 1.1,-1.1 v 0.6 c -0.1,0 -0.3,0.1 -0.4,0.2 -0.4,0.2 -0.6,0.8 -0.7,0.9 v 3.7 h -0.4 v -5.2 z"
   id="path963" />
	<path
   class="st4"
   d="m 32.5,99.5 c 0,0.9 -0.6,1.3 -1.3,1.3 -0.4,0 -0.9,-0.1 -1,-0.5 -0.1,-0.1 -0.1,-0.3 -0.1,-0.6 h 0.4 c 0,0 0,0.2 0.1,0.4 0.2,0.3 0.6,0.3 0.6,0.3 0.1,0 0.8,-0.1 0.8,-0.8 v -0.9 c -0.1,0.1 -0.4,0.5 -0.9,0.5 -0.7,0 -1,-0.6 -1,-1.2 v -2.9 c 0,-0.9 0.5,-1.2 1.1,-1.2 0.5,0 0.8,0.3 0.9,0.5 V 94 h 0.4 z M 32,95 c -0.1,-0.4 -0.4,-0.7 -0.8,-0.7 -0.6,0 -0.7,0.5 -0.7,0.9 v 2.6 c 0,0.7 0.3,0.9 0.7,0.9 0.3,0 0.7,-0.2 0.8,-0.8 z"
   id="path965" />
	<path
   class="st4"
   d="m 39.3,99.2 c 0,-0.5 0,-5.1 0,-6.8 L 38,99.2 h -0.5 l -1.3,-6.8 v 6.8 h -0.5 c 0,-0.5 0.1,-7.3 0.1,-7.3 h 0.7 l 1.2,6.3 1.2,-6.3 h 0.7 c 0,0.8 0.1,7.3 0.1,7.3 z"
   id="path967" />
	<path
   class="st4"
   d="m 43.3,98 c 0,0.6 -0.3,1.2 -1.2,1.2 -0.7,0 -1.2,-0.4 -1.2,-1.2 v -2.8 c 0,-0.6 0.3,-1.2 1.2,-1.2 0.8,0 1.2,0.4 1.2,1.4 v 1.3 h -2 V 98 c 0,0.3 0.1,0.9 0.7,0.9 0.7,0 0.8,-0.6 0.8,-1.1 v -0.4 h 0.4 V 98 Z m -0.4,-2.8 c 0,-0.6 -0.3,-0.9 -0.7,-0.9 -0.5,0 -0.8,0.4 -0.8,0.9 v 1 h 1.5 z"
   id="path969" />
	<path
   class="st4"
   d="m 46.3,99.2 v -0.6 c -0.1,0.2 -0.4,0.6 -1,0.6 -0.5,0 -1,-0.3 -1,-1.2 v -2.8 c 0,-0.9 0.5,-1.3 1.1,-1.3 0.6,0 0.8,0.4 0.9,0.5 v -2.6 h 0.4 v 7.3 h -0.4 z m 0,-3.9 c -0.1,-0.5 -0.3,-0.9 -0.8,-0.9 -0.5,0 -0.7,0.4 -0.7,0.8 v 2.7 c 0,0.3 0.1,0.9 0.7,0.9 0.4,0 0.7,-0.4 0.8,-0.8 z"
   id="path971" />
	<path
   class="st4"
   d="m 48,93.3 v -0.8 h 0.4 v 0.8 z m 0,5.9 V 94 h 0.4 v 5.2 z"
   id="path973" />
	<path
   class="st4"
   d="m 52,99.2 c -0.4,0 -0.6,-0.1 -0.7,-0.4 -0.2,0.1 -0.5,0.4 -1,0.4 -0.7,0 -1,-0.6 -1,-1.2 0,-1.5 1.4,-1.6 2,-2.2 V 95 c 0,-0.4 -0.1,-0.7 -0.6,-0.7 -0.5,0 -0.7,0.3 -0.7,1 v 0.3 h -0.4 v -0.3 c 0,-1 0.4,-1.4 1.2,-1.4 0.7,0 1.1,0.4 1.1,1.1 v 3.6 c 0,0.2 0.1,0.2 0.3,0.2 z m -0.6,-3 c -0.3,0.2 -0.6,0.3 -0.9,0.5 -0.5,0.3 -0.7,0.6 -0.7,1.2 0,0.2 0,0.8 0.7,0.8 0.4,0 0.7,-0.2 0.9,-0.5 z"
   id="path975" />
	<path
   class="st4"
   d="m 56.3,92.3 v 6.9 h -0.5 v -6.9 h -1.3 v -0.5 h 3.1 v 0.5 z"
   id="path977" />
	<path
   class="st4"
   d="m 60,98 c 0,0.6 -0.3,1.2 -1.2,1.2 -0.7,0 -1.2,-0.4 -1.2,-1.2 v -2.8 c 0,-0.6 0.3,-1.2 1.2,-1.2 0.8,0 1.2,0.4 1.2,1.4 v 1.3 H 58 V 98 c 0,0.3 0.1,0.9 0.7,0.9 0.7,0 0.8,-0.6 0.8,-1.1 V 97.4 H 60 Z m -0.4,-2.8 c 0,-0.6 -0.3,-0.9 -0.7,-0.9 -0.5,0 -0.8,0.4 -0.8,0.9 v 1 h 1.5 z"
   id="path979" />
	<path
   class="st4"
   d="m 63.5,97.8 c 0,0.8 -0.3,1.4 -1.3,1.4 -0.9,0 -1.2,-0.7 -1.2,-1.3 v -2.6 c 0,-1 0.5,-1.3 1.2,-1.3 0.8,0 1.2,0.5 1.2,1.4 v 0.5 H 63 v -0.4 c 0,-0.5 -0.1,-1.1 -0.8,-1.1 -0.7,0 -0.8,0.6 -0.8,1 v 2.3 c 0,0.5 0,1.2 0.8,1.2 0.6,0 0.7,-0.5 0.7,-0.9 v -0.8 h 0.5 v 0.6 z"
   id="path981" />
	<path
   class="st4"
   d="m 66.4,99.2 v -3.9 c 0,-0.5 -0.1,-0.9 -0.7,-0.9 -0.5,0 -0.8,0.4 -0.8,0.7 v 4.2 H 64.5 V 92 h 0.4 v 2.5 C 65,94.4 65.3,94 65.8,94 c 0.4,0 1,0.2 1,1.1 v 4.2 h -0.4 z"
   id="path983" />
	<path
   class="st4"
   d="M 70,99.2 V 95 c 0,-0.4 -0.1,-0.8 -0.6,-0.8 -0.4,0 -0.7,0.2 -0.9,0.7 v 4.3 H 68 V 94 h 0.4 v 0.5 c 0.3,-0.5 0.8,-0.6 1,-0.6 0.4,0 1,0.2 1,1.1 v 4.2 z"
   id="path985" />
	<path
   class="st4"
   d="m 74,97.8 c 0,1 -0.6,1.4 -1.2,1.4 -0.7,0 -1.2,-0.4 -1.2,-1.1 v -2.9 c 0,-0.6 0.3,-1.3 1.3,-1.3 0.8,0 1.2,0.5 1.2,1.3 v 2.6 z m -0.5,-2.6 c 0,-0.4 -0.1,-0.9 -0.7,-0.9 -0.7,0 -0.8,0.5 -0.8,1 v 2.6 c 0,0.6 0.3,0.8 0.8,0.8 0.7,0 0.8,-0.6 0.8,-0.9 v -2.6 z"
   id="path987" />
	<path
   class="st4"
   d="m 75,99.2 v -7.3 h 0.4 v 7.3 z"
   id="path989" />
	<path
   class="st4"
   d="m 79.1,97.8 c 0,1 -0.6,1.4 -1.2,1.4 -0.7,0 -1.2,-0.4 -1.2,-1.1 v -2.9 c 0,-0.6 0.3,-1.3 1.3,-1.3 0.8,0 1.2,0.5 1.2,1.3 v 2.6 z m -0.5,-2.6 c 0,-0.4 -0.1,-0.9 -0.7,-0.9 -0.7,0 -0.8,0.5 -0.8,1 v 2.6 c 0,0.6 0.3,0.8 0.8,0.8 0.7,0 0.8,-0.6 0.8,-0.9 v -2.6 z"
   id="path991" />
	<path
   class="st4"
   d="m 82.6,99.5 c 0,0.9 -0.6,1.3 -1.3,1.3 -0.4,0 -0.9,-0.1 -1,-0.5 -0.1,-0.1 -0.1,-0.3 -0.1,-0.6 h 0.4 c 0,0 0,0.2 0.1,0.4 0.2,0.3 0.6,0.3 0.6,0.3 0.1,0 0.8,-0.1 0.8,-0.8 v -0.9 c -0.1,0.1 -0.4,0.5 -0.9,0.5 -0.8,0 -1,-0.6 -1,-1.2 v -2.9 c 0,-0.9 0.5,-1.2 1.1,-1.2 0.5,0 0.8,0.3 0.9,0.5 V 94 h 0.4 z M 82.2,95 c -0.1,-0.4 -0.4,-0.7 -0.8,-0.7 -0.6,0 -0.7,0.5 -0.7,0.9 v 2.6 c 0,0.7 0.3,0.9 0.7,0.9 0.3,0 0.7,-0.2 0.8,-0.8 z"
   id="path993" />
	<path
   class="st4"
   d="m 83.8,93.3 v -0.8 h 0.4 v 0.8 z m 0,5.9 V 94 h 0.4 v 5.2 z"
   id="path995" />
	<path
   class="st4"
   d="m 87.7,98 c 0,0.6 -0.3,1.2 -1.2,1.2 -0.7,0 -1.2,-0.4 -1.2,-1.2 v -2.8 c 0,-0.6 0.3,-1.2 1.2,-1.2 0.8,0 1.2,0.4 1.2,1.4 v 1.3 h -2 V 98 c 0,0.3 0.1,0.9 0.7,0.9 0.7,0 0.8,-0.6 0.8,-1.1 v -0.4 h 0.4 V 98 Z m -0.4,-2.8 c 0,-0.6 -0.3,-0.9 -0.7,-0.9 -0.5,0 -0.8,0.4 -0.8,0.9 v 1 h 1.5 z"
   id="path997" />
	<path
   class="st4"
   d="m 89,97.3 v 0.5 c 0,0.3 0,1 0.8,1 0.4,0 0.8,-0.2 0.8,-0.9 0,-0.5 -0.1,-0.7 -0.9,-1.3 -0.6,-0.5 -0.9,-0.8 -0.9,-1.6 0,-0.4 0.1,-1.1 1.1,-1.1 1.1,0 1.1,0.8 1.1,1.2 v 0.4 h -0.4 v -0.4 c 0,-0.6 -0.2,-0.8 -0.6,-0.8 -0.6,0 -0.7,0.4 -0.7,0.7 0,0.5 0,0.6 1,1.4 0.5,0.4 0.8,0.7 0.8,1.4 0,0.8 -0.3,1.3 -1.2,1.3 -1.1,0 -1.2,-0.6 -1.2,-1.5 V 97.2 H 89 Z"
   id="path999" />
	<path
   class="st4"
   d="m 96.6,99.2 v -0.6 c -0.1,0.2 -0.5,0.7 -1.2,0.7 -0.4,0 -0.9,-0.2 -1.1,-0.6 C 94.1,98.3 94,98 94,97.3 v -3.9 c 0,-1 0.4,-1.6 1.5,-1.6 1.1,0 1.4,0.7 1.4,1.3 v 1.1 h -0.5 v -0.9 c 0,-0.6 -0.1,-1.1 -1,-1.1 -0.8,0 -1,0.6 -1,1.2 v 3.8 c 0,0.6 0,0.9 0.1,1.2 0.1,0.2 0.3,0.5 0.8,0.5 0.7,0 1,-0.8 1,-1.2 V 96.4 H 95.2 V 96 H 97 v 3.4 h -0.4 z"
   id="path1001" />
	<path
   class="st4"
   d="m 102.1,99.2 v -4 c 0,-0.5 -0.1,-0.9 -0.7,-0.9 -0.4,0 -0.7,0.3 -0.9,0.6 v 4.2 h -0.4 V 95 c 0,-0.5 -0.2,-0.7 -0.7,-0.7 -0.5,0 -0.8,0.4 -0.8,0.6 v 4.3 H 98.2 V 94 h 0.4 v 0.4 c 0.1,-0.2 0.5,-0.5 1,-0.5 0.6,0 0.8,0.4 0.9,0.6 0.1,-0.2 0.4,-0.6 1.1,-0.6 0.5,0 1,0.3 1,1.2 v 4.2 h -0.5 z"
   id="path1003" />
	<path
   class="st4"
   d="m 103.7,91.8 h 0.4 v 2.6 c 0.3,-0.4 0.7,-0.5 1,-0.5 0.9,0 1,0.8 1,1.3 v 2.7 c 0,0.5 -0.3,1.2 -1.1,1.2 -0.1,0 -0.6,0 -0.8,-0.5 V 99 h -0.5 z m 0.5,5.9 c 0,0.9 0.6,1 0.8,1 0.5,0 0.7,-0.4 0.7,-1 v -2.6 c 0,-0.2 0,-0.9 -0.7,-0.9 -0.5,0 -0.8,0.4 -0.8,0.9 z"
   id="path1005" />
	<path
   class="st4"
   d="m 109.6,99.2 v -3.4 h -1.8 v 3.4 h -0.5 v -7 h 0.5 v 3.1 h 1.8 v -3.1 h 0.5 v 7 z"
   id="path1007" />
</g>
<rect
   style="fill:none;fill-rule:evenodd;stroke:#000000;stroke-width:4;stroke-miterlimit:4;stroke-dasharray:none;stroke-opacity:1"
   id="rect1018"
   width="115.64451"
   height="49.061291"
   x="4"
   y="4" /></svg>
