<?xml version="1.0" encoding="UTF-8" standalone="no"?>
<!-- Created with Inkscape (http://www.inkscape.org/) -->

<svg
   width="115.49108"
   height="118.53957"
   viewBox="0 0 30.557013 31.363597"
   version="1.1"
   id="svg1"
   xmlns="http://www.w3.org/2000/svg"
   xmlns:svg="http://www.w3.org/2000/svg">
  <defs
     id="defs1">
    <filter
       style="color-interpolation-filters:sRGB"
       id="filter35"
       x="-0.081083745"
       y="-0.081083745"
       width="1.1621675"
       height="1.1790599">
      <feFlood
         result="flood"
         in="SourceGraphic"
         flood-opacity="0.670588"
         flood-color="rgb(0,0,0)"
         id="feFlood34" />
      <feGaussianBlur
         result="blur"
         in="SourceGraphic"
         stdDeviation="0.400000"
         id="feGaussianBlur34" />
      <feOffset
         result="offset"
         in="blur"
         dx="0.000000"
         dy="0.200000"
         id="feOffset34" />
      <feComposite
         result="comp1"
         operator="out"
         in="flood"
         in2="offset"
         id="feComposite34" />
      <feComposite
         result="comp2"
         operator="atop"
         in="comp1"
         in2="SourceGraphic"
         id="feComposite35" />
    </filter>
  </defs>
  <rect
     style="display:none;fill:#000000;fill-opacity:0;stroke:none;stroke-width:2.97046;stroke-linejoin:round"
     id="rect1"
     width="30.557014"
     height="31.363596"
     x="0"
     y="0" />
  <g
     id="layer2"
     style="display:inline"
     transform="translate(6.8118412,2.6458337)">
    <circle
       style="font-variation-settings:'GRAD' 15, 'opsz' 144, 'wdth' 132, 'wght' 200;display:inline;fill:#000000;fill-opacity:1;stroke:none;stroke-width:2.11667;stroke-linecap:butt;stroke-linejoin:round;stroke-dasharray:none;stroke-opacity:1"
       id="circle34"
       cx="8.4666653"
       cy="8.4666653"
       r="8.4666653" />
    <path
       id="path10"
       style="font-variation-settings:'GRAD' 15, 'opsz' 144, 'wdth' 132, 'wght' 200;baseline-shift:baseline;display:inline;overflow:visible;opacity:1;vector-effect:none;fill:#ffffff;fill-opacity:1;stroke:none;stroke-width:0.925474;stroke-linejoin:round;stroke-opacity:1;paint-order:stroke fill markers;enable-background:accumulate;stop-color:#000000;stop-opacity:1"
       d="m 8.4589152,2.5468613 c -3.2597966,0 -5.9198054,2.6600088 -5.9198054,5.9198054 0,3.2597973 2.6600088,5.9198053 5.9198054,5.9198053 3.2597968,0 5.9198058,-2.660008 5.9198058,-5.9198053 0,-0.797827 -0.159653,-1.5596729 -0.448123,-2.2554373 l -0.382123,0.3366895 -1.250152,1.1023713 v 4.782e-4 c 0.05509,0.2630316 0.08417,0.5358673 0.08417,0.8158983 0,2.1754753 -1.748106,3.9221463 -3.9235808,3.9221463 -2.1754745,0 -3.9216678,-1.746671 -3.9216678,-3.9221463 0,-2.1754745 1.7461933,-3.9235808 3.9216678,-3.9235808 0.4532168,0 0.8876009,0.075865 1.2917591,0.2156917 L 10.998434,3.657841 11.38008,3.3211515 C 10.517327,2.8287984 9.5196885,2.5468613 8.4589152,2.5468613 Z M 12.305975,3.972531 7.9318813,7.8310695 8.9964706,9.0946117 13.39926,5.2107259 C 13.093696,4.7489266 12.724932,4.3320266 12.305975,3.972531 Z" />
  </g>
  <path
     d="m 3.8128996,22.427577 h 1.9146565 q 0.9692736,0 1.5494725,0.436857 0.6279805,0.470985 0.6279805,1.354936 0,0.921492 -0.6621097,1.467562 -0.6279799,0.515353 -1.6109054,0.515353 H 4.4442926 v 1.05801 h -0.631393 z m 1.904418,3.201334 q 0.6962388,0 1.098965,-0.348119 0.4197911,-0.36177 0.4197911,-1.020469 0,-0.63139 -0.4709851,-0.962446 Q 6.3418847,23.000952 5.6285811,23.000952 H 4.4442926 v 2.627959 z m 3.6407491,-3.184267 q 0,0.191123 -0.1160396,0.307163 -0.11604,0.116039 -0.3071642,0.116039 -0.1911246,0 -0.3071644,-0.116039 -0.1160395,-0.11604 -0.1160395,-0.307163 0,-0.191125 0.1160395,-0.303752 0.1160398,-0.11604 0.3071644,-0.11604 0.1911242,0 0.3071642,0.11604 0.1160396,0.112626 0.1160396,0.303752 z M 8.6106338,23.84736 h 0.6484579 v 3.412935 H 8.6106338 Z m 1.7935592,-1.419783 h 1.914657 q 0.969272,0 1.549471,0.436857 0.627981,0.470985 0.627981,1.354936 0,0.921492 -0.66211,1.467562 -0.62798,0.515353 -1.610905,0.515353 h -1.187701 v 1.05801 h -0.631393 z m 1.904417,3.201334 q 0.69624,0 1.098965,-0.348119 0.419792,-0.36177 0.419792,-1.020469 0,-0.63139 -0.470986,-0.962446 -0.423204,-0.296925 -1.136507,-0.296925 h -1.184288 v 2.627959 z m 5.299563,-1.481213 q 0.180884,0.180885 0.283274,0.457333 0.105798,0.273035 0.105798,0.576786 0,0.303752 -0.06826,0.713304 h -2.375403 q 0.07509,0.412964 0.334468,0.65187 0.259382,0.235492 0.73378,0.235492 0.634807,0 1.163812,-0.232079 l 0.109211,0.488049 q -0.351531,0.204777 -1.003403,0.269623 -0.180885,0.02048 -0.470985,0.02048 -0.2901,0 -0.607501,-0.11604 -0.317404,-0.116039 -0.525593,-0.341292 -0.412966,-0.447095 -0.412966,-1.310567 0,-0.757672 0.494876,-1.269612 0.501702,-0.511941 1.252547,-0.511941 0.617742,0 0.986339,0.368597 z m -0.228667,1.245722 0.01365,-0.184298 q 0,-0.624569 -0.467572,-0.829345 -0.156996,-0.06825 -0.375424,-0.06825 -0.218428,0 -0.402726,0.08532 -0.180886,0.08532 -0.313989,0.232079 -0.273037,0.30034 -0.307166,0.764498 z m 3.955746,1.542646 q -0.481224,0.392488 -1.160398,0.392488 -0.733782,0 -1.184289,-0.484638 -0.440269,-0.470985 -0.440269,-1.221831 0,-0.815691 0.641632,-1.344696 0.610916,-0.498288 1.48804,-0.498288 0.344706,0 0.600675,0.0512 v -1.897595 h 0.648459 v 5.327593 h -0.494876 z m -0.05461,-2.528985 q -0.358358,-0.08191 -0.658697,-0.08191 -0.300339,0 -0.559722,0.08532 -0.259382,0.08532 -0.450507,0.245732 -0.412964,0.348119 -0.412964,0.924905 0,0.505114 0.266209,0.842995 0.283273,0.358358 0.754258,0.358358 0.532418,0 0.880537,-0.266208 0.109212,-0.08532 0.180886,-0.197951 z m 3.868661,2.416358 q -0.624567,0.505115 -1.313981,0.505115 -0.481223,0 -0.808864,-0.252557 -0.351534,-0.273036 -0.351534,-0.713305 0,-0.90784 1.208179,-1.211591 0.48805,-0.122866 1.170638,-0.136518 -0.02048,-0.556308 -0.542656,-0.655283 -0.170647,-0.03414 -0.320816,-0.03414 -0.150171,0 -0.26621,0.01365 -0.11604,0.01365 -0.238906,0.03754 -0.269622,0.0512 -0.457333,0.126278 l -0.180886,-0.484636 q 0.477811,-0.238905 1.153573,-0.238905 1.054598,0 1.389065,0.672348 0.112625,0.232079 0.112625,0.552895 v 1.088726 q 0,0.34812 0.0512,0.464159 0.09215,0.221842 0.324229,0.283275 l -0.09556,0.419791 q -0.638219,0.07509 -0.832757,-0.436857 z m -1.228657,-1.136507 q -0.317403,0.119451 -0.457334,0.266209 -0.13993,0.143342 -0.13993,0.310577 0,0.167234 0.04778,0.25597 0.04778,0.08532 0.126278,0.143343 0.160407,0.119452 0.375423,0.119452 0.215015,0 0.385662,-0.04436 0.17406,-0.04778 0.320815,-0.122866 0.286687,-0.143343 0.474399,-0.354945 v -0.737194 q -0.812278,0.04095 -1.133095,0.163821 z m 2.823379,-3.754228 h 0.648457 v 4.160367 q 0,0.348119 0.04778,0.464159 0.09556,0.221841 0.327641,0.283274 l -0.09556,0.419791 q -0.529006,0.06826 -0.754258,-0.27986 -0.17406,-0.273036 -0.17406,-0.839583 z"
     id="text250"
     style="font-size:193.643px;font-family:Spinnaker;-inkscape-font-specification:Spinnaker-Regular;fill:#000000;fill-opacity:1;stroke:none;stroke-width:0.0360958;stroke-opacity:1"
     aria-label="PiPedal" />
</svg>
