<?xml version="1.0" encoding="utf-8"?>
<!-- Generator: Adobe Illustrator 16.0.0, SVG Export Plug-In . SVG Version: 6.00 Build 0)  -->
<!DOCTYPE svg PUBLIC "-//W3C//DTD SVG 1.1//EN" "http://www.w3.org/Graphics/SVG/1.1/DTD/svg11.dtd">
<svg version="1.1" xmlns="http://www.w3.org/2000/svg" xmlns:xlink="http://www.w3.org/1999/xlink" x="0px" y="0px" width="48px"
	 height="48px" viewBox="0 0 48 48" enable-background="new 0 0 48 48" xml:space="preserve">
<g id="Layer_1">
	<g>
		<path d="M47,13V7c0-3.313-2.687-6-6-6H7C3.687,1,1,3.687,1,7v6H47z M24.186,4.766c1.524,0,2.761,1.236,2.761,2.76
			c0,1.525-1.236,2.761-2.761,2.761s-2.761-1.236-2.761-2.761C21.425,6.002,22.661,4.766,24.186,4.766z M16.497,4.766
			c1.525,0,2.761,1.236,2.761,2.76c0,1.525-1.236,2.761-2.761,2.761c-1.524,0-2.76-1.236-2.76-2.761
			C13.736,6.002,14.972,4.766,16.497,4.766z M8.808,4.766c1.525,0,2.761,1.236,2.761,2.76c0,1.525-1.236,2.761-2.761,2.761
			c-1.524,0-2.76-1.236-2.76-2.761C6.047,6.002,7.283,4.766,8.808,4.766z"/>
		<path d="M1,16v25c0,3.313,2.687,6,6,6h34c3.313,0,6-2.687,6-6V16H1z M24.394,43.261c-6.613,0-11.975-5.361-11.975-11.975
			s5.361-11.975,11.975-11.975s11.975,5.361,11.975,11.975S31.007,43.261,24.394,43.261z"/>
	</g>
	<circle cx="24.394" cy="31.286" r="3.993"/>
</g>
<g id="Combined">
</g>
</svg>
