<?xml version="1.0" encoding="utf-8"?>
<!-- Generator: Adobe Illustrator 16.0.0, SVG Export Plug-In . SVG Version: 6.00 Build 0)  -->
<!DOCTYPE svg PUBLIC "-//W3C//DTD SVG 1.1//EN" "http://www.w3.org/Graphics/SVG/1.1/DTD/svg11.dtd">
<svg version="1.1" xmlns="http://www.w3.org/2000/svg" xmlns:xlink="http://www.w3.org/1999/xlink" x="0px" y="0px" width="48px"
	 height="48px" viewBox="0 0 48 48" enable-background="new 0 0 48 48" xml:space="preserve">
<g id="Layer_1" display="none">
	<circle cx="24" cy="23.999" r="23"/>
	<path display="inline" d="M47,41c0,3.313-2.687,6-6,6H7c-3.313,0-6-2.687-6-6V7c0-3.313,2.687-6,6-6h34c3.313,0,6,2.687,6,6V41z"/>
	<path id="full_sin_1_" display="inline" fill="none" stroke="#FFFFFF" stroke-width="3" stroke-linecap="round" d="M-6.638,31.942
		 M-6.64,31.94c1.398,3.74,2.795,7.481,4.388,7.481 M2.129,31.94c-1.397,3.739-2.793,7.481-4.386,7.481 M2.128,31.94
		c1.397-3.74,2.795-7.481,4.387-7.481 M10.896,31.941C9.5,28.2,8.104,24.459,6.511,24.459 M10.896,31.942
		c1.398,3.741,2.795,7.481,4.385,7.481 M19.665,31.942c-1.398,3.741-2.795,7.481-4.387,7.481 M19.665,31.943
		c1.396-3.741,2.792-7.481,4.385-7.481 M28.432,31.943c-1.397-3.741-2.794-7.481-4.386-7.481 M28.432,31.941
		c1.397,3.74,2.792,7.481,4.386,7.481 M37.197,31.941c-1.396,3.74-2.792,7.481-4.386,7.481 M37.197,31.941
		c1.399-3.74,2.796-7.48,4.387-7.48 M45.966,31.942c-1.396-3.741-2.794-7.481-4.385-7.481 M45.966,31.941
		c1.396,3.74,2.793,7.481,4.389,7.481 M54.733,31.941c-1.396,3.74-2.791,7.481-4.385,7.481 M54.733,31.942
		c1.398-3.741,2.793-7.481,4.387-7.481 M63.501,31.942c-1.398-3.741-2.793-7.481-4.387-7.481 M63.501,31.94
		c1.395,3.74,2.793,7.481,4.387,7.481 M72.269,31.94c-1.395,3.739-2.793,7.481-4.385,7.481 M72.269,31.94
		c1.396-3.74,2.791-7.481,4.385-7.481 M81.038,31.941c-1.398-3.741-2.797-7.482-4.387-7.482 M81.038,31.942
		c1.396,3.741,2.795,7.481,4.385,7.481 M89.806,31.942c-1.396,3.741-2.795,7.481-4.385,7.481 M89.806,31.943"/>
	<path id="full_sin_2_" display="inline" fill="none" stroke="#FFFFFF" stroke-width="3" stroke-linecap="round" d="M-4.638,16.942
		 M-4.64,16.94c1.398,3.74,2.795,7.481,4.388,7.481 M4.129,16.94c-1.397,3.739-2.793,7.481-4.386,7.481 M4.128,16.94
		c1.397-3.74,2.795-7.481,4.387-7.481 M12.896,16.941C11.5,13.2,10.104,9.459,8.511,9.459 M12.896,16.942
		c1.398,3.741,2.795,7.481,4.385,7.481 M21.665,16.942c-1.398,3.741-2.795,7.481-4.387,7.481 M21.665,16.943
		c1.396-3.741,2.792-7.481,4.385-7.481 M30.432,16.943c-1.397-3.741-2.794-7.481-4.386-7.481 M30.432,16.941
		c1.397,3.74,2.792,7.481,4.386,7.481 M39.197,16.941c-1.396,3.74-2.792,7.481-4.386,7.481 M39.197,16.941
		c1.399-3.74,2.796-7.48,4.387-7.48 M47.966,16.942c-1.396-3.741-2.794-7.481-4.385-7.481 M47.966,16.941
		c1.396,3.74,2.793,7.481,4.389,7.481 M56.733,16.941c-1.396,3.74-2.791,7.481-4.385,7.481 M56.733,16.942
		c1.398-3.741,2.793-7.481,4.387-7.481 M65.501,16.942c-1.398-3.741-2.793-7.481-4.387-7.481 M65.501,16.94
		c1.395,3.74,2.793,7.481,4.387,7.481 M74.269,16.94c-1.395,3.739-2.793,7.481-4.385,7.481 M74.269,16.94
		c1.396-3.74,2.791-7.481,4.385-7.481 M83.038,16.941c-1.398-3.741-2.797-7.482-4.387-7.482 M83.038,16.942
		c1.396,3.741,2.795,7.481,4.385,7.481 M91.806,16.942c-1.396,3.741-2.795,7.481-4.385,7.481 M91.806,16.943"/>
</g>
<g id="Composed">
	<g>
		<polygon points="2.15,32 2.148,31.998 2.147,32 		"/>
		<path d="M35.904,31.415C37.664,26.709,38.952,23,41.573,23c0.002,0,0.005,0,0.01,0h0.001c0.003,0,0.006,0,0.008,0
			c2.533,0,3.745,3.462,5.408,7.938V18.679c-0.141-0.374-0.283-0.753-0.428-1.141c-0.004-0.01-0.008-0.056-0.012-0.066
			c-0.801-2.146-2.11-5.649-2.978-6.419c-0.864,0.768-2.173,4.273-2.974,6.413c-0.002,0.006-0.004,0.032-0.007,0.039
			C38.845,22.216,37.455,26,34.834,26c-0.006,0-0.014,0-0.02,0c-0.008,0-0.014,0-0.02,0c-2.613,0-4-3.763-5.752-8.451
			c-0.006-0.014-0.011-0.067-0.017-0.081l-0.002-0.004c-0.801-2.146-2.11-5.652-2.977-6.42c-0.868,0.768-2.177,4.277-2.978,6.424
			c-0.004,0.01-0.008,0.021-0.012,0.031c-1.759,4.705-3.15,8.418-5.773,8.425c-0.002,0-0.003-0.002-0.006,0
			c-0.002-0.002-0.004,0-0.006,0c-2.625-0.007-4.016-3.73-5.778-8.444c-0.004-0.011-0.008-0.021-0.011-0.032
			c-0.802-2.148-2.105-5.639-2.971-6.406c-0.866,0.769-2.177,4.277-2.979,6.423l-1.405-0.52l0.166,0.067l-0.147-0.045l1.378,0.559
			c-1.458,3.9-2.664,7.153-4.526,8.152v5.03c1.636-4.362,3.016-7.735,5.5-7.749c0.004,0,0.008,0.002,0.013,0
			c0.003,0.001,0.009,0,0.013,0c2.625,0.014,4.016,3.742,5.775,8.458c0.004,0.01,0.007,0.02,0.011,0.029
			c0.802,2.145,1.978,5.631,2.84,6.396C16.017,37.076,17,33.576,18,31.434v0.005c0-0.003,0.13,0.003,0.132-0.001
			C19.891,26.723,21.409,23,24.035,23c0.004,0,0.007,0,0.013,0c0.002,0,0.009-0.019,0.013-0.019
			c2.615,0.014,4.005,3.699,5.759,8.393c0.006,0.014,0.011,0.029,0.017,0.043l0.009,0.023c0.799,2.139,2.209,5.636,3.072,6.403
			C33.785,37.074,35,33.568,36,31.422v0.004C36,31.419,35.902,31.422,35.904,31.415z"/>
		<polygon points="2.11,32 2.108,31.999 2.108,32 		"/>
		<path d="M44.572,32.497c-0.004-0.01-0.008-0.02-0.012-0.03c-0.801-2.146-2.11-5.654-2.978-6.424
			c-0.864,0.768-2.173,4.264-2.974,6.403c-0.002,0.007-0.004,0.013-0.007,0.02c-1.758,4.711-3.147,8.436-5.769,8.457
			c-0.006,0-0.014,0.002-0.02,0c-0.008,0.002-0.014,0.001-0.02,0.001c-2.613-0.021-4-3.959-5.752-8.646
			C27.037,32.264,27.032,32,27.026,32h-0.002c-0.801-2-2.111-5.413-2.977-6.181c-0.867,0.768-2.176,4.403-2.977,6.55
			c-0.004,0.01-0.008,0.099-0.012,0.109C19.3,37.183,17.908,41,15.286,41c-0.002,0-0.005,0-0.006,0
			c-0.004,0-0.004-0.037-0.006-0.037c-2.625-0.007-4.016-3.769-5.778-8.482c-0.004-0.01-0.008-0.02-0.011-0.03
			c-0.802-2.148-2.105-5.636-2.971-6.402c-0.866,0.769-2.177,4.282-2.979,6.429l-1.228-0.445l1.219,0.495
			C2.658,34.848,1.88,36.94,1,38.466V41c0,3.313,2.687,6,6,6h34c3.313,0,6-2.687,6-6v-2.769
			C46.159,36.735,45.406,34.731,44.572,32.497z"/>
		<path d="M2.716,16.453l0.011,0.004C4.487,11.748,5.879,8,8.5,8c0.004,0,0.008,0,0.013,0c0.003,0,0.009-0.02,0.013-0.02
			c2.625,0.014,4.016,3.721,5.775,8.438c0.004,0.01,0.007,0.02,0.011,0.03c0.802,2.145,1.978,5.631,2.84,6.397
			C18.017,22.077,19,18.577,20,16.433v0.005c0-0.004,0.13,0.003,0.132,0C21.891,11.722,23.409,8,26.035,8c0.004,0,0.007,0,0.013,0
			c0.004,0,0.009,0,0.013,0c2.615,0,4.019,3.699,5.772,8.393c0.006,0.014,0.024,0.009,0.03,0.023l0.034,0.023
			c0.799,2.139,2.157,5.634,3.021,6.401C35.785,22.072,37,18.563,38,16.417c0,0,0-0.001,0-0.001c0-0.007-0.098,0.006-0.096-0.001
			C39.664,11.709,40.952,8,43.573,8c0.002,0,0.005,0,0.01,0h0.001c0.003,0,0.006,0,0.008,0c1.464,0,2.485,1.156,3.408,2.995V7
			c0-3.313-2.687-6-6-6H7C3.687,1,1,3.687,1,7v13.737C1.619,19.383,2.252,17.693,2.716,16.453z"/>
		<polygon points="1,31.557 1,31.558 1.046,31.575 		"/>
		<polygon points="4.11,17 4.108,17 4.108,17 		"/>
	</g>
</g>
</svg>
