<?xml version="1.0" encoding="utf-8"?>
<!-- Generator: Adobe Illustrator 16.0.0, SVG Export Plug-In . SVG Version: 6.00 Build 0)  -->
<!DOCTYPE svg PUBLIC "-//W3C//DTD SVG 1.1//EN" "http://www.w3.org/Graphics/SVG/1.1/DTD/svg11.dtd">
<svg version="1.1" xmlns="http://www.w3.org/2000/svg" xmlns:xlink="http://www.w3.org/1999/xlink" x="0px" y="0px" width="48px"
	 height="48px" viewBox="0 0 48 48" style="enable-background:new 0 0 48 48;" xml:space="preserve">
<g id="Layer_2">
	<g>
		<path d="M8.5,17.824c0.004,0.003,0.008,0.006,0.013,0.006c0.003,0.002,0.009,0.003,0.013,0.004
			c2.625,0.971,4.016,5.203,5.775,10.561c0.004,0.012,0.007,0.021,0.011,0.033c0.802,2.437,2.106,6.396,2.968,7.477
			c0.865-0.452,2.175-3.479,2.976-5.33c0.001-0.002,0.002-0.006,0.003-0.008c1.759-4.076,3.149-7.297,5.775-6.355
			c0.004,0.001,0.007,0.002,0.013,0.005c0.003-0.001,0.01,0.003,0.014,0.005c2.614,0.966,4.006,5.175,5.76,10.507
			c0.006,0.018,0.011,0.032,0.017,0.049l0.009,0.027c0.799,2.43,2.104,6.398,2.969,7.48c0.867-0.452,2.178-3.485,2.979-5.34v-0.002
			c0.003-0.006,0.006-0.012,0.008-0.018c1.762-4.064,3.152-7.277,5.773-6.333c0.002,0.001,0.005,0.001,0.01,0.003l0.001,0.002
			c0.003,0,0.006,0.002,0.008,0.002c1.409,0.519,2.461,1.983,3.407,4.051V22.409c-0.506-1.334-1.013-2.493-1.422-3.005
			c-0.864,0.453-2.174,3.473-2.975,5.321c-0.002,0.006-0.004,0.012-0.006,0.018c-1.759,4.07-3.147,7.29-5.77,6.357
			c-0.006-0.002-0.014-0.006-0.02-0.008c-0.009-0.003-0.015-0.005-0.021-0.008c-2.613-0.973-4-5.18-5.752-10.505
			c-0.007-0.017-0.011-0.033-0.017-0.049l-0.002-0.005c-0.802-2.438-2.11-6.42-2.978-7.504c-0.868,0.452-2.177,3.485-2.978,5.341
			c-0.004,0.008-0.008,0.018-0.013,0.026c-1.759,4.064-3.15,7.271-5.773,6.323c-0.002,0-0.003-0.003-0.006-0.002
			c-0.002-0.002-0.004-0.001-0.006-0.002c-2.625-0.962-4.016-5.193-5.778-10.548c-0.004-0.013-0.008-0.024-0.011-0.036
			c-0.802-2.44-2.105-6.406-2.971-7.487c-0.866,0.453-2.177,3.483-2.979,5.338l-1.314-0.967L6.14,10.954l1.378,1.041
			c-1.757,4.063-3.146,7.272-5.764,6.338c-0.006-0.003-0.01-0.003-0.017-0.007c-0.004,0.001-0.011-0.004-0.017-0.006
			C1.468,18.227,1.23,18.094,1,17.942v9.917c0.619-1.13,1.251-2.591,1.714-3.66l1.412,1.018L4.108,25.2l0.002,0.001l-1.386-1.024
			C4.486,20.104,5.877,16.885,8.5,17.824z"/>
		<path d="M1.744,15.247c0.864-0.453,2.171-3.474,2.97-5.322l1.412,1.019l-0.02-0.015L6.11,10.93L4.724,9.904
			C6.485,5.831,7.877,2.612,10.5,3.553c0.004,0.002,0.008,0.002,0.013,0.005c0.003-0.001,0.009,0.003,0.013,0.005
			c2.625,0.97,4.016,5.203,5.775,10.56c0.004,0.011,0.007,0.022,0.011,0.033c0.802,2.437,2.106,6.396,2.968,7.477
			c0.865-0.453,2.175-3.479,2.976-5.331v0.001c0.001-0.003,0.002-0.006,0.003-0.009c1.759-4.076,3.148-7.297,5.775-6.355
			c0.004,0.002,0.007,0.002,0.013,0.005c0.004,0.001,0.01,0.003,0.014,0.005c2.614,0.966,4.006,5.176,5.76,10.509
			c0.006,0.017,0.011,0.032,0.017,0.048l0.009,0.026c0.799,2.43,2.104,6.399,2.969,7.481c0.867-0.453,2.178-3.484,2.979-5.341
			c0,0,0,0,0-0.001c0.003-0.006,0.006-0.012,0.008-0.018c1.762-4.065,3.152-7.276,5.773-6.333c0.002,0.001,0.005,0.002,0.01,0.004
			h0.001c0.003,0.001,0.006,0.002,0.008,0.003c0.513,0.188,0.977,0.505,1.407,0.926V7c0-3.313-2.688-6-6-6H7C3.687,1,1,3.687,1,7
			v6.901C1.267,14.491,1.521,14.967,1.744,15.247z"/>
		<polygon points="4.157,25.236 4.175,25.25 4.188,25.26 4.147,25.229 		"/>
		<path d="M46.568,41.219c-0.004-0.012-0.008-0.023-0.012-0.035c-0.802-2.438-2.111-6.422-2.979-7.508
			c-0.864,0.453-2.174,3.473-2.975,5.321c-0.002,0.006-0.004,0.011-0.006,0.017c-1.759,4.071-3.147,7.291-5.77,6.357
			c-0.006-0.002-0.014-0.002-0.02-0.007c-0.009-0.001-0.015-0.005-0.021-0.007c-2.613-0.974-4-5.182-5.752-10.506
			c-0.007-0.017-0.011-0.033-0.017-0.05l0.004-0.002c-0.801-2.437-2.109-6.421-2.978-7.503c-0.866,0.451-2.176,3.484-2.977,5.34
			c-0.004,0.01-0.008,0.019-0.012,0.027c-1.759,4.063-3.15,7.271-5.773,6.322c-0.002,0-0.005-0.004-0.006-0.002
			c-0.004-0.004-0.004-0.002-0.006-0.002c-2.625-0.963-4.016-5.193-5.778-10.549c-0.004-0.012-0.008-0.022-0.011-0.035
			c-0.802-2.439-2.105-6.405-2.971-7.486c-0.866,0.453-2.177,3.482-2.979,5.337L4.188,25.26L4.18,25.254l1.345,1.018
			C4.068,29.64,2.861,32.414,1,32.732V41c0,3.313,2.687,6,6,6h34c2.91,0,5.336-2.075,5.883-4.825
			C46.779,41.86,46.675,41.542,46.568,41.219z"/>
	</g>
</g>
</svg>
