<?xml version="1.0" encoding="utf-8"?>
<!-- Generator: Adobe Illustrator 16.0.0, SVG Export Plug-In . SVG Version: 6.00 Build 0)  -->
<!DOCTYPE svg PUBLIC "-//W3C//DTD SVG 1.1//EN" "http://www.w3.org/Graphics/SVG/1.1/DTD/svg11.dtd">
<svg version="1.1" xmlns="http://www.w3.org/2000/svg" xmlns:xlink="http://www.w3.org/1999/xlink" x="0px" y="0px" width="48px"
	 height="48px" viewBox="0 0 48 48" enable-background="new 0 0 48 48" xml:space="preserve">
<g id="x">
</g>
<g id="Layer_1">
	<g id="Layer_1_1_" display="none">
		<path display="inline" d="M47,41c0,3.313-2.688,6-6,6H7c-3.313,0-6-2.688-6-6V7c0-3.313,2.687-6,6-6h34c3.313,0,6,2.687,6,6V41z"
			/>
		<g display="inline">
			<rect x="5" y="10.828" fill="#FFFFFF" width="4.673" height="21.398"/>
			<rect x="10.404" y="10.828" fill="#FFFFFF" width="4.674" height="21.398"/>
			<rect x="15.81" y="10.828" fill="#FFFFFF" width="4.673" height="21.398"/>
			<rect x="21.215" y="10.828" fill="#FFFFFF" width="4.673" height="21.398"/>
			<rect x="8.417" y="10.828" width="3.243" height="12.333"/>
			<rect x="13.823" y="10.828" width="3.243" height="12.333"/>
			<rect x="26.619" y="10.828" fill="#FFFFFF" width="4.673" height="21.398"/>
			<rect x="19.227" y="10.828" width="3.244" height="12.333"/>
			<rect x="32.023" y="10.828" fill="#FFFFFF" width="4.674" height="21.398"/>
			<rect x="30.036" y="10.828" width="3.243" height="12.333"/>
			<rect x="37.429" y="10.828" fill="#FFFFFF" width="4.673" height="21.398"/>
			<rect x="35.441" y="10.828" width="3.243" height="12.333"/>
		</g>
	</g>
	<path d="M41,1H7C3.687,1,1,3.687,1,7v34c0,3.313,2.687,6,6,6h34c3.313,0,6-2.688,6-6V7C47,3.687,44.313,1,41,1z M5,32.227V10.828
		h3.417V23.5h1.256v8.727H5z M10.404,32.227V23.5h1.256V10.828h2.163V23.5h1.256v8.727H10.404z M15.81,32.227V23.5h1.256V10.828
		h2.162V23.5h1.255v8.727H15.81z M25.888,32.227h-4.673V23.5h1.256V10.828h3.417V32.227z M26.619,32.227V10.828h3.417V23.5h1.256
		v8.727H26.619z M32.023,32.227V23.5h1.256V10.828h2.162V23.5h1.256v8.727H32.023z M42.102,32.227h-4.673V23.5h1.256V10.828h3.417
		V32.227z"/>
</g>
</svg>
