<?xml version="1.0" encoding="utf-8"?>
<!-- Generator: Adobe Illustrator 16.0.0, SVG Export Plug-In . SVG Version: 6.00 Build 0)  -->
<!DOCTYPE svg PUBLIC "-//W3C//DTD SVG 1.1//EN" "http://www.w3.org/Graphics/SVG/1.1/DTD/svg11.dtd">
<svg version="1.1" id="Layer_1" xmlns="http://www.w3.org/2000/svg" xmlns:xlink="http://www.w3.org/1999/xlink" x="0px" y="0px"
	 width="48px" height="48px" viewBox="0 0 48 48" enable-background="new 0 0 48 48" xml:space="preserve">
<g id="Layer_1_1_" display="none">
	<path display="inline" d="M47,41c0,3.313-2.688,6-6,6H7c-3.313,0-6-2.688-6-6V7c0-3.313,2.687-6,6-6h34c3.313,0,6,2.687,6,6V41z"/>
	<polyline display="inline" fill="none" stroke="#FFFFFF" stroke-width="5" points="5.5,53.25 24,12.5 65.5,12.5 	"/>
</g>
<g>
	<path d="M22.389,10H47V7c0-3.313-2.688-6-6-6H7C3.687,1,1,3.687,1,7v34c0,2.853,1.994,5.236,4.662,5.845L22.389,10z"/>
	<path d="M25.61,15L11.083,47H41c3.313,0,6-2.688,6-6V15H25.61z"/>
</g>
<path d="M109,15"/>
</svg>
