<?xml version="1.0" encoding="utf-8"?>
<!-- Generator: Adobe Illustrator 16.0.0, SVG Export Plug-In . SVG Version: 6.00 Build 0)  -->
<!DOCTYPE svg PUBLIC "-//W3C//DTD SVG 1.1//EN" "http://www.w3.org/Graphics/SVG/1.1/DTD/svg11.dtd">
<svg version="1.1" xmlns="http://www.w3.org/2000/svg" xmlns:xlink="http://www.w3.org/1999/xlink" x="0px" y="0px" width="48px"
	 height="48px" viewBox="0 0 48 48" enable-background="new 0 0 48 48" xml:space="preserve">
<g id="Layer_1" display="none">
	<circle cx="24" cy="23.999" r="23"/>
	<path display="inline" d="M47,41c0,3.313-2.687,6-6,6H7c-3.313,0-6-2.687-6-6V7c0-3.313,2.687-6,6-6h34c3.313,0,6,2.687,6,6V41z"/>
	<path id="full_sin_1_" display="inline" fill="none" stroke="#FFFFFF" stroke-width="3" stroke-linecap="round" d="M-12.638,28.917
		 M-12.64,28.914c1.498,5.253,2.994,10.507,4.7,10.507 M-3.248,28.914c-1.497,5.251-2.992,10.507-4.698,10.507 M-3.249,28.914
		c1.497-5.253,2.994-10.507,4.699-10.507 M6.143,28.915c-1.495-5.254-2.991-10.508-4.697-10.508 M6.143,28.917
		c1.498,5.254,2.994,10.507,4.696,10.507 M15.536,28.917c-1.498,5.254-2.994,10.507-4.699,10.507 M15.536,28.918
		c1.495-5.254,2.99-10.507,4.697-10.507 M24.926,28.918c-1.497-5.254-2.993-10.507-4.698-10.507 M24.926,28.915
		c1.496,5.253,2.99,10.508,4.697,10.508 M34.314,28.915c-1.495,5.253-2.99,10.508-4.697,10.508 M34.314,28.915
		c1.499-5.252,2.994-10.505,4.698-10.505 M43.706,28.917c-1.495-5.254-2.992-10.507-4.696-10.507 M43.706,28.915
		c1.496,5.253,2.992,10.508,4.701,10.508 M53.098,28.915c-1.496,5.253-2.99,10.508-4.697,10.508 M53.098,28.917
		c1.498-5.254,2.991-10.507,4.698-10.507 M62.488,28.917C60.99,23.663,59.497,18.41,57.79,18.41 M62.488,28.914
		c1.494,5.253,2.991,10.507,4.698,10.507 M71.879,28.914c-1.493,5.251-2.991,10.507-4.696,10.507 M71.879,28.914
		c1.496-5.253,2.99-10.507,4.697-10.507 M81.272,28.915c-1.498-5.254-2.996-10.508-4.698-10.508 M81.272,28.917
		c1.496,5.254,2.993,10.507,4.696,10.507 M90.663,28.917c-1.495,5.254-2.993,10.507-4.696,10.507 M90.663,28.918"/>
	<path id="full_sin_2_" display="inline" fill="none" stroke="#FFFFFF" stroke-width="3" stroke-linecap="round" d="M-3.998,19.851
		 M-4,19.848c1.498,5.253,2.994,10.508,4.7,10.508 M5.392,19.848C3.896,25.1,2.4,30.355,0.694,30.355 M5.391,19.848
		C6.888,14.595,8.385,9.341,10.09,9.341 M14.782,19.849c-1.495-5.254-2.991-10.508-4.697-10.508 M14.782,19.851
		c1.498,5.254,2.994,10.507,4.696,10.507 M24.176,19.851c-1.498,5.254-2.994,10.507-4.699,10.507 M24.176,19.852
		c1.494-5.254,2.99-10.507,4.695-10.507 M33.564,19.852c-1.496-5.254-2.992-10.507-4.697-10.507 M33.564,19.849
		c1.498,5.252,2.992,10.506,4.699,10.506 M42.953,19.849c-1.494,5.252-2.99,10.506-4.697,10.506 M42.953,19.849
		c1.5-5.253,2.996-10.506,4.699-10.506 M52.346,19.851C50.85,14.596,49.354,9.343,47.65,9.343 M52.346,19.849
		c1.496,5.252,2.992,10.506,4.701,10.506 M61.736,19.849c-1.494,5.252-2.988,10.506-4.695,10.506 M61.736,19.851
		c1.498-5.254,2.992-10.507,4.699-10.507 M71.129,19.851c-1.498-5.254-2.992-10.507-4.699-10.507 M71.129,19.848
		c1.492,5.253,2.99,10.508,4.697,10.508 M80.52,19.848c-1.494,5.252-2.992,10.508-4.697,10.508 M80.52,19.848
		c1.496-5.253,2.988-10.507,4.695-10.507 M89.912,19.849c-1.498-5.254-2.996-10.508-4.699-10.508 M89.912,19.851
		c1.496,5.254,2.994,10.507,4.697,10.507 M99.303,19.851c-1.496,5.254-2.992,10.507-4.695,10.507 M99.303,19.852"/>
</g>
<g id="Composed">
	<g>
		<path d="M32.137,20.311c-0.006-0.016-0.011-0.032-0.015-0.048c-0.858-3.013-2.245-7.882-3.253-9.208
			c-1.01,1.325-2.394,6.195-3.251,9.207c-0.003,0.012-0.006,0.023-0.01,0.035c-0.293,1.029-0.569,1.985-0.835,2.88
			c0.492,1.501,1.004,3.257,1.581,5.28c0.005,0.016,0.01,0.031,0.014,0.047l0.007,0.023c0.855,3.005,2.239,7.861,3.245,9.185
			c1.008-1.325,2.394-6.191,3.25-9.202l2.239,0.637c-0.006-0.01-0.011-0.021-0.017-0.031l-0.778-0.2l-1.432-0.449
			c0.293-1.027,0.569-1.982,0.835-2.877C33.225,24.089,32.714,22.333,32.137,20.311z"/>
		<path d="M36.87,25.533c0.485,1.389,0.97,2.558,1.39,3.11c0.64-0.841,1.43-3.104,2.141-5.415c-0.484-1.389-0.969-2.557-1.389-3.108
			C38.373,20.96,37.582,23.225,36.87,25.533z"/>
		<path d="M1.433,17c0.005,0,0.009,0,0.015,0c0.009,0,0.011,0,0.015,0c1.069,0,1.911,0.599,2.674,1.826
			c2.052-7.168,3.316-10.967,5.936-10.984c0.004,0,0.007,0.004,0.015,0.001c0.007,0.003,0.01,0.003,0.015,0.002
			c2.702,0.017,3.959,3.999,6.123,11.604c0.003,0.011,0.006,0.033,0.009,0.044c0.109,0.383,0.227,0.818,0.351,1.249
			C17.616,18.25,18.683,17,20.213,17c0.006,0,0.011,0,0.017,0c0.007,0,0.012,0,0.017,0c1.069,0,1.911,0.68,2.673,1.909
			C24.969,11.737,26.232,8,28.855,8c0.005,0,0.009,0,0.014,0s0.009,0,0.014,0c2.694,0,3.953,3.901,6.11,11.475
			c0.005,0.015,0.01-0.042,0.014-0.026l0.012,0.051c0.108,0.381,0.226,0.814,0.35,1.243C36.401,18.247,37.469,17,39.001,17
			c0.004,0,0.011,0,0.01,0c0.005,0,0.007,0,0.011,0c1.071,0,1.915,0.675,2.679,1.903c1.88-6.559,3.102-10.227,5.3-10.811V7
			c0-3.313-2.687-6-6-6H7C3.687,1,1,3.687,1,7v10.046C1.142,17.022,1.283,17,1.433,17z"/>
		<path d="M44.396,20.26c-0.296,1.041-0.574,2.006-0.842,2.91c0.493,1.504,1.006,3.266,1.584,5.296
			c0.004,0.013,0.008,0.025,0.011,0.038l0.002,0.006c0.497,1.747,1.173,4.115,1.85,6.058V12.255
			c-0.894,2.018-1.911,5.579-2.595,7.97C44.402,20.236,44.399,20.248,44.396,20.26z"/>
		<path d="M1.448,20.117C1.306,20.305,1.155,20.571,1,20.885v7.27c0.576-1.054,1.235-2.969,1.838-4.927
			C2.353,21.838,1.868,20.669,1.448,20.117z"/>
		<path d="M4.602,19.619c0.003,0.007,0.007,0.014,0.011,0.021l0.778,0.208l-0.015-0.004l0.003,0.001L4.602,19.619z"/>
		<path d="M18.089,25.536c0.485,1.391,0.97,2.56,1.389,3.111c0.639-0.84,1.43-3.103,2.142-5.414
			c-0.485-1.391-0.971-2.56-1.391-3.112C19.59,20.961,18.8,23.225,18.089,25.536z"/>
		<path d="M42.275,29.424c-0.004-0.014-0.009-0.047-0.012-0.061c-0.111-0.392-0.232-0.779-0.359-1.223
			C40.876,30.627,39.812,32,38.286,32c-0.009,0-0.019,0-0.026,0c-0.011,0-0.019,0-0.026,0c-1.064,0-1.903-0.722-2.663-1.947
			c-2.049,7.167-3.313,10.85-5.93,10.871c-0.007,0-0.013,0.003-0.021,0.001c-0.006,0.002-0.014,0.003-0.021,0.003
			c-2.691-0.022-3.947-3.977-6.102-11.543c-0.005-0.016-0.01-0.022-0.014-0.038l-0.002,0.011c-0.111-0.391-0.231-0.776-0.359-1.217
			C22.088,30.64,21.02,32,19.484,32c-0.002,0-0.004,0-0.006,0c-0.003,0-0.005,0-0.006,0c-1.073,0-1.917-0.674-2.681-1.905
			C14.734,37.272,13.471,41,10.844,41c-0.001,0-0.003,0-0.005,0c-0.001,0-0.001,0-0.002,0c-0.002,0-0.004,0-0.005,0
			c-2.703,0-3.96-4-6.128-11.605c-0.004-0.012-0.007-0.046-0.011-0.059c-0.109-0.385-0.228-0.763-0.352-1.195
			C3.376,30.472,2.376,31.804,1,31.967V41c0,3.313,2.687,6,6,6h34c3.313,0,6-2.687,6-6v-0.422
			C45.185,39.368,44.025,35.57,42.275,29.424z"/>
		<path d="M7.585,28.505c0.003,0.013,0.007,0.025,0.01,0.038c0.858,3.011,2.239,7.85,3.243,9.171
			c1.006-1.323,2.392-6.183,3.249-9.188h0c0.001-0.006,0.003-0.012,0.005-0.018c0.296-1.042,0.575-2.009,0.843-2.914
			c-0.496-1.511-1.012-3.28-1.593-5.321c-0.003-0.012-0.006-0.023-0.009-0.035c-0.857-3.015-2.239-7.865-3.246-9.187
			c-1.008,1.325-2.395,6.19-3.252,9.2l-1.444-0.404l0.053,0.015l-0.041-0.012l1.424,0.431c-0.294,1.032-0.571,1.992-0.837,2.889
			C6.487,24.686,7.003,26.459,7.585,28.505z"/>
	</g>
</g>
</svg>
