<?xml version="1.0" encoding="utf-8"?>
<!-- Generator: Adobe Illustrator 16.0.0, SVG Export Plug-In . SVG Version: 6.00 Build 0)  -->
<!DOCTYPE svg PUBLIC "-//W3C//DTD SVG 1.1//EN" "http://www.w3.org/Graphics/SVG/1.1/DTD/svg11.dtd">
<svg version="1.1" id="Layer_1" xmlns="http://www.w3.org/2000/svg" xmlns:xlink="http://www.w3.org/1999/xlink" x="0px" y="0px"
	 width="48px" height="48px" viewBox="0 0 48 48" enable-background="new 0 0 48 48" xml:space="preserve">
<g id="Layer_1_1_" display="none">
	<circle cx="24" cy="23.999" r="23"/>
	<path display="inline" d="M47,41c0,3.313-2.688,6-6,6H7c-3.313,0-6-2.688-6-6V7c0-3.313,2.687-6,6-6h34c3.313,0,6,2.687,6,6V41z"/>
	<path id="full_sin_2_" fill="none" stroke="#FFFFFF" stroke-width="3" stroke-linecap="round" d="M-4.64,16.94
		c1.398,3.74,2.795,7.481,4.388,7.481 M4.129,16.94c-1.397,3.739-2.793,7.481-4.386,7.481 M4.128,16.94
		c1.397-3.74,2.795-7.481,4.387-7.481 M12.896,16.941C11.5,13.2,10.104,9.459,8.511,9.459 M12.896,16.942
		c1.398,3.741,2.795,7.481,4.385,7.481 M21.665,16.942c-1.398,3.741-2.795,7.481-4.387,7.481 M21.665,16.943
		c1.396-3.741,2.792-7.481,4.385-7.481 M30.432,16.943c-1.396-3.741-2.793-7.481-4.386-7.481 M30.432,16.941
		c1.397,3.74,2.793,7.481,4.387,7.481 M39.197,16.941c-1.396,3.74-2.793,7.481-4.387,7.481 M39.197,16.941
		c1.398-3.74,2.796-7.48,4.387-7.48 M47.966,16.942c-1.396-3.741-2.794-7.481-4.385-7.481 M47.966,16.941
		c1.396,3.74,2.793,7.481,4.39,7.481 M56.732,16.941c-1.396,3.74-2.791,7.481-4.385,7.481 M56.732,16.942
		c1.398-3.741,2.793-7.481,4.388-7.481 M65.501,16.942c-1.397-3.741-2.793-7.481-4.388-7.481 M65.501,16.94
		c1.396,3.74,2.793,7.481,4.388,7.481 M74.27,16.94c-1.396,3.739-2.793,7.481-4.386,7.481 M74.27,16.94
		c1.396-3.74,2.791-7.481,4.385-7.481 M83.038,16.941c-1.397-3.741-2.797-7.482-4.388-7.482 M83.038,16.942
		c1.396,3.741,2.795,7.481,4.385,7.481 M91.807,16.942c-1.396,3.741-2.795,7.481-4.386,7.481"/>
	<polyline id="Saw" display="inline" fill="none" stroke="#FFFFFF" stroke-width="3" stroke-linecap="round" points="-6.75,27.423 
		8.747,12.459 8.747,27.402 23.467,12.462 23.467,27.423 38.316,12.459 38.316,27 54.096,12.459 53.385,27.423 69.167,12.459 	"/>
</g>
<g>
	<path d="M10.247,8.925v14.817l14.72-14.94v14.979l14.85-14.964v14.76L47,16.958V7c0-3.313-2.688-6-6-6H7C3.687,1,1,3.687,1,7
		v10.854L10.247,8.925z"/>
	<path d="M36.816,30.422V16.1L21.967,31.064V16.122L7.247,31.062V15.993L1,22.024V41c0,3.313,2.687,6,6,6h34c3.313,0,6-2.688,6-6
		V21.038L36.816,30.422z"/>
</g>
</svg>
