<?xml version="1.0" encoding="utf-8"?>
<!-- Generator: Adobe Illustrator 16.0.0, SVG Export Plug-In . SVG Version: 6.00 Build 0)  -->
<!DOCTYPE svg PUBLIC "-//W3C//DTD SVG 1.1//EN" "http://www.w3.org/Graphics/SVG/1.1/DTD/svg11.dtd">
<svg version="1.1" xmlns="http://www.w3.org/2000/svg" xmlns:xlink="http://www.w3.org/1999/xlink" x="0px" y="0px" width="48px"
	 height="48px" viewBox="0 0 48 48" enable-background="new 0 0 48 48" xml:space="preserve">
<g id="Layer_1" display="none">
	<path display="inline" d="M47,41c0,3.313-2.687,6-6,6H7c-3.313,0-6-2.687-6-6V7c0-3.313,2.687-6,6-6h34c3.313,0,6,2.687,6,6V41z"/>
	<line display="inline" fill="none" stroke="#FFFFFF" stroke-width="4" stroke-miterlimit="10" x1="1" y1="25" x2="25" y2="25"/>
	<circle display="inline" fill="#FFFFFF" cx="24" cy="25" r="4.667"/>
	<line display="inline" fill="none" stroke="#FFFFFF" stroke-width="4" x1="34" y1="25" x2="48" y2="25"/>
	<path display="inline" fill="#FFFFFF" d="M24,13c-4.43,0-8.297,2.419-10.376,6h5.103c1.41-1.241,3.253-2,5.274-2
		c4.411,0,8,3.589,8,8s-3.589,8-8,8c-2.021,0-3.864-0.76-5.274-2h-5.103c2.079,3.581,5.946,6,10.376,6c6.617,0,12-5.383,12-12
		C36,18.383,30.617,13,24,13z"/>
</g>
<g id="Combined">
	<path d="M35.819,27C34.863,32.666,29.935,37,24,37c-4.43,0-8.298-2.419-10.376-6h5.103c1.41,1.24,3.253,2,5.274,2
		c4.411,0,8-3.589,8-8s-3.589-8-8-8c-2.021,0-3.864,0.759-5.274,2h-5.103c2.079-3.581,5.947-6,10.376-6
		c5.935,0,10.862,4.334,11.819,10H47V7c0-3.313-2.687-6-6-6H7C3.687,1,1,3.687,1,7v16h18.799c0.75-1.572,2.342-2.667,4.201-2.667
		c2.577,0,4.667,2.089,4.667,4.667c0,2.577-2.09,4.667-4.667,4.667c-1.858,0-3.45-1.095-4.201-2.667H1v14c0,3.313,2.687,6,6,6h34
		c3.313,0,6-2.687,6-6V27H35.819z"/>
</g>
</svg>
