<?xml version="1.0" encoding="utf-8"?>
<!-- Generator: Adobe Illustrator 16.0.0, SVG Export Plug-In . SVG Version: 6.00 Build 0)  -->
<!DOCTYPE svg PUBLIC "-//W3C//DTD SVG 1.1//EN" "http://www.w3.org/Graphics/SVG/1.1/DTD/svg11.dtd">
<svg version="1.1" xmlns="http://www.w3.org/2000/svg" xmlns:xlink="http://www.w3.org/1999/xlink" x="0px" y="0px" width="48px"
	 height="48px" viewBox="0 0 48 48" enable-background="new 0 0 48 48" xml:space="preserve">
<g id="Combined">
	<g>
		<path d="M28.602,32.402c1.899-0.775,2.621-2.884,2.882-4.072c0.517-2.352,0.188-5.232-0.903-7.903
			c-0.302-0.739-0.646-1.417-1.017-2.049l-5.817,13.155c1.183,0.759,2.367,1.15,3.388,1.15
			C27.652,32.684,28.146,32.589,28.602,32.402z"/>
		<path d="M20.783,13.264c-1.898,0.775-2.62,2.884-2.881,4.071c-0.517,2.352-0.188,5.232,0.903,7.902
			c0.354,0.866,0.763,1.655,1.208,2.373l5.883-13.304c-1.268-0.873-2.551-1.323-3.647-1.323
			C21.733,12.983,21.24,13.077,20.783,13.264z"/>
		<path d="M35.807,4.261l-3.896,8.812c1.318,1.549,2.452,3.392,3.299,5.464c1.486,3.64,1.898,7.499,1.158,10.867
			c-0.803,3.65-2.943,6.431-5.875,7.628c-1.059,0.433-2.188,0.652-3.357,0.652c-1.847,0-3.696-0.549-5.431-1.532l-4.363,9.866
			C19.45,46.654,21.684,47,24,47c12.703,0,23-10.297,23-23.001C47,15.613,42.511,8.279,35.807,4.261z"/>
		<path d="M17.699,32.847c-1.414-1.601-2.628-3.531-3.522-5.719c-1.486-3.639-1.898-7.498-1.158-10.866
			c0.802-3.65,2.942-6.43,5.874-7.627c1.059-0.433,2.189-0.652,3.358-0.652c1.942,0,3.889,0.598,5.701,1.68l3.311-7.486
			C28.979,1.417,26.538,1,24,1C11.297,1,1,11.296,1,23.999c0,8.612,4.736,16.114,11.742,20.056L17.699,32.847z"/>
	</g>
</g>
</svg>
