<?xml version="1.0" encoding="utf-8"?>
<!-- Generator: Adobe Illustrator 16.0.0, SVG Export Plug-In . SVG Version: 6.00 Build 0)  -->
<!DOCTYPE svg PUBLIC "-//W3C//DTD SVG 1.1//EN" "http://www.w3.org/Graphics/SVG/1.1/DTD/svg11.dtd">
<svg version="1.1" xmlns="http://www.w3.org/2000/svg" xmlns:xlink="http://www.w3.org/1999/xlink" x="0px" y="0px" width="48px"
	 height="48px" viewBox="0 0 48 48" enable-background="new 0 0 48 48" xml:space="preserve">
<g id="Layer_1" display="none">
	<circle cx="24" cy="23.999" r="23"/>
	<path display="inline" d="M47,41c0,3.313-2.687,6-6,6H7c-3.313,0-6-2.687-6-6V7c0-3.313,2.687-6,6-6h34c3.313,0,6,2.687,6,6V41z"/>
	<g display="inline">
		<circle fill="none" stroke="#FFFFFF" stroke-width="3" stroke-linecap="round" cx="9.938" cy="59.874" r="10.865"/>
		<circle fill="none" stroke="#FFFFFF" stroke-width="3" stroke-linecap="round" cx="9.938" cy="59.874" r="25.055"/>
		<circle fill="none" stroke="#FFFFFF" stroke-width="3" stroke-linecap="round" cx="9.938" cy="59.874" r="37.472"/>
		<circle fill="none" stroke="#FFFFFF" stroke-width="3" stroke-linecap="round" cx="9.938" cy="60.761" r="52.327"/>
	</g>
	<g display="inline">
		<circle fill="none" stroke="#FFFFFF" stroke-width="3" stroke-linecap="round" cx="50.938" cy="46.874" r="10.865"/>
		<circle fill="none" stroke="#FFFFFF" stroke-width="3" stroke-linecap="round" cx="50.938" cy="46.874" r="25.055"/>
		<circle fill="none" stroke="#FFFFFF" stroke-width="3" stroke-linecap="round" cx="50.938" cy="46.874" r="37.472"/>
		<circle fill="none" stroke="#FFFFFF" stroke-width="3" stroke-linecap="round" cx="50.938" cy="47.761" r="52.327"/>
	</g>
</g>
<g id="Composed">
	<g>
		<path d="M43.872,40.746c0.706,1.248,1.34,2.542,1.908,3.869C46.542,43.609,47,42.359,47,41v-2.618
			C45.798,38.944,44.733,39.755,43.872,40.746z"/>
		<path d="M34.719,29.817c2.885,2.382,5.421,5.171,7.522,8.277c1.326-1.313,2.952-2.32,4.759-2.931V26.06
			c-0.636-0.679-1.277-1.352-1.949-1.995C41.114,25.081,37.578,27.097,34.719,29.817z"/>
		<path d="M28.225,40.646c1.944,1.851,3.607,3.993,4.924,6.354h5.429c-0.001-0.042-0.005-0.084-0.005-0.126
			c0-2.287,0.635-4.423,1.722-6.263c-2.072-3.253-4.646-6.156-7.622-8.59C30.634,34.523,29.102,37.45,28.225,40.646z"/>
		<path d="M9.938,36.319c-3.144,0-6.144,0.624-8.889,1.747C1.03,38.161,1.018,38.259,1,38.354V41c0,3.313,2.687,6,6,6h4.969
			c0-0.042-0.003-0.084-0.003-0.126c0-3.566,0.491-7.019,1.393-10.304C12.241,36.407,11.1,36.319,9.938,36.319z"/>
		<path d="M24.383,46.874c0-1.773,0.178-3.506,0.512-5.184c-2.49-2.051-5.409-3.596-8.596-4.491
			c-0.862,3.08-1.333,6.323-1.333,9.675c0,0.042,0.003,0.084,0.003,0.126h9.417C24.386,46.958,24.383,46.916,24.383,46.874z"/>
		<path d="M45.951,20.795c0.347-0.066,0.697-0.123,1.049-0.175v-9.5c-3.709,0.408-7.249,1.382-10.535,2.832
			C39.874,15.893,43.058,18.185,45.951,20.795z"/>
		<path d="M42.103,43.797c-0.338,0.966-0.53,1.998-0.53,3.077c0,0.033,0.006,0.064,0.006,0.097c0.615-0.059,1.203-0.209,1.749-0.439
			C42.954,45.602,42.55,44.688,42.103,43.797z"/>
		<path d="M27.534,44.238c-0.097,0.866-0.151,1.744-0.151,2.636c0,0.042,0.006,0.084,0.006,0.126h2.236
			C28.989,46.032,28.301,45.101,27.534,44.238z"/>
		<path d="M33.163,12.209C37.389,10.034,42.061,8.618,47,8.116V7c0-3.313-2.687-6-6-6h-9.932c-4.141,1.77-8.006,4.064-11.5,6.813
			C24.346,8.681,28.911,10.167,33.163,12.209z"/>
		<path d="M7.774,20.965c0.716-0.04,1.437-0.063,2.163-0.063c3.709,0,7.295,0.532,10.696,1.504c2.637-3.26,5.789-6.083,9.331-8.354
			c-4.212-1.813-8.716-3.062-13.419-3.675C13.167,13.487,10.214,17.05,7.774,20.965z"/>
		<path d="M1,10.736v11.208c1.008-0.237,2.029-0.442,3.065-0.6c2.35-4.152,5.228-7.965,8.554-11.339
			c-0.888-0.046-1.782-0.072-2.682-0.072C6.887,9.934,3.904,10.219,1,10.736z"/>
		<path d="M9.938,6.934c1.904,0,3.785,0.103,5.639,0.297c2.699-2.358,5.641-4.441,8.771-6.23H7C3.687,1,1,3.687,1,7v0.689
			C3.909,7.201,6.892,6.934,9.938,6.934z"/>
		<path d="M5.96,24.127c-1.736,3.29-3.122,6.79-4.107,10.455c2.551-0.817,5.266-1.263,8.084-1.263c1.476,0,2.921,0.127,4.333,0.359
			c1.118-3.097,2.616-6.013,4.439-8.69c-2.809-0.707-5.747-1.086-8.772-1.086C8.593,23.902,7.267,23.982,5.96,24.127z"/>
		<path d="M1,27.711c0.406-1.01,0.834-2.007,1.299-2.985C1.863,24.821,1.431,24.927,1,25.038V27.711z"/>
		<path d="M17.221,34.344c3.104,0.887,5.979,2.319,8.508,4.197c1.013-3.056,2.563-5.866,4.544-8.318
			c-2.617-1.8-5.482-3.259-8.533-4.322C19.881,28.482,18.351,31.314,17.221,34.344z"/>
		<path d="M23.699,23.419c3.07,1.163,5.954,2.704,8.599,4.564c2.834-2.797,6.292-4.958,10.145-6.262
			c-2.834-2.364-5.933-4.417-9.237-6.126C29.603,17.646,26.389,20.299,23.699,23.419z"/>
	</g>
</g>
</svg>
