<?xml version="1.0" encoding="utf-8"?>
<!-- Generator: Adobe Illustrator 16.0.0, SVG Export Plug-In . SVG Version: 6.00 Build 0)  -->
<!DOCTYPE svg PUBLIC "-//W3C//DTD SVG 1.1//EN" "http://www.w3.org/Graphics/SVG/1.1/DTD/svg11.dtd">
<svg version="1.1" id="Layer_1" xmlns="http://www.w3.org/2000/svg" xmlns:xlink="http://www.w3.org/1999/xlink" x="0px" y="0px"
	 width="48px" height="48px" viewBox="0 0 48 48" enable-background="new 0 0 48 48" xml:space="preserve">
<g id="Layer_1_1_" display="none">
	<path display="inline" fill="#8A0000" d="M47,41c0,3.313-2.688,6-6,6H7c-3.313,0-6-2.688-6-6V7c0-3.313,2.687-6,6-6h34
		c3.313,0,6,2.687,6,6V41z"/>
	<text transform="matrix(1 0 0 1 12.3809 36.5205)" display="inline" fill="#FFFFFF" font-family="'Roboto-Black'" font-size="36">B</text>
</g>
<g id="composed">
	<path fill="#8A0000" d="M47,41c0,3.313-2.688,6-6,6H7c-3.313,0-6-2.688-6-6V7c0-3.313,2.687-6,6-6h34c3.313,0,6,2.687,6,6V41z"/>
	<g enable-background="new    ">
		<path fill="#FFFFFF" d="M14.42,36.521V10.927h8.385c3.176,0,5.651,0.589,7.427,1.767s2.663,2.933,2.663,5.265
			c0,1.219-0.281,2.3-0.844,3.243s-1.441,1.655-2.637,2.136c1.523,0.328,2.651,1.008,3.384,2.039s1.099,2.221,1.099,3.568
			c0,2.496-0.838,4.383-2.514,5.66s-4.078,1.916-7.207,1.916H14.42z M20.361,21.597h2.338c1.43,0,2.496-0.249,3.199-0.747
			s1.055-1.239,1.055-2.224c0-1.09-0.34-1.884-1.02-2.382s-1.723-0.747-3.129-0.747h-2.443V21.597z M20.361,25.534v6.416h3.814
			c1.266,0,2.215-0.249,2.848-0.747s0.949-1.263,0.949-2.294c0-1.09-0.278-1.916-0.835-2.479s-1.474-0.861-2.751-0.896h-0.193
			H20.361z"/>
	</g>
</g>
</svg>
