<?xml version="1.0" encoding="utf-8"?>
<!-- Generator: Adobe Illustrator 16.0.0, SVG Export Plug-In . SVG Version: 6.00 Build 0)  -->
<!DOCTYPE svg PUBLIC "-//W3C//DTD SVG 1.1//EN" "http://www.w3.org/Graphics/SVG/1.1/DTD/svg11.dtd">
<svg version="1.1" xmlns="http://www.w3.org/2000/svg" xmlns:xlink="http://www.w3.org/1999/xlink" x="0px" y="0px" width="48px"
	 height="48px" viewBox="0 0 48 48" enable-background="new 0 0 48 48" xml:space="preserve">
<g id="x">
</g>
<g id="Layer_1" display="none">
	<path display="inline" d="M47,41c0,3.313-2.688,6-6,6H7c-3.313,0-6-2.688-6-6V7c0-3.313,2.687-6,6-6h34c3.313,0,6,2.687,6,6V41z"/>
	<g display="inline">
		<line x1="24" y1="24" x2="31.413" y2="11.541"/>
		<g>
			<line fill="none" stroke="#FFFFFF" stroke-width="3" stroke-linecap="square" x1="24" y1="24" x2="28.11" y2="17.091"/>
			<g>
				<polygon fill="#FFFFFF" points="31.296,20.515 31.413,11.541 23.583,15.925 				"/>
			</g>
		</g>
	</g>
	<circle display="inline" fill="none" stroke="#FFFFFF" stroke-width="2" stroke-linecap="round" cx="24" cy="24" r="15.928"/>
</g>
<g id="Compound">
	<g>
		<path d="M41,1H7C3.687,1,1,3.687,1,7v34c0,3.313,2.687,6,6,6h34c3.313,0,6-2.688,6-6V7C47,3.687,44.313,1,41,1z M24,40.928
			c-9.334,0-16.928-7.594-16.928-16.928S14.666,7.072,24,7.072S40.928,14.666,40.928,24S33.334,40.928,24,40.928z"/>
		<path d="M24,9.072C15.769,9.072,9.072,15.769,9.072,24c0,8.231,6.697,14.928,14.928,14.928c8.231,0,14.928-6.696,14.928-14.928
			C38.928,15.769,32.231,9.072,24,9.072z M31.296,20.515l-2.568-1.528l-4.205,7.069l-2.579-1.533l4.206-7.07l-2.567-1.527
			l7.831-4.384L31.296,20.515z"/>
	</g>
</g>
</svg>
