<?xml version="1.0" encoding="utf-8"?>
<!-- Generator: Adobe Illustrator 16.0.0, SVG Export Plug-In . SVG Version: 6.00 Build 0)  -->
<!DOCTYPE svg PUBLIC "-//W3C//DTD SVG 1.1//EN" "http://www.w3.org/Graphics/SVG/1.1/DTD/svg11.dtd">
<svg version="1.1" id="Layer_1" xmlns="http://www.w3.org/2000/svg" xmlns:xlink="http://www.w3.org/1999/xlink" x="0px" y="0px"
	 width="48px" height="48px" viewBox="0 0 48 48" enable-background="new 0 0 48 48" xml:space="preserve">
<g id="Layer_1_1_" display="none">
	<path display="inline" fill="#004000" d="M47,41c0,3.313-2.688,6-6,6H7c-3.313,0-6-2.688-6-6V7c0-3.313,2.687-6,6-6h34
		c3.313,0,6,2.687,6,6V41z"/>
	<text transform="matrix(1 0 0 1 11.7305 36.5205)" display="inline" fill="#FFFFFF" font-family="'Roboto-Black'" font-size="36">A</text>
</g>
<g id="Layer_1_2_">
	<path fill="#004000" d="M47,41c0,3.313-2.688,6-6,6H7c-3.313,0-6-2.688-6-6V7c0-3.313,2.687-6,6-6h34c3.313,0,6,2.687,6,6V41z"/>
	<g enable-background="new    ">
		<path fill="#FFFFFF" d="M27.164,31.546h-7.611l-1.477,4.975h-6.258l8.35-25.594h3.182v0.018l0.018-0.018h3.182l8.367,25.594
			h-6.258L27.164,31.546z M20.924,26.976h4.869l-2.391-7.945h-0.105L20.924,26.976z"/>
	</g>
</g>
</svg>
