<?xml version="1.0" encoding="UTF-8" standalone="no"?>
<!-- Created with Inkscape (http://www.inkscape.org/) -->

<svg
   xmlns="http://www.w3.org/2000/svg"
   version="1.1"
   width="24"
   height="24"
   viewBox="0 -960 960 960"
   id="svg2989"
   >
  <path
     d="m 160,-120 c -22,0 -40.83333,-7.83333 -56.5,-23.5 C 87.833333,-159.16667 80,-178 80,-200 l 0,-480 c 0,-22 7.833333,-40.83333 23.5,-56.5 15.66667,-15.66667 34.5,-23.5 56.5,-23.5 l 126,0 74,-80 240,0 74,80 126,0 c 22,0 40.83333,7.83333 56.5,23.5 15.66667,15.66667 23.5,34.5 23.5,56.5 l 0,480 c 0,22 -7.83333,40.83333 -23.5,56.5 -15.66667,15.66667 -34.5,23.5 -56.5,23.5 z m 0,-80 640,0 0,-480 -162,0 -73,-80 -170,0 -73,80 -162,0 z"
     id="path2991" />
   <path
      d="m 363.08099,-624.73151 221.22071,0 0,67.74903 -135.30762,0 -1.18652,45.54199 c 2.29479,-0.68337 6.31822,-1.23757 12.07031,-1.6626 5.75181,-0.42458 10.65415,-0.63698 14.70703,-0.63721 37.49004,2.3e-4 67.33132,9.93186 89.52393,29.79493 22.19211,19.86345 33.2883,46.49917 33.28857,79.90722 -2.7e-4,35.85946 -13.09108,64.48736 -39.27246,85.88379 -26.18185,21.39649 -61.22576,32.09473 -105.13184,32.09473 -17.79308,0 -34.15048,-1.04248 -49.07226,-3.12744 -14.92194,-2.08496 -30.3858,-5.71045 -46.3916,-10.87647 l 0,-77.63672 c 17.0019,6.62118 31.97747,11.49422 44.92675,14.61914 12.94913,3.12508 26.03994,4.68757 39.27246,4.6875 18.59362,7e-5 33.33725,-3.98918 44.23096,-11.96777 10.89338,-7.97843 16.34015,-18.28115 16.34033,-30.9082 -1.8e-4,-14.66784 -5.84001,-26.09606 -17.51953,-34.28467 -11.67984,-8.18832 -28.5597,-12.28256 -50.63965,-12.28272 -9.88291,1.6e-4 -20.32235,0.67887 -31.31836,2.03614 -10.99616,1.35758 -24.86821,3.51578 -41.61621,6.47461 z"
      id="path3784"/>
</svg>
