<?xml version="1.0" encoding="UTF-8" standalone="no"?>
<!-- Created with Inkscape (http://www.inkscape.org/) -->

<svg
   xmlns="http://www.w3.org/2000/svg"
   version="1.1"
   width="24"
   height="24"
   viewBox="0 -960 960 960"
   id="svg2989"
   >
  <path
     d="m 160,-120 c -22,0 -40.83333,-7.83333 -56.5,-23.5 C 87.833333,-159.16667 80,-178 80,-200 l 0,-480 c 0,-22 7.833333,-40.83333 23.5,-56.5 15.66667,-15.66667 34.5,-23.5 56.5,-23.5 l 126,0 74,-80 240,0 74,80 126,0 c 22,0 40.83333,7.83333 56.5,23.5 15.66667,15.66667 23.5,34.5 23.5,56.5 l 0,480 c 0,22 -7.83333,40.83333 -23.5,56.5 -15.66667,15.66667 -34.5,23.5 -56.5,23.5 z m 0,-80 640,0 0,-480 -162,0 -73,-80 -170,0 -73,80 -162,0 z"
     id="path2991" />
   <path
      d="m 464.58002,-359.31647 130.06347,0 0,70.50293 -243.77929,0 0,-69.71191 c 52.40226,-42.73426 89.24793,-76.47202 110.53711,-101.21338 21.2889,-24.74102 31.93342,-45.08523 31.93359,-61.03272 -1.7e-4,-11.65991 -3.7697,-20.95677 -11.30859,-27.89062 -7.53922,-6.93333 -17.67593,-10.40012 -30.41016,-10.40039 -11.68957,2.7e-4 -24.34337,1.91189 -37.96143,5.73486 -13.61824,3.82351 -30.86676,9.8025 -51.7456,17.93701 l -2.54883,-75.04394 c 20.30268,-7.66569 39.73137,-13.22965 58.28613,-16.6919 18.55458,-3.46157 37.07507,-5.19252 55.56153,-5.19287 34.45294,3.5e-4 62.57791,9.49252 84.375,28.47657 21.79661,18.98467 32.69504,43.37917 32.69531,73.18359 -2.7e-4,25.61545 -10.25905,52.81513 -30.77637,81.59912 -20.51779,28.78431 -52.15839,58.69883 -94.92187,89.74365 z"
      id="path3775"
      />
</svg>
