<?xml version="1.0" encoding="UTF-8" standalone="no"?>
<!-- Created with Inkscape (http://www.inkscape.org/) -->

<svg
   xmlns="http://www.w3.org/2000/svg"
   version="1.1"
   width="24"
   height="24"
   viewBox="0 -960 960 960"
   id="svg2989"
   >
  <path
     d="m 160,-120 c -22,0 -40.83333,-7.83333 -56.5,-23.5 C 87.833333,-159.16667 80,-178 80,-200 l 0,-480 c 0,-22 7.833333,-40.83333 23.5,-56.5 15.66667,-15.66667 34.5,-23.5 56.5,-23.5 l 126,0 74,-80 240,0 74,80 126,0 c 22,0 40.83333,7.83333 56.5,23.5 15.66667,15.66667 23.5,34.5 23.5,56.5 l 0,480 c 0,22 -7.83333,40.83333 -23.5,56.5 -15.66667,15.66667 -34.5,23.5 -56.5,23.5 z m 0,-80 640,0 0,-480 -162,0 -73,-80 -170,0 -73,80 -162,0 z"
     id="path2991" />
   <path
      d="m 466.24994,-624.73151 74.61914,0 0,335.91797 -89.82422,0 0,-238.53515 -56.95312,41.36718 -42.31934,-62.44629 z"
      id="path3772"
      />
</svg>
