<?xml version="1.0" encoding="UTF-8" standalone="no"?>
<!-- Created with Inkscape (http://www.inkscape.org/) -->

<svg
   xmlns="http://www.w3.org/2000/svg"
   version="1.1"
   width="24"
   height="24"
   viewBox="0 -960 960 960"
   id="svg2989"
   >
  <path
     d="m 160,-120 c -22,0 -40.83333,-7.83333 -56.5,-23.5 C 87.833333,-159.16667 80,-178 80,-200 l 0,-480 c 0,-22 7.833333,-40.83333 23.5,-56.5 15.66667,-15.66667 34.5,-23.5 56.5,-23.5 l 126,0 74,-80 240,0 74,80 126,0 c 22,0 40.83333,7.83333 56.5,23.5 15.66667,15.66667 23.5,34.5 23.5,56.5 l 0,480 c 0,22 -7.83333,40.83333 -23.5,56.5 -15.66667,15.66667 -34.5,23.5 -56.5,23.5 z m 0,-80 640,0 0,-480 -162,0 -73,-80 -170,0 -73,80 -162,0 z"
     id="path2991" />
  <path
     d="m 478.26166,-438.41803 c -9.97085,1.5e-4 -18.49623,4.18716 -25.57617,12.56104 -7.08021,8.37415 -10.62024,19.2506 -10.62012,32.62939 -1.2e-4,13.74032 3.31531,24.70467 9.94629,32.89307 6.63072,8.18854 15.07798,12.28277 25.34179,12.28271 11.14242,6e-5 19.88508,-3.84759 26.22803,-11.54297 6.34259,-7.69523 9.51397,-18.75479 9.51416,-33.17871 -1.9e-4,-13.94519 -3.26923,-25.03893 -9.80713,-33.28125 -6.53826,-8.24204 -14.88053,-12.36313 -25.02685,-12.36328 z m 110.18554,-176.64551 -7.52929,72.09961 c -14.57056,-6.2595 -27.30492,-10.88841 -38.20313,-13.88672 -10.89864,-2.99777 -21.96309,-4.49679 -33.19336,-4.49707 -23.86735,2.8e-4 -41.80434,7.36355 -53.81103,22.08985 -12.00696,14.72679 -18.0885,35.71798 -18.24463,62.97363 2.90027,-10.0584 10.48816,-17.93437 22.76367,-23.62793 12.27524,-5.69314 26.02523,-8.53982 41.25,-8.54004 30.15604,2.2e-4 54.94606,10.35666 74.37012,31.06934 19.42355,20.71305 29.13546,47.00209 29.13574,78.86718 -2.8e-4,34.4532 -11.29666,62.6148 -33.88916,84.48487 -22.593,21.87012 -51.7751,32.80517 -87.54639,32.80517 -43.32043,0 -76.57235,-14.64843 -99.75586,-43.94531 -23.18363,-29.29681 -34.77541,-70.67372 -34.77539,-124.13086 -2e-5,-58.50564 13.35201,-103.32737 40.05616,-134.46533 26.704,-31.13737 65.54918,-46.7062 116.53564,-46.70654 12.91973,3.4e-4 26.01786,1.19174 39.29443,3.57421 13.27614,2.38315 27.79028,6.32846 43.54248,11.83594 z"
     id="path3886"
     />
</svg>
