<?xml version="1.0" encoding="UTF-8" standalone="no"?>
<!-- Created with Inkscape (http://www.inkscape.org/) -->

<svg
   xmlns="http://www.w3.org/2000/svg"
   version="1.1"
   width="24"
   height="24"
   viewBox="0 -960 960 960"
   id="svg2989"
   >
  <defs
     id="defs2995" />
  <path
     d="m 480,-260 q 75,0 127.5,-52.5 Q 660,-365 660,-440 660,-515 607.5,-567.5 555,-620 480,-620 405,-620 352.5,-567.5 300,-515 300,-440 q 0,75 52.5,127.5 Q 405,-260 480,-260 z m 0,-80 q -42,0 -71,-29 -29,-29 -29,-71 0,-42 29,-71 29,-29 71,-29 42,0 71,29 29,29 29,71 0,42 -29,71 -29,29 -71,29 z m -320,220 q -33,0 -56.5,-23.5 Q 80,-167 80,-200 v -480 q 0,-33 23.5,-56.5 Q 127,-760 160,-760 h 126 l 74,-80 h 240 l 74,80 h 126 q 33,0 56.5,23.5 23.5,23.5 23.5,56.5 v 480 q 0,33 -23.5,56.5 Q 833,-120 800,-120 H 160 z m 0,-80 H 800 V -680 H 638 l -73,-80 H 395 l -73,80 H 160 v 480 z m 320,-240 z"
     id="path2991" />
</svg>
