<?xml version="1.0" encoding="UTF-8" standalone="no"?>
<!-- Created with Inkscape (http://www.inkscape.org/) -->

<svg
   width="32.0px"
   height="32.0px"
   viewBox="0 0 32.0 32.0"
   version="1.1"
   id="SVGRoot"
   xml:space="preserve"
   xmlns="http://www.w3.org/2000/svg"
   xmlns:svg="http://www.w3.org/2000/svg"><defs
     id="defs5759" /><g
     id="layer1"><path
       id="path7995"
       style="font-variation-settings:normal;display:inline;opacity:1;vector-effect:none;fill:#cfcfcf;fill-opacity:1;stroke-width:0.698722;stroke-linecap:butt;stroke-linejoin:miter;stroke-miterlimit:4;stroke-dasharray:none;stroke-dashoffset:0;stroke-opacity:1;-inkscape-stroke:none;stop-color:#000000;stop-opacity:1"
       d="m 10.476028,4 c 2.520218,0.02573 4.755717,1.6237434 5.595703,4 h 10.928265 v 4 H 16.073684 C 15.225955,14.397743 12.95867,16.000572 10.415481,16 7.1078786,15.9914 4.4311056,13.307613 4.4311056,10 V 9.9394531 C 4.4643916,6.6318334 7.1683316,3.9750671 10.476028,4 Z m -0.02148,3 C 8.8006926,6.986989 7.4482866,8.3149377 7.4311096,9.96875 V 10 c 0,1.653806 1.338387,2.995693 2.9921884,3 1.653813,0.0043 2.9992,-1.330576 3.007808,-2.984375 C 13.439806,8.3617937 12.108348,7.012898 10.454544,7 Z m 11.129967,9 c 3.307602,0.0086 5.984375,2.692387 5.984375,6 v 0.06055 c -0.03329,3.30762 -2.737226,5.964386 -6.044922,5.939453 -2.520218,-0.02573 -4.755717,-1.623743 -5.595703,-4 H 4.9999956 V 20 H 15.926308 c 0.84773,-2.397743 3.115013,-4.000572 5.658203,-4 z m -0.0078,3 c -1.653816,-0.0043 -2.999204,1.330576 -3.007812,2.984375 -0.0087,1.653831 1.322742,3.002727 2.976545,3.015625 1.653854,0.01301 3.006261,-1.314938 3.023438,-2.96875 V 22 c 0,-1.653806 -1.338386,-2.995693 -2.992188,-3 z" /></g></svg>
