<?xml version="1.0" encoding="UTF-8" standalone="no"?>
<!-- Created with Inkscape (http://www.inkscape.org/) -->

<svg
   width="284"
   height="36"
   viewBox="0 0 75.141663 9.525"
   version="1.1"
   id="svg5"
   xmlns="http://www.w3.org/2000/svg"
   xmlns:svg="http://www.w3.org/2000/svg">
  <defs
     id="defs2">
    <rect
       x="-14.38694"
       y="-5.4197793"
       width="35.01685"
       height="69.568077"
       id="rect503" />
  </defs>
  <g
     id="layer1">
    <g
       aria-label="TooB Convolution Reverb"
       id="text236"
       style="font-style:italic;font-weight:bold;font-size:5.64444px;line-height:0;font-family:Timana;-inkscape-font-specification:'Timana Bold Italic';fill:#686868;stroke:#7f7f7f;stroke-width:0.285001;stop-color:#000000">
      <path
         d="m 13.638542,3.8375084 h -1.168576 l -0.564995,3.2659481 h -0.945333 l 0.567751,-3.2659481 h -1.149283 l 0.132291,-0.7468961 h 3.25768 z"
         style="font-weight:900;font-family:Roboto;-inkscape-font-specification:'Roboto, Heavy Italic';fill:#e0e0e0;fill-opacity:0.752941;stroke:none;stroke-width:0.285"
         id="path403" />
      <path
         d="m 14.614192,4.0662626 q 0.399631,0.00551 0.691775,0.2011934 0.292143,0.1929252 0.427191,0.5401906 0.137804,0.3472654 0.09922,0.7717008 l -0.0055,0.060634 Q 15.749695,6.3262435 15.316991,6.7479229 14.884287,7.1696023 14.247634,7.158578 13.850759,7.1530658 13.561372,6.9628967 13.271984,6.7699715 13.131424,6.4254622 12.99362,6.0809529 13.032205,5.6592736 q 0.0689,-0.7331158 0.501606,-1.1685755 0.43546,-0.4354598 1.080381,-0.4244355 z m -0.675238,1.593011 -0.0083,0.1626083 q -0.03859,0.6146046 0.374826,0.6256289 0.534678,0.016536 0.620116,-0.8681634 l 0.01103,-0.2508028 q 0.0055,-0.2480466 -0.09371,-0.3941186 -0.09646,-0.148828 -0.286632,-0.1543401 -0.250802,-0.00827 -0.413411,0.2067055 -0.159852,0.2122178 -0.203949,0.6724822 z"
         style="font-weight:900;font-family:Roboto;-inkscape-font-specification:'Roboto, Heavy Italic';fill:#e0e0e0;fill-opacity:0.752941;stroke:none;stroke-width:0.285"
         id="path405" />
      <path
         d="m 17.717531,4.0662626 q 0.399631,0.00551 0.691775,0.2011934 0.292144,0.1929252 0.427192,0.5401906 0.137803,0.3472654 0.09922,0.7717008 l -0.0055,0.060634 Q 18.853034,6.3262435 18.42033,6.7479229 17.987627,7.1696023 17.350973,7.158578 16.954099,7.1530658 16.664711,6.9628967 16.375323,6.7699715 16.234763,6.4254622 16.09696,6.0809529 16.135545,5.6592736 16.204447,4.9261578 16.63715,4.4906981 17.07261,4.0552383 17.717531,4.0662626 Z m -0.675238,1.593011 -0.0083,0.1626083 q -0.03859,0.6146046 0.374826,0.6256289 0.534678,0.016536 0.620117,-0.8681634 l 0.01102,-0.2508028 q 0.0055,-0.2480466 -0.09371,-0.3941186 -0.09646,-0.148828 -0.286632,-0.1543401 -0.250803,-0.00827 -0.413411,0.2067055 -0.159853,0.2122178 -0.20395,0.6724822 z"
         style="font-weight:900;font-family:Roboto;-inkscape-font-specification:'Roboto, Heavy Italic';fill:#e0e0e0;fill-opacity:0.752941;stroke:none;stroke-width:0.285"
         id="path407" />
      <path
         d="m 19.12313,7.1034565 0.69453,-4.0128442 1.276063,0.00276 q 0.755164,0.00276 1.127234,0.2866317 0.37207,0.2838757 0.338997,0.7965055 -0.04134,0.6338971 -0.69453,0.8984802 0.234266,0.082682 0.363801,0.3004121 0.132292,0.2149738 0.113,0.518142 -0.03858,0.5815317 -0.460265,0.8957241 -0.418923,0.3141925 -1.149283,0.3141925 z m 1.240233,-1.70601 -0.16812,0.9618699 0.564995,0.00276 q 0.264583,0 0.440972,-0.1295355 0.176389,-0.1322915 0.209461,-0.3500214 0.07717,-0.4602644 -0.352777,-0.482313 z m 0.107487,-0.6338971 0.443728,0.00276 q 0.614605,-0.01378 0.689019,-0.4712887 0.06614,-0.4519962 -0.468533,-0.4547523 l -0.501606,-0.00276 z"
         style="font-weight:900;font-family:Roboto;-inkscape-font-specification:'Roboto, Heavy Italic';fill:#e0e0e0;fill-opacity:0.752941;stroke:none;stroke-width:0.285"
         id="path409" />
      <path
         d="M 27.43545,5.7364436 Q 27.399621,6.158123 27.157086,6.4860959 26.917308,6.8140687 26.523189,6.9904575 26.131826,7.1668462 25.674318,7.158578 25.045933,7.1447976 24.684887,6.7534351 24.323842,6.3620725 24.290769,5.6923465 q -0.02481,-0.4464841 0.09646,-0.9728943 0.124024,-0.5264102 0.399631,-0.9150166 0.278364,-0.3913626 0.65319,-0.5842878 0.377582,-0.1956813 0.824066,-0.187413 0.655946,0.011024 1.036284,0.3941186 0.383094,0.3830943 0.416167,1.0555764 l -0.939821,-0.00276 q 0.0055,-0.3665579 -0.132292,-0.5236542 -0.137803,-0.1570962 -0.435459,-0.1681205 -0.744141,-0.024805 -0.906749,1.1575512 -0.07441,0.5346784 -0.07441,0.7634326 -0.01378,0.6779943 0.501606,0.6972868 0.333485,0.011024 0.531922,-0.1626084 0.198437,-0.1763887 0.253559,-0.4960934 z"
         style="font-weight:900;font-family:Roboto;-inkscape-font-specification:'Roboto, Heavy Italic';fill:#e0e0e0;fill-opacity:0.752941;stroke:none;stroke-width:0.285"
         id="path411" />
      <path
         d="m 29.392262,4.0662626 q 0.39963,0.00551 0.691774,0.2011934 0.292144,0.1929252 0.427192,0.5401906 0.137804,0.3472654 0.09922,0.7717008 l -0.0055,0.060634 Q 30.527764,6.3262435 30.095061,6.7479229 29.662357,7.1696023 29.025704,7.158578 28.628829,7.1530658 28.339441,6.9628967 28.050053,6.7699715 27.909494,6.4254622 27.77169,6.0809529 27.810275,5.6592736 27.879177,4.9261578 28.311881,4.4906981 28.74734,4.0552383 29.392262,4.0662626 Z m -0.675239,1.593011 -0.0083,0.1626083 q -0.03859,0.6146046 0.374826,0.6256289 0.534679,0.016536 0.620117,-0.8681634 l 0.01102,-0.2508028 q 0.0055,-0.2480466 -0.09371,-0.3941186 -0.09646,-0.148828 -0.286632,-0.1543401 -0.250803,-0.00827 -0.413411,0.2067055 -0.159852,0.2122178 -0.20395,0.6724822 z"
         style="font-weight:900;font-family:Roboto;-inkscape-font-specification:'Roboto, Heavy Italic';fill:#e0e0e0;fill-opacity:0.752941;stroke:none;stroke-width:0.285"
         id="path413" />
      <path
         d="m 32.101483,4.118628 -0.06339,0.3582897 q 0.35829,-0.4244355 0.862652,-0.4134112 0.413411,0.00827 0.614604,0.3086804 0.20395,0.297656 0.148828,0.854383 L 33.349985,7.1034565 H 32.44048 l 0.316949,-1.8823988 q 0.01102,-0.096463 0.0055,-0.1763887 -0.01929,-0.2618271 -0.30868,-0.2618271 -0.239779,-0.00551 -0.438216,0.2122178 l -0.37207,2.1083968 h -0.906749 l 0.518142,-2.9820724 z"
         style="font-weight:900;font-family:Roboto;-inkscape-font-specification:'Roboto, Heavy Italic';fill:#e0e0e0;fill-opacity:0.752941;stroke:none;stroke-width:0.285"
         id="path415" />
      <path
         d="M 35.218604,5.9872464 35.9655,4.1213841 h 0.978406 l -1.41111,2.9820724 h -0.923285 l -0.4768,-2.9820724 h 0.931553 z"
         style="font-weight:900;font-family:Roboto;-inkscape-font-specification:'Roboto, Heavy Italic';fill:#e0e0e0;fill-opacity:0.752941;stroke:none;stroke-width:0.285"
         id="path417" />
      <path
         d="m 38.423918,4.0662626 q 0.399631,0.00551 0.691775,0.2011934 0.292143,0.1929252 0.427191,0.5401906 0.137804,0.3472654 0.09922,0.7717008 l -0.0055,0.060634 Q 39.559421,6.3262435 39.126717,6.7479229 38.694013,7.1696023 38.05736,7.158578 37.660485,7.1530658 37.371098,6.9628967 37.08171,6.7699715 36.94115,6.4254622 36.803346,6.0809529 36.841931,5.6592736 q 0.0689,-0.7331158 0.501606,-1.1685755 0.43546,-0.4354598 1.080381,-0.4244355 z m -0.675238,1.593011 -0.0083,0.1626083 q -0.03859,0.6146046 0.374826,0.6256289 0.534678,0.016536 0.620116,-0.8681634 l 0.01102,-0.2508028 Q 38.751891,5.080498 38.652672,4.934426 38.55621,4.785598 38.36604,4.7800859 38.115238,4.7718176 37.952629,4.9867914 37.792777,5.1990092 37.74868,5.6592736 Z"
         style="font-weight:900;font-family:Roboto;-inkscape-font-specification:'Roboto, Heavy Italic';fill:#e0e0e0;fill-opacity:0.752941;stroke:none;stroke-width:0.285"
         id="path419" />
      <path
         d="m 40.744533,7.1034565 h -0.909505 l 0.733116,-4.2333301 h 0.909505 z"
         style="font-weight:900;font-family:Roboto;-inkscape-font-specification:'Roboto, Heavy Italic';fill:#e0e0e0;fill-opacity:0.752941;stroke:none;stroke-width:0.285"
         id="path421" />
      <path
         d="M 43.164366,6.7782397 Q 42.830881,7.1723584 42.359592,7.1613341 41.921377,7.1558219 41.698135,6.8554098 41.477649,6.5549977 41.527258,6.0506361 l 0.322461,-1.929252 h 0.906748 l -0.327973,1.9402763 q -0.0083,0.079926 0,0.1460719 0.01929,0.2259981 0.26734,0.2342664 0.286631,0.011024 0.487825,-0.2259981 l 0.369314,-2.0946165 h 0.91226 l -0.518142,2.9820724 h -0.843358 z"
         style="font-weight:900;font-family:Roboto;-inkscape-font-specification:'Roboto, Heavy Italic';fill:#e0e0e0;fill-opacity:0.752941;stroke:none;stroke-width:0.285"
         id="path423" />
      <path
         d="m 46.135415,3.3800001 -0.129536,0.741384 H 46.48268 L 46.369681,4.7663055 H 45.89288 l -0.23151,1.3697689 q -0.01929,0.1405598 0.01654,0.2122177 0.03859,0.071658 0.187413,0.07717 0.05788,0.00276 0.237022,-0.01378 L 46.036196,7.084164 Q 45.807442,7.158578 45.548371,7.1530658 45.126692,7.1475537 44.91723,6.9050191 44.707768,6.6624846 44.746353,6.2463174 l 0.242535,-1.4800119 h -0.369314 l 0.110243,-0.6449214 h 0.369314 l 0.129535,-0.741384 z"
         style="font-weight:900;font-family:Roboto;-inkscape-font-specification:'Roboto, Heavy Italic';fill:#e0e0e0;fill-opacity:0.752941;stroke:none;stroke-width:0.285"
         id="path425" />
      <path
         d="m 47.298479,7.1034565 h -0.909505 l 0.518142,-2.9820724 h 0.909505 z M 46.987042,3.3689758 q -0.0055,-0.2011934 0.14056,-0.336241 0.148828,-0.1350477 0.35829,-0.1350477 0.212217,0 0.352777,0.1212673 0.143316,0.1212672 0.148828,0.3169485 0.0055,0.2039495 -0.14056,0.3389972 -0.146072,0.1322915 -0.358289,0.1322915 -0.206706,0 -0.352778,-0.1185112 -0.143316,-0.1212672 -0.148828,-0.3197046 z"
         style="font-weight:900;font-family:Roboto;-inkscape-font-specification:'Roboto, Heavy Italic';fill:#e0e0e0;fill-opacity:0.752941;stroke:none;stroke-width:0.285"
         id="path427" />
      <path
         d="m 49.613579,4.0662626 q 0.399631,0.00551 0.691775,0.2011934 0.292143,0.1929252 0.427191,0.5401906 0.137804,0.3472654 0.09922,0.7717008 l -0.0055,0.060634 Q 50.749082,6.3262435 50.316378,6.7479229 49.883674,7.1696023 49.247021,7.158578 48.850146,7.1530658 48.560759,6.9628967 48.271371,6.7699715 48.130811,6.4254622 47.993007,6.0809529 48.031592,5.6592736 q 0.0689,-0.7331158 0.501606,-1.1685755 0.43546,-0.4354598 1.080381,-0.4244355 z m -0.675238,1.593011 -0.0083,0.1626083 q -0.03858,0.6146046 0.374826,0.6256289 0.534678,0.016536 0.620116,-0.8681634 L 49.93604,5.3285446 Q 49.941552,5.080498 49.842333,4.934426 49.745871,4.785598 49.555701,4.7800859 49.304899,4.7718176 49.14229,4.9867914 48.982438,5.1990092 48.938341,5.6592736 Z"
         style="font-weight:900;font-family:Roboto;-inkscape-font-specification:'Roboto, Heavy Italic';fill:#e0e0e0;fill-opacity:0.752941;stroke:none;stroke-width:0.285"
         id="path429" />
      <path
         d="m 52.3228,4.118628 -0.06339,0.3582897 q 0.358289,-0.4244355 0.862651,-0.4134112 0.413411,0.00827 0.614605,0.3086804 0.203949,0.297656 0.148828,0.854383 l -0.314193,1.8768866 h -0.909504 l 0.316948,-1.8823988 q 0.01102,-0.096463 0.0055,-0.1763887 -0.01929,-0.2618271 -0.30868,-0.2618271 -0.239778,-0.00551 -0.438216,0.2122178 l -0.37207,2.1083968 h -0.906748 l 0.518142,-2.9820724 z"
         style="font-weight:900;font-family:Roboto;-inkscape-font-specification:'Roboto, Heavy Italic';fill:#e0e0e0;fill-opacity:0.752941;stroke:none;stroke-width:0.285"
         id="path431" />
      <path
         d="m 57.239635,5.6868343 h -0.523654 l -0.248046,1.4166222 h -0.942578 l 0.694531,-4.0128442 1.416622,0.00276 q 0.68075,0 1.047308,0.3197046 0.369314,0.3169485 0.330729,0.8681634 -0.03032,0.4354598 -0.250803,0.7220915 -0.220485,0.2838756 -0.61736,0.4492401 l 0.54019,1.6040352 v 0.046853 h -1.005967 z m -0.396874,-0.7468961 0.551215,0.00551 q 0.225998,0 0.391362,-0.110243 0.168121,-0.1102429 0.239779,-0.3004121 0.07166,-0.1929252 0.04134,-0.37207 -0.05512,-0.3059242 -0.391363,-0.3224607 l -0.639409,-0.00276 z"
         style="font-weight:900;font-family:Roboto;-inkscape-font-specification:'Roboto, Heavy Italic';fill:#e0e0e0;fill-opacity:0.752941;stroke:none;stroke-width:0.285"
         id="path433" />
      <path
         d="M 60.566218,7.158578 Q 60.166587,7.1558219 59.852395,6.9711649 59.540958,6.7837519 59.381106,6.453023 59.221254,6.119538 59.254327,5.7199072 l 0.0083,-0.07717 q 0.07441,-0.7358718 0.509874,-1.1630633 0.438215,-0.4299476 1.072112,-0.4134112 0.383095,0.00551 0.655946,0.1956813 0.272851,0.187413 0.399631,0.520898 0.126779,0.3307289 0.08268,0.7441401 l -0.05237,0.3775822 h -1.774912 q 0.0055,0.2342663 0.132291,0.3803382 0.12678,0.146072 0.369314,0.1543402 0.394119,0.011024 0.708311,-0.3031682 L 61.745818,6.640436 Q 61.577697,6.8802145 61.274529,7.0180182 60.974117,7.1530658 60.615827,7.158578 Z m 0.220486,-2.3784921 q -0.192925,-0.00551 -0.336241,0.1212672 -0.14056,0.1267794 -0.245291,0.4244355 h 0.906749 l 0.01654,-0.079926 q 0.01654,-0.096463 0.0055,-0.1819009 -0.04685,-0.2756074 -0.347265,-0.2838756 z"
         style="font-weight:900;font-family:Roboto;-inkscape-font-specification:'Roboto, Heavy Italic';fill:#e0e0e0;fill-opacity:0.752941;stroke:none;stroke-width:0.285"
         id="path435" />
      <path
         d="m 63.404975,5.9872464 0.746896,-1.8658623 h 0.978406 l -1.41111,2.9820724 H 62.795882 L 62.319081,4.1213841 h 0.931554 z"
         style="font-weight:900;font-family:Roboto;-inkscape-font-specification:'Roboto, Heavy Italic';fill:#e0e0e0;fill-opacity:0.752941;stroke:none;stroke-width:0.285"
         id="path437" />
      <path
         d="M 66.359488,7.158578 Q 65.959857,7.1558219 65.645665,6.9711649 65.334228,6.7837519 65.174376,6.453023 65.014524,6.119538 65.047597,5.7199072 l 0.0083,-0.07717 q 0.07441,-0.7358718 0.509874,-1.1630633 0.438215,-0.4299476 1.072113,-0.4134112 0.383094,0.00551 0.655945,0.1956813 0.272852,0.187413 0.399631,0.520898 0.126779,0.3307289 0.08268,0.7441401 l -0.05237,0.3775822 h -1.774912 q 0.0055,0.2342663 0.132292,0.3803382 0.126779,0.146072 0.369313,0.1543402 0.394119,0.011024 0.708312,-0.3031682 L 67.539088,6.640436 Q 67.370967,6.8802145 67.067799,7.0180182 66.767387,7.1530658 66.409097,7.158578 Z m 0.220486,-2.3784921 q -0.192925,-0.00551 -0.336241,0.1212672 -0.14056,0.1267794 -0.245291,0.4244355 h 0.906749 l 0.01654,-0.079926 q 0.01654,-0.096463 0.0055,-0.1819009 -0.04685,-0.2756074 -0.347265,-0.2838756 z"
         style="font-weight:900;font-family:Roboto;-inkscape-font-specification:'Roboto, Heavy Italic';fill:#e0e0e0;fill-opacity:0.752941;stroke:none;stroke-width:0.285"
         id="path439" />
      <path
         d="M 70.038846,4.9619868 Q 69.892774,4.9399382 69.757727,4.934426 69.349828,4.9234017 69.134854,5.2155456 l -0.336241,1.8879109 h -0.906749 l 0.518142,-2.9820724 0.846115,-0.00276 -0.0689,0.3913626 q 0.292144,-0.4519962 0.689019,-0.4519962 0.112999,0 0.281119,0.038585 z"
         style="font-weight:900;font-family:Roboto;-inkscape-font-specification:'Roboto, Heavy Italic';fill:#e0e0e0;fill-opacity:0.752941;stroke:none;stroke-width:0.285"
         id="path441" />
      <path
         d="M 72.932726,5.6179324 Q 72.847287,6.34278 72.505534,6.7589472 72.163781,7.1751144 71.607054,7.1613341 71.166082,7.1503098 70.92906,6.7920201 l -0.112999,0.3114364 h -0.82131 l 0.735871,-4.2333301 h 0.906749 l -0.2949,1.4965483 q 0.300412,-0.3059242 0.669726,-0.3004121 0.438216,0.00551 0.683506,0.3141925 0.245291,0.3059242 0.259071,0.8350905 0.0028,0.1763888 -0.01378,0.3445093 z M 72.031489,5.562811 q 0.02205,-0.1681206 0.02481,-0.3197047 0,-0.4437279 -0.316948,-0.4630204 -0.28112,-0.011024 -0.471289,0.2397784 l -0.214974,1.1906241 q 0.08544,0.2287542 0.374826,0.2342663 0.443728,0.01378 0.559483,-0.5787756 l 0.03858,-0.2452906 z"
         style="font-weight:900;font-family:Roboto;-inkscape-font-specification:'Roboto, Heavy Italic';fill:#e0e0e0;fill-opacity:0.752941;stroke:none;stroke-width:0.285"
         id="path443" />
    </g>
    <path
       id="path1348"
       style="color:#000000;fill:#e0e0e0;fill-opacity:0.752941;stroke-width:0.714406;-inkscape-stroke:none"
       d="M 5.4193109,1.6360535 C 4.0746261,1.6465667 2.9804856,2.7485866 2.9805103,4.0933129 v 1.5080987 0.00443 0.00406 0.00702 c 0.00324,0.6351315 0.1709081,1.2397841 0.5330952,1.705241 0.091293,0.1173226 0.1960748,0.2241342 0.3126952,0.3186015 V 5.3666133 h 0.00259 V 4.0933129 C 3.8288705,3.2043172 4.5362516,2.4899017 5.4252198,2.4829515 6.3176074,2.4761075 7.0387059,3.1839609 7.0477631,4.0763306 v 0.016982 1.6742295 c 0,0.3851813 -0.1170262,0.6035969 -0.3182329,0.7675243 C 6.5283236,6.6989941 6.2034026,6.8056753 5.769664,6.8056753 H 5.437754 V 8.3957797 H 6.193851 V 7.5229912 C 6.5799202,7.4642455 6.9804539,7.4245038 7.2655789,7.1922063 7.6635843,6.8679419 7.8946602,6.354867 7.8946602,5.7675423 V 4.0933128 4.0693159 4.0682086 C 7.8809586,2.7185401 6.7690097,1.6257071 5.4193109,1.6360535 Z" />
    <g
       aria-label="B"
       id="text1054"
       style="font-style:italic;font-weight:900;font-size:6.35px;font-family:Roboto;-inkscape-font-specification:'Roboto, Heavy Italic';fill:#e0e0e0;fill-opacity:0.752941;stroke-width:0.285001;stop-color:#000000"
       transform="matrix(0.71440613,0,0,0.71440613,-2.144828,0.00813001)">
      <path
         id="path1085"
         style="font-style:normal;-inkscape-font-specification:'Roboto, Heavy';stroke-width:0.285"
         d="M 8.865092,5.8580404 V 8.9958333 11.74073 H 9.9533976 V 8.9958333 h 0.7441404 c 0.549837,-0.00413 0.964283,-0.116789 1.243335,-0.3379638 0.281119,-0.223242 0.42168,-0.5560389 0.42168,-0.9983887 0,-0.2439125 -0.06305,-0.4506186 -0.189136,-0.6201172 -0.12609,-0.1694982 -0.306958,-0.2852537 -0.542602,-0.3472656 0.208772,-0.078548 0.366902,-0.2005048 0.474389,-0.3658692 0.107487,-0.1653644 0.161231,-0.3648358 0.161231,-0.598413 0,-0.4051429 -0.151929,-0.7141686 -0.455786,-0.9270752 C 11.508859,4.5878339 11.18123,4.4813802 10.486698,4.4813802 H 9.9533976 c -1.0883054,0 -1.0883056,1.029605 -1.0883056,1.3766602 z m 1.0883056,-0.022757 c 0,-0.3308701 0.1341694,-0.4768142 0.3334184,-0.4952 l 0.199882,-0.018444 c 0.203885,-0.018814 0.420647,0.042375 0.530201,0.127124 0.109553,0.082682 0.164331,0.2191083 0.164331,0.4092774 0,0.1653644 -0.05064,0.2904216 -0.151929,0.3751709 -0.101285,0.08475 -0.270784,0.1281579 -0.508496,0.1302246 H 9.9533976 Z m 0,1.2412875 h 0.7627444 c 0.374137,0.00207 0.561206,0.1912032 0.561206,0.5674073 0,0.1632973 -0.05271,0.2904217 -0.15813,0.381372 -0.105419,0.088883 -0.256315,0.1333252 -0.452686,0.1333252 H 9.9533976 Z" />
    </g>
    <text
       xml:space="preserve"
       transform="scale(0.26458333)"
       id="text501"
       style="font-style:italic;font-weight:bold;font-size:22.6667px;line-height:0;font-family:Timana;-inkscape-font-specification:'Timana Bold Italic';white-space:pre;shape-inside:url(#rect503);fill:#686868;stroke:#7f7f7f;stroke-width:1.07717;stop-color:#000000" />
  </g>
</svg>
