<?xml version="1.0" encoding="UTF-8" standalone="no"?>
<!-- Created with Inkscape (http://www.inkscape.org/) -->

<svg
   width="360"
   height="36"
   viewBox="0 0 95.249994 9.525"
   version="1.1"
   id="svg5"
   xmlns="http://www.w3.org/2000/svg"
   xmlns:svg="http://www.w3.org/2000/svg">
  <defs
     id="defs2">
    <rect
       x="-14.38694"
       y="-5.4197793"
       width="35.01685"
       height="69.568077"
       id="rect503" />
  </defs>
  <g
     id="layer1">
    <g
       aria-label="TooB Convolution Reverb (Stereo)"
       id="text236"
       style="font-style:italic;font-weight:bold;font-size:5.64444px;line-height:0;font-family:Timana;-inkscape-font-specification:'Timana Bold Italic';fill:#686868;stroke:#7f7f7f;stroke-width:0.285001;stop-color:#000000">
      <path
         d="m 13.577908,3.7603384 h -1.190624 l -0.578776,3.3431181 h -0.807529 l 0.578775,-3.3431181 h -1.176843 l 0.118511,-0.6697261 h 3.174997 z"
         style="font-family:Roboto;-inkscape-font-specification:'Roboto, Bold Italic';fill:#e0e0e0;fill-opacity:0.752941;stroke:none;stroke-width:0.285"
         id="path403" />
      <path
         d="m 14.561827,4.0662626 q 0.394118,0.00551 0.677994,0.2039495 0.286632,0.1956813 0.418923,0.5429467 0.135048,0.3445092 0.09646,0.7661886 -0.06339,0.7110672 -0.496093,1.1520391 -0.429948,0.4382158 -1.063845,0.4271915 -0.388607,-0.00551 -0.672482,-0.1984374 -0.283876,-0.1956812 -0.418924,-0.5401905 -0.135047,-0.3445093 -0.09646,-0.7606765 0.07166,-0.738628 0.501605,-1.1740877 0.429948,-0.4354597 1.052821,-0.4189233 z m -0.785481,1.8768866 q 0.0055,0.2645831 0.124023,0.4189233 0.118511,0.1515841 0.333485,0.1570962 0.35829,0.011024 0.562239,-0.3279728 0.20395,-0.3417532 0.190169,-0.8957241 -0.01102,-0.2645832 -0.129535,-0.4216794 -0.115755,-0.1598523 -0.333485,-0.1653645 -0.347266,-0.011024 -0.556727,0.3279729 -0.206706,0.336241 -0.190169,0.9067484 z"
         style="font-family:Roboto;-inkscape-font-specification:'Roboto, Bold Italic';fill:#e0e0e0;fill-opacity:0.752941;stroke:none;stroke-width:0.285"
         id="path405" />
      <path
         d="m 17.684459,4.0662626 q 0.394118,0.00551 0.677994,0.2039495 0.286632,0.1956813 0.418923,0.5429467 0.135048,0.3445092 0.09646,0.7661886 -0.06339,0.7110672 -0.496093,1.1520391 -0.429948,0.4382158 -1.063845,0.4271915 -0.388607,-0.00551 -0.672482,-0.1984374 -0.283876,-0.1956812 -0.418924,-0.5401905 -0.135047,-0.3445093 -0.09646,-0.7606765 0.07166,-0.738628 0.501605,-1.1740877 0.429948,-0.4354597 1.052821,-0.4189233 z m -0.785481,1.8768866 q 0.0055,0.2645831 0.124023,0.4189233 0.118511,0.1515841 0.333485,0.1570962 0.35829,0.011024 0.562239,-0.3279728 0.20395,-0.3417532 0.190169,-0.8957241 Q 18.09787,5.0308886 17.979359,4.8737924 17.863604,4.7139401 17.645874,4.7084279 17.298608,4.6974036 17.089147,5.0364008 16.882441,5.3726418 16.898978,5.9431492 Z"
         style="font-family:Roboto;-inkscape-font-specification:'Roboto, Bold Italic';fill:#e0e0e0;fill-opacity:0.752941;stroke:none;stroke-width:0.285"
         id="path407" />
      <path
         d="m 19.15069,7.1034565 0.697287,-4.0128442 1.251258,0.00276 q 0.697286,0.00276 1.047308,0.2838756 0.350021,0.2811196 0.316948,0.7909934 -0.03859,0.6090924 -0.702799,0.890212 0.239779,0.082682 0.37207,0.3114364 0.132292,0.2259981 0.113,0.5346784 -0.03858,0.5677513 -0.446484,0.8846998 -0.405143,0.3141925 -1.107942,0.3141925 z m 1.113454,-1.7473511 -0.190169,1.0831372 0.636653,0.00276 q 0.297656,0 0.49885,-0.146072 0.201193,-0.148828 0.239778,-0.3996307 0.03859,-0.2480467 -0.0689,-0.3858505 -0.104731,-0.1405597 -0.355533,-0.151584 z m 0.09922,-0.5842878 0.548459,0.00551 q 0.305924,-0.00551 0.498849,-0.1433159 0.195681,-0.1378037 0.234266,-0.3830943 0.0689,-0.4850691 -0.509873,-0.4878252 l -0.595312,-0.00276 z"
         style="font-family:Roboto;-inkscape-font-specification:'Roboto, Bold Italic';fill:#e0e0e0;fill-opacity:0.752941;stroke:none;stroke-width:0.285"
         id="path409" />
      <path
         d="m 27.336232,5.7640044 q -0.04685,0.4161672 -0.283876,0.7386279 -0.237022,0.3197046 -0.61736,0.4933373 -0.380339,0.1708766 -0.821311,0.1626084 -0.396874,-0.00827 -0.691774,-0.1819009 -0.2949,-0.1763888 -0.465777,-0.5071177 -0.16812,-0.333485 -0.190169,-0.7661886 -0.01929,-0.3389972 0.0689,-0.8433588 0.09095,-0.5043616 0.319705,-0.8957241 0.23151,-0.3913626 0.548458,-0.6201168 0.446484,-0.3197046 1.019748,-0.3086803 0.622873,0.011024 0.986674,0.3858504 0.366558,0.3720701 0.402387,1.036284 l -0.804773,-0.00276 q 0,-0.3803383 -0.151584,-0.556727 -0.151585,-0.1763888 -0.471289,-0.1874131 -0.413411,-0.01378 -0.680751,0.2949 -0.264583,0.3086803 -0.355533,0.9012363 -0.08819,0.5760195 -0.07717,0.8626512 0.01378,0.3638018 0.162608,0.5374345 0.148828,0.1708766 0.416167,0.1791449 0.369314,0.01378 0.5898,-0.1736327 0.223242,-0.1901692 0.2949,-0.5429467 z"
         style="font-family:Roboto;-inkscape-font-specification:'Roboto, Bold Italic';fill:#e0e0e0;fill-opacity:0.752941;stroke:none;stroke-width:0.285"
         id="path411" />
      <path
         d="m 29.331629,4.0662626 q 0.394118,0.00551 0.677994,0.2039495 0.286632,0.1956813 0.418923,0.5429467 0.135048,0.3445092 0.09646,0.7661886 -0.06339,0.7110672 -0.496093,1.1520391 -0.429948,0.4382158 -1.063845,0.4271915 -0.388607,-0.00551 -0.672482,-0.1984374 -0.283876,-0.1956812 -0.418924,-0.5401905 -0.135047,-0.3445093 -0.09646,-0.7606765 0.07166,-0.738628 0.501605,-1.1740877 0.429948,-0.4354597 1.052821,-0.4189233 z m -0.785481,1.8768866 q 0.0055,0.2645831 0.124023,0.4189233 0.118511,0.1515841 0.333485,0.1570962 0.35829,0.011024 0.562239,-0.3279728 0.20395,-0.3417532 0.190169,-0.8957241 Q 29.74504,5.0308886 29.626529,4.8737924 29.510774,4.7139401 29.293044,4.7084279 28.945778,4.6974036 28.736317,5.0364008 28.529611,5.3726418 28.546148,5.9431492 Z"
         style="font-family:Roboto;-inkscape-font-specification:'Roboto, Bold Italic';fill:#e0e0e0;fill-opacity:0.752941;stroke:none;stroke-width:0.285"
         id="path413" />
      <path
         d="m 31.977461,4.118628 -0.06615,0.3527775 q 0.35829,-0.4161672 0.868164,-0.4051429 0.421679,0.00827 0.622872,0.3086803 0.201194,0.3004121 0.146072,0.8323345 l -0.314192,1.8961791 h -0.777213 l 0.319704,-1.9044473 q 0.01378,-0.1074869 0.0055,-0.1956813 -0.03583,-0.2811196 -0.352778,-0.2893878 -0.305924,-0.011024 -0.548459,0.2838756 l -0.37207,2.1056408 h -0.777213 l 0.518142,-2.9820724 z"
         style="font-family:Roboto;-inkscape-font-specification:'Roboto, Bold Italic';fill:#e0e0e0;fill-opacity:0.752941;stroke:none;stroke-width:0.285"
         id="path415" />
      <path
         d="m 35.097337,6.119538 0.848871,-1.9981539 h 0.837847 l -1.441427,2.9820724 h -0.74414 L 34.088614,4.1213841 h 0.788237 z"
         style="font-family:Roboto;-inkscape-font-specification:'Roboto, Bold Italic';fill:#e0e0e0;fill-opacity:0.752941;stroke:none;stroke-width:0.285"
         id="path417" />
      <path
         d="m 38.30265,4.0662626 q 0.394119,0.00551 0.677995,0.2039495 0.286631,0.1956813 0.418923,0.5429467 0.135048,0.3445092 0.09646,0.7661886 -0.06339,0.7110672 -0.496094,1.1520391 Q 38.56999,7.1696023 37.936093,7.158578 37.547486,7.1530658 37.26361,6.9601406 36.979735,6.7644594 36.844687,6.4199501 36.709639,6.0754408 36.748225,5.6592736 36.819882,4.9206456 37.24983,4.4851859 37.679778,4.0497262 38.30265,4.0662626 Z m -0.785481,1.8768866 q 0.0055,0.2645831 0.124024,0.4189233 0.118511,0.1515841 0.333485,0.1570962 0.358289,0.011024 0.562239,-0.3279728 Q 38.740866,5.8494427 38.727086,5.2954718 38.716062,5.0308886 38.59755,4.8737924 38.481795,4.7139401 38.264065,4.7084279 37.9168,4.6974036 37.707338,5.0364008 37.500633,5.3726418 37.517169,5.9431492 Z"
         style="font-family:Roboto;-inkscape-font-specification:'Roboto, Bold Italic';fill:#e0e0e0;fill-opacity:0.752941;stroke:none;stroke-width:0.285"
         id="path419" />
      <path
         d="M 40.540584,7.1034565 H 39.757858 L 40.49373,2.8701264 h 0.779969 z"
         style="font-family:Roboto;-inkscape-font-specification:'Roboto, Bold Italic';fill:#e0e0e0;fill-opacity:0.752941;stroke:none;stroke-width:0.285"
         id="path421" />
      <path
         d="m 43.045856,6.7947762 q -0.330729,0.37207 -0.82131,0.3638018 -0.429948,-0.00551 -0.650434,-0.3086803 -0.220486,-0.3031682 -0.170876,-0.7992616 l 0.322461,-1.929252 h 0.777212 l -0.327972,1.9375202 q -0.01102,0.09095 -0.0028,0.1708766 0.02756,0.2756075 0.305924,0.2838757 0.361046,0.011024 0.598068,-0.2783635 l 0.37207,-2.113909 h 0.782725 l -0.518142,2.9820724 h -0.724847 z"
         style="font-family:Roboto;-inkscape-font-specification:'Roboto, Bold Italic';fill:#e0e0e0;fill-opacity:0.752941;stroke:none;stroke-width:0.285"
         id="path423" />
      <path
         d="m 45.868077,3.3882683 -0.129536,0.7331158 h 0.496093 L 46.13266,4.7056719 h -0.496094 l -0.253559,1.4937922 q -0.01654,0.1405598 0.02205,0.2149738 0.03858,0.074414 0.187413,0.079926 0.0441,0.00276 0.237022,-0.01378 l -0.05512,0.6090924 q -0.206706,0.068902 -0.446484,0.06339 -0.383094,-0.00551 -0.570507,-0.2397784 -0.187413,-0.2342663 -0.154341,-0.6338971 l 0.256315,-1.5737184 h -0.421679 l 0.101975,-0.5842878 h 0.421679 l 0.126779,-0.7331158 z"
         style="font-family:Roboto;-inkscape-font-specification:'Roboto, Bold Italic';fill:#e0e0e0;fill-opacity:0.752941;stroke:none;stroke-width:0.285"
         id="path425" />
      <path
         d="m 46.989797,7.1034565 h -0.782725 l 0.518141,-2.9820724 h 0.782726 z M 46.816164,3.3634637 q -0.0055,-0.184657 0.121267,-0.3059243 0.12678,-0.1212673 0.305924,-0.1212673 0.176389,-0.00551 0.305925,0.1074869 0.129535,0.1129991 0.135047,0.2921439 0.0055,0.1708766 -0.115755,0.297656 -0.118511,0.1267795 -0.311436,0.1322916 -0.173633,0.00551 -0.305924,-0.1047308 -0.129536,-0.110243 -0.135048,-0.297656 z"
         style="font-family:Roboto;-inkscape-font-specification:'Roboto, Bold Italic';fill:#e0e0e0;fill-opacity:0.752941;stroke:none;stroke-width:0.285"
         id="path427" />
      <path
         d="m 49.354511,4.0662626 q 0.394119,0.00551 0.677995,0.2039495 0.286631,0.1956813 0.418923,0.5429467 0.135047,0.3445092 0.09646,0.7661886 -0.06339,0.7110672 -0.496093,1.1520391 Q 49.62185,7.1696023 48.987953,7.158578 48.599347,7.1530658 48.315471,6.9601406 48.031596,6.7644594 47.896548,6.4199501 47.7615,6.0754408 47.800085,5.6592736 q 0.07166,-0.738628 0.501606,-1.1740877 0.429947,-0.4354597 1.05282,-0.4189233 z M 48.56903,5.9431492 q 0.0055,0.2645831 0.124023,0.4189233 0.118512,0.1515841 0.333485,0.1570962 0.35829,0.011024 0.56224,-0.3279728 Q 49.792727,5.8494427 49.778947,5.2954718 49.767922,5.0308886 49.649411,4.8737924 49.533656,4.7139401 49.315926,4.7084279 48.968661,4.6974036 48.759199,5.0364008 48.552494,5.3726418 48.56903,5.9431492 Z"
         style="font-family:Roboto;-inkscape-font-specification:'Roboto, Bold Italic';fill:#e0e0e0;fill-opacity:0.752941;stroke:none;stroke-width:0.285"
         id="path429" />
      <path
         d="m 52.000341,4.118628 -0.06614,0.3527775 q 0.358289,-0.4161672 0.868163,-0.4051429 0.421679,0.00827 0.622873,0.3086803 0.201193,0.3004121 0.146072,0.8323345 l -0.314193,1.8961791 h -0.777213 l 0.319705,-1.9044473 q 0.01378,-0.1074869 0.0055,-0.1956813 -0.03583,-0.2811196 -0.352777,-0.2893878 -0.305925,-0.011024 -0.548459,0.2838756 l -0.37207,2.1056408 h -0.777213 l 0.518142,-2.9820724 z"
         style="font-family:Roboto;-inkscape-font-specification:'Roboto, Bold Italic';fill:#e0e0e0;fill-opacity:0.752941;stroke:none;stroke-width:0.285"
         id="path431" />
      <path
         d="M 57.027421,5.6344689 H 56.371475 L 56.11516,7.1034565 h -0.807529 l 0.697286,-4.0128442 1.328428,0.00276 q 0.66697,0 1.02526,0.3141925 0.361046,0.3141924 0.319704,0.8736755 -0.05788,0.8268223 -0.881943,1.149283 l 0.564995,1.6288399 v 0.044097 h -0.859895 z m -0.540191,-0.6697261 0.600825,0.00551 q 0.319704,-0.00551 0.52641,-0.1708766 0.209461,-0.1681206 0.250803,-0.4547523 0.03858,-0.2673392 -0.08544,-0.4189233 -0.124023,-0.1515841 -0.394118,-0.1626084 l -0.689019,-0.00276 z"
         style="font-family:Roboto;-inkscape-font-specification:'Roboto, Bold Italic';fill:#e0e0e0;fill-opacity:0.752941;stroke:none;stroke-width:0.285"
         id="path433" />
      <path
         d="M 60.196906,7.158578 Q 59.805543,7.1558219 59.502375,6.9684089 59.201963,6.7782397 59.053135,6.4502669 58.904307,6.119538 58.93738,5.7226633 l 0.0083,-0.110243 q 0.04134,-0.4354597 0.253559,-0.7992615 0.212218,-0.3638019 0.545703,-0.5594831 0.333485,-0.1984374 0.738628,-0.1874131 0.576019,0.011024 0.870919,0.4244355 0.297656,0.410655 0.225998,1.041796 l -0.0441,0.3389972 h -1.827277 q -0.01102,0.2893878 0.14056,0.4630205 0.151584,0.1736326 0.413411,0.1791448 0.424435,0.011024 0.74414,-0.3279728 l 0.355533,0.4409718 q -0.16812,0.2535589 -0.485069,0.3968747 -0.316948,0.1405598 -0.68075,0.1350477 z m 0.248047,-2.4501501 q -0.214974,-0.00551 -0.383095,0.1350477 -0.165364,0.1405598 -0.297656,0.4878251 h 1.069357 l 0.01654,-0.071658 q 0.01654,-0.110243 0.0028,-0.2094617 -0.02756,-0.1598523 -0.135048,-0.2480466 -0.107487,-0.09095 -0.272851,-0.093707 z"
         style="font-family:Roboto;-inkscape-font-specification:'Roboto, Bold Italic';fill:#e0e0e0;fill-opacity:0.752941;stroke:none;stroke-width:0.285"
         id="path435" />
      <path
         d="m 62.986053,6.119538 0.848871,-1.9981539 h 0.837847 l -1.441427,2.9820724 h -0.74414 L 61.97733,4.1213841 h 0.788237 z"
         style="font-family:Roboto;-inkscape-font-specification:'Roboto, Bold Italic';fill:#e0e0e0;fill-opacity:0.752941;stroke:none;stroke-width:0.285"
         id="path437" />
      <path
         d="M 65.907493,7.158578 Q 65.51613,7.1558219 65.212962,6.9684089 64.91255,6.7782397 64.763722,6.4502669 64.614894,6.119538 64.647967,5.7226633 l 0.0083,-0.110243 q 0.04134,-0.4354597 0.253559,-0.7992615 0.212217,-0.3638019 0.545702,-0.5594831 0.333485,-0.1984374 0.738628,-0.1874131 0.57602,0.011024 0.87092,0.4244355 0.297656,0.410655 0.225998,1.041796 l -0.0441,0.3389972 h -1.827278 q -0.01102,0.2893878 0.14056,0.4630205 0.151584,0.1736326 0.413411,0.1791448 0.424436,0.011024 0.74414,-0.3279728 l 0.355534,0.4409718 q -0.168121,0.2535589 -0.485069,0.3968747 -0.316949,0.1405598 -0.68075,0.1350477 z m 0.248046,-2.4501501 q -0.214974,-0.00551 -0.383094,0.1350477 -0.165365,0.1405598 -0.297656,0.4878251 h 1.069357 l 0.01654,-0.071658 q 0.01654,-0.110243 0.0028,-0.2094617 -0.02756,-0.1598523 -0.135047,-0.2480466 -0.107487,-0.09095 -0.272852,-0.093707 z"
         style="font-family:Roboto;-inkscape-font-specification:'Roboto, Bold Italic';fill:#e0e0e0;fill-opacity:0.752941;stroke:none;stroke-width:0.285"
         id="path439" />
      <path
         d="M 69.520705,4.8682802 Q 69.360852,4.8407195 69.258878,4.8407195 68.84271,4.8296952 68.600176,5.1521559 l -0.34451,1.9513006 h -0.777212 l 0.518141,-2.9820724 0.73036,-0.00276 -0.07166,0.3638018 q 0.28112,-0.4216793 0.694531,-0.4216793 0.115755,0 0.270095,0.038585 z"
         style="font-family:Roboto;-inkscape-font-specification:'Roboto, Bold Italic';fill:#e0e0e0;fill-opacity:0.752941;stroke:none;stroke-width:0.285"
         id="path441" />
      <path
         d="m 72.370486,5.6206885 q -0.08268,0.705555 -0.429948,1.1299905 -0.347265,0.4244354 -0.89848,0.4106551 -0.471289,-0.011024 -0.716579,-0.3803383 l -0.113,0.3224607 h -0.708311 l 0.733116,-4.2333301 h 0.779969 l -0.300412,1.5241091 q 0.314193,-0.3389972 0.727604,-0.3279729 0.432703,0.00551 0.677994,0.3114364 0.248047,0.3031682 0.264583,0.8406027 0.0055,0.1708766 -0.01654,0.4023868 z M 71.598785,5.562811 q 0.0248,-0.2342664 0.01654,-0.3638018 -0.03032,-0.479557 -0.396874,-0.4878252 -0.34451,-0.011024 -0.570508,0.3114364 l -0.214974,1.1851119 q 0.104731,0.2976561 0.446484,0.3086804 0.573264,0.016536 0.702799,-0.8323345 z"
         style="font-family:Roboto;-inkscape-font-specification:'Roboto, Bold Italic';fill:#e0e0e0;fill-opacity:0.752941;stroke:none;stroke-width:0.285"
         id="path443" />
      <path
         d="m 74.332813,5.4828848 q 0.132291,-0.9839185 0.587043,-1.7583754 0.457509,-0.777213 1.146527,-1.0831372 l 0.132292,0.443728 q -0.942578,0.7193354 -1.19338,2.3123463 -0.08544,0.5401906 -0.09095,0.9701382 -0.01378,1.1327465 0.518142,1.5737184 L 75.258854,8.3574703 Q 74.663542,8.0267414 74.426519,7.2136995 74.269423,6.6679968 74.285959,6.045124 q 0.0055,-0.2618271 0.03583,-0.4960934 z"
         style="font-family:Roboto;-inkscape-font-specification:'Roboto, Bold Italic';fill:#e0e0e0;fill-opacity:0.752941;stroke:none;stroke-width:0.285"
         id="path445" />
      <path
         d="M 78.210608,6.0313436 Q 78.268486,5.7033708 77.888147,5.5297381 L 77.356225,5.3175203 Q 76.430184,4.9041092 76.477037,4.1792617 76.49633,3.8430206 76.697523,3.5839496 76.898717,3.3248786 77.262519,3.1788067 77.62632,3.0299787 78.048,3.0354908 q 0.581531,0.011024 0.939821,0.3472654 0.35829,0.333485 0.352778,0.8957241 H 78.535825 Q 78.549605,4.005629 78.414558,3.8540449 78.282266,3.7024608 78.001147,3.6969487 77.725539,3.6914365 77.52159,3.8237281 77.31764,3.9532636 77.279055,4.1820177 77.22669,4.4824298 77.681442,4.6588186 l 0.363802,0.1378037 0.209461,0.096463 q 0.813042,0.4023869 0.760677,1.1299905 -0.02481,0.3555336 -0.228754,0.6146045 -0.201194,0.256315 -0.551215,0.3941187 Q 77.888147,7.1696023 77.469224,7.1613341 77.042033,7.1530658 76.708548,6.9821892 76.375063,6.8113126 76.20143,6.4998762 76.038822,6.2104884 76.049846,5.8384184 l 0.80753,0.00276 q -0.03858,0.6531896 0.642165,0.6642139 0.2949,0 0.485069,-0.1295355 0.190169,-0.1295355 0.225998,-0.3445093 z"
         style="font-family:Roboto;-inkscape-font-specification:'Roboto, Bold Italic';fill:#e0e0e0;fill-opacity:0.752941;stroke:none;stroke-width:0.285"
         id="path447" />
      <path
         d="m 80.922589,3.3882683 -0.129536,0.7331158 h 0.496093 l -0.101974,0.5842878 h -0.496094 l -0.253559,1.4937922 q -0.01654,0.1405598 0.02205,0.2149738 0.03858,0.074414 0.187413,0.079926 0.0441,0.00276 0.237022,-0.01378 l -0.05512,0.6090924 Q 80.622176,7.158578 80.382398,7.1530658 79.999304,7.1475537 79.811891,6.9132874 79.624478,6.6790211 79.65755,6.2793903 l 0.256315,-1.5737184 h -0.421679 l 0.101975,-0.5842878 h 0.421679 l 0.126779,-0.7331158 z"
         style="font-family:Roboto;-inkscape-font-specification:'Roboto, Bold Italic';fill:#e0e0e0;fill-opacity:0.752941;stroke:none;stroke-width:0.285"
         id="path449" />
      <path
         d="M 82.639621,7.158578 Q 82.248258,7.1558219 81.94509,6.9684089 81.644678,6.7782397 81.49585,6.4502669 81.347022,6.119538 81.380095,5.7226633 l 0.0083,-0.110243 q 0.04134,-0.4354597 0.253559,-0.7992615 0.212218,-0.3638019 0.545702,-0.5594831 0.333485,-0.1984374 0.738628,-0.1874131 0.57602,0.011024 0.87092,0.4244355 0.297656,0.410655 0.225998,1.041796 l -0.0441,0.3389972 h -1.827277 q -0.01103,0.2893878 0.140559,0.4630205 0.151584,0.1736326 0.413411,0.1791448 0.424436,0.011024 0.744141,-0.3279728 l 0.355533,0.4409718 q -0.16812,0.2535589 -0.485069,0.3968747 -0.316949,0.1405598 -0.68075,0.1350477 z m 0.248046,-2.4501501 q -0.214973,-0.00551 -0.383094,0.1350477 -0.165364,0.1405598 -0.297656,0.4878251 h 1.069357 l 0.01654,-0.071658 q 0.01654,-0.110243 0.0028,-0.2094617 -0.02756,-0.1598523 -0.135047,-0.2480466 -0.107487,-0.09095 -0.272852,-0.093707 z"
         style="font-family:Roboto;-inkscape-font-specification:'Roboto, Bold Italic';fill:#e0e0e0;fill-opacity:0.752941;stroke:none;stroke-width:0.285"
         id="path451" />
      <path
         d="M 86.252829,4.8682802 Q 86.092977,4.8407195 85.991002,4.8407195 85.574835,4.8296952 85.3323,5.1521559 l -0.344509,1.9513006 h -0.777213 l 0.518142,-2.9820724 0.730359,-0.00276 -0.07166,0.3638018 q 0.281119,-0.4216793 0.69453,-0.4216793 0.115755,0 0.270096,0.038585 z"
         style="font-family:Roboto;-inkscape-font-specification:'Roboto, Bold Italic';fill:#e0e0e0;fill-opacity:0.752941;stroke:none;stroke-width:0.285"
         id="path453" />
      <path
         d="M 87.600551,7.158578 Q 87.209188,7.1558219 86.90602,6.9684089 86.605608,6.7782397 86.45678,6.4502669 86.307952,6.119538 86.341025,5.7226633 l 0.0083,-0.110243 q 0.04134,-0.4354597 0.253559,-0.7992615 0.212217,-0.3638019 0.545702,-0.5594831 0.333485,-0.1984374 0.738628,-0.1874131 0.57602,0.011024 0.87092,0.4244355 0.297656,0.410655 0.225998,1.041796 l -0.0441,0.3389972 h -1.827278 q -0.01102,0.2893878 0.14056,0.4630205 0.151584,0.1736326 0.413411,0.1791448 0.424436,0.011024 0.74414,-0.3279728 l 0.355534,0.4409718 q -0.168121,0.2535589 -0.485069,0.3968747 -0.316949,0.1405598 -0.68075,0.1350477 z m 0.248046,-2.4501501 q -0.214974,-0.00551 -0.383094,0.1350477 -0.165365,0.1405598 -0.297656,0.4878251 h 1.069357 l 0.01654,-0.071658 q 0.01654,-0.110243 0.0028,-0.2094617 -0.02756,-0.1598523 -0.135047,-0.2480466 -0.107487,-0.09095 -0.272852,-0.093707 z"
         style="font-family:Roboto;-inkscape-font-specification:'Roboto, Bold Italic';fill:#e0e0e0;fill-opacity:0.752941;stroke:none;stroke-width:0.285"
         id="path455" />
      <path
         d="m 90.877525,4.0662626 q 0.394119,0.00551 0.677995,0.2039495 0.286631,0.1956813 0.418923,0.5429467 0.135048,0.3445092 0.09646,0.7661886 -0.06339,0.7110672 -0.496093,1.1520391 Q 91.144865,7.1696023 90.510967,7.158578 90.122361,7.1530658 89.838485,6.9601406 89.55461,6.7644594 89.419562,6.4199501 89.284514,6.0754408 89.323099,5.6592736 q 0.07166,-0.738628 0.501606,-1.1740877 0.429948,-0.4354597 1.05282,-0.4189233 z m -0.785481,1.8768866 q 0.0055,0.2645831 0.124023,0.4189233 0.118512,0.1515841 0.333485,0.1570962 0.35829,0.011024 0.56224,-0.3279728 Q 91.315741,5.8494427 91.301961,5.2954718 91.290936,5.0308886 91.172425,4.8737924 91.05667,4.7139401 90.83894,4.7084279 90.491675,4.6974036 90.282213,5.0364008 90.075508,5.3726418 90.092044,5.9431492 Z"
         style="font-family:Roboto;-inkscape-font-specification:'Roboto, Bold Italic';fill:#e0e0e0;fill-opacity:0.752941;stroke:none;stroke-width:0.285"
         id="path457" />
      <path
         d="M 92.131542,8.3657385 91.99925,7.9302788 q 0.945334,-0.7303597 1.19338,-2.337151 0.07993,-0.5153859 0.08544,-0.9508457 0.01378,-1.1327465 -0.51263,-1.5764745 l 0.173633,-0.4161672 q 0.325216,0.1763888 0.556727,0.5153859 0.234266,0.3362411 0.344509,0.8130419 0.112999,0.4768009 0.107487,0.9811625 -0.01654,0.7661886 -0.264583,1.4910362 -0.248047,0.7220915 -0.650434,1.2126727 -0.399631,0.4905812 -0.901236,0.7027989 z"
         style="font-family:Roboto;-inkscape-font-specification:'Roboto, Bold Italic';fill:#e0e0e0;fill-opacity:0.752941;stroke:none;stroke-width:0.285"
         id="path459" />
    </g>
    <path
       id="path1348"
       style="color:#000000;fill:#e0e0e0;fill-opacity:0.752941;stroke-width:0.714406;-inkscape-stroke:none"
       d="M 5.4193109,1.6360535 C 4.0746261,1.6465667 2.9804856,2.7485866 2.9805103,4.0933129 v 1.5080987 0.00443 0.00406 0.00702 c 0.00324,0.6351315 0.1709081,1.2397841 0.5330952,1.705241 0.091293,0.1173226 0.1960748,0.2241342 0.3126952,0.3186015 V 5.3666133 h 0.00259 V 4.0933129 C 3.8288705,3.2043172 4.5362516,2.4899017 5.4252198,2.4829515 6.3176074,2.4761075 7.0387059,3.1839609 7.0477631,4.0763306 v 0.016982 1.6742295 c 0,0.3851813 -0.1170262,0.6035969 -0.3182329,0.7675243 C 6.5283236,6.6989941 6.2034026,6.8056753 5.769664,6.8056753 H 5.437754 V 8.3957797 H 6.193851 V 7.5229912 C 6.5799202,7.4642455 6.9804539,7.4245038 7.2655789,7.1922063 7.6635843,6.8679419 7.8946602,6.354867 7.8946602,5.7675423 V 4.0933128 4.0693159 4.0682086 C 7.8809586,2.7185401 6.7690097,1.6257071 5.4193109,1.6360535 Z" />
    <g
       aria-label="B"
       id="text1054"
       style="font-style:italic;font-weight:900;font-size:6.35px;font-family:Roboto;-inkscape-font-specification:'Roboto, Heavy Italic';fill:#e0e0e0;fill-opacity:0.752941;stroke-width:0.285001;stop-color:#000000"
       transform="matrix(0.71440613,0,0,0.71440613,-2.144828,0.00813001)">
      <path
         id="path1085"
         style="font-style:normal;-inkscape-font-specification:'Roboto, Heavy';stroke-width:0.285"
         d="M 8.865092,5.8580404 V 8.9958333 11.74073 H 9.9533976 V 8.9958333 h 0.7441404 c 0.549837,-0.00413 0.964283,-0.116789 1.243335,-0.3379638 0.281119,-0.223242 0.42168,-0.5560389 0.42168,-0.9983887 0,-0.2439125 -0.06305,-0.4506186 -0.189136,-0.6201172 -0.12609,-0.1694982 -0.306958,-0.2852537 -0.542602,-0.3472656 0.208772,-0.078548 0.366902,-0.2005048 0.474389,-0.3658692 0.107487,-0.1653644 0.161231,-0.3648358 0.161231,-0.598413 0,-0.4051429 -0.151929,-0.7141686 -0.455786,-0.9270752 C 11.508859,4.5878339 11.18123,4.4813802 10.486698,4.4813802 H 9.9533976 c -1.0883054,0 -1.0883056,1.029605 -1.0883056,1.3766602 z m 1.0883056,-0.022757 c 0,-0.3308701 0.1341694,-0.4768142 0.3334184,-0.4952 l 0.199882,-0.018444 c 0.203885,-0.018814 0.420647,0.042375 0.530201,0.127124 0.109553,0.082682 0.164331,0.2191083 0.164331,0.4092774 0,0.1653644 -0.05064,0.2904216 -0.151929,0.3751709 -0.101285,0.08475 -0.270784,0.1281579 -0.508496,0.1302246 H 9.9533976 Z m 0,1.2412875 h 0.7627444 c 0.374137,0.00207 0.561206,0.1912032 0.561206,0.5674073 0,0.1632973 -0.05271,0.2904217 -0.15813,0.381372 -0.105419,0.088883 -0.256315,0.1333252 -0.452686,0.1333252 H 9.9533976 Z" />
    </g>
    <text
       xml:space="preserve"
       transform="scale(0.26458333)"
       id="text501"
       style="font-style:italic;font-weight:bold;font-size:22.6667px;line-height:0;font-family:Timana;-inkscape-font-specification:'Timana Bold Italic';white-space:pre;shape-inside:url(#rect503);fill:#686868;stroke:#7f7f7f;stroke-width:1.07717;stop-color:#000000" />
  </g>
</svg>
