<?xml version="1.0" encoding="UTF-8" standalone="no"?>
<!-- Created with Inkscape (http://www.inkscape.org/) -->

<svg
   width="306"
   height="36"
   viewBox="0 0 80.962496 9.525"
   version="1.1"
   id="svg5"
   inkscape:version="1.2.2 (732a01da63, 2022-12-09, custom)"
   sodipodi:docname="ToobCabSimLogo_master.svg"
   xmlns:inkscape="http://www.inkscape.org/namespaces/inkscape"
   xmlns:sodipodi="http://sodipodi.sourceforge.net/DTD/sodipodi-0.dtd"
   xmlns="http://www.w3.org/2000/svg"
   xmlns:svg="http://www.w3.org/2000/svg">
  <sodipodi:namedview
     id="namedview7"
     pagecolor="#2e2e2e"
     bordercolor="#000000"
     borderopacity="0.25"
     inkscape:showpageshadow="2"
     inkscape:pageopacity="0"
     inkscape:pagecheckerboard="0"
     inkscape:deskcolor="#d1d1d1"
     inkscape:document-units="mm"
     showgrid="false"
     inkscape:zoom="1.414909"
     inkscape:cx="195.77231"
     inkscape:cy="90.465182"
     inkscape:window-width="1920"
     inkscape:window-height="1008"
     inkscape:window-x="1440"
     inkscape:window-y="0"
     inkscape:window-maximized="1"
     inkscape:current-layer="layer1" />
  <defs
     id="defs2" />
  <g
     inkscape:label="Layer 1"
     inkscape:groupmode="layer"
     id="layer1">
    <g
       aria-label="TooB One-Button Looper"
       id="text236"
       style="font-style:italic;font-weight:bold;font-size:5.64444px;line-height:0;font-family:Timana;-inkscape-font-specification:'Timana Bold Italic';fill:#686868;stroke:#7f7f7f;stroke-width:0.285001;stop-color:#000000">
      <path
         d="m 10.655146,7.1034565 0.654755,-3.1383087 h -0.874888 l 0.191911,-0.8918216 h 2.833509 L 13.262878,3.9651478 H 12.38799 l -0.654756,3.1383087 z"
         style="font-weight:900;font-family:Roboto;-inkscape-font-specification:'Roboto, Heavy Italic';fill:#e0e0e0;fill-opacity:0.752941;stroke:none;stroke-width:0.285"
         id="path460" />
      <path
         d="m 14.160346,7.1599009 q -0.575733,0 -0.891822,-0.3104442 Q 12.95808,6.533368 12.95808,5.9576351 q 0,-0.4007552 0.112889,-0.7619994 0.112889,-0.3668886 0.333022,-0.6491106 0.220133,-0.2878665 0.54751,-0.4515552 0.333022,-0.1693332 0.767644,-0.1693332 0.575733,0 0.886177,0.3160886 0.316089,0.3104442 0.316089,0.8861771 0,0.4007553 -0.112889,0.7676439 -0.112889,0.3612442 -0.333022,0.6491106 -0.220133,0.282222 -0.553155,0.4515552 -0.327377,0.1636888 -0.761999,0.1636888 z m 0.118533,-0.8015105 q 0.158044,0 0.282222,-0.1862665 0.124178,-0.191911 0.197555,-0.4797774 0.07338,-0.2935109 0.07338,-0.5983107 0,-0.3668886 -0.237066,-0.3668886 -0.158045,0 -0.282222,0.1919109 -0.124178,0.1862666 -0.197556,0.474133 -0.06773,0.2878665 -0.06773,0.5983107 0,0.3668886 0.231422,0.3668886 z"
         style="font-weight:900;font-family:Roboto;-inkscape-font-specification:'Roboto, Heavy Italic';fill:#e0e0e0;fill-opacity:0.752941;stroke:none;stroke-width:0.285"
         id="path462" />
      <path
         d="m 17.586523,7.1599009 q -0.575733,0 -0.891822,-0.3104442 -0.310444,-0.3160887 -0.310444,-0.8918216 0,-0.4007552 0.112889,-0.7619994 0.112889,-0.3668886 0.333022,-0.6491106 0.220133,-0.2878665 0.54751,-0.4515552 0.333022,-0.1693332 0.767644,-0.1693332 0.575733,0 0.886177,0.3160886 0.316089,0.3104442 0.316089,0.8861771 0,0.4007553 -0.112889,0.7676439 -0.112889,0.3612442 -0.333022,0.6491106 -0.220133,0.282222 -0.553155,0.4515552 -0.327377,0.1636888 -0.761999,0.1636888 z m 0.118533,-0.8015105 q 0.158044,0 0.282222,-0.1862665 0.124178,-0.191911 0.197555,-0.4797774 0.07338,-0.2935109 0.07338,-0.5983107 0,-0.3668886 -0.237066,-0.3668886 -0.158045,0 -0.282222,0.1919109 -0.124178,0.1862666 -0.197556,0.474133 -0.06773,0.2878665 -0.06773,0.5983107 0,0.3668886 0.231422,0.3668886 z"
         style="font-weight:900;font-family:Roboto;-inkscape-font-specification:'Roboto, Heavy Italic';fill:#e0e0e0;fill-opacity:0.752941;stroke:none;stroke-width:0.285"
         id="path464" />
      <path
         d="m 19.669324,7.1034565 0.85231,-4.0301303 h 1.343377 q 0.649111,0 0.931333,0.2483554 0.282222,0.2483553 0.282222,0.6321773 0,0.4120441 -0.214489,0.6660439 -0.208844,0.2539998 -0.603955,0.3725331 v 0.022578 q 0.242711,0.079022 0.383822,0.282222 0.146755,0.1975554 0.146755,0.4854219 0,0.4684885 -0.220133,0.7619994 -0.214489,0.2935109 -0.581377,0.4289775 -0.361244,0.1298221 -0.8128,0.1298221 z M 21.4699,4.6199028 q 0.282222,0 0.383822,-0.1241777 0.107245,-0.1241776 0.107245,-0.3160886 0,-0.282222 -0.349956,-0.282222 h -0.174977 l -0.163689,0.7224883 z m -0.316088,1.6425321 q 0.248355,0 0.400755,-0.1354666 0.1524,-0.141111 0.1524,-0.3330219 0,-0.191911 -0.09031,-0.282222 -0.09031,-0.095956 -0.321733,-0.095956 h -0.186267 l -0.180622,0.846666 z"
         style="font-weight:900;font-family:Roboto;-inkscape-font-specification:'Roboto, Heavy Italic';fill:#e0e0e0;fill-opacity:0.752941;stroke:none;stroke-width:0.285"
         id="path466" />
      <path
         d="m 26.459591,7.1599009 q -0.767644,0 -1.15711,-0.423333 -0.389467,-0.4289775 -0.389467,-1.128888 0,-0.4684886 0.129822,-0.9256882 0.135467,-0.4628441 0.400756,-0.8410216 0.270933,-0.3781775 0.682977,-0.6039551 0.412044,-0.2257776 0.970844,-0.2257776 0.745066,0 1.128888,0.423333 0.383822,0.423333 0.383822,1.128888 0,0.4684886 -0.129823,0.9313326 -0.124177,0.4571997 -0.389466,0.8353772 -0.265289,0.3781775 -0.671688,0.6039551 -0.400756,0.2257776 -0.959555,0.2257776 z m 0.09596,-0.8918215 q 0.270933,0 0.491067,-0.2314221 0.220133,-0.231422 0.344311,-0.615244 0.129822,-0.3838219 0.129822,-0.846666 0,-0.3160887 -0.135467,-0.4910663 -0.129822,-0.1806221 -0.378177,-0.1806221 -0.225778,0 -0.412045,0.1523999 -0.186266,0.1467554 -0.321733,0.3951108 -0.129822,0.2427109 -0.203199,0.5475107 -0.06773,0.2991553 -0.06773,0.6039551 0,0.666044 0.553155,0.666044 z"
         style="font-weight:900;font-family:Roboto;-inkscape-font-specification:'Roboto, Heavy Italic';fill:#e0e0e0;fill-opacity:0.752941;stroke:none;stroke-width:0.285"
         id="path468" />
      <path
         d="m 28.847187,7.1034565 0.660399,-3.1213754 h 0.852311 L 30.32603,4.416703 h 0.02258 q 0.1524,-0.2652887 0.3556,-0.3781775 0.208844,-0.1128888 0.502355,-0.1128888 0.293511,0 0.474133,0.1241777 0.180622,0.1185332 0.265289,0.3217331 0.08467,0.1975554 0.08467,0.4402663 0,0.1580443 -0.02258,0.3217331 -0.01693,0.1636887 -0.04516,0.3104442 l -0.349955,1.6594654 h -1.0668 l 0.3556,-1.7046209 q 0.01693,-0.073378 0.03387,-0.1806221 0.01693,-0.1128888 0.01693,-0.2088443 0,-0.1185333 -0.06209,-0.1749777 -0.06209,-0.062089 -0.146755,-0.062089 -0.158045,0 -0.293511,0.1975554 -0.129822,0.191911 -0.214489,0.6095996 l -0.321733,1.5239988 z"
         style="font-weight:900;font-family:Roboto;-inkscape-font-specification:'Roboto, Heavy Italic';fill:#e0e0e0;fill-opacity:0.752941;stroke:none;stroke-width:0.285"
         id="path470" />
      <path
         d="m 33.763492,7.1599009 q -0.592666,0 -0.914399,-0.3273775 -0.321733,-0.333022 -0.321733,-0.9087549 0,-0.3838219 0.107244,-0.7394217 0.112889,-0.3612441 0.333022,-0.6434661 0.220133,-0.2822221 0.553155,-0.4459108 0.338666,-0.1693332 0.795866,-0.1693332 0.524933,0 0.824088,0.2370665 0.299156,0.2370665 0.299156,0.6321773 0,0.513644 -0.400756,0.8297327 -0.400755,0.3160886 -1.275643,0.3160886 h -0.163689 v 0.045155 q 0,0.4063997 0.451555,0.4063997 0.237067,0 0.445911,-0.073378 0.214489,-0.073378 0.4572,-0.1975554 v 0.756355 q -0.248356,0.1241777 -0.519289,0.2031998 -0.265288,0.079022 -0.671688,0.079022 z m 0.02258,-1.885243 q 0.361244,0 0.502355,-0.1354666 0.141111,-0.141111 0.141111,-0.282222 0,-0.090311 -0.05644,-0.1467554 -0.05644,-0.062089 -0.174978,-0.062089 -0.124178,0 -0.231422,0.095955 -0.1016,0.095955 -0.169333,0.2427109 -0.06773,0.141111 -0.09031,0.2878665 z"
         style="font-weight:900;font-family:Roboto;-inkscape-font-specification:'Roboto, Heavy Italic';fill:#e0e0e0;fill-opacity:0.752941;stroke:none;stroke-width:0.285"
         id="path472" />
      <path
         d="m 35.62616,6.019724 0.174977,-0.8579549 h 1.523999 L 37.150158,6.019724 Z"
         style="font-weight:900;font-family:Roboto;-inkscape-font-specification:'Roboto, Heavy Italic';fill:#e0e0e0;fill-opacity:0.752941;stroke:none;stroke-width:0.285"
         id="path474" />
      <path
         d="m 37.511405,7.1034565 0.85231,-4.0301303 h 1.343377 q 0.649111,0 0.931333,0.2483554 0.282222,0.2483553 0.282222,0.6321773 0,0.4120441 -0.214489,0.6660439 -0.208844,0.2539998 -0.603955,0.3725331 v 0.022578 q 0.242711,0.079022 0.383822,0.282222 0.146755,0.1975554 0.146755,0.4854219 0,0.4684885 -0.220133,0.7619994 -0.214488,0.2935109 -0.581377,0.4289775 -0.361244,0.1298221 -0.812799,0.1298221 z m 1.800576,-2.4835537 q 0.282222,0 0.383822,-0.1241777 0.107245,-0.1241776 0.107245,-0.3160886 0,-0.282222 -0.349956,-0.282222 h -0.174977 l -0.163689,0.7224883 z m -0.316088,1.6425321 q 0.248355,0 0.400755,-0.1354666 0.1524,-0.141111 0.1524,-0.3330219 0,-0.191911 -0.09031,-0.282222 -0.09031,-0.095956 -0.321733,-0.095956 h -0.186267 l -0.180622,0.846666 z"
         style="font-weight:900;font-family:Roboto;-inkscape-font-specification:'Roboto, Heavy Italic';fill:#e0e0e0;fill-opacity:0.752941;stroke:none;stroke-width:0.285"
         id="path476" />
      <path
         d="m 42.089052,7.1599009 q -0.287867,0 -0.474133,-0.1185332 Q 41.434297,6.91719 41.34963,6.7139901 41.26496,6.5107903 41.26496,6.2737238 q 0,-0.1580443 0.01693,-0.3217331 0.02258,-0.1636888 0.0508,-0.3104442 l 0.349955,-1.6594654 h 1.066799 l -0.355599,1.6989765 q -0.01693,0.073378 -0.03387,0.1862665 -0.01693,0.1072444 -0.01693,0.2031998 0,0.1185333 0.06209,0.1806221 0.06209,0.056444 0.146756,0.056444 0.141111,0 0.276577,-0.1919109 0.141111,-0.1975554 0.231422,-0.615244 l 0.321734,-1.5183544 h 1.066799 l -0.6604,3.1213754 h -0.85231 l 0.03387,-0.4346219 h -0.02258 q -0.1524,0.2596443 -0.3556,0.3781775 -0.2032,0.1128888 -0.502355,0.1128888 z"
         style="font-weight:900;font-family:Roboto;-inkscape-font-specification:'Roboto, Heavy Italic';fill:#e0e0e0;fill-opacity:0.752941;stroke:none;stroke-width:0.285"
         id="path478" />
      <path
         d="m 45.639402,7.1599009 q -0.406399,0 -0.620888,-0.1749776 -0.208844,-0.1806221 -0.208844,-0.5757329 0,-0.1128888 0.02258,-0.2596443 0.02258,-0.1467554 0.04516,-0.2596442 l 0.231422,-1.1063103 h -0.423333 l 0.112889,-0.524933 0.59831,-0.2427109 0.378178,-0.6603995 h 0.711199 l -0.135466,0.6265329 h 0.795866 L 46.97149,4.7835916 h -0.795866 l -0.231422,1.0555103 q -0.01693,0.079022 -0.03387,0.1636888 -0.01129,0.079022 -0.01129,0.1241776 0,0.090311 0.0508,0.1354666 0.0508,0.039511 0.124177,0.039511 0.107245,0 0.237067,-0.033867 0.129822,-0.039511 0.265288,-0.095956 v 0.8015105 q -0.174977,0.084667 -0.406399,0.1354665 -0.225778,0.0508 -0.530578,0.0508 z"
         style="font-weight:900;font-family:Roboto;-inkscape-font-specification:'Roboto, Heavy Italic';fill:#e0e0e0;fill-opacity:0.752941;stroke:none;stroke-width:0.285"
         id="path480" />
      <path
         d="m 48.218916,7.1599009 q -0.4064,0 -0.620889,-0.1749776 -0.208844,-0.1806221 -0.208844,-0.5757329 0,-0.1128888 0.02258,-0.2596443 0.02258,-0.1467554 0.04516,-0.2596442 l 0.231422,-1.1063103 h -0.423333 l 0.112889,-0.524933 0.598311,-0.2427109 0.378177,-0.6603995 h 0.7112 l -0.135467,0.6265329 h 0.795866 l -0.174977,0.8015105 h -0.795866 l -0.231422,1.0555103 q -0.01693,0.079022 -0.03387,0.1636888 -0.01129,0.079022 -0.01129,0.1241776 0,0.090311 0.0508,0.1354666 0.0508,0.039511 0.124178,0.039511 0.107244,0 0.237066,-0.033867 0.129822,-0.039511 0.265289,-0.095956 v 0.8015105 q -0.174978,0.084667 -0.4064,0.1354665 -0.225777,0.0508 -0.530577,0.0508 z"
         style="font-weight:900;font-family:Roboto;-inkscape-font-specification:'Roboto, Heavy Italic';fill:#e0e0e0;fill-opacity:0.752941;stroke:none;stroke-width:0.285"
         id="path482" />
      <path
         d="m 51.103229,7.1599009 q -0.575733,0 -0.891821,-0.3104442 -0.310445,-0.3160887 -0.310445,-0.8918216 0,-0.4007552 0.112889,-0.7619994 0.112889,-0.3668886 0.333022,-0.6491106 0.220133,-0.2878665 0.547511,-0.4515552 0.333022,-0.1693332 0.767644,-0.1693332 0.575733,0 0.886177,0.3160886 0.316088,0.3104442 0.316088,0.8861771 0,0.4007553 -0.112888,0.7676439 -0.112889,0.3612442 -0.333022,0.6491106 -0.220133,0.282222 -0.553155,0.4515552 -0.327378,0.1636888 -0.762,0.1636888 z m 0.118533,-0.8015105 q 0.158045,0 0.282222,-0.1862665 0.124178,-0.191911 0.197556,-0.4797774 0.07338,-0.2935109 0.07338,-0.5983107 0,-0.3668886 -0.237067,-0.3668886 -0.158044,0 -0.282222,0.1919109 -0.124178,0.1862666 -0.197555,0.474133 -0.06773,0.2878665 -0.06773,0.5983107 0,0.3668886 0.231422,0.3668886 z"
         style="font-weight:900;font-family:Roboto;-inkscape-font-specification:'Roboto, Heavy Italic';fill:#e0e0e0;fill-opacity:0.752941;stroke:none;stroke-width:0.285"
         id="path484" />
      <path
         d="m 53.157808,7.1034565 0.6604,-3.1213754 h 0.85231 l -0.03387,0.4346219 h 0.02258 q 0.1524,-0.2652887 0.3556,-0.3781775 0.208844,-0.1128888 0.502355,-0.1128888 0.293511,0 0.474133,0.1241777 0.180622,0.1185332 0.265289,0.3217331 0.08467,0.1975554 0.08467,0.4402663 0,0.1580443 -0.02258,0.3217331 -0.01693,0.1636887 -0.04516,0.3104442 L 55.92358,7.1034565 H 54.856781 L 55.21238,5.3988356 q 0.01693,-0.073378 0.03387,-0.1806221 0.01693,-0.1128888 0.01693,-0.2088443 0,-0.1185333 -0.06209,-0.1749777 -0.06209,-0.062089 -0.146756,-0.062089 -0.158044,0 -0.293511,0.1975554 -0.129822,0.191911 -0.214489,0.6095996 l -0.321733,1.5239988 z"
         style="font-weight:900;font-family:Roboto;-inkscape-font-specification:'Roboto, Heavy Italic';fill:#e0e0e0;fill-opacity:0.752941;stroke:none;stroke-width:0.285"
         id="path486" />
      <path
         d="m 58.164424,7.1034565 0.85231,-4.0301303 h 1.078088 l -0.666043,3.1495976 h 1.315154 l -0.186266,0.8805327 z"
         style="font-weight:900;font-family:Roboto;-inkscape-font-specification:'Roboto, Heavy Italic';fill:#e0e0e0;fill-opacity:0.752941;stroke:none;stroke-width:0.285"
         id="path488" />
      <path
         d="m 62.482425,7.1599009 q -0.575733,0 -0.891821,-0.3104442 Q 61.28016,6.533368 61.28016,5.9576351 q 0,-0.4007552 0.112888,-0.7619994 0.112889,-0.3668886 0.333022,-0.6491106 0.220134,-0.2878665 0.547511,-0.4515552 0.333022,-0.1693332 0.767644,-0.1693332 0.575733,0 0.886177,0.3160886 0.316089,0.3104442 0.316089,0.8861771 0,0.4007553 -0.112889,0.7676439 -0.112889,0.3612442 -0.333022,0.6491106 -0.220133,0.282222 -0.553155,0.4515552 -0.327378,0.1636888 -0.762,0.1636888 z m 0.118534,-0.8015105 q 0.158044,0 0.282222,-0.1862665 0.124177,-0.191911 0.197555,-0.4797774 0.07338,-0.2935109 0.07338,-0.5983107 0,-0.3668886 -0.237067,-0.3668886 -0.158044,0 -0.282222,0.1919109 -0.124177,0.1862666 -0.197555,0.474133 -0.06773,0.2878665 -0.06773,0.5983107 0,0.3668886 0.231422,0.3668886 z"
         style="font-weight:900;font-family:Roboto;-inkscape-font-specification:'Roboto, Heavy Italic';fill:#e0e0e0;fill-opacity:0.752941;stroke:none;stroke-width:0.285"
         id="path490" />
      <path
         d="m 65.908603,7.1599009 q -0.575733,0 -0.891821,-0.3104442 -0.310444,-0.3160887 -0.310444,-0.8918216 0,-0.4007552 0.112888,-0.7619994 0.112889,-0.3668886 0.333022,-0.6491106 0.220133,-0.2878665 0.547511,-0.4515552 0.333022,-0.1693332 0.767644,-0.1693332 0.575733,0 0.886177,0.3160886 0.316089,0.3104442 0.316089,0.8861771 0,0.4007553 -0.112889,0.7676439 -0.112889,0.3612442 -0.333022,0.6491106 -0.220133,0.282222 -0.553155,0.4515552 -0.327378,0.1636888 -0.762,0.1636888 z m 0.118534,-0.8015105 q 0.158044,0 0.282222,-0.1862665 0.124177,-0.191911 0.197555,-0.4797774 0.07338,-0.2935109 0.07338,-0.5983107 0,-0.3668886 -0.237067,-0.3668886 -0.158044,0 -0.282222,0.1919109 -0.124177,0.1862666 -0.197555,0.474133 -0.06773,0.2878665 -0.06773,0.5983107 0,0.3668886 0.231422,0.3668886 z"
         style="font-weight:900;font-family:Roboto;-inkscape-font-specification:'Roboto, Heavy Italic';fill:#e0e0e0;fill-opacity:0.752941;stroke:none;stroke-width:0.285"
         id="path492" />
      <path
         d="m 67.675316,8.4581221 0.948266,-4.476041 h 0.85231 l -0.03387,0.3499553 h 0.02258 q 0.129823,-0.1975554 0.299156,-0.2991554 0.174977,-0.1072443 0.412044,-0.1072443 0.417688,0 0.666044,0.2991553 0.254,0.2991553 0.254,0.8523105 0,0.3894663 -0.1016,0.7619994 -0.09596,0.3668886 -0.276578,0.6660439 -0.180622,0.2991554 -0.440266,0.4797775 -0.259644,0.1749776 -0.581378,0.1749776 -0.208844,0 -0.366888,-0.1072444 -0.158044,-0.1128888 -0.270933,-0.2935109 h -0.02258 q -0.01693,0.2201332 -0.04516,0.4346219 -0.02822,0.2201332 -0.107244,0.5870218 L 68.742115,8.4581221 Z M 69.481537,6.301946 q 0.146755,0 0.265288,-0.1693332 0.118534,-0.1693332 0.186267,-0.4289775 0.07338,-0.2596442 0.07338,-0.5249329 0,-0.3951108 -0.237067,-0.3951108 -0.124178,0 -0.220133,0.1072443 -0.09596,0.1072444 -0.169333,0.2765776 -0.06773,0.1693332 -0.107245,0.3668886 -0.03387,0.191911 -0.03387,0.3725331 0,0.1749776 0.06209,0.2878664 0.06773,0.1072444 0.180623,0.1072444 z"
         style="font-weight:900;font-family:Roboto;-inkscape-font-specification:'Roboto, Heavy Italic';fill:#e0e0e0;fill-opacity:0.752941;stroke:none;stroke-width:0.285"
         id="path494" />
      <path
         d="m 72.794822,7.1599009 q -0.592666,0 -0.914399,-0.3273775 -0.321733,-0.333022 -0.321733,-0.9087549 0,-0.3838219 0.107244,-0.7394217 0.112889,-0.3612441 0.333022,-0.6434661 0.220133,-0.2822221 0.553155,-0.4459108 0.338667,-0.1693332 0.795866,-0.1693332 0.524933,0 0.824088,0.2370665 0.299156,0.2370665 0.299156,0.6321773 0,0.513644 -0.400755,0.8297327 -0.400756,0.3160886 -1.275644,0.3160886 h -0.163689 v 0.045155 q 0,0.4063997 0.451556,0.4063997 0.237066,0 0.44591,-0.073378 0.214489,-0.073378 0.4572,-0.1975554 v 0.756355 q -0.248355,0.1241777 -0.519289,0.2031998 -0.265288,0.079022 -0.671688,0.079022 z m 0.02258,-1.885243 q 0.361244,0 0.502355,-0.1354666 0.141111,-0.141111 0.141111,-0.282222 0,-0.090311 -0.05644,-0.1467554 -0.05644,-0.062089 -0.174978,-0.062089 -0.124178,0 -0.231422,0.095955 -0.1016,0.095955 -0.169333,0.2427109 -0.06773,0.141111 -0.09031,0.2878665 z"
         style="font-weight:900;font-family:Roboto;-inkscape-font-specification:'Roboto, Heavy Italic';fill:#e0e0e0;fill-opacity:0.752941;stroke:none;stroke-width:0.285"
         id="path496" />
      <path
         d="m 74.657495,7.1034565 0.6604,-3.1213754 h 0.85231 l -0.0508,0.5192885 h 0.02258 q 0.197556,-0.333022 0.4064,-0.4515552 0.214489,-0.1241777 0.530577,-0.1241777 0.06209,0 0.129822,0.00564 0.06773,0.00564 0.09031,0.016933 l -0.231422,1.0555104 q -0.05644,-0.028222 -0.146755,-0.045156 -0.09031,-0.016933 -0.191911,-0.016933 -0.248355,0 -0.434622,0.1693332 -0.180622,0.1693332 -0.276578,0.6208884 l -0.29351,1.371599 z"
         style="font-weight:900;font-family:Roboto;-inkscape-font-specification:'Roboto, Heavy Italic';fill:#e0e0e0;fill-opacity:0.752941;stroke:none;stroke-width:0.285"
         id="path498" />
    </g>
    <path
       id="path1348"
       style="color:#000000;fill:#e0e0e0;fill-opacity:0.752941;stroke-width:0.714406;-inkscape-stroke:none"
       d="M 5.4193109,1.6360535 C 4.0746261,1.6465667 2.9804856,2.7485866 2.9805103,4.0933129 v 1.5080987 0.00443 0.00406 0.00702 c 0.00324,0.6351315 0.1709081,1.2397841 0.5330952,1.705241 0.091293,0.1173226 0.1960748,0.2241342 0.3126952,0.3186015 V 5.3666133 h 0.00259 V 4.0933129 C 3.8288705,3.2043172 4.5362516,2.4899017 5.4252198,2.4829515 6.3176074,2.4761075 7.0387059,3.1839609 7.0477631,4.0763306 v 0.016982 1.6742295 c 0,0.3851813 -0.1170262,0.6035969 -0.3182329,0.7675243 C 6.5283236,6.6989941 6.2034026,6.8056753 5.769664,6.8056753 H 5.437754 V 8.3957797 H 6.193851 V 7.5229912 C 6.5799202,7.4642455 6.9804539,7.4245038 7.2655789,7.1922063 7.6635843,6.8679419 7.8946602,6.354867 7.8946602,5.7675423 V 4.0933128 4.0693159 4.0682086 C 7.8809586,2.7185401 6.7690097,1.6257071 5.4193109,1.6360535 Z"
       sodipodi:nodetypes="ccccccscccccccsssccccsscccc" />
    <g
       aria-label="B"
       id="text1054"
       style="font-style:italic;font-weight:900;font-size:6.35px;font-family:Roboto;-inkscape-font-specification:'Roboto, Heavy Italic';fill:#e0e0e0;fill-opacity:0.752941;stroke-width:0.285001;stop-color:#000000"
       transform="matrix(0.71440613,0,0,0.71440613,-2.144828,0.00813001)">
      <path
         id="path1085"
         style="font-style:normal;-inkscape-font-specification:'Roboto, Heavy';stroke-width:0.285"
         d="M 8.865092,5.8580404 V 8.9958333 11.74073 H 9.9533976 V 8.9958333 h 0.7441404 c 0.549837,-0.00413 0.964283,-0.116789 1.243335,-0.3379638 0.281119,-0.223242 0.42168,-0.5560389 0.42168,-0.9983887 0,-0.2439125 -0.06305,-0.4506186 -0.189136,-0.6201172 -0.12609,-0.1694982 -0.306958,-0.2852537 -0.542602,-0.3472656 0.208772,-0.078548 0.366902,-0.2005048 0.474389,-0.3658692 0.107487,-0.1653644 0.161231,-0.3648358 0.161231,-0.598413 0,-0.4051429 -0.151929,-0.7141686 -0.455786,-0.9270752 C 11.508859,4.5878339 11.18123,4.4813802 10.486698,4.4813802 H 9.9533976 c -1.0883054,0 -1.0883056,1.029605 -1.0883056,1.3766602 z m 1.0883056,-0.022757 c 0,-0.3308701 0.1341694,-0.4768142 0.3334184,-0.4952 l 0.199882,-0.018444 c 0.203885,-0.018814 0.420647,0.042375 0.530201,0.127124 0.109553,0.082682 0.164331,0.2191083 0.164331,0.4092774 0,0.1653644 -0.05064,0.2904216 -0.151929,0.3751709 -0.101285,0.08475 -0.270784,0.1281579 -0.508496,0.1302246 H 9.9533976 Z m 0,1.2412875 h 0.7627444 c 0.374137,0.00207 0.561206,0.1912032 0.561206,0.5674073 0,0.1632973 -0.05271,0.2904217 -0.15813,0.381372 -0.105419,0.088883 -0.256315,0.1333252 -0.452686,0.1333252 H 9.9533976 Z"
         sodipodi:nodetypes="cccccccsscssczccssscssccsccscscc" />
    </g>
  </g>
</svg>
