<?xml version="1.0" encoding="UTF-8" standalone="no"?>
<!-- Created with Inkscape (http://www.inkscape.org/) -->

<svg
   width="256"
   height="36"
   viewBox="0 0 67.73333 9.525"
   version="1.1"
   id="svg5"
   inkscape:version="1.4.3 (1:1.4.3+202512261035+0d15f75042)"
   sodipodi:docname="ToobToneLogo.svg"
   xmlns:inkscape="http://www.inkscape.org/namespaces/inkscape"
   xmlns:sodipodi="http://sodipodi.sourceforge.net/DTD/sodipodi-0.dtd"
   xmlns="http://www.w3.org/2000/svg"
   xmlns:svg="http://www.w3.org/2000/svg">
  <sodipodi:namedview
     id="namedview7"
     pagecolor="#2e2e2e"
     bordercolor="#000000"
     borderopacity="0.25"
     inkscape:showpageshadow="2"
     inkscape:pageopacity="0"
     inkscape:pagecheckerboard="0"
     inkscape:deskcolor="#d1d1d1"
     inkscape:document-units="mm"
     showgrid="false"
     inkscape:zoom="4.001967"
     inkscape:cx="130.68574"
     inkscape:cy="106.07284"
     inkscape:window-width="2192"
     inkscape:window-height="1161"
     inkscape:window-x="0"
     inkscape:window-y="0"
     inkscape:window-maximized="1"
     inkscape:current-layer="layer1" />
  <defs
     id="defs2">
    <rect
       x="-14.38694"
       y="-5.4197793"
       width="35.01685"
       height="69.568077"
       id="rect503" />
  </defs>
  <g
     inkscape:label="Layer 1"
     inkscape:groupmode="layer"
     id="layer1">
    <path
       id="path1348"
       style="color:#000000;fill:#e0e0e0;fill-opacity:0.752941;stroke-width:0.714406;-inkscape-stroke:none"
       d="M 5.4193109,1.6360535 C 4.0746261,1.6465667 2.9804856,2.7485866 2.9805103,4.0933129 v 1.5080987 0.00443 0.00406 0.00702 c 0.00324,0.6351315 0.1709081,1.2397841 0.5330952,1.705241 0.091293,0.1173226 0.1960748,0.2241342 0.3126952,0.3186015 V 5.3666133 h 0.00259 V 4.0933129 C 3.8288705,3.2043172 4.5362516,2.4899017 5.4252198,2.4829515 6.3176074,2.4761075 7.0387059,3.1839609 7.0477631,4.0763306 v 0.016982 1.6742295 c 0,0.3851813 -0.1170262,0.6035969 -0.3182329,0.7675243 C 6.5283236,6.6989941 6.2034026,6.8056753 5.769664,6.8056753 H 5.437754 V 8.3957797 H 6.193851 V 7.5229912 C 6.5799202,7.4642455 6.9804539,7.4245038 7.2655789,7.1922063 7.6635843,6.8679419 7.8946602,6.354867 7.8946602,5.7675423 V 4.0933128 4.0693159 4.0682086 C 7.8809586,2.7185401 6.7690097,1.6257071 5.4193109,1.6360535 Z"
       sodipodi:nodetypes="ccccccscccccccsssccccsscccc" />
    <g
       aria-label="B"
       id="text1054"
       style="font-style:italic;font-weight:900;font-size:6.35px;font-family:Roboto;-inkscape-font-specification:'Roboto, Heavy Italic';fill:#e0e0e0;fill-opacity:0.752941;stroke-width:0.285001;stop-color:#000000"
       transform="matrix(0.71440613,0,0,0.71440613,-2.144828,0.00813001)">
      <path
         id="path1085"
         style="font-style:normal;-inkscape-font-specification:'Roboto, Heavy';stroke-width:0.285"
         d="M 8.865092,5.8580404 V 8.9958333 11.74073 H 9.9533976 V 8.9958333 h 0.7441404 c 0.549837,-0.00413 0.964283,-0.116789 1.243335,-0.3379638 0.281119,-0.223242 0.42168,-0.5560389 0.42168,-0.9983887 0,-0.2439125 -0.06305,-0.4506186 -0.189136,-0.6201172 -0.12609,-0.1694982 -0.306958,-0.2852537 -0.542602,-0.3472656 0.208772,-0.078548 0.366902,-0.2005048 0.474389,-0.3658692 0.107487,-0.1653644 0.161231,-0.3648358 0.161231,-0.598413 0,-0.4051429 -0.151929,-0.7141686 -0.455786,-0.9270752 C 11.508859,4.5878339 11.18123,4.4813802 10.486698,4.4813802 H 9.9533976 c -1.0883054,0 -1.0883056,1.029605 -1.0883056,1.3766602 z m 1.0883056,-0.022757 c 0,-0.3308701 0.1341694,-0.4768142 0.3334184,-0.4952 l 0.199882,-0.018444 c 0.203885,-0.018814 0.420647,0.042375 0.530201,0.127124 0.109553,0.082682 0.164331,0.2191083 0.164331,0.4092774 0,0.1653644 -0.05064,0.2904216 -0.151929,0.3751709 -0.101285,0.08475 -0.270784,0.1281579 -0.508496,0.1302246 H 9.9533976 Z m 0,1.2412875 h 0.7627444 c 0.374137,0.00207 0.561206,0.1912032 0.561206,0.5674073 0,0.1632973 -0.05271,0.2904217 -0.15813,0.381372 -0.105419,0.088883 -0.256315,0.1333252 -0.452686,0.1333252 H 9.9533976 Z"
         sodipodi:nodetypes="cccccccsscssczccssscssccsccscscc" />
    </g>
    <path
       d="M 10.765205,7.4478335 11.440422,4.2114521 H 10.538193 L 10.736101,3.291761 h 2.922057 L 13.454429,4.2114521 H 12.5522 l -0.675216,3.2363814 z m 3.614738,0.058208 q -0.395817,0 -0.675216,-0.1455207 -0.273579,-0.1455208 -0.4191,-0.4190998 -0.145521,-0.2793998 -0.145521,-0.6752162 0,-0.3317873 0.07567,-0.6402913 0.07567,-0.308504 0.221191,-0.5704413 0.145521,-0.2677582 0.360892,-0.4656664 0.221191,-0.1979082 0.512233,-0.308504 0.291041,-0.1105958 0.646112,-0.1105958 0.395816,0 0.669395,0.1455208 0.2794,0.1455207 0.424921,0.4249205 0.145521,0.2735791 0.145521,0.6693955 0,0.3317873 -0.07567,0.6402913 -0.07567,0.308504 -0.221192,0.5762621 -0.14552,0.2619374 -0.366712,0.4598456 -0.215371,0.1979082 -0.506412,0.308504 -0.285221,0.1105957 -0.646112,0.1105957 z M 14.50218,6.679484 q 0.09895,0 0.186267,-0.06985 0.08731,-0.075671 0.157162,-0.203729 0.06985,-0.1280583 0.116417,-0.2968623 0.05239,-0.1688041 0.08149,-0.3550707 0.02911,-0.1862665 0.02911,-0.3783539 0,-0.1280583 -0.02911,-0.2095499 -0.0291,-0.081492 -0.08731,-0.1222374 -0.05239,-0.046567 -0.128058,-0.046567 -0.09895,0 -0.186267,0.075671 -0.08149,0.06985 -0.151341,0.1979082 -0.06985,0.1280582 -0.122238,0.2968623 -0.05239,0.1688041 -0.08149,0.3550706 -0.02328,0.1862666 -0.02328,0.378354 0,0.1862665 0.06403,0.2852206 0.06403,0.093133 0.174625,0.093133 z m 3.411009,0.8265578 q -0.395817,0 -0.675216,-0.1455207 -0.273579,-0.1455208 -0.4191,-0.4190998 -0.145521,-0.2793998 -0.145521,-0.6752162 0,-0.3317873 0.07567,-0.6402913 0.07567,-0.308504 0.221191,-0.5704413 0.145521,-0.2677582 0.360892,-0.4656664 0.221191,-0.1979082 0.512233,-0.308504 0.291041,-0.1105958 0.646112,-0.1105958 0.395816,0 0.669395,0.1455208 0.2794,0.1455207 0.424921,0.4249205 0.145521,0.2735791 0.145521,0.6693955 0,0.3317873 -0.07567,0.6402913 -0.07567,0.308504 -0.221192,0.5762621 -0.14552,0.2619374 -0.366712,0.4598456 -0.21537,0.1979082 -0.506412,0.308504 -0.285221,0.1105957 -0.646112,0.1105957 z M 18.035426,6.679484 q 0.09895,0 0.186267,-0.06985 0.08731,-0.075671 0.157162,-0.203729 0.06985,-0.1280583 0.116417,-0.2968623 0.05239,-0.1688041 0.08149,-0.3550707 0.02911,-0.1862665 0.02911,-0.3783539 0,-0.1280583 -0.02911,-0.2095499 -0.0291,-0.081492 -0.08731,-0.1222374 -0.05239,-0.046567 -0.128058,-0.046567 -0.09895,0 -0.186267,0.075671 -0.08149,0.06985 -0.151341,0.1979082 -0.06985,0.1280582 -0.122238,0.2968623 -0.05239,0.1688041 -0.08149,0.3550706 -0.02328,0.1862666 -0.02328,0.378354 0,0.1862665 0.06403,0.2852206 0.06403,0.093133 0.174625,0.093133 z m 2.02565,0.7683495 0.878946,-4.1560725 h 1.385357 q 0.448204,0 0.721783,0.1164166 0.273579,0.1164166 0.401637,0.3201457 0.128059,0.203729 0.128059,0.4714872 0,0.2852206 -0.09895,0.4947705 -0.09896,0.2095499 -0.285221,0.3550706 -0.186267,0.1396999 -0.459846,0.2211916 v 0.023283 q 0.250296,0.081492 0.395817,0.2910415 0.151341,0.203729 0.151341,0.5005913 0,0.4831289 -0.227012,0.7858121 -0.221192,0.3026831 -0.599545,0.4423831 -0.372534,0.133879 -0.8382,0.133879 z m 1.530879,-0.8673036 q 0.168804,0 0.296862,-0.064029 0.128058,-0.064029 0.197908,-0.1746249 0.07567,-0.1105958 0.07567,-0.2444749 0,-0.1979082 -0.09313,-0.2910415 -0.09313,-0.098954 -0.331788,-0.098954 h -0.192087 l -0.186266,0.8731245 z m 0.325966,-1.6938615 q 0.197908,0 0.302683,-0.058208 0.110596,-0.058208 0.157163,-0.1571624 0.04657,-0.1047749 0.04657,-0.238654 0,-0.1397 -0.08731,-0.2153707 -0.08731,-0.075671 -0.273579,-0.075671 h -0.180446 l -0.168804,0.7450662 z m 3.923245,2.5611651 0.675217,-3.2363814 H 25.614154 L 25.812062,3.291761 h 2.922057 L 28.53039,4.2114521 h -0.902229 l -0.675216,3.2363814 z m 3.614738,0.058208 q -0.395816,0 -0.675216,-0.1455207 -0.273579,-0.1455208 -0.4191,-0.4190998 -0.145521,-0.2793998 -0.145521,-0.6752162 0,-0.3317873 0.07567,-0.6402913 0.07567,-0.308504 0.221192,-0.5704413 0.14552,-0.2677582 0.360891,-0.4656664 0.221192,-0.1979082 0.512233,-0.308504 0.291041,-0.1105958 0.646112,-0.1105958 0.395817,0 0.669396,0.1455208 0.279399,0.1455207 0.42492,0.4249205 0.145521,0.2735791 0.145521,0.6693955 0,0.3317873 -0.07567,0.6402913 -0.07567,0.308504 -0.221191,0.5762621 -0.145521,0.2619374 -0.366713,0.4598456 -0.21537,0.1979082 -0.506412,0.308504 -0.285221,0.1105957 -0.646112,0.1105957 z M 29.578141,6.679484 q 0.09895,0 0.186267,-0.06985 0.08731,-0.075671 0.157162,-0.203729 0.06985,-0.1280583 0.116417,-0.2968623 0.05239,-0.1688041 0.08149,-0.3550707 0.0291,-0.1862665 0.0291,-0.3783539 0,-0.1280583 -0.0291,-0.2095499 -0.0291,-0.081492 -0.08731,-0.1222374 -0.05239,-0.046567 -0.128058,-0.046567 -0.09895,0 -0.186267,0.075671 -0.08149,0.06985 -0.151341,0.1979082 -0.06985,0.1280582 -0.122238,0.2968623 -0.05239,0.1688041 -0.08149,0.3550706 -0.02328,0.1862666 -0.02328,0.378354 0,0.1862665 0.06403,0.2852206 0.06403,0.093133 0.174625,0.093133 z m 1.996548,0.7683495 0.681037,-3.2189189 h 0.878946 l -0.03493,0.4482039 h 0.02328 q 0.104775,-0.1804457 0.232833,-0.2910415 0.128058,-0.1105957 0.285221,-0.1629832 0.162983,-0.052388 0.366712,-0.052388 0.302683,0 0.48895,0.1280583 0.186266,0.1222374 0.273579,0.3317873 0.08731,0.203729 0.08731,0.4540247 0,0.1629832 -0.02328,0.3317873 -0.01746,0.1688041 -0.04657,0.3201457 l -0.360891,1.7113239 h -1.100137 l 0.366712,-1.7578906 q 0.01746,-0.075671 0.03492,-0.1862665 0.01746,-0.1164166 0.01746,-0.2153707 0,-0.1222375 -0.06403,-0.1804458 -0.06403,-0.064029 -0.151342,-0.064029 -0.104775,0 -0.203729,0.093133 -0.09895,0.087312 -0.180446,0.273579 -0.08149,0.1804457 -0.1397,0.4656664 l -0.331787,1.571624 z m 5.069941,0.058208 q -0.407458,0 -0.692679,-0.1513415 Q 35.66673,7.1975379 35.515389,6.9123172 35.369868,6.6270965 35.369868,6.2312801 q 0,-0.3958164 0.110596,-0.7625287 0.116417,-0.3725331 0.343429,-0.6635746 0.227012,-0.2910415 0.570441,-0.4598456 0.34925,-0.1746249 0.820737,-0.1746249 0.541337,0 0.849841,0.2444749 0.308504,0.2444748 0.308504,0.6519329 0,0.2677582 -0.104775,0.4831289 -0.09895,0.2153707 -0.308504,0.3725331 -0.209549,0.1571624 -0.541337,0.2444749 -0.325966,0.081492 -0.77417,0.081492 h -0.168804 q 0,0.011642 0,0.023283 0,0.011642 0,0.023283 0,0.2153707 0.116416,0.3201457 0.116417,0.098954 0.34925,0.098954 0.244475,0 0.459846,-0.075671 0.221191,-0.075671 0.471487,-0.2037291 v 0.7799912 q -0.256117,0.1280583 -0.535516,0.2095499 -0.273579,0.081492 -0.692679,0.081492 z m 0.02328,-1.9441571 q 0.250296,0 0.389996,-0.064029 0.145521,-0.06985 0.20955,-0.168804 0.06403,-0.098954 0.06403,-0.1979082 0,-0.093133 -0.05821,-0.1513416 -0.05821,-0.064029 -0.180446,-0.064029 -0.128058,0 -0.238654,0.098954 -0.104775,0.098954 -0.174625,0.2502956 -0.06985,0.1455208 -0.09313,0.2968624 z"
       id="text1"
       style="font-style:italic;font-weight:900;font-size:5.82083px;font-family:'Noto Sans';-inkscape-font-specification:'Noto Sans, Heavy Italic';fill:#e0e0e0;fill-opacity:0.752941;stroke-width:0.264583"
       aria-label="TooB Tone" />
  </g>
</svg>
