<?xml version="1.0" encoding="UTF-8" standalone="no"?>
<!-- Created with Inkscape (http://www.inkscape.org/) -->

<svg
   width="300"
   height="36"
   viewBox="0 0 79.374996 9.525"
   version="1.1"
   id="svg5"
   xmlns="http://www.w3.org/2000/svg"
   xmlns:svg="http://www.w3.org/2000/svg">
  <defs
     id="defs2">
    <rect
       x="-14.38694"
       y="-5.4197793"
       width="35.01685"
       height="69.568077"
       id="rect503" />
  </defs>
  <g
     id="layer1">
    <g
       aria-label="TooB Neural Amp Modeler"
       id="text236"
       style="font-style:italic;font-weight:bold;font-size:5.64444px;line-height:0;font-family:Timana;-inkscape-font-specification:'Timana Bold Italic';fill:#686868;stroke:#7f7f7f;stroke-width:0.285001;stop-color:#000000">
      <path
         d="m 13.638542,3.8375084 h -1.168576 l -0.564995,3.2659481 h -0.945333 l 0.567751,-3.2659481 h -1.149283 l 0.132291,-0.7468961 h 3.25768 z"
         style="font-weight:900;font-family:Roboto;-inkscape-font-specification:'Roboto, Heavy Italic';fill:#e0e0e0;fill-opacity:0.752941;stroke:none;stroke-width:0.285"
         id="path403" />
      <path
         d="m 14.614192,4.0662626 q 0.399631,0.00551 0.691775,0.2011934 0.292143,0.1929252 0.427191,0.5401906 0.137804,0.3472654 0.09922,0.7717008 l -0.0055,0.060634 Q 15.749695,6.3262435 15.316991,6.7479229 14.884287,7.1696023 14.247634,7.158578 13.850759,7.1530658 13.561372,6.9628967 13.271984,6.7699715 13.131424,6.4254622 12.99362,6.0809529 13.032205,5.6592736 q 0.0689,-0.7331158 0.501606,-1.1685755 0.43546,-0.4354598 1.080381,-0.4244355 z m -0.675238,1.593011 -0.0083,0.1626083 q -0.03859,0.6146046 0.374826,0.6256289 0.534678,0.016536 0.620116,-0.8681634 l 0.01103,-0.2508028 q 0.0055,-0.2480466 -0.09371,-0.3941186 -0.09646,-0.148828 -0.286632,-0.1543401 -0.250802,-0.00827 -0.413411,0.2067055 -0.159852,0.2122178 -0.203949,0.6724822 z"
         style="font-weight:900;font-family:Roboto;-inkscape-font-specification:'Roboto, Heavy Italic';fill:#e0e0e0;fill-opacity:0.752941;stroke:none;stroke-width:0.285"
         id="path405" />
      <path
         d="m 17.717531,4.0662626 q 0.399631,0.00551 0.691775,0.2011934 0.292144,0.1929252 0.427192,0.5401906 0.137803,0.3472654 0.09922,0.7717008 l -0.0055,0.060634 Q 18.853034,6.3262435 18.42033,6.7479229 17.987627,7.1696023 17.350973,7.158578 16.954099,7.1530658 16.664711,6.9628967 16.375323,6.7699715 16.234763,6.4254622 16.09696,6.0809529 16.135545,5.6592736 16.204447,4.9261578 16.63715,4.4906981 17.07261,4.0552383 17.717531,4.0662626 Z m -0.675238,1.593011 -0.0083,0.1626083 q -0.03859,0.6146046 0.374826,0.6256289 0.534678,0.016536 0.620117,-0.8681634 l 0.01102,-0.2508028 q 0.0055,-0.2480466 -0.09371,-0.3941186 -0.09646,-0.148828 -0.286632,-0.1543401 -0.250803,-0.00827 -0.413411,0.2067055 -0.159853,0.2122178 -0.20395,0.6724822 z"
         style="font-weight:900;font-family:Roboto;-inkscape-font-specification:'Roboto, Heavy Italic';fill:#e0e0e0;fill-opacity:0.752941;stroke:none;stroke-width:0.285"
         id="path407" />
      <path
         d="m 19.12313,7.1034565 0.69453,-4.0128442 1.276063,0.00276 q 0.755164,0.00276 1.127234,0.2866317 0.37207,0.2838757 0.338997,0.7965055 -0.04134,0.6338971 -0.69453,0.8984802 0.234266,0.082682 0.363801,0.3004121 0.132292,0.2149738 0.113,0.518142 -0.03858,0.5815317 -0.460265,0.8957241 -0.418923,0.3141925 -1.149283,0.3141925 z m 1.240233,-1.70601 -0.16812,0.9618699 0.564995,0.00276 q 0.264583,0 0.440972,-0.1295355 0.176389,-0.1322915 0.209461,-0.3500214 0.07717,-0.4602644 -0.352777,-0.482313 z m 0.107487,-0.6338971 0.443728,0.00276 q 0.614605,-0.01378 0.689019,-0.4712887 0.06614,-0.4519962 -0.468533,-0.4547523 l -0.501606,-0.00276 z"
         style="font-weight:900;font-family:Roboto;-inkscape-font-specification:'Roboto, Heavy Italic';fill:#e0e0e0;fill-opacity:0.752941;stroke:none;stroke-width:0.285"
         id="path409" />
      <path
         d="M 27.327963,7.1034565 H 26.415702 L 25.456588,4.5706242 25.015616,7.1034565 H 24.073039 L 24.76757,3.0906123 h 0.920529 l 0.956357,2.5328323 0.438216,-2.5328323 h 0.942578 z"
         style="font-weight:900;font-family:Roboto;-inkscape-font-specification:'Roboto, Heavy Italic';fill:#e0e0e0;fill-opacity:0.752941;stroke:none;stroke-width:0.285"
         id="path411" />
      <path
         d="M 29.38675,7.158578 Q 28.987119,7.1558219 28.672927,6.9711649 28.36149,6.7837519 28.201638,6.453023 28.041786,6.119538 28.074858,5.7199072 l 0.0083,-0.07717 q 0.07441,-0.7358718 0.509873,-1.1630633 0.438216,-0.4299476 1.072113,-0.4134112 0.383095,0.00551 0.655946,0.1956813 0.272851,0.187413 0.399631,0.520898 0.126779,0.3307289 0.08268,0.7441401 l -0.05236,0.3775822 h -1.774912 q 0.0055,0.2342663 0.132291,0.3803382 0.12678,0.146072 0.369314,0.1543402 0.394119,0.011024 0.708311,-0.3031682 L 30.56635,6.640436 Q 30.398229,6.8802145 30.095061,7.0180182 29.794649,7.1530658 29.436359,7.158578 Z m 0.220486,-2.3784921 q -0.192925,-0.00551 -0.336241,0.1212672 -0.14056,0.1267794 -0.245291,0.4244355 h 0.906748 l 0.01654,-0.079926 q 0.01654,-0.096463 0.0055,-0.1819009 -0.04685,-0.2756074 -0.347265,-0.2838756 z"
         style="font-weight:900;font-family:Roboto;-inkscape-font-specification:'Roboto, Heavy Italic';fill:#e0e0e0;fill-opacity:0.752941;stroke:none;stroke-width:0.285"
         id="path413" />
      <path
         d="M 32.75743,6.7782397 Q 32.423945,7.1723584 31.952656,7.1613341 31.51444,7.1558219 31.291198,6.8554098 31.070712,6.5549977 31.120321,6.0506361 l 0.322461,-1.929252 h 0.906749 l -0.327973,1.9402763 q -0.0083,0.079926 0,0.1460719 0.01929,0.2259981 0.267339,0.2342664 0.286632,0.011024 0.487825,-0.2259981 l 0.369314,-2.0946165 h 0.912261 l -0.518142,2.9820724 h -0.843359 z"
         style="font-weight:900;font-family:Roboto;-inkscape-font-specification:'Roboto, Heavy Italic';fill:#e0e0e0;fill-opacity:0.752941;stroke:none;stroke-width:0.285"
         id="path415" />
      <path
         d="M 36.180473,4.9619868 Q 36.034401,4.9399382 35.899353,4.934426 35.491454,4.9234017 35.27648,5.2155456 l -0.336241,1.8879109 h -0.906748 l 0.518142,-2.9820724 0.846114,-0.00276 -0.0689,0.3913626 q 0.292143,-0.4519962 0.689018,-0.4519962 0.112999,0 0.28112,0.038585 z"
         style="font-weight:900;font-family:Roboto;-inkscape-font-specification:'Roboto, Heavy Italic';fill:#e0e0e0;fill-opacity:0.752941;stroke:none;stroke-width:0.285"
         id="path417" />
      <path
         d="M 37.729386,7.1034565 Q 37.690801,6.9959696 37.690801,6.8333612 37.384877,7.1696023 36.960442,7.158578 36.571835,7.1530658 36.31552,6.899507 36.059205,6.6459482 36.075742,6.2849024 q 0.01378,-0.485069 0.405143,-0.74414 0.391362,-0.2618271 1.069357,-0.2618271 l 0.303168,0.00551 0.03307,-0.1681206 0.01102,-0.1460719 q -0.01102,-0.2508028 -0.250803,-0.259071 -0.297656,-0.00551 -0.366558,0.3279728 l -0.909504,0.00276 q 0.01378,-0.3004121 0.195681,-0.520898 0.181901,-0.223242 0.493337,-0.3417532 0.314193,-0.1212673 0.66697,-0.1129991 0.338998,0.00827 0.592556,0.1433159 0.256315,0.1322915 0.383095,0.37207 0.126779,0.2370224 0.09646,0.5484588 l -0.223242,1.4028418 -0.01378,0.1708766 q -0.01102,0.2039495 0.05237,0.3472654 l -0.0028,0.052365 z M 37.211245,6.5026323 q 0.278363,0.011024 0.487825,-0.2452906 l 0.09095,-0.4795569 -0.234266,-0.00276 q -0.21773,0.00551 -0.374826,0.1295355 -0.157097,0.1212672 -0.184657,0.333485 -0.01378,0.112999 0.04134,0.187413 0.05788,0.071658 0.173633,0.07717 z"
         style="font-weight:900;font-family:Roboto;-inkscape-font-specification:'Roboto, Heavy Italic';fill:#e0e0e0;fill-opacity:0.752941;stroke:none;stroke-width:0.285"
         id="path419" />
      <path
         d="m 39.937002,7.1034565 h -0.909505 l 0.733116,-4.2333301 h 0.909504 z"
         style="font-weight:900;font-family:Roboto;-inkscape-font-specification:'Roboto, Heavy Italic';fill:#e0e0e0;fill-opacity:0.752941;stroke:none;stroke-width:0.285"
         id="path421" />
      <path
         d="M 44.302625,6.3538043 H 43.02105 l -0.355533,0.7496522 h -1.03904 L 43.75141,3.0906123 h 0.887456 L 45.38025,7.1034565 H 44.399087 Z M 43.373828,5.6069082 h 0.832334 L 44.029773,4.2233588 Z"
         style="font-weight:900;font-family:Roboto;-inkscape-font-specification:'Roboto, Heavy Italic';fill:#e0e0e0;fill-opacity:0.752941;stroke:none;stroke-width:0.285"
         id="path423" />
      <path
         d="m 46.896092,4.118628 -0.06063,0.3582897 q 0.35829,-0.4216794 0.87092,-0.4106551 0.270095,0.00551 0.443728,0.1267794 0.173632,0.1212673 0.23151,0.3224607 0.394119,-0.4602644 0.906748,-0.4492401 0.413412,0.00827 0.611849,0.3114364 0.201193,0.3004121 0.146072,0.8488709 l -0.311437,1.8768866 h -0.909504 l 0.316948,-1.8796427 0.01103,-0.1626084 q 0,-0.2728513 -0.256315,-0.2811195 -0.239779,0 -0.446484,0.2452906 l -0.361046,2.07808 H 47.179968 L 47.49416,5.229326 47.505184,5.0639615 q 0,-0.2838756 -0.256315,-0.2838756 -0.234266,0 -0.440971,0.2452906 l -0.366558,2.07808 h -0.906749 l 0.518142,-2.9820724 z"
         style="font-weight:900;font-family:Roboto;-inkscape-font-specification:'Roboto, Heavy Italic';fill:#e0e0e0;fill-opacity:0.752941;stroke:none;stroke-width:0.285"
         id="path425" />
      <path
         d="M 53.218525,5.6151764 Q 53.160647,6.083709 52.973234,6.4502669 52.785821,6.8140687 52.507458,6.9932135 52.23185,7.1696023 51.890097,7.1613341 51.498734,7.1503098 51.2562,6.8526537 l -0.270095,1.3973297 h -0.906749 l 0.716579,-4.1285993 0.837847,-0.00276 -0.04685,0.2838757 q 0.300412,-0.3472654 0.708311,-0.3362411 0.43546,0.00551 0.677994,0.3114364 0.245291,0.3059243 0.261827,0.8350905 0.0055,0.1708766 -0.01654,0.4023869 z M 52.336581,5.2458624 Q 52.322801,4.7911102 52.027901,4.7828419 51.741269,4.7663055 51.5511,5.0171082 l -0.212218,1.1823559 q 0.08544,0.2397785 0.380338,0.2452906 0.482313,0.00827 0.592556,-0.8295783 0.02481,-0.2645832 0.02481,-0.369314 z"
         style="font-weight:900;font-family:Roboto;-inkscape-font-specification:'Roboto, Heavy Italic';fill:#e0e0e0;fill-opacity:0.752941;stroke:none;stroke-width:0.285"
         id="path427" />
      <path
         d="m 56.732518,3.0906123 0.383094,2.7836351 1.344964,-2.7836351 h 1.25677 L 59.022815,7.1034565 H 58.074726 L 58.245602,6.119538 58.653501,4.3060411 57.247904,7.1034565 H 56.622275 L 56.167522,4.2013103 55.913964,6.2132445 55.756867,7.1034565 H 54.81429 l 0.694531,-4.0128442 z"
         style="font-weight:900;font-family:Roboto;-inkscape-font-specification:'Roboto, Heavy Italic';fill:#e0e0e0;fill-opacity:0.752941;stroke:none;stroke-width:0.285"
         id="path429" />
      <path
         d="m 61.337921,4.0662626 q 0.399631,0.00551 0.691775,0.2011934 0.292144,0.1929252 0.427191,0.5401906 0.137804,0.3472654 0.09922,0.7717008 l -0.0055,0.060634 Q 62.473424,6.3262435 62.04072,6.7479229 61.608017,7.1696023 60.971363,7.158578 60.574489,7.1530658 60.285101,6.9628967 59.995713,6.7699715 59.855153,6.4254622 59.71735,6.0809529 59.755935,5.6592736 59.824837,4.9261578 60.25754,4.4906981 60.693,4.0552383 61.337921,4.0662626 Z m -0.675238,1.593011 -0.0083,0.1626083 q -0.03858,0.6146046 0.374826,0.6256289 0.534678,0.016536 0.620117,-0.8681634 l 0.01102,-0.2508028 q 0.0055,-0.2480466 -0.09371,-0.3941186 -0.09646,-0.148828 -0.286631,-0.1543401 -0.250803,-0.00827 -0.413411,0.2067055 -0.159853,0.2122178 -0.20395,0.6724822 z"
         style="font-weight:900;font-family:Roboto;-inkscape-font-specification:'Roboto, Heavy Italic';fill:#e0e0e0;fill-opacity:0.752941;stroke:none;stroke-width:0.285"
         id="path431" />
      <path
         d="m 62.851003,5.6069082 q 0.08544,-0.7055551 0.429947,-1.1299905 0.34451,-0.4244355 0.898481,-0.4106551 0.380338,0.011024 0.631141,0.3197046 l 0.289387,-1.5158408 h 0.909505 l -0.733116,4.2333301 h -0.80753 l 0.03858,-0.3224607 Q 64.173918,7.1723584 63.766019,7.1613341 63.336072,7.1558219 63.090781,6.8443855 62.848247,6.530193 62.83171,6.0037828 q -0.0055,-0.1736326 0.01102,-0.3389971 z m 0.903992,0.060634 q -0.02205,0.1763887 -0.01929,0.3086803 0,0.4575083 0.30868,0.4657766 0.267339,0.00827 0.476801,-0.2563149 l 0.203949,-1.1437709 q -0.09095,-0.2535588 -0.363802,-0.261827 -0.253558,-0.00551 -0.410655,0.2204859 -0.15434,0.223242 -0.195681,0.66697 z"
         style="font-weight:900;font-family:Roboto;-inkscape-font-specification:'Roboto, Heavy Italic';fill:#e0e0e0;fill-opacity:0.752941;stroke:none;stroke-width:0.285"
         id="path433" />
      <path
         d="M 67.291041,7.158578 Q 66.89141,7.1558219 66.577218,6.9711649 66.265781,6.7837519 66.105929,6.453023 65.946077,6.119538 65.97915,5.7199072 l 0.0083,-0.07717 q 0.07441,-0.7358718 0.509874,-1.1630633 0.438215,-0.4299476 1.072112,-0.4134112 0.383095,0.00551 0.655946,0.1956813 0.272851,0.187413 0.399631,0.520898 0.126779,0.3307289 0.08268,0.7441401 l -0.05236,0.3775822 h -1.774912 q 0.0055,0.2342663 0.132291,0.3803382 0.12678,0.146072 0.369314,0.1543402 0.394119,0.011024 0.708311,-0.3031682 L 68.470641,6.640436 Q 68.30252,6.8802145 67.999352,7.0180182 67.69894,7.1530658 67.34065,7.158578 Z m 0.220486,-2.3784921 q -0.192925,-0.00551 -0.336241,0.1212672 -0.14056,0.1267794 -0.245291,0.4244355 h 0.906749 l 0.01654,-0.079926 q 0.01654,-0.096463 0.0055,-0.1819009 -0.04685,-0.2756074 -0.347265,-0.2838756 z"
         style="font-weight:900;font-family:Roboto;-inkscape-font-specification:'Roboto, Heavy Italic';fill:#e0e0e0;fill-opacity:0.752941;stroke:none;stroke-width:0.285"
         id="path435" />
      <path
         d="m 69.774263,7.1034565 h -0.909505 l 0.733116,-4.2333301 h 0.909505 z"
         style="font-weight:900;font-family:Roboto;-inkscape-font-specification:'Roboto, Heavy Italic';fill:#e0e0e0;fill-opacity:0.752941;stroke:none;stroke-width:0.285"
         id="path437" />
      <path
         d="M 71.833052,7.158578 Q 71.433421,7.1558219 71.119229,6.9711649 70.807793,6.7837519 70.64794,6.453023 70.488088,6.119538 70.521161,5.7199072 l 0.0083,-0.07717 q 0.07441,-0.7358718 0.509874,-1.1630633 0.438216,-0.4299476 1.072113,-0.4134112 0.383094,0.00551 0.655945,0.1956813 0.272852,0.187413 0.399631,0.520898 0.12678,0.3307289 0.08268,0.7441401 l -0.05236,0.3775822 h -1.774912 q 0.0055,0.2342663 0.132292,0.3803382 0.126779,0.146072 0.369314,0.1543402 0.394118,0.011024 0.708311,-0.3031682 L 73.012652,6.640436 Q 72.844531,6.8802145 72.541363,7.0180182 72.240951,7.1530658 71.882662,7.158578 Z m 0.220486,-2.3784921 q -0.192925,-0.00551 -0.336241,0.1212672 -0.14056,0.1267794 -0.245291,0.4244355 h 0.906749 l 0.01654,-0.079926 q 0.01654,-0.096463 0.0055,-0.1819009 -0.04685,-0.2756074 -0.347265,-0.2838756 z"
         style="font-weight:900;font-family:Roboto;-inkscape-font-specification:'Roboto, Heavy Italic';fill:#e0e0e0;fill-opacity:0.752941;stroke:none;stroke-width:0.285"
         id="path439" />
      <path
         d="M 75.51241,4.9619868 Q 75.366338,4.9399382 75.231291,4.934426 74.823392,4.9234017 74.608418,5.2155456 l -0.336241,1.8879109 h -0.906749 l 0.518142,-2.9820724 0.846115,-0.00276 -0.0689,0.3913626 q 0.292144,-0.4519962 0.689019,-0.4519962 0.112999,0 0.28112,0.038585 z"
         style="font-weight:900;font-family:Roboto;-inkscape-font-specification:'Roboto, Heavy Italic';fill:#e0e0e0;fill-opacity:0.752941;stroke:none;stroke-width:0.285"
         id="path441" />
    </g>
    <path
       id="path1348"
       style="color:#000000;fill:#e0e0e0;fill-opacity:0.752941;stroke-width:0.714406;-inkscape-stroke:none"
       d="M 5.4193109,1.6360535 C 4.0746261,1.6465667 2.9804856,2.7485866 2.9805103,4.0933129 v 1.5080987 0.00443 0.00406 0.00702 c 0.00324,0.6351315 0.1709081,1.2397841 0.5330952,1.705241 0.091293,0.1173226 0.1960748,0.2241342 0.3126952,0.3186015 V 5.3666133 h 0.00259 V 4.0933129 C 3.8288705,3.2043172 4.5362516,2.4899017 5.4252198,2.4829515 6.3176074,2.4761075 7.0387059,3.1839609 7.0477631,4.0763306 v 0.016982 1.6742295 c 0,0.3851813 -0.1170262,0.6035969 -0.3182329,0.7675243 C 6.5283236,6.6989941 6.2034026,6.8056753 5.769664,6.8056753 H 5.437754 V 8.3957797 H 6.193851 V 7.5229912 C 6.5799202,7.4642455 6.9804539,7.4245038 7.2655789,7.1922063 7.6635843,6.8679419 7.8946602,6.354867 7.8946602,5.7675423 V 4.0933128 4.0693159 4.0682086 C 7.8809586,2.7185401 6.7690097,1.6257071 5.4193109,1.6360535 Z" />
    <g
       aria-label="B"
       id="text1054"
       style="font-style:italic;font-weight:900;font-size:6.35px;font-family:Roboto;-inkscape-font-specification:'Roboto, Heavy Italic';fill:#e0e0e0;fill-opacity:0.752941;stroke-width:0.285001;stop-color:#000000"
       transform="matrix(0.71440613,0,0,0.71440613,-2.144828,0.00813001)">
      <path
         id="path1085"
         style="font-style:normal;-inkscape-font-specification:'Roboto, Heavy';stroke-width:0.285"
         d="M 8.865092,5.8580404 V 8.9958333 11.74073 H 9.9533976 V 8.9958333 h 0.7441404 c 0.549837,-0.00413 0.964283,-0.116789 1.243335,-0.3379638 0.281119,-0.223242 0.42168,-0.5560389 0.42168,-0.9983887 0,-0.2439125 -0.06305,-0.4506186 -0.189136,-0.6201172 -0.12609,-0.1694982 -0.306958,-0.2852537 -0.542602,-0.3472656 0.208772,-0.078548 0.366902,-0.2005048 0.474389,-0.3658692 0.107487,-0.1653644 0.161231,-0.3648358 0.161231,-0.598413 0,-0.4051429 -0.151929,-0.7141686 -0.455786,-0.9270752 C 11.508859,4.5878339 11.18123,4.4813802 10.486698,4.4813802 H 9.9533976 c -1.0883054,0 -1.0883056,1.029605 -1.0883056,1.3766602 z m 1.0883056,-0.022757 c 0,-0.3308701 0.1341694,-0.4768142 0.3334184,-0.4952 l 0.199882,-0.018444 c 0.203885,-0.018814 0.420647,0.042375 0.530201,0.127124 0.109553,0.082682 0.164331,0.2191083 0.164331,0.4092774 0,0.1653644 -0.05064,0.2904216 -0.151929,0.3751709 -0.101285,0.08475 -0.270784,0.1281579 -0.508496,0.1302246 H 9.9533976 Z m 0,1.2412875 h 0.7627444 c 0.374137,0.00207 0.561206,0.1912032 0.561206,0.5674073 0,0.1632973 -0.05271,0.2904217 -0.15813,0.381372 -0.105419,0.088883 -0.256315,0.1333252 -0.452686,0.1333252 H 9.9533976 Z" />
    </g>
    <text
       xml:space="preserve"
       transform="scale(0.26458333)"
       id="text501"
       style="font-style:italic;font-weight:bold;font-size:22.6667px;line-height:0;font-family:Timana;-inkscape-font-specification:'Timana Bold Italic';white-space:pre;shape-inside:url(#rect503);fill:#686868;stroke:#7f7f7f;stroke-width:1.07717;stop-color:#000000" />
  </g>
</svg>
