<?xml version="1.0" encoding="UTF-8" standalone="no"?>
<!-- Created with Inkscape (http://www.inkscape.org/) -->

<svg
   width="300"
   height="36"
   viewBox="0 0 79.374996 9.525"
   version="1.1"
   id="svg5"
   xmlns="http://www.w3.org/2000/svg"
   xmlns:svg="http://www.w3.org/2000/svg">
  <defs
     id="defs2">
    <rect
       x="-14.38694"
       y="-5.4197793"
       width="35.01685"
       height="69.568077"
       id="rect503" />
  </defs>
  <g
     id="layer1">
    <g
       aria-label="TooB BF-2 Stereo Flanger"
       id="text236"
       style="font-style:italic;font-weight:bold;font-size:5.64444px;line-height:0;font-family:Timana;-inkscape-font-specification:'Timana Bold Italic';fill:#686868;stroke:#7f7f7f;stroke-width:0.285001;stop-color:#000000">
      <path
         d="m 13.638542,3.8375084 h -1.168576 l -0.564995,3.2659481 h -0.945333 l 0.567751,-3.2659481 h -1.149283 l 0.132291,-0.7468961 h 3.25768 z"
         style="font-weight:900;font-family:Roboto;-inkscape-font-specification:'Roboto, Heavy Italic';fill:#e0e0e0;fill-opacity:0.752941;stroke:none;stroke-width:0.285"
         id="path403" />
      <path
         d="m 14.614192,4.0662626 q 0.399631,0.00551 0.691775,0.2011934 0.292143,0.1929252 0.427191,0.5401906 0.137804,0.3472654 0.09922,0.7717008 l -0.0055,0.060634 Q 15.749695,6.3262435 15.316991,6.7479229 14.884287,7.1696023 14.247634,7.158578 13.850759,7.1530658 13.561372,6.9628967 13.271984,6.7699715 13.131424,6.4254622 12.99362,6.0809529 13.032205,5.6592736 q 0.0689,-0.7331158 0.501606,-1.1685755 0.43546,-0.4354598 1.080381,-0.4244355 z m -0.675238,1.593011 -0.0083,0.1626083 q -0.03859,0.6146046 0.374826,0.6256289 0.534678,0.016536 0.620116,-0.8681634 l 0.01103,-0.2508028 q 0.0055,-0.2480466 -0.09371,-0.3941186 -0.09646,-0.148828 -0.286632,-0.1543401 -0.250802,-0.00827 -0.413411,0.2067055 -0.159852,0.2122178 -0.203949,0.6724822 z"
         style="font-weight:900;font-family:Roboto;-inkscape-font-specification:'Roboto, Heavy Italic';fill:#e0e0e0;fill-opacity:0.752941;stroke:none;stroke-width:0.285"
         id="path405" />
      <path
         d="m 17.717531,4.0662626 q 0.399631,0.00551 0.691775,0.2011934 0.292144,0.1929252 0.427192,0.5401906 0.137803,0.3472654 0.09922,0.7717008 l -0.0055,0.060634 Q 18.853034,6.3262435 18.42033,6.7479229 17.987627,7.1696023 17.350973,7.158578 16.954099,7.1530658 16.664711,6.9628967 16.375323,6.7699715 16.234763,6.4254622 16.09696,6.0809529 16.135545,5.6592736 16.204447,4.9261578 16.63715,4.4906981 17.07261,4.0552383 17.717531,4.0662626 Z m -0.675238,1.593011 -0.0083,0.1626083 q -0.03859,0.6146046 0.374826,0.6256289 0.534678,0.016536 0.620117,-0.8681634 l 0.01102,-0.2508028 q 0.0055,-0.2480466 -0.09371,-0.3941186 -0.09646,-0.148828 -0.286632,-0.1543401 -0.250803,-0.00827 -0.413411,0.2067055 -0.159853,0.2122178 -0.20395,0.6724822 z"
         style="font-weight:900;font-family:Roboto;-inkscape-font-specification:'Roboto, Heavy Italic';fill:#e0e0e0;fill-opacity:0.752941;stroke:none;stroke-width:0.285"
         id="path407" />
      <path
         d="m 19.12313,7.1034565 0.69453,-4.0128442 1.276063,0.00276 q 0.755164,0.00276 1.127234,0.2866317 0.37207,0.2838757 0.338997,0.7965055 -0.04134,0.6338971 -0.69453,0.8984802 0.234266,0.082682 0.363801,0.3004121 0.132292,0.2149738 0.113,0.518142 -0.03858,0.5815317 -0.460265,0.8957241 -0.418923,0.3141925 -1.149283,0.3141925 z m 1.240233,-1.70601 -0.16812,0.9618699 0.564995,0.00276 q 0.264583,0 0.440972,-0.1295355 0.176389,-0.1322915 0.209461,-0.3500214 0.07717,-0.4602644 -0.352777,-0.482313 z m 0.107487,-0.6338971 0.443728,0.00276 q 0.614605,-0.01378 0.689019,-0.4712887 0.06614,-0.4519962 -0.468533,-0.4547523 l -0.501606,-0.00276 z"
         style="font-weight:900;font-family:Roboto;-inkscape-font-specification:'Roboto, Heavy Italic';fill:#e0e0e0;fill-opacity:0.752941;stroke:none;stroke-width:0.285"
         id="path409" />
      <path
         d="m 24.073039,7.1034565 0.694531,-4.0128442 1.276062,0.00276 q 0.755164,0.00276 1.127234,0.2866317 0.372071,0.2838757 0.338998,0.7965055 -0.04134,0.6338971 -0.694531,0.8984802 0.234266,0.082682 0.363802,0.3004121 0.132291,0.2149738 0.112999,0.518142 -0.03859,0.5815317 -0.460265,0.8957241 -0.418923,0.3141925 -1.149283,0.3141925 z m 1.240233,-1.70601 -0.16812,0.9618699 0.564995,0.00276 q 0.264583,0 0.440972,-0.1295355 0.176389,-0.1322915 0.209462,-0.3500214 0.07717,-0.4602644 -0.352778,-0.482313 z m 0.107487,-0.6338971 0.443728,0.00276 q 0.614605,-0.01378 0.689019,-0.4712887 0.06615,-0.4519962 -0.468533,-0.4547523 l -0.501605,-0.00276 z"
         style="font-weight:900;font-family:Roboto;-inkscape-font-specification:'Roboto, Heavy Italic';fill:#e0e0e0;fill-opacity:0.752941;stroke:none;stroke-width:0.285"
         id="path411" />
      <path
         d="m 30.365157,5.5049334 h -1.513085 l -0.278364,1.5985231 h -0.942577 l 0.694531,-4.0128442 h 2.610002 L 30.806129,3.8375084 H 29.14146 l -0.159853,0.9232849 h 1.513085 z"
         style="font-weight:900;font-family:Roboto;-inkscape-font-specification:'Roboto, Heavy Italic';fill:#e0e0e0;fill-opacity:0.752941;stroke:none;stroke-width:0.285"
         id="path413" />
      <path
         d="m 32.614113,5.7336876 h -1.612304 l 0.124023,-0.7193354 h 1.612304 z"
         style="font-weight:900;font-family:Roboto;-inkscape-font-specification:'Roboto, Heavy Italic';fill:#e0e0e0;fill-opacity:0.752941;stroke:none;stroke-width:0.285"
         id="path415" />
      <path
         d="m 35.833207,7.1034565 h -2.720245 l 0.09922,-0.6394092 1.427646,-1.3256718 0.195682,-0.1956813 Q 35.295773,4.4796738 35.257188,4.0690187 35.226871,3.7493141 34.926459,3.7410458 34.714241,3.7355337 34.565413,3.9146785 34.419341,4.0910673 34.383512,4.377699 l -0.901236,0.00551 q 0.02205,-0.3775822 0.228754,-0.6890186 0.206706,-0.3141925 0.551215,-0.4905812 0.347265,-0.1763888 0.738628,-0.1736327 0.587044,0.011024 0.909505,0.3197046 0.32246,0.3059242 0.281119,0.8295784 -0.02481,0.3086803 -0.203949,0.6008242 -0.176389,0.2921438 -0.515386,0.6146045 l -0.418924,0.3858504 -0.622872,0.6008242 1.515841,0.00551 z"
         style="font-weight:900;font-family:Roboto;-inkscape-font-specification:'Roboto, Heavy Italic';fill:#e0e0e0;fill-opacity:0.752941;stroke:none;stroke-width:0.285"
         id="path417" />
      <path
         d="m 39.934248,6.0175632 q 0.06063,-0.3114364 -0.336241,-0.482313 L 39.14601,5.3478372 q -0.950845,-0.4271916 -0.903992,-1.1630634 0.01929,-0.3362411 0.23151,-0.5980681 0.212218,-0.2645831 0.587044,-0.4106551 0.374826,-0.1460719 0.818554,-0.1405598 0.595312,0.011024 0.956358,0.3472654 0.363802,0.3362411 0.35829,0.9012363 h -0.937066 q 0.0083,-0.2315103 -0.09922,-0.369314 -0.104731,-0.1405598 -0.347266,-0.1460719 -0.237022,-0.00551 -0.418923,0.110243 -0.181901,0.1157551 -0.214974,0.3114364 -0.05237,0.2756074 0.407899,0.4519961 0.463021,0.1763888 0.672482,0.3031682 0.658702,0.3941186 0.617361,1.0638447 -0.02205,0.3472654 -0.223242,0.6090924 -0.201194,0.2618271 -0.559483,0.4051429 -0.355534,0.1433159 -0.799262,0.1378038 -0.325216,-0.00551 -0.60358,-0.1019748 -0.278363,-0.096463 -0.476801,-0.2811196 -0.402387,-0.37207 -0.38585,-0.9784063 l 0.945333,0.00276 q -0.01654,0.3086803 0.118511,0.4685327 0.135048,0.1570962 0.454753,0.1570962 0.237022,0 0.394118,-0.1074869 0.159853,-0.110243 0.195682,-0.3031682 z"
         style="font-weight:900;font-family:Roboto;-inkscape-font-specification:'Roboto, Heavy Italic';fill:#e0e0e0;fill-opacity:0.752941;stroke:none;stroke-width:0.285"
         id="path419" />
      <path
         d="m 42.844661,3.3800001 -0.129536,0.741384 h 0.476801 l -0.112999,0.6449214 h -0.476801 l -0.23151,1.3697689 q -0.01929,0.1405598 0.01654,0.2122177 0.03858,0.071658 0.187413,0.07717 0.05788,0.00276 0.237023,-0.01378 L 42.745442,7.084164 Q 42.516688,7.158578 42.257617,7.1530658 41.835937,7.1475537 41.626476,6.9050191 41.417014,6.6624846 41.455599,6.2463174 L 41.698134,4.7663055 H 41.32882 l 0.110243,-0.6449214 h 0.369314 l 0.129535,-0.741384 z"
         style="font-weight:900;font-family:Roboto;-inkscape-font-specification:'Roboto, Heavy Italic';fill:#e0e0e0;fill-opacity:0.752941;stroke:none;stroke-width:0.285"
         id="path421" />
      <path
         d="M 44.534136,7.158578 Q 44.134506,7.1558219 43.820313,6.9711649 43.508877,6.7837519 43.349024,6.453023 43.189172,6.119538 43.222245,5.7199072 l 0.0083,-0.07717 q 0.07441,-0.7358718 0.509874,-1.1630633 0.438216,-0.4299476 1.072113,-0.4134112 0.383094,0.00551 0.655946,0.1956813 0.272851,0.187413 0.39963,0.520898 0.12678,0.3307289 0.08268,0.7441401 l -0.05237,0.3775822 h -1.774912 q 0.0055,0.2342663 0.132292,0.3803382 0.126779,0.146072 0.369314,0.1543402 0.394118,0.011024 0.708311,-0.3031682 l 0.380338,0.5043616 q -0.16812,0.2397785 -0.471289,0.3775822 -0.300412,0.1350476 -0.658701,0.1405598 z m 0.220486,-2.3784921 q -0.192925,-0.00551 -0.336241,0.1212672 -0.14056,0.1267794 -0.24529,0.4244355 h 0.906748 l 0.01654,-0.079926 q 0.01654,-0.096463 0.0055,-0.1819009 -0.04685,-0.2756074 -0.347266,-0.2838756 z"
         style="font-weight:900;font-family:Roboto;-inkscape-font-specification:'Roboto, Heavy Italic';fill:#e0e0e0;fill-opacity:0.752941;stroke:none;stroke-width:0.285"
         id="path423" />
      <path
         d="M 48.213494,4.9619868 Q 48.067423,4.9399382 47.932375,4.934426 47.524476,4.9234017 47.309502,5.2155456 l -0.336241,1.8879109 h -0.906748 l 0.518142,-2.9820724 0.846114,-0.00276 -0.0689,0.3913626 q 0.292143,-0.4519962 0.689018,-0.4519962 0.112999,0 0.28112,0.038585 z"
         style="font-weight:900;font-family:Roboto;-inkscape-font-specification:'Roboto, Heavy Italic';fill:#e0e0e0;fill-opacity:0.752941;stroke:none;stroke-width:0.285"
         id="path425" />
      <path
         d="M 49.594286,7.158578 Q 49.194656,7.1558219 48.880463,6.9711649 48.569027,6.7837519 48.409175,6.453023 48.249322,6.119538 48.282395,5.7199072 l 0.0083,-0.07717 q 0.07441,-0.7358718 0.509874,-1.1630633 0.438216,-0.4299476 1.072113,-0.4134112 0.383094,0.00551 0.655946,0.1956813 0.272851,0.187413 0.39963,0.520898 0.12678,0.3307289 0.08268,0.7441401 l -0.05237,0.3775822 h -1.774912 q 0.0055,0.2342663 0.132292,0.3803382 0.126779,0.146072 0.369314,0.1543402 0.394119,0.011024 0.708311,-0.3031682 l 0.380338,0.5043616 q -0.16812,0.2397785 -0.471288,0.3775822 -0.300413,0.1350476 -0.658702,0.1405598 z m 0.220486,-2.3784921 q -0.192925,-0.00551 -0.336241,0.1212672 -0.140559,0.1267794 -0.24529,0.4244355 h 0.906748 l 0.01654,-0.079926 q 0.01654,-0.096463 0.0055,-0.1819009 -0.04685,-0.2756074 -0.347266,-0.2838756 z"
         style="font-weight:900;font-family:Roboto;-inkscape-font-specification:'Roboto, Heavy Italic';fill:#e0e0e0;fill-opacity:0.752941;stroke:none;stroke-width:0.285"
         id="path427" />
      <path
         d="m 52.860233,4.0662626 q 0.399631,0.00551 0.691775,0.2011934 0.292144,0.1929252 0.427192,0.5401906 0.137803,0.3472654 0.09922,0.7717008 l -0.0055,0.060634 Q 53.995736,6.3262435 53.563032,6.7479229 53.130329,7.1696023 52.493676,7.158578 52.096801,7.1530658 51.807413,6.9628967 51.518025,6.7699715 51.377466,6.4254622 51.239662,6.0809529 51.278247,5.6592736 q 0.0689,-0.7331158 0.501605,-1.1685755 0.43546,-0.4354598 1.080381,-0.4244355 z m -0.675238,1.593011 -0.0083,0.1626083 q -0.03858,0.6146046 0.374826,0.6256289 0.534679,0.016536 0.620117,-0.8681634 l 0.01102,-0.2508028 q 0.0055,-0.2480466 -0.09371,-0.3941186 -0.09646,-0.148828 -0.286632,-0.1543401 -0.250803,-0.00827 -0.413411,0.2067055 -0.159853,0.2122178 -0.20395,0.6724822 z"
         style="font-weight:900;font-family:Roboto;-inkscape-font-specification:'Roboto, Heavy Italic';fill:#e0e0e0;fill-opacity:0.752941;stroke:none;stroke-width:0.285"
         id="path429" />
      <path
         d="m 58.391677,5.5049334 h -1.513085 l -0.278364,1.5985231 h -0.942577 l 0.694531,-4.0128442 h 2.610002 L 58.832648,3.8375084 H 57.16798 l -0.159853,0.9232849 h 1.513085 z"
         style="font-weight:900;font-family:Roboto;-inkscape-font-specification:'Roboto, Heavy Italic';fill:#e0e0e0;fill-opacity:0.752941;stroke:none;stroke-width:0.285"
         id="path431" />
      <path
         d="M 59.593324,7.1034565 H 58.68382 l 0.733115,-4.2333301 h 0.909505 z"
         style="font-weight:900;font-family:Roboto;-inkscape-font-specification:'Roboto, Heavy Italic';fill:#e0e0e0;fill-opacity:0.752941;stroke:none;stroke-width:0.285"
         id="path433" />
      <path
         d="M 61.850551,7.1034565 Q 61.811966,6.9959696 61.811966,6.8333612 61.506042,7.1696023 61.081606,7.158578 60.693,7.1530658 60.436685,6.899507 60.18037,6.6459482 60.196906,6.2849024 q 0.01378,-0.485069 0.405143,-0.74414 0.391363,-0.2618271 1.069357,-0.2618271 l 0.303168,0.00551 0.03307,-0.1681206 0.01102,-0.1460719 q -0.01102,-0.2508028 -0.250802,-0.259071 -0.297656,-0.00551 -0.366558,0.3279728 l -0.909505,0.00276 q 0.01378,-0.3004121 0.195681,-0.520898 0.181901,-0.223242 0.493338,-0.3417532 0.314192,-0.1212673 0.66697,-0.1129991 0.338997,0.00827 0.592556,0.1433159 0.256315,0.1322915 0.383094,0.37207 0.126779,0.2370224 0.09646,0.5484588 l -0.223242,1.4028418 -0.01378,0.1708766 q -0.01102,0.2039495 0.05237,0.3472654 l -0.0028,0.052365 z M 61.332409,6.5026323 q 0.278363,0.011024 0.487825,-0.2452906 l 0.09095,-0.4795569 -0.234266,-0.00276 q -0.21773,0.00551 -0.374826,0.1295355 -0.157096,0.1212672 -0.184657,0.333485 -0.01378,0.112999 0.04134,0.187413 0.05788,0.071658 0.173633,0.07717 z"
         style="font-weight:900;font-family:Roboto;-inkscape-font-specification:'Roboto, Heavy Italic';fill:#e0e0e0;fill-opacity:0.752941;stroke:none;stroke-width:0.285"
         id="path435" />
      <path
         d="m 64.446771,4.118628 -0.06339,0.3582897 q 0.358289,-0.4244355 0.862651,-0.4134112 0.413411,0.00827 0.614605,0.3086804 0.203949,0.297656 0.148828,0.854383 l -0.314193,1.8768866 h -0.909504 l 0.316948,-1.8823988 q 0.01103,-0.096463 0.0055,-0.1763887 -0.01929,-0.2618271 -0.30868,-0.2618271 -0.239778,-0.00551 -0.438216,0.2122178 l -0.37207,2.1083968 h -0.906748 l 0.518142,-2.9820724 z"
         style="font-weight:900;font-family:Roboto;-inkscape-font-specification:'Roboto, Heavy Italic';fill:#e0e0e0;fill-opacity:0.752941;stroke:none;stroke-width:0.285"
         id="path437" />
      <path
         d="m 66.370511,5.6069082 q 0.05237,-0.4492402 0.245291,-0.813042 0.195681,-0.3638018 0.487825,-0.5484588 0.292144,-0.187413 0.661458,-0.1819009 0.44924,0.011024 0.677994,0.3224607 l 0.09646,-0.2673392 0.837846,0.00276 -0.487825,2.8663173 q -0.08268,0.6063363 -0.531922,0.9563578 -0.44924,0.3500214 -1.118967,0.333485 Q 66.941018,8.272032 66.662655,8.159033 66.384291,8.0460339 66.185854,7.8172797 l 0.429948,-0.5346784 q 0.239778,0.3031682 0.622872,0.3114364 0.603581,0.011024 0.766189,-0.6421653 l 0.02205,-0.09095 Q 67.718231,7.1640901 67.346161,7.158578 67.05953,7.1558219 66.8418,7.0152621 66.62407,6.8719463 66.500047,6.604607 66.376023,6.3372678 66.359487,6.009295 66.348462,5.8439305 66.370511,5.6069082 Z m 0.895724,0.2948999 q 0,0.2535588 0.09095,0.3941186 0.09095,0.1405598 0.264583,0.146072 0.256315,0.011024 0.465776,-0.1984374 L 68.321812,4.9785232 Q 68.211569,4.785598 67.952498,4.7800859 67.687915,4.7745737 67.50877,5.006084 q -0.179145,0.2287541 -0.225998,0.6035802 -0.01654,0.1736327 -0.01654,0.2921439 z"
         style="font-weight:900;font-family:Roboto;-inkscape-font-specification:'Roboto, Heavy Italic';fill:#e0e0e0;fill-opacity:0.752941;stroke:none;stroke-width:0.285"
         id="path439" />
      <path
         d="M 70.876692,7.158578 Q 70.477062,7.1558219 70.162869,6.9711649 69.851433,6.7837519 69.69158,6.453023 69.531728,6.119538 69.564801,5.7199072 l 0.0083,-0.07717 q 0.07441,-0.7358718 0.509874,-1.1630633 0.438216,-0.4299476 1.072113,-0.4134112 0.383094,0.00551 0.655946,0.1956813 0.272851,0.187413 0.39963,0.520898 0.12678,0.3307289 0.08268,0.7441401 l -0.05237,0.3775822 h -1.774912 q 0.0055,0.2342663 0.132292,0.3803382 0.126779,0.146072 0.369314,0.1543402 0.394118,0.011024 0.708311,-0.3031682 l 0.380338,0.5043616 q -0.16812,0.2397785 -0.471289,0.3775822 -0.300412,0.1350476 -0.658701,0.1405598 z m 0.220486,-2.3784921 q -0.192925,-0.00551 -0.336241,0.1212672 -0.14056,0.1267794 -0.24529,0.4244355 h 0.906748 l 0.01654,-0.079926 q 0.01654,-0.096463 0.0055,-0.1819009 -0.04685,-0.2756074 -0.347266,-0.2838756 z"
         style="font-weight:900;font-family:Roboto;-inkscape-font-specification:'Roboto, Heavy Italic';fill:#e0e0e0;fill-opacity:0.752941;stroke:none;stroke-width:0.285"
         id="path441" />
      <path
         d="M 74.55605,4.9619868 Q 74.409979,4.9399382 74.274931,4.934426 73.867032,4.9234017 73.652058,5.2155456 l -0.336241,1.8879109 h -0.906748 l 0.518142,-2.9820724 0.846114,-0.00276 -0.0689,0.3913626 q 0.292143,-0.4519962 0.689018,-0.4519962 0.112999,0 0.28112,0.038585 z"
         style="font-weight:900;font-family:Roboto;-inkscape-font-specification:'Roboto, Heavy Italic';fill:#e0e0e0;fill-opacity:0.752941;stroke:none;stroke-width:0.285"
         id="path443" />
    </g>
    <path
       id="path1348"
       style="color:#000000;fill:#e0e0e0;fill-opacity:0.752941;stroke-width:0.714406;-inkscape-stroke:none"
       d="M 5.4193109,1.6360535 C 4.0746261,1.6465667 2.9804856,2.7485866 2.9805103,4.0933129 v 1.5080987 0.00443 0.00406 0.00702 c 0.00324,0.6351315 0.1709081,1.2397841 0.5330952,1.705241 0.091293,0.1173226 0.1960748,0.2241342 0.3126952,0.3186015 V 5.3666133 h 0.00259 V 4.0933129 C 3.8288705,3.2043172 4.5362516,2.4899017 5.4252198,2.4829515 6.3176074,2.4761075 7.0387059,3.1839609 7.0477631,4.0763306 v 0.016982 1.6742295 c 0,0.3851813 -0.1170262,0.6035969 -0.3182329,0.7675243 C 6.5283236,6.6989941 6.2034026,6.8056753 5.769664,6.8056753 H 5.437754 V 8.3957797 H 6.193851 V 7.5229912 C 6.5799202,7.4642455 6.9804539,7.4245038 7.2655789,7.1922063 7.6635843,6.8679419 7.8946602,6.354867 7.8946602,5.7675423 V 4.0933128 4.0693159 4.0682086 C 7.8809586,2.7185401 6.7690097,1.6257071 5.4193109,1.6360535 Z" />
    <g
       aria-label="B"
       id="text1054"
       style="font-style:italic;font-weight:900;font-size:6.35px;font-family:Roboto;-inkscape-font-specification:'Roboto, Heavy Italic';fill:#e0e0e0;fill-opacity:0.752941;stroke-width:0.285001;stop-color:#000000"
       transform="matrix(0.71440613,0,0,0.71440613,-2.144828,0.00813001)">
      <path
         id="path1085"
         style="font-style:normal;-inkscape-font-specification:'Roboto, Heavy';stroke-width:0.285"
         d="M 8.865092,5.8580404 V 8.9958333 11.74073 H 9.9533976 V 8.9958333 h 0.7441404 c 0.549837,-0.00413 0.964283,-0.116789 1.243335,-0.3379638 0.281119,-0.223242 0.42168,-0.5560389 0.42168,-0.9983887 0,-0.2439125 -0.06305,-0.4506186 -0.189136,-0.6201172 -0.12609,-0.1694982 -0.306958,-0.2852537 -0.542602,-0.3472656 0.208772,-0.078548 0.366902,-0.2005048 0.474389,-0.3658692 0.107487,-0.1653644 0.161231,-0.3648358 0.161231,-0.598413 0,-0.4051429 -0.151929,-0.7141686 -0.455786,-0.9270752 C 11.508859,4.5878339 11.18123,4.4813802 10.486698,4.4813802 H 9.9533976 c -1.0883054,0 -1.0883056,1.029605 -1.0883056,1.3766602 z m 1.0883056,-0.022757 c 0,-0.3308701 0.1341694,-0.4768142 0.3334184,-0.4952 l 0.199882,-0.018444 c 0.203885,-0.018814 0.420647,0.042375 0.530201,0.127124 0.109553,0.082682 0.164331,0.2191083 0.164331,0.4092774 0,0.1653644 -0.05064,0.2904216 -0.151929,0.3751709 -0.101285,0.08475 -0.270784,0.1281579 -0.508496,0.1302246 H 9.9533976 Z m 0,1.2412875 h 0.7627444 c 0.374137,0.00207 0.561206,0.1912032 0.561206,0.5674073 0,0.1632973 -0.05271,0.2904217 -0.15813,0.381372 -0.105419,0.088883 -0.256315,0.1333252 -0.452686,0.1333252 H 9.9533976 Z" />
    </g>
    <text
       xml:space="preserve"
       transform="scale(0.26458333)"
       id="text501"
       style="font-style:italic;font-weight:bold;font-size:22.6667px;line-height:0;font-family:Timana;-inkscape-font-specification:'Timana Bold Italic';white-space:pre;shape-inside:url(#rect503);fill:#686868;stroke:#7f7f7f;stroke-width:1.07717;stop-color:#000000" />
  </g>
</svg>
