<?xml version="1.0" encoding="UTF-8" standalone="no"?>
<!-- Created with Inkscape (http://www.inkscape.org/) -->

<svg
   width="256"
   height="36"
   viewBox="0 0 67.73333 9.525"
   version="1.1"
   id="svg5"
   xmlns="http://www.w3.org/2000/svg"
   xmlns:svg="http://www.w3.org/2000/svg">
  <defs
     id="defs2">
    <rect
       x="-14.38694"
       y="-5.4197793"
       width="35.01685"
       height="69.568077"
       id="rect503" />
  </defs>
  <g
     id="layer1">
    <g
       aria-label="TooB Mix"
       id="text236"
       style="font-style:italic;font-weight:bold;font-size:5.64444px;line-height:0;font-family:Timana;-inkscape-font-specification:'Timana Bold Italic';fill:#686868;stroke:#7f7f7f;stroke-width:0.285001;stop-color:#000000">
      <path
         d="m 10.655146,7.1034565 0.654755,-3.1383087 h -0.874888 l 0.191911,-0.8918216 h 2.833509 L 13.262878,3.9651478 H 12.38799 l -0.654756,3.1383087 z"
         style="font-weight:900;font-family:Roboto;-inkscape-font-specification:'Roboto, Heavy Italic';fill:#e0e0e0;fill-opacity:0.752941;stroke:none;stroke-width:0.285"
         id="path235" />
      <path
         d="m 14.160346,7.1599009 q -0.575733,0 -0.891822,-0.3104442 Q 12.95808,6.533368 12.95808,5.9576351 q 0,-0.4007552 0.112889,-0.7619994 0.112889,-0.3668886 0.333022,-0.6491106 0.220133,-0.2878665 0.54751,-0.4515552 0.333022,-0.1693332 0.767644,-0.1693332 0.575733,0 0.886177,0.3160886 0.316089,0.3104442 0.316089,0.8861771 0,0.4007553 -0.112889,0.7676439 -0.112889,0.3612442 -0.333022,0.6491106 -0.220133,0.282222 -0.553155,0.4515552 -0.327377,0.1636888 -0.761999,0.1636888 z m 0.118533,-0.8015105 q 0.158044,0 0.282222,-0.1862665 0.124178,-0.191911 0.197555,-0.4797774 0.07338,-0.2935109 0.07338,-0.5983107 0,-0.3668886 -0.237066,-0.3668886 -0.158045,0 -0.282222,0.1919109 -0.124178,0.1862666 -0.197556,0.474133 -0.06773,0.2878665 -0.06773,0.5983107 0,0.3668886 0.231422,0.3668886 z"
         style="font-weight:900;font-family:Roboto;-inkscape-font-specification:'Roboto, Heavy Italic';fill:#e0e0e0;fill-opacity:0.752941;stroke:none;stroke-width:0.285"
         id="path237" />
      <path
         d="m 17.586523,7.1599009 q -0.575733,0 -0.891822,-0.3104442 -0.310444,-0.3160887 -0.310444,-0.8918216 0,-0.4007552 0.112889,-0.7619994 0.112889,-0.3668886 0.333022,-0.6491106 0.220133,-0.2878665 0.54751,-0.4515552 0.333022,-0.1693332 0.767644,-0.1693332 0.575733,0 0.886177,0.3160886 0.316089,0.3104442 0.316089,0.8861771 0,0.4007553 -0.112889,0.7676439 -0.112889,0.3612442 -0.333022,0.6491106 -0.220133,0.282222 -0.553155,0.4515552 -0.327377,0.1636888 -0.761999,0.1636888 z m 0.118533,-0.8015105 q 0.158044,0 0.282222,-0.1862665 0.124178,-0.191911 0.197555,-0.4797774 0.07338,-0.2935109 0.07338,-0.5983107 0,-0.3668886 -0.237066,-0.3668886 -0.158045,0 -0.282222,0.1919109 -0.124178,0.1862666 -0.197556,0.474133 -0.06773,0.2878665 -0.06773,0.5983107 0,0.3668886 0.231422,0.3668886 z"
         style="font-weight:900;font-family:Roboto;-inkscape-font-specification:'Roboto, Heavy Italic';fill:#e0e0e0;fill-opacity:0.752941;stroke:none;stroke-width:0.285"
         id="path239" />
      <path
         d="m 19.669324,7.1034565 0.85231,-4.0301303 h 1.343377 q 0.649111,0 0.931333,0.2483554 0.282222,0.2483553 0.282222,0.6321773 0,0.4120441 -0.214489,0.6660439 -0.208844,0.2539998 -0.603955,0.3725331 v 0.022578 q 0.242711,0.079022 0.383822,0.282222 0.146755,0.1975554 0.146755,0.4854219 0,0.4684885 -0.220133,0.7619994 -0.214489,0.2935109 -0.581377,0.4289775 -0.361244,0.1298221 -0.8128,0.1298221 z M 21.4699,4.6199028 q 0.282222,0 0.383822,-0.1241777 0.107245,-0.1241776 0.107245,-0.3160886 0,-0.282222 -0.349956,-0.282222 h -0.174977 l -0.163689,0.7224883 z m -0.316088,1.6425321 q 0.248355,0 0.400755,-0.1354666 0.1524,-0.141111 0.1524,-0.3330219 0,-0.191911 -0.09031,-0.282222 -0.09031,-0.095956 -0.321733,-0.095956 h -0.186267 l -0.180622,0.846666 z"
         style="font-weight:900;font-family:Roboto;-inkscape-font-specification:'Roboto, Heavy Italic';fill:#e0e0e0;fill-opacity:0.752941;stroke:none;stroke-width:0.285"
         id="path241" />
      <path
         d="m 24.715459,7.1034565 0.85231,-4.0301303 h 1.428044 v 2.8617312 h 0.02258 l 1.315155,-2.8617312 h 1.450621 l -0.863599,4.0301303 h -0.965199 l 0.321733,-1.51271 q 0.09031,-0.423333 0.158044,-0.6886217 0.06773,-0.2709331 0.112889,-0.4346219 0.0508,-0.1636887 0.06773,-0.2539998 h -0.02258 L 27.266746,7.1034565 H 26.245102 V 4.2135031 h -0.02258 q -0.06773,0.4289775 -0.124177,0.7845772 -0.05645,0.3555997 -0.112889,0.6265329 l -0.310444,1.4788433 z"
         style="font-weight:900;font-family:Roboto;-inkscape-font-specification:'Roboto, Heavy Italic';fill:#e0e0e0;fill-opacity:0.752941;stroke:none;stroke-width:0.285"
         id="path243" />
      <path
         d="m 31.13319,3.6829258 q -0.225778,0 -0.378178,-0.084667 -0.146755,-0.090311 -0.146755,-0.3047997 0,-0.282222 0.163688,-0.4289775 0.163689,-0.1467554 0.4572,-0.1467554 0.214489,0 0.366889,0.090311 0.158044,0.084667 0.158044,0.2991554 0,0.2596442 -0.1524,0.4176885 -0.1524,0.1580444 -0.468488,0.1580444 z m -1.315155,3.4205307 0.6604,-3.1213754 h 1.072443 l -0.666044,3.1213754 z"
         style="font-weight:900;font-family:Roboto;-inkscape-font-specification:'Roboto, Heavy Italic';fill:#e0e0e0;fill-opacity:0.752941;stroke:none;stroke-width:0.285"
         id="path245" />
      <path
         d="M 31.263016,7.1034565 32.566882,5.5117244 31.996794,3.9820811 h 1.162754 l 0.208845,0.8635993 0.513644,-0.8635993 h 1.264354 l -1.281288,1.5860877 0.626533,1.5352877 H 33.311948 L 33.091815,6.2003461 32.510438,7.1034565 Z"
         style="font-weight:900;font-family:Roboto;-inkscape-font-specification:'Roboto, Heavy Italic';fill:#e0e0e0;fill-opacity:0.752941;stroke:none;stroke-width:0.285"
         id="path247" />
    </g>
    <path
       id="path1348"
       style="color:#000000;fill:#e0e0e0;fill-opacity:0.752941;stroke-width:0.714406;-inkscape-stroke:none"
       d="M 5.4193109,1.6360535 C 4.0746261,1.6465667 2.9804856,2.7485866 2.9805103,4.0933129 v 1.5080987 0.00443 0.00406 0.00702 c 0.00324,0.6351315 0.1709081,1.2397841 0.5330952,1.705241 0.091293,0.1173226 0.1960748,0.2241342 0.3126952,0.3186015 V 5.3666133 h 0.00259 V 4.0933129 C 3.8288705,3.2043172 4.5362516,2.4899017 5.4252198,2.4829515 6.3176074,2.4761075 7.0387059,3.1839609 7.0477631,4.0763306 v 0.016982 1.6742295 c 0,0.3851813 -0.1170262,0.6035969 -0.3182329,0.7675243 C 6.5283236,6.6989941 6.2034026,6.8056753 5.769664,6.8056753 H 5.437754 V 8.3957797 H 6.193851 V 7.5229912 C 6.5799202,7.4642455 6.9804539,7.4245038 7.2655789,7.1922063 7.6635843,6.8679419 7.8946602,6.354867 7.8946602,5.7675423 V 4.0933128 4.0693159 4.0682086 C 7.8809586,2.7185401 6.7690097,1.6257071 5.4193109,1.6360535 Z" />
    <g
       aria-label="B"
       id="text1054"
       style="font-style:italic;font-weight:900;font-size:6.35px;font-family:Roboto;-inkscape-font-specification:'Roboto, Heavy Italic';fill:#e0e0e0;fill-opacity:0.752941;stroke-width:0.285001;stop-color:#000000"
       transform="matrix(0.71440613,0,0,0.71440613,-2.144828,0.00813001)">
      <path
         id="path1085"
         style="font-style:normal;-inkscape-font-specification:'Roboto, Heavy';stroke-width:0.285"
         d="M 8.865092,5.8580404 V 8.9958333 11.74073 H 9.9533976 V 8.9958333 h 0.7441404 c 0.549837,-0.00413 0.964283,-0.116789 1.243335,-0.3379638 0.281119,-0.223242 0.42168,-0.5560389 0.42168,-0.9983887 0,-0.2439125 -0.06305,-0.4506186 -0.189136,-0.6201172 -0.12609,-0.1694982 -0.306958,-0.2852537 -0.542602,-0.3472656 0.208772,-0.078548 0.366902,-0.2005048 0.474389,-0.3658692 0.107487,-0.1653644 0.161231,-0.3648358 0.161231,-0.598413 0,-0.4051429 -0.151929,-0.7141686 -0.455786,-0.9270752 C 11.508859,4.5878339 11.18123,4.4813802 10.486698,4.4813802 H 9.9533976 c -1.0883054,0 -1.0883056,1.029605 -1.0883056,1.3766602 z m 1.0883056,-0.022757 c 0,-0.3308701 0.1341694,-0.4768142 0.3334184,-0.4952 l 0.199882,-0.018444 c 0.203885,-0.018814 0.420647,0.042375 0.530201,0.127124 0.109553,0.082682 0.164331,0.2191083 0.164331,0.4092774 0,0.1653644 -0.05064,0.2904216 -0.151929,0.3751709 -0.101285,0.08475 -0.270784,0.1281579 -0.508496,0.1302246 H 9.9533976 Z m 0,1.2412875 h 0.7627444 c 0.374137,0.00207 0.561206,0.1912032 0.561206,0.5674073 0,0.1632973 -0.05271,0.2904217 -0.15813,0.381372 -0.105419,0.088883 -0.256315,0.1333252 -0.452686,0.1333252 H 9.9533976 Z" />
    </g>
    <text
       xml:space="preserve"
       transform="scale(0.26458333)"
       id="text501"
       style="font-style:italic;font-weight:bold;font-size:22.6667px;line-height:0;font-family:Timana;-inkscape-font-specification:'Timana Bold Italic';white-space:pre;shape-inside:url(#rect503);fill:#686868;stroke:#7f7f7f;stroke-width:1.07717;stop-color:#000000" />
  </g>
</svg>
