<?xml version="1.0" encoding="UTF-8" standalone="no"?>
<!-- Created with Inkscape (http://www.inkscape.org/) -->

<svg
   width="256"
   height="48"
   viewBox="0 0 67.73333 12.7"
   version="1.1"
   id="svg5"
   xmlns="http://www.w3.org/2000/svg"
   xmlns:svg="http://www.w3.org/2000/svg">
  <defs
     id="defs2" />
  <g
     id="layer1">
    <g
       aria-label="TooB Phaser"
       id="text236"
       style="font-style:italic;font-weight:bold;font-size:5.99722px;font-family:Timana;-inkscape-font-specification:'Timana Bold Italic';fill:#686868;stroke:#7f7f7f;stroke-width:0.285001;stop-color:#000000">
      <path
         d="M 12.022963,5.7265975 12.163523,4.93302 h 3.461286 l -0.137632,0.7935775 h -1.24454 L 13.64233,9.1966686 h -1.004418 l 0.603236,-3.4700711 z"
         style="font-weight:900;font-family:Roboto;-inkscape-font-specification:'Roboto, Heavy Italic';fill:#e0e0e0;fill-opacity:0.752941;stroke:none;stroke-width:0.285"
         id="path407" />
      <path
         d="m 14.804876,7.6622237 0.0059,-0.061495 q 0.07321,-0.6852292 0.512458,-1.1654754 0.439249,-0.4802461 1.162547,-0.4656044 0.694014,0.011713 1.021987,0.4861028 0.330901,0.4714611 0.272335,1.1215504 -0.06442,0.7232975 -0.512458,1.2094003 Q 16.819568,9.2698769 16.09627,9.2552352 15.408112,9.2435219 15.077211,8.7779174 14.74631,8.3093846 14.804876,7.6622237 Z m 0.957564,0.3543279 q 0.0059,0.1932698 0.09078,0.336758 0.08492,0.1405598 0.304546,0.1464165 0.571024,0.014642 0.658874,-0.922424 0.01171,-0.1581298 0.0059,-0.354328 Q 16.81374,7.026776 16.72883,6.8803595 16.64391,6.733943 16.424284,6.7280864 16.178304,6.7222264 16.034816,6.8862162 15.891328,7.0472743 15.81812,7.345964 15.74491,7.6417253 15.76248,8.0165516 Z"
         style="font-weight:900;font-family:Roboto;-inkscape-font-specification:'Roboto, Heavy Italic';fill:#e0e0e0;fill-opacity:0.752941;stroke:none;stroke-width:0.285"
         id="path409" />
      <path
         d="m 18.072893,7.6622237 0.0059,-0.061495 q 0.07321,-0.6852292 0.512458,-1.1654754 0.43925,-0.4802461 1.162547,-0.4656044 0.694015,0.011713 1.021987,0.4861028 0.330902,0.4714611 0.272335,1.1215504 Q 20.9837,8.3005996 20.535662,8.7867024 20.087584,9.2698769 19.364286,9.2552352 18.676129,9.2435219 18.345228,8.7779174 18.014326,8.3093846 18.072893,7.6622237 Z m 0.957564,0.3543279 q 0.0059,0.1932698 0.09078,0.336758 0.08492,0.1405598 0.304546,0.1464165 0.571025,0.014642 0.658875,-0.922424 0.01171,-0.1581298 0.0059,-0.354328 -0.0088,-0.1961981 -0.09371,-0.3426146 -0.08492,-0.1464165 -0.304547,-0.1522731 -0.245979,-0.00586 -0.389468,0.1581298 -0.143488,0.1610581 -0.216696,0.4597478 -0.07321,0.2957613 -0.05564,0.6705876 z"
         style="font-weight:900;font-family:Roboto;-inkscape-font-specification:'Roboto, Heavy Italic';fill:#e0e0e0;fill-opacity:0.752941;stroke:none;stroke-width:0.285"
         id="path411" />
      <path
         d="m 24.644066,7.9111317 q -0.02928,0.4714612 -0.272335,0.7525808 -0.240123,0.2811197 -0.614949,0.4070379 -0.374826,0.1259182 -0.808219,0.1259182 H 21.226705 L 21.964644,4.93302 23.305819,4.93595 q 0.998561,0.00293 1.393885,0.4743895 0.207912,0.2459797 0.178628,0.6764443 -0.02343,0.3601846 -0.219624,0.5915226 -0.196198,0.2284098 -0.521243,0.363113 0.28112,0.096635 0.401181,0.3426146 0.12299,0.2459797 0.10542,0.5270994 z m -1.812636,-2.1845342 -0.172772,0.9839189 0.433393,0.00293 q 0.269406,-0.00293 0.494888,-0.1024916 0.22841,-0.099563 0.275263,-0.3982528 0.041,-0.2664781 -0.09663,-0.3689696 Q 23.62794,5.7383125 23.376104,5.7295275 Z m 0.825789,2.1728209 Q 23.695287,7.673937 23.604509,7.5363055 23.516659,7.3986739 23.282392,7.3869606 l -0.737939,-0.00293 -0.178628,1.0219872 0.597379,0.00293 q 0.251837,-0.00293 0.450963,-0.1229898 0.199127,-0.1200616 0.243052,-0.3865396 z"
         style="font-weight:900;font-family:Roboto;-inkscape-font-specification:'Roboto, Heavy Italic';fill:#e0e0e0;fill-opacity:0.752941;stroke:none;stroke-width:0.285"
         id="path413" />
      <path
         d="m 28.415755,7.7530019 -0.7028,-0.00293 -0.251836,1.446595 H 26.45963 l 0.737939,-4.2636486 1.598869,0.00293 q 0.626662,0.014642 1.042485,0.3894679 0.418751,0.3748263 0.366041,1.0307722 -0.03807,0.4743895 -0.301618,0.7847925 -0.260621,0.310403 -0.655946,0.4626762 -0.392396,0.1493448 -0.831645,0.1493448 z m -0.3514,-2.0264044 -0.213768,1.2298986 0.603236,0.00586 q 0.286976,-0.00586 0.489031,-0.1552015 0.204983,-0.1522732 0.248908,-0.4451062 0.03807,-0.2430514 -0.0615,-0.4304645 -0.09663,-0.1874132 -0.366041,-0.2020548 z"
         style="font-weight:900;font-family:Roboto;-inkscape-font-specification:'Roboto, Heavy Italic';fill:#e0e0e0;fill-opacity:0.752941;stroke:none;stroke-width:0.285"
         id="path415" />
      <path
         d="m 32.011744,6.7310147 q -0.260622,-0.00586 -0.459748,0.1874131 l -0.40411,2.2782408 h -0.96342 l 0.781864,-4.497915 h 0.963421 l -0.327973,1.6720765 q 0.357256,-0.4099662 0.817004,-0.4041096 0.547597,0.011713 0.735011,0.3953246 0.190341,0.3836112 0.137631,0.8667857 L 32.963451,9.1966686 H 31.994174 L 32.328003,7.2200458 Q 32.354358,7.017991 32.295792,6.8774312 32.240154,6.7368713 32.011744,6.7310147 Z"
         style="font-weight:900;font-family:Roboto;-inkscape-font-specification:'Roboto, Heavy Italic';fill:#e0e0e0;fill-opacity:0.752941;stroke:none;stroke-width:0.285"
         id="path417" />
      <path
         d="m 35.265118,9.1966686 q -0.041,-0.1229898 -0.03807,-0.2899047 -0.327973,0.3572563 -0.776008,0.3484713 -0.392396,-0.00586 -0.676444,-0.2635497 -0.28112,-0.257693 -0.26355,-0.6647309 0.01464,-0.4216795 0.254765,-0.6530176 0.243052,-0.2342664 0.597379,-0.3250447 0.357257,-0.090778 0.711585,-0.090778 l 0.322116,0.00586 0.03514,-0.1786282 Q 35.458388,6.9272128 35.411535,6.7954379 35.36761,6.6607348 35.177268,6.6548781 34.861009,6.6490214 34.7878,7.0033494 l -0.966349,0.00293 q 0.01757,-0.3689696 0.240123,-0.6003077 0.225482,-0.231338 0.553455,-0.3367579 0.327973,-0.1083482 0.650089,-0.099563 0.506601,0.00878 0.846288,0.301618 0.342614,0.2899046 0.292833,0.8287174 l -0.216697,1.3558168 -0.03807,0.3162597 q -0.0205,0.1991264 0.05857,0.3689696 l -0.0029,0.055638 z M 34.714592,8.5582927 q 0.295761,0.011713 0.518315,-0.2576931 l 0.09663,-0.5124578 -0.248908,-0.00293 q -0.222553,0.00586 -0.392396,0.1317749 -0.169843,0.1229898 -0.202055,0.3601846 -0.03514,0.2723347 0.22841,0.2811197 z"
         style="font-weight:900;font-family:Roboto;-inkscape-font-specification:'Roboto, Heavy Italic';fill:#e0e0e0;fill-opacity:0.752941;stroke:none;stroke-width:0.285"
         id="path419" />
      <path
         d="m 38.363293,8.2888863 q 0.03807,-0.1961981 -0.28112,-0.284048 l -0.225481,-0.058567 q -0.357256,-0.093707 -0.673516,-0.310403 -0.313331,-0.2166964 -0.29869,-0.6442326 0.01171,-0.3513997 0.219625,-0.5798094 0.21084,-0.2284097 0.521243,-0.336758 0.310403,-0.1112765 0.620806,-0.1054198 0.486103,0.00586 0.866785,0.2547647 0.383612,0.248908 0.389468,0.7789358 l -0.957564,-0.00293 q 0.0029,-0.1727715 -0.07028,-0.2723347 -0.07028,-0.1024916 -0.260621,-0.1024916 -0.143488,0 -0.272335,0.084922 -0.125918,0.081993 -0.152273,0.231338 -0.03221,0.1698432 0.134703,0.2342665 0.166915,0.064423 0.286977,0.090778 0.266478,0.064423 0.515386,0.1727715 0.251836,0.1054198 0.409966,0.301618 0.161058,0.1932698 0.152273,0.5153861 -0.01464,0.3631129 -0.245979,0.585666 -0.22841,0.2196247 -0.559312,0.319188 -0.327972,0.099563 -0.635447,0.093706 -0.483175,-0.00878 -0.869714,-0.284048 -0.383611,-0.275263 -0.395325,-0.7965058 l 0.890213,0.00293 q 0.0088,0.4216795 0.424607,0.4187512 0.152274,0 0.289905,-0.07028 0.14056,-0.073208 0.1757,-0.2371939 z"
         style="font-weight:900;font-family:Roboto;-inkscape-font-specification:'Roboto, Heavy Italic';fill:#e0e0e0;fill-opacity:0.752941;stroke:none;stroke-width:0.285"
         id="path421" />
      <path
         d="M 42.378032,8.7047092 Q 42.178906,9.0004705 41.821649,9.1322454 41.467321,9.2610919 41.127635,9.2552352 40.468761,9.2464502 40.073436,8.8130574 39.68104,8.3796645 39.730822,7.7266469 l 0.01171,-0.1142049 q 0.06735,-0.6881575 0.509529,-1.171332 0.442178,-0.4861028 1.171332,-0.4714611 0.661803,0.011713 0.966349,0.4743894 0.307475,0.4597479 0.240123,1.0776255 L 42.57423,7.922845 h -1.879988 q 0,0.2459798 0.134703,0.4041096 0.134704,0.1552015 0.392397,0.1639865 0.421679,0.011713 0.755509,-0.3221163 z M 41.358973,6.7280864 q -0.26355,-0.00878 -0.401181,0.1756998 -0.134703,0.1844848 -0.213768,0.4041095 h 0.96342 l 0.01757,-0.084922 Q 41.757226,7.017991 41.669376,6.8745029 41.581526,6.7310147 41.358973,6.7280864 Z"
         style="font-weight:900;font-family:Roboto;-inkscape-font-specification:'Roboto, Heavy Italic';fill:#e0e0e0;fill-opacity:0.752941;stroke:none;stroke-width:0.285"
         id="path423" />
      <path
         d="m 44.720697,6.8920728 q -0.430464,-0.00586 -0.658874,0.292833 l -0.357256,2.0117628 h -0.963421 l 0.550526,-3.1684531 0.896069,-0.00293 -0.07321,0.4128946 q 0.131775,-0.2020548 0.307475,-0.3396863 0.1757,-0.1376315 0.427536,-0.1376315 0.125918,0 0.295761,0.040997 l -0.125918,0.9194956 q -0.190341,-0.029283 -0.29869,-0.029283 z"
         style="font-weight:900;font-family:Roboto;-inkscape-font-specification:'Roboto, Heavy Italic';fill:#e0e0e0;fill-opacity:0.752941;stroke:none;stroke-width:0.285"
         id="path425" />
    </g>
    <path
       id="path1348"
       style="color:#000000;fill:#e0e0e0;fill-opacity:0.752941;-inkscape-stroke:none"
       d="M 6.6569584,2.1171834 C 4.774717,2.1318994 3.2431785,3.6744673 3.243213,5.5567668 v 2.1109822 0.0062 0.00568 0.00982 c 0.00453,0.8890342 0.2392311,1.7354052 0.7462076,2.386935 0.1277885,0.164224 0.2744584,0.313735 0.4376994,0.445967 V 7.3390869 H 4.43074 V 5.5567668 c -2.28e-5,-1.2443843 0.9901438,-2.2443973 2.2344894,-2.254126 1.249133,-0.00958 2.258501,0.9812478 2.271179,2.2303548 v 0.023771 2.3435262 c 0,0.539163 -0.163809,0.8448933 -0.445451,1.074353 -0.281642,0.2294597 -0.736455,0.3787882 -1.343587,0.3787882 h -0.464596 v 2.225771 h 1.058358 v -1.221698 c 0.540406,-0.08223 1.101059,-0.137859 1.500167,-0.4630207 0.557114,-0.4538937 0.8805656,-1.1720775 0.8805656,-1.9941935 v -2.3435262 -0.03359 -0.00155 C 10.102686,3.6324092 8.5462194,2.1027009 6.6569584,2.1171834 Z" />
    <g
       aria-label="B"
       id="text1054"
       style="font-style:italic;font-weight:900;font-size:6.35px;font-family:Roboto;-inkscape-font-specification:'Roboto, Heavy Italic';fill:#e0e0e0;fill-opacity:0.752941;stroke-width:0.285001;stop-color:#000000"
       transform="translate(-3.9310512,-0.1615253)">
      <path
         id="path1085"
         style="font-style:normal;-inkscape-font-specification:'Roboto, Heavy';stroke-width:0.285"
         d="M 8.865092,5.8580404 V 8.9958333 11.74073 H 9.9533976 V 8.9958333 h 0.7441404 c 0.549837,-0.00413 0.964283,-0.116789 1.243335,-0.3379638 0.281119,-0.223242 0.42168,-0.5560389 0.42168,-0.9983887 0,-0.2439125 -0.06305,-0.4506186 -0.189136,-0.6201172 -0.12609,-0.1694982 -0.306958,-0.2852537 -0.542602,-0.3472656 0.208772,-0.078548 0.366902,-0.2005048 0.474389,-0.3658692 0.107487,-0.1653644 0.161231,-0.3648358 0.161231,-0.598413 0,-0.4051429 -0.151929,-0.7141686 -0.455786,-0.9270752 C 11.508859,4.5878339 11.18123,4.4813802 10.486698,4.4813802 H 9.9533976 c -1.0883054,0 -1.0883056,1.029605 -1.0883056,1.3766602 z m 1.0883056,-0.022757 c 0,-0.3308701 0.1341694,-0.4768142 0.3334184,-0.4952 l 0.199882,-0.018444 c 0.203885,-0.018814 0.420647,0.042375 0.530201,0.127124 0.109553,0.082682 0.164331,0.2191083 0.164331,0.4092774 0,0.1653644 -0.05064,0.2904216 -0.151929,0.3751709 -0.101285,0.08475 -0.270784,0.1281579 -0.508496,0.1302246 H 9.9533976 Z m 0,1.2412875 h 0.7627444 c 0.374137,0.00207 0.561206,0.1912032 0.561206,0.5674073 0,0.1632973 -0.05271,0.2904217 -0.15813,0.381372 -0.105419,0.088883 -0.256315,0.1333252 -0.452686,0.1333252 H 9.9533976 Z" />
    </g>
  </g>
</svg>
