<?xml version="1.0" encoding="UTF-8" standalone="no"?>
<!-- Created with Inkscape (http://www.inkscape.org/) -->

<svg
   width="256"
   height="36"
   viewBox="0 0 67.73333 9.525"
   version="1.1"
   id="svg5"
   xmlns="http://www.w3.org/2000/svg"
   xmlns:svg="http://www.w3.org/2000/svg">
  <defs
     id="defs2">
    <rect
       x="-14.38694"
       y="-5.4197793"
       width="35.01685"
       height="69.568077"
       id="rect503" />
  </defs>
  <g
     id="layer1">
    <path
       style="font-style:italic;font-weight:900;font-size:5.64444px;line-height:0;font-family:Roboto;-inkscape-font-specification:'Roboto, Heavy Italic';fill:#e0e0e0;fill-opacity:0.752941;stroke-width:0.285"
       d="m 12.599502,3.0906123 -0.694531,4.0128442 h -0.945333 l 0.697286,-4.0128442 z m 1.171331,0 -0.129535,0.7468961 h -3.260436 l 0.132291,-0.7468961 z m -0.771701,2.5686613 0.0055,-0.057878 q 0.03583,-0.3224607 0.157096,-0.6035803 0.121267,-0.2811195 0.322461,-0.4933373 0.203949,-0.2122177 0.479556,-0.3279728 0.275608,-0.1185112 0.617361,-0.110243 0.327973,0.00551 0.567751,0.1267794 0.239779,0.1212673 0.394119,0.3307289 0.15434,0.2067056 0.21773,0.479557 0.06615,0.2700953 0.03858,0.5760195 l -0.0055,0.060634 Q 15.757963,5.9596857 15.63394,6.2380492 15.509916,6.5164127 15.305967,6.7258743 15.104773,6.935336 14.829166,7.0510911 14.553558,7.1668462 14.214561,7.158578 13.892101,7.1530658 13.649566,7.0345546 13.409788,6.9132874 13.255447,6.7093379 13.101107,6.5026323 13.034961,6.2352931 12.971572,5.9651978 12.999132,5.6592736 Z m 0.912261,-0.057878 -0.0055,0.057878 q -0.0083,0.112999 -0.01102,0.2480466 0,0.1322916 0.03032,0.256315 0.03032,0.1212672 0.110243,0.2011934 0.08268,0.07717 0.237023,0.082682 0.165364,0.00551 0.275607,-0.068902 0.112999,-0.074414 0.181901,-0.1984374 0.0689,-0.1240233 0.104731,-0.2673392 0.03858,-0.1433159 0.05236,-0.2756074 l 0.0055,-0.057878 q 0.0083,-0.110243 0.0083,-0.2452906 0.0028,-0.1378037 -0.02756,-0.2618271 -0.03032,-0.1240233 -0.112999,-0.2039495 -0.08268,-0.082682 -0.237022,-0.088194 -0.165365,-0.00551 -0.278364,0.071658 -0.110243,0.07717 -0.179145,0.2039495 -0.0689,0.1240233 -0.104731,0.2700953 -0.03583,0.1433158 -0.04961,0.2756074 z m 2.163518,0.057878 0.0055,-0.057878 q 0.03583,-0.3224607 0.157097,-0.6035803 0.121267,-0.2811195 0.32246,-0.4933373 0.20395,-0.2122177 0.479557,-0.3279728 0.275608,-0.1185112 0.617361,-0.110243 0.327973,0.00551 0.567751,0.1267794 0.239779,0.1212673 0.394119,0.3307289 0.15434,0.2067056 0.21773,0.479557 0.06615,0.2700953 0.03859,0.5760195 l -0.0055,0.060634 Q 18.833742,5.9596857 18.709718,6.2380492 18.585695,6.5164127 18.381745,6.7258743 18.180552,6.935336 17.904945,7.0510911 17.629337,7.1668462 17.29034,7.158578 16.967879,7.1530658 16.725345,7.0345546 16.485566,6.9132874 16.331226,6.7093379 16.176886,6.5026323 16.11074,6.2352931 16.04735,5.9651978 16.074911,5.6592736 Z m 0.912261,-0.057878 -0.0055,0.057878 q -0.0083,0.112999 -0.01103,0.2480466 0,0.1322916 0.03032,0.256315 0.03032,0.1212672 0.110243,0.2011934 0.08268,0.07717 0.237023,0.082682 0.165364,0.00551 0.275607,-0.068902 0.112999,-0.074414 0.181901,-0.1984374 0.0689,-0.1240233 0.104731,-0.2673392 0.03858,-0.1433159 0.05236,-0.2756074 l 0.0055,-0.057878 q 0.0083,-0.110243 0.0083,-0.2452906 0.0028,-0.1378037 -0.02756,-0.2618271 -0.03032,-0.1240233 -0.112999,-0.2039495 -0.08268,-0.082682 -0.237023,-0.088194 -0.165364,-0.00551 -0.278363,0.071658 -0.110243,0.07717 -0.179145,0.2039495 -0.0689,0.1240233 -0.104731,0.2700953 -0.03583,0.1433158 -0.04961,0.2756074 z m 3.982527,-0.2039495 h -1.044552 l 0.107487,-0.6338971 0.766189,0.00276 q 0.16812,0 0.32246,-0.038585 0.157097,-0.041341 0.264583,-0.1433158 0.110243,-0.1019748 0.14056,-0.2893878 0.02481,-0.1708766 -0.02756,-0.2673392 -0.05236,-0.099219 -0.16812,-0.1405598 -0.112999,-0.044097 -0.270095,-0.046853 l -0.504362,-0.00276 -0.567751,3.2659481 h -0.942578 l 0.694531,-4.0128442 1.350476,0.00276 q 0.261828,0.00276 0.518142,0.057878 0.256315,0.055121 0.460265,0.1791449 0.203949,0.1212672 0.319704,0.3307289 0.115756,0.2067056 0.09646,0.518142 -0.01929,0.3389971 -0.190169,0.5512148 -0.168121,0.2094617 -0.43546,0.3114364 -0.267339,0.099219 -0.578775,0.1074869 z m -0.319704,1.70601 H 19.3822 l 0.451997,-0.7441401 0.846114,0.00276 q 0.157097,-0.00276 0.2949,-0.052365 0.14056,-0.049609 0.234267,-0.1543402 0.09646,-0.1074869 0.124023,-0.2728513 0.02481,-0.1405598 -0.0055,-0.2452906 -0.02756,-0.1074869 -0.115755,-0.1681206 -0.08544,-0.060634 -0.23151,-0.068902 l -0.840603,-0.00276 0.115755,-0.6338971 0.915017,0.00276 0.165364,0.2508027 q 0.278364,0.00276 0.493337,0.099219 0.214974,0.096463 0.330729,0.2921439 0.118511,0.1929252 0.09922,0.4850691 -0.02756,0.4492401 -0.259071,0.7165793 -0.23151,0.2645831 -0.5898,0.3803383 -0.35829,0.1157551 -0.760676,0.112999 z m 4.497913,-4.0128442 h 0.738628 l 0.383094,2.7836351 1.350477,-2.7836351 h 0.799261 l -2.017446,4.0128442 h -0.625629 z m -0.482313,0 h 0.796506 l -0.391363,3.11712 -0.157096,0.8957242 h -0.942578 z m 3.403752,0 h 0.802018 l -0.694531,4.0128442 h -0.94809 l 0.170877,-0.9756503 z m 2.480466,3.2411434 0.383094,-2.2103716 h 0.909505 L 31.32427,7.1034565 h -0.846115 z m 0.170877,-0.5622392 0.234266,-0.00551 Q 30.927395,6.0175632 30.844713,6.268366 30.762031,6.5191687 30.615959,6.7231182 30.469887,6.9270677 30.252157,7.048335 30.037183,7.1668462 29.742283,7.1613341 29.496993,7.1558219 29.326116,7.0676275 29.157995,6.9794332 29.056021,6.8278491 28.954046,6.6735089 28.918217,6.4750716 28.882388,6.2766342 28.904437,6.0506361 l 0.32246,-1.929252 h 0.906749 l -0.327973,1.9402763 q -0.0083,0.079926 0,0.148828 0.01102,0.068902 0.04134,0.1212673 0.03307,0.049609 0.09095,0.079926 0.05788,0.030317 0.148828,0.033073 0.206705,0.00827 0.336241,-0.085438 0.129535,-0.096463 0.198437,-0.2535588 0.07166,-0.1570962 0.09922,-0.3362411 z m 2.786391,-2.8993901 -0.733116,4.2333301 h -0.909504 l 0.733115,-4.2333301 z m 1.860352,1.2512577 -0.112999,0.6449214 h -1.747352 l 0.112999,-0.6449214 z m -1.254014,-0.741384 h 0.906748 l -0.474045,2.7560743 q -0.01102,0.096463 0,0.1598523 0.01103,0.060634 0.05788,0.093707 0.04961,0.030317 0.151584,0.035829 0.05788,0.00276 0.115755,-0.00276 0.05788,-0.00551 0.115755,-0.011024 l -0.06339,0.6724822 q -0.118512,0.038585 -0.242535,0.055121 -0.121267,0.016536 -0.248047,0.016536 -0.281119,-0.00551 -0.471288,-0.112999 -0.187413,-0.110243 -0.272852,-0.3114364 -0.08268,-0.2039495 -0.05788,-0.4850691 z m 2.563149,0.741384 -0.515386,2.9820724 H 35.251677 L 35.769819,4.1213841 Z M 35.849745,3.3689758 q -0.0055,-0.2149738 0.143316,-0.3417532 0.151584,-0.1267794 0.355534,-0.1295355 0.195681,-0.00276 0.347265,0.1157551 0.151584,0.1157552 0.15434,0.3224607 0.0055,0.2149738 -0.146072,0.3417532 Q 36.5553,3.8044356 36.351351,3.8071916 36.15567,3.8099477 36.004086,3.6941926 35.855258,3.5756814 35.849745,3.3689758 Z M 38.834573,5.0143522 38.71055,5.7336876 H 37.098247 L 37.22227,5.0143522 Z m 2.96278,-1.9237399 -0.694531,4.0128442 h -0.945333 l 0.697286,-4.0128442 z m 1.171331,0 -0.129535,0.7468961 h -3.260436 l 0.132292,-0.7468961 z m 0.829578,3.263192 0.192925,-1.2402335 q 0.01102,-0.099219 -0.0028,-0.1901691 -0.01102,-0.09095 -0.0689,-0.148828 -0.05512,-0.060634 -0.173633,-0.06339 -0.107487,-0.00276 -0.181901,0.038585 -0.07441,0.041341 -0.118511,0.1157552 -0.0441,0.074414 -0.06339,0.1708766 l -0.909504,0.00551 q 0.01102,-0.259071 0.137803,-0.446484 0.12678,-0.1874131 0.325217,-0.3059243 0.198438,-0.1185112 0.432704,-0.1736326 0.237022,-0.055122 0.465776,-0.049609 0.314193,0.00551 0.567752,0.1322916 0.256315,0.1240233 0.394118,0.3610457 0.14056,0.2342663 0.107487,0.5705074 l -0.195681,1.223697 q -0.02481,0.1653644 -0.0441,0.3527775 -0.01929,0.184657 0.05512,0.3445093 l -0.0028,0.052365 -0.8847,0.00276 q -0.06063,-0.1791449 -0.06063,-0.3720701 0,-0.1929252 0.02756,-0.3803382 z m 0.294899,-1.0721129 -0.08268,0.4960934 -0.355533,-0.00276 q -0.104731,0.00276 -0.201194,0.035829 -0.09371,0.030317 -0.16812,0.088194 -0.07441,0.057878 -0.124024,0.1433159 -0.04685,0.085438 -0.06063,0.1956813 -0.01102,0.074414 0.01102,0.1350476 0.02481,0.057878 0.07441,0.093706 0.05237,0.035829 0.129536,0.038585 0.118511,0.00276 0.228754,-0.044097 0.110243,-0.046853 0.190169,-0.1322916 0.08268,-0.085438 0.112999,-0.1984373 l 0.159852,0.3886064 q -0.07166,0.1433159 -0.165364,0.2618271 -0.09095,0.1185112 -0.206706,0.2067056 -0.112999,0.085438 -0.253559,0.1322915 -0.140559,0.046853 -0.311436,0.044097 Q 42.825367,7.158578 42.618662,7.0455789 42.411956,6.9325799 42.290689,6.7368986 42.169422,6.5412173 42.17769,6.2849024 q 0.01102,-0.297656 0.146072,-0.4933373 0.135047,-0.1956812 0.350021,-0.3059242 0.21773,-0.1129991 0.471289,-0.1598523 0.256315,-0.046853 0.507118,-0.046853 z M 46.39173,4.7442569 45.782638,8.2499834 H 44.87589 l 0.716579,-4.1285993 h 0.840603 z m 1.626084,0.815798 -0.0083,0.057878 Q 47.979229,5.8880277 47.885523,6.1636352 47.794572,6.4392426 47.63472,6.6679968 47.477624,6.8967509 47.243357,7.0345546 47.009091,7.1696023 46.692143,7.1613341 46.413779,7.1530658 46.23739,7.0069939 46.061002,6.8581659 45.961783,6.6321678 45.86532,6.4034136 45.826735,6.1498548 45.790906,5.8935399 45.796418,5.6730539 l 0.0083,-0.079926 q 0.04134,-0.2425346 0.137803,-0.5126298 0.09646,-0.2700953 0.253559,-0.5016056 0.157096,-0.2342663 0.377582,-0.3775821 0.220486,-0.146072 0.51263,-0.1378038 0.305924,0.00827 0.501606,0.146072 0.195681,0.1350476 0.297656,0.3555336 0.101974,0.2177298 0.129535,0.4795569 0.02756,0.2618271 0.0028,0.5153859 z m -0.91226,0.055122 0.0055,-0.057878 q 0.0083,-0.099219 0.01378,-0.2287542 0.0055,-0.1295354 -0.01654,-0.2535588 -0.01929,-0.1240233 -0.09095,-0.2067056 -0.0689,-0.085438 -0.212217,-0.09095 -0.168121,-0.00827 -0.28112,0.052365 -0.112999,0.060634 -0.184657,0.1681205 -0.0689,0.1074869 -0.107487,0.2425346 -0.03859,0.1322915 -0.05512,0.2728513 l -0.02481,0.2259981 q -0.01929,0.1570963 -0.0083,0.3197046 0.01102,0.1598523 0.09371,0.2700953 0.08544,0.110243 0.286632,0.1157551 0.159852,0.00276 0.264583,-0.07717 0.107487,-0.079926 0.170877,-0.2094617 0.06615,-0.1295355 0.09922,-0.2728513 0.03307,-0.146072 0.04685,-0.2700953 z m 3.795112,1.4882801 h -0.917773 l 0.135048,-0.7441401 0.813042,0.00551 q 0.344509,0 0.567751,-0.1708766 0.225998,-0.1708766 0.350021,-0.443728 0.12678,-0.2728513 0.170877,-0.5760195 l 0.01929,-0.1708766 q 0.0248,-0.1819009 0.02205,-0.3803383 -0.0028,-0.2011934 -0.05788,-0.3748261 Q 51.947974,4.0745308 51.815682,3.9615318 51.686147,3.8485327 51.451881,3.8402645 l -0.917773,-0.00276 0.129535,-0.7468961 0.818555,0.00276 q 0.402386,0.00827 0.705555,0.1653644 0.303168,0.1543402 0.498849,0.4216794 0.195681,0.2645831 0.275607,0.6063364 0.07993,0.3417532 0.03583,0.7193354 l -0.01929,0.1736326 q -0.05237,0.4023869 -0.225998,0.7551644 -0.173633,0.3500214 -0.446484,0.6146046 -0.272852,0.261827 -0.631141,0.410655 -0.355534,0.146072 -0.774457,0.1433159 z M 51.223127,3.0906123 50.52584,7.1034565 H 49.583262 L 50.277793,3.0906123 Z M 54.557978,7.158578 Q 54.249298,7.1530658 53.995739,7.0455789 53.74218,6.935336 53.565792,6.7424108 53.389403,6.5494856 53.303964,6.2904146 53.221282,6.0285875 53.243331,5.7199072 l 0.01102,-0.1074869 q 0.03307,-0.3252168 0.15434,-0.6063363 0.121268,-0.2838757 0.325217,-0.4960934 0.20395,-0.2149738 0.479557,-0.333485 0.278363,-0.1185112 0.622873,-0.110243 0.311436,0.00551 0.537434,0.1240234 0.228754,0.1185112 0.37207,0.3224607 0.143316,0.2011934 0.198438,0.4630204 0.05788,0.259071 0.02756,0.5512149 l -0.05236,0.3775822 h -2.370224 l 0.09371,-0.5815317 1.460719,0.00276 0.01654,-0.079926 q 0.01929,-0.1295355 -0.01102,-0.2342663 -0.03032,-0.1047308 -0.112999,-0.1653645 -0.08268,-0.06339 -0.223242,-0.068902 -0.170877,-0.00276 -0.283876,0.074414 -0.110243,0.07717 -0.179144,0.2039495 -0.06615,0.1267794 -0.101975,0.2756074 -0.03583,0.146072 -0.05237,0.2811196 l -0.01102,0.1047308 q -0.01102,0.1350477 0.0083,0.2618271 0.01929,0.1267794 0.07717,0.2287541 0.06063,0.1019748 0.162609,0.1653645 0.101975,0.060634 0.256315,0.066146 0.206705,0.00551 0.38585,-0.07717 0.179145,-0.082682 0.322461,-0.2259981 l 0.377582,0.5016055 q -0.124023,0.1874131 -0.319705,0.3031682 -0.195681,0.1129991 -0.421679,0.1653645 -0.223242,0.055122 -0.43546,0.052365 z m 3.199803,-4.2884516 -0.733116,4.2333301 h -0.909504 l 0.733115,-4.2333301 z m 1.452449,3.4836779 0.192925,-1.2402335 q 0.01102,-0.099219 -0.0028,-0.1901691 -0.01102,-0.09095 -0.0689,-0.148828 -0.05512,-0.060634 -0.173633,-0.06339 -0.107487,-0.00276 -0.181901,0.038585 -0.07441,0.041341 -0.118511,0.1157552 -0.0441,0.074414 -0.06339,0.1708766 l -0.909505,0.00551 q 0.01102,-0.259071 0.137804,-0.446484 0.126779,-0.1874131 0.325216,-0.3059243 0.198438,-0.1185112 0.432704,-0.1736326 0.237023,-0.055122 0.465777,-0.049609 0.314192,0.00551 0.567751,0.1322916 0.256315,0.1240233 0.394119,0.3610457 0.140559,0.2342663 0.107487,0.5705074 l -0.195682,1.223697 q -0.0248,0.1653644 -0.0441,0.3527775 -0.01929,0.184657 0.05512,0.3445093 l -0.0028,0.052365 -0.884699,0.00276 q -0.06063,-0.1791449 -0.06063,-0.3720701 0,-0.1929252 0.02756,-0.3803382 z m 0.2949,-1.0721129 -0.08268,0.4960934 -0.355533,-0.00276 q -0.104731,0.00276 -0.201194,0.035829 -0.09371,0.030317 -0.16812,0.088194 -0.07441,0.057878 -0.124023,0.1433159 -0.04685,0.085438 -0.06063,0.1956813 -0.01102,0.074414 0.01102,0.1350476 0.02481,0.057878 0.07441,0.093706 0.05237,0.035829 0.129536,0.038585 0.118511,0.00276 0.228754,-0.044097 0.110243,-0.046853 0.190169,-0.1322916 0.08268,-0.085438 0.112999,-0.1984373 l 0.159852,0.3886064 q -0.07166,0.1433159 -0.165364,0.2618271 -0.09095,0.1185112 -0.206706,0.2067056 -0.112999,0.085438 -0.253558,0.1322915 -0.14056,0.046853 -0.311437,0.044097 Q 58.237336,7.158578 58.03063,7.0455789 57.823924,6.9325799 57.702657,6.7368986 57.58139,6.5412173 57.589658,6.2849024 q 0.01102,-0.297656 0.146072,-0.4933373 0.135048,-0.1956812 0.350021,-0.3059242 0.21773,-0.1129991 0.471289,-0.1598523 0.256315,-0.046853 0.507118,-0.046853 z m 1.887911,1.4276465 1.185112,-2.5879538 h 1.000455 l -1.747351,3.4285564 q -0.07993,0.1708766 -0.181901,0.3114364 -0.09922,0.1405598 -0.225998,0.2425346 -0.12678,0.1019747 -0.286632,0.1570962 -0.159852,0.055122 -0.361046,0.055122 -0.10473,0 -0.203949,-0.019293 -0.09922,-0.016537 -0.198437,-0.041341 l 0.0689,-0.66697 q 0.02756,0.00276 0.05512,0.00276 0.02756,0.00276 0.05236,0.00276 0.115755,0 0.206706,-0.024805 0.09371,-0.022049 0.165364,-0.079926 0.07441,-0.057878 0.129536,-0.1598523 z m 0.250803,-2.5879538 0.214974,2.1332015 -0.0689,0.9370653 h -0.5898 L 60.704022,4.1213841 Z"
       id="text236"
       aria-label="TooB Multi-Tap Delay" />
    <path
       id="path1348"
       style="color:#000000;fill:#e0e0e0;fill-opacity:0.752941;stroke-width:0.714406;-inkscape-stroke:none"
       d="M 5.4193109,1.6360535 C 4.0746261,1.6465667 2.9804856,2.7485866 2.9805103,4.0933129 v 1.5080987 0.00443 0.00406 0.00702 c 0.00324,0.6351315 0.1709081,1.2397841 0.5330952,1.705241 0.091293,0.1173226 0.1960748,0.2241342 0.3126952,0.3186015 V 5.3666133 h 0.00259 V 4.0933129 C 3.8288705,3.2043172 4.5362516,2.4899017 5.4252198,2.4829515 6.3176074,2.4761075 7.0387059,3.1839609 7.0477631,4.0763306 v 0.016982 1.6742295 c 0,0.3851813 -0.1170262,0.6035969 -0.3182329,0.7675243 C 6.5283236,6.6989941 6.2034026,6.8056753 5.769664,6.8056753 H 5.437754 V 8.3957797 H 6.193851 V 7.5229912 C 6.5799202,7.4642455 6.9804539,7.4245038 7.2655789,7.1922063 7.6635843,6.8679419 7.8946602,6.354867 7.8946602,5.7675423 V 4.0933128 4.0693159 4.0682086 C 7.8809586,2.7185401 6.7690097,1.6257071 5.4193109,1.6360535 Z" />
    <g
       aria-label="B"
       id="text1054"
       style="font-style:italic;font-weight:900;font-size:6.35px;font-family:Roboto;-inkscape-font-specification:'Roboto, Heavy Italic';fill:#e0e0e0;fill-opacity:0.752941;stroke-width:0.285001;stop-color:#000000"
       transform="matrix(0.71440613,0,0,0.71440613,-2.144828,0.00813001)">
      <path
         id="path1085"
         style="font-style:normal;-inkscape-font-specification:'Roboto, Heavy';stroke-width:0.285"
         d="M 8.865092,5.8580404 V 8.9958333 11.74073 H 9.9533976 V 8.9958333 h 0.7441404 c 0.549837,-0.00413 0.964283,-0.116789 1.243335,-0.3379638 0.281119,-0.223242 0.42168,-0.5560389 0.42168,-0.9983887 0,-0.2439125 -0.06305,-0.4506186 -0.189136,-0.6201172 -0.12609,-0.1694982 -0.306958,-0.2852537 -0.542602,-0.3472656 0.208772,-0.078548 0.366902,-0.2005048 0.474389,-0.3658692 0.107487,-0.1653644 0.161231,-0.3648358 0.161231,-0.598413 0,-0.4051429 -0.151929,-0.7141686 -0.455786,-0.9270752 C 11.508859,4.5878339 11.18123,4.4813802 10.486698,4.4813802 H 9.9533976 c -1.0883054,0 -1.0883056,1.029605 -1.0883056,1.3766602 z m 1.0883056,-0.022757 c 0,-0.3308701 0.1341694,-0.4768142 0.3334184,-0.4952 l 0.199882,-0.018444 c 0.203885,-0.018814 0.420647,0.042375 0.530201,0.127124 0.109553,0.082682 0.164331,0.2191083 0.164331,0.4092774 0,0.1653644 -0.05064,0.2904216 -0.151929,0.3751709 -0.101285,0.08475 -0.270784,0.1281579 -0.508496,0.1302246 H 9.9533976 Z m 0,1.2412875 h 0.7627444 c 0.374137,0.00207 0.561206,0.1912032 0.561206,0.5674073 0,0.1632973 -0.05271,0.2904217 -0.15813,0.381372 -0.105419,0.088883 -0.256315,0.1333252 -0.452686,0.1333252 H 9.9533976 Z" />
    </g>
    <text
       xml:space="preserve"
       transform="scale(0.26458333)"
       id="text501"
       style="font-style:italic;font-weight:bold;font-size:22.6667px;line-height:0;font-family:Timana;-inkscape-font-specification:'Timana Bold Italic';white-space:pre;shape-inside:url(#rect503);fill:#686868;stroke:#7f7f7f;stroke-width:1.07717;stop-color:#000000" />
  </g>
</svg>
