<?xml version="1.0" encoding="UTF-8" standalone="no"?>
<!-- Created with Inkscape (http://www.inkscape.org/) -->

<svg
   width="256"
   height="36"
   viewBox="0 0 67.73333 9.525"
   version="1.1"
   id="svg5"
   xmlns="http://www.w3.org/2000/svg"
   xmlns:svg="http://www.w3.org/2000/svg">
  <defs
     id="defs2">
    <rect
       x="-14.38694"
       y="-5.4197793"
       width="35.01685"
       height="69.568077"
       id="rect503" />
  </defs>
  <g
     id="layer1">
    <path
       style="font-style:italic;font-weight:900;font-size:5.64444px;line-height:0;font-family:Roboto;-inkscape-font-specification:'Roboto, Heavy Italic';fill:#e0e0e0;fill-opacity:0.752941;stroke-width:0.285"
       d="m 12.599502,3.0906123 -0.694531,4.0128442 h -0.945333 l 0.697286,-4.0128442 z m 1.171331,0 -0.129535,0.7468961 h -3.260436 l 0.132291,-0.7468961 z m -0.771701,2.5686613 0.0055,-0.057878 q 0.03583,-0.3224607 0.157096,-0.6035803 0.121267,-0.2811195 0.322461,-0.4933373 0.203949,-0.2122177 0.479556,-0.3279728 0.275608,-0.1185112 0.617361,-0.110243 0.327973,0.00551 0.567751,0.1267794 0.239779,0.1212673 0.394119,0.3307289 0.15434,0.2067056 0.21773,0.479557 0.06615,0.2700953 0.03858,0.5760195 l -0.0055,0.060634 Q 15.757963,5.9596857 15.63394,6.2380492 15.509916,6.5164127 15.305967,6.7258743 15.104773,6.935336 14.829166,7.0510911 14.553558,7.1668462 14.214561,7.158578 13.892101,7.1530658 13.649566,7.0345546 13.409788,6.9132874 13.255447,6.7093379 13.101107,6.5026323 13.034961,6.2352931 12.971572,5.9651978 12.999132,5.6592736 Z m 0.912261,-0.057878 -0.0055,0.057878 q -0.0083,0.112999 -0.01102,0.2480466 0,0.1322916 0.03032,0.256315 0.03032,0.1212672 0.110243,0.2011934 0.08268,0.07717 0.237023,0.082682 0.165364,0.00551 0.275607,-0.068902 0.112999,-0.074414 0.181901,-0.1984374 0.0689,-0.1240233 0.104731,-0.2673392 0.03858,-0.1433159 0.05236,-0.2756074 l 0.0055,-0.057878 q 0.0083,-0.110243 0.0083,-0.2452906 0.0028,-0.1378037 -0.02756,-0.2618271 -0.03032,-0.1240233 -0.112999,-0.2039495 -0.08268,-0.082682 -0.237022,-0.088194 -0.165365,-0.00551 -0.278364,0.071658 -0.110243,0.07717 -0.179145,0.2039495 -0.0689,0.1240233 -0.104731,0.2700953 -0.03583,0.1433158 -0.04961,0.2756074 z m 2.163518,0.057878 0.0055,-0.057878 q 0.03583,-0.3224607 0.157097,-0.6035803 0.121267,-0.2811195 0.32246,-0.4933373 0.20395,-0.2122177 0.479557,-0.3279728 0.275608,-0.1185112 0.617361,-0.110243 0.327973,0.00551 0.567751,0.1267794 0.239779,0.1212673 0.394119,0.3307289 0.15434,0.2067056 0.21773,0.479557 0.06615,0.2700953 0.03859,0.5760195 l -0.0055,0.060634 Q 18.833742,5.9596857 18.709718,6.2380492 18.585695,6.5164127 18.381745,6.7258743 18.180552,6.935336 17.904945,7.0510911 17.629337,7.1668462 17.29034,7.158578 16.967879,7.1530658 16.725345,7.0345546 16.485566,6.9132874 16.331226,6.7093379 16.176886,6.5026323 16.11074,6.2352931 16.04735,5.9651978 16.074911,5.6592736 Z m 0.912261,-0.057878 -0.0055,0.057878 q -0.0083,0.112999 -0.01103,0.2480466 0,0.1322916 0.03032,0.256315 0.03032,0.1212672 0.110243,0.2011934 0.08268,0.07717 0.237023,0.082682 0.165364,0.00551 0.275607,-0.068902 0.112999,-0.074414 0.181901,-0.1984374 0.0689,-0.1240233 0.104731,-0.2673392 0.03858,-0.1433159 0.05236,-0.2756074 l 0.0055,-0.057878 q 0.0083,-0.110243 0.0083,-0.2452906 0.0028,-0.1378037 -0.02756,-0.2618271 -0.03032,-0.1240233 -0.112999,-0.2039495 -0.08268,-0.082682 -0.237023,-0.088194 -0.165364,-0.00551 -0.278363,0.071658 -0.110243,0.07717 -0.179145,0.2039495 -0.0689,0.1240233 -0.104731,0.2700953 -0.03583,0.1433158 -0.04961,0.2756074 z m 3.982527,-0.2039495 h -1.044552 l 0.107487,-0.6338971 0.766189,0.00276 q 0.16812,0 0.32246,-0.038585 0.157097,-0.041341 0.264583,-0.1433158 0.110243,-0.1019748 0.14056,-0.2893878 0.02481,-0.1708766 -0.02756,-0.2673392 -0.05236,-0.099219 -0.16812,-0.1405598 -0.112999,-0.044097 -0.270095,-0.046853 l -0.504362,-0.00276 -0.567751,3.2659481 h -0.942578 l 0.694531,-4.0128442 1.350476,0.00276 q 0.261828,0.00276 0.518142,0.057878 0.256315,0.055121 0.460265,0.1791449 0.203949,0.1212672 0.319704,0.3307289 0.115756,0.2067056 0.09646,0.518142 -0.01929,0.3389971 -0.190169,0.5512148 -0.168121,0.2094617 -0.43546,0.3114364 -0.267339,0.099219 -0.578775,0.1074869 z m -0.319704,1.70601 H 19.3822 l 0.451997,-0.7441401 0.846114,0.00276 q 0.157097,-0.00276 0.2949,-0.052365 0.14056,-0.049609 0.234267,-0.1543402 0.09646,-0.1074869 0.124023,-0.2728513 0.02481,-0.1405598 -0.0055,-0.2452906 -0.02756,-0.1074869 -0.115755,-0.1681206 -0.08544,-0.060634 -0.23151,-0.068902 l -0.840603,-0.00276 0.115755,-0.6338971 0.915017,0.00276 0.165364,0.2508027 q 0.278364,0.00276 0.493337,0.099219 0.214974,0.096463 0.330729,0.2921439 0.118511,0.1929252 0.09922,0.4850691 -0.02756,0.4492401 -0.259071,0.7165793 -0.23151,0.2645831 -0.5898,0.3803383 -0.35829,0.1157551 -0.760676,0.112999 z m 4.3105,-0.407899 1.328428,-3.6049452 h 0.44924 L 26.966917,3.4406337 25.5751,7.1034565 h -0.507118 z m 0.355534,-3.6049452 0.08268,3.7179442 -0.195681,0.2949 H 24.596693 L 24.398256,3.0906123 Z m 1.557182,3.6159695 1.20716,-3.6159695 h 0.950846 L 27.57601,7.1034565 h -0.581532 z m 0.21773,-3.6159695 0.225998,3.7151882 -0.190169,0.297656 H 26.603115 L 26.33302,3.3607076 26.608628,3.0906123 Z m 3.144679,3.263192 0.192926,-1.2402335 q 0.01102,-0.099219 -0.0028,-0.1901691 -0.01102,-0.09095 -0.0689,-0.148828 -0.05512,-0.060634 -0.173633,-0.06339 -0.107487,-0.00276 -0.181901,0.038585 -0.07441,0.041341 -0.118511,0.1157552 -0.0441,0.074414 -0.06339,0.1708766 l -0.909504,0.00551 q 0.01102,-0.259071 0.137803,-0.446484 0.12678,-0.1874131 0.325217,-0.3059243 0.198437,-0.1185112 0.432704,-0.1736326 0.237022,-0.055122 0.465776,-0.049609 0.314193,0.00551 0.567752,0.1322916 0.256315,0.1240233 0.394118,0.3610457 0.14056,0.2342663 0.107487,0.5705074 l -0.195681,1.223697 q -0.02481,0.1653644 -0.0441,0.3527775 -0.01929,0.184657 0.05512,0.3445093 l -0.0028,0.052365 -0.8847,0.00276 q -0.06063,-0.1791449 -0.06063,-0.3720701 0,-0.1929252 0.02756,-0.3803382 z m 0.2949,-1.0721129 -0.08268,0.4960934 -0.355533,-0.00276 q -0.104731,0.00276 -0.201194,0.035829 -0.09371,0.030317 -0.16812,0.088194 -0.07441,0.057878 -0.124024,0.1433159 -0.04685,0.085438 -0.06063,0.1956813 -0.01103,0.074414 0.01102,0.1350476 0.0248,0.057878 0.07441,0.093706 0.05237,0.035829 0.129535,0.038585 0.118512,0.00276 0.228755,-0.044097 0.110243,-0.046853 0.190169,-0.1322916 0.08268,-0.085438 0.112999,-0.1984373 l 0.159852,0.3886064 q -0.07166,0.1433159 -0.165364,0.2618271 -0.09095,0.1185112 -0.206706,0.2067056 -0.112999,0.085438 -0.253559,0.1322915 -0.14056,0.046853 -0.311436,0.044097 Q 29.262726,7.158578 29.056021,7.0455789 28.849315,6.9325799 28.728048,6.7368986 28.60678,6.5412173 28.615049,6.2849024 q 0.01102,-0.297656 0.146072,-0.4933373 0.135047,-0.1956812 0.350021,-0.3059242 0.21773,-0.1129991 0.471289,-0.1598523 0.256315,-0.046853 0.507117,-0.046853 z m 2.268251,-0.37207 -0.380339,2.1938351 h -0.906748 l 0.518142,-2.9820724 h 0.843359 z m 0.97565,-0.813042 -0.118511,0.8654074 q -0.07166,-0.011024 -0.143316,-0.019293 -0.07166,-0.00827 -0.146072,-0.011024 -0.151584,-0.00276 -0.275608,0.035829 -0.121267,0.035829 -0.212217,0.1129991 -0.0882,0.074414 -0.146072,0.187413 -0.05788,0.1129991 -0.08544,0.2618271 l -0.151585,-0.110243 q 0.02756,-0.2094616 0.08819,-0.443728 0.06339,-0.2370224 0.176389,-0.446484 0.112999,-0.2094616 0.292143,-0.3389971 0.179145,-0.1322916 0.440972,-0.1322916 0.07166,0 0.14056,0.011024 0.0689,0.011024 0.14056,0.027561 z m 1.118965,0.7055551 -0.399631,2.301322 h -0.906748 l 0.518142,-2.9820724 h 0.846115 z m -0.225998,0.708311 -0.195681,0.00827 q 0.02756,-0.2673392 0.112999,-0.5291663 0.08819,-0.2618271 0.242534,-0.4740448 0.154341,-0.2122177 0.383095,-0.336241 0.228754,-0.1240234 0.534678,-0.1157552 0.225998,0.00551 0.374826,0.096463 0.148828,0.088194 0.231511,0.2370224 0.08544,0.146072 0.110243,0.333485 0.02756,0.184657 0.0083,0.3830943 L 36.139132,7.1034565 H 35.232383 L 35.54382,5.229326 q 0.01378,-0.1157552 0.0055,-0.2177299 -0.0083,-0.1019747 -0.06615,-0.1653645 -0.05788,-0.066146 -0.195681,-0.068902 -0.148828,-0.00551 -0.256315,0.06339 -0.107487,0.066146 -0.181901,0.1763887 -0.07166,0.110243 -0.118511,0.2397785 -0.0441,0.1295355 -0.06339,0.2535588 z m 1.650889,0 -0.239779,0.00827 q 0.02756,-0.2673392 0.110243,-0.5264102 0.08544,-0.2618271 0.234266,-0.4740448 0.151585,-0.2122177 0.377583,-0.3362411 0.225998,-0.1240233 0.534678,-0.1185112 0.248047,0.00827 0.407899,0.1074869 0.159852,0.099219 0.242535,0.2645832 0.08544,0.1653644 0.110243,0.3693139 0.0248,0.2039495 0.0028,0.4216794 l -0.314193,1.8768866 h -0.909504 l 0.314192,-1.8796427 q 0.01378,-0.112999 0.0055,-0.2122177 -0.0083,-0.1019747 -0.06615,-0.1653645 -0.05512,-0.066146 -0.190169,-0.068902 -0.15434,-0.00551 -0.264583,0.060634 -0.107487,0.066146 -0.179145,0.1763888 -0.07166,0.1074869 -0.112999,0.2397784 -0.04134,0.1295355 -0.06339,0.2563149 z M 39.771638,7.158578 Q 39.462957,7.1530658 39.209398,7.0455789 38.95584,6.935336 38.779451,6.7424108 38.603062,6.5494856 38.517624,6.2904146 38.434942,6.0285875 38.45699,5.7199072 l 0.01102,-0.1074869 q 0.03307,-0.3252168 0.154341,-0.6063363 0.121267,-0.2838757 0.325216,-0.4960934 0.20395,-0.2149738 0.479557,-0.333485 0.278364,-0.1185112 0.622873,-0.110243 0.311436,0.00551 0.537435,0.1240234 0.228754,0.1185112 0.37207,0.3224607 0.143315,0.2011934 0.198437,0.4630204 0.05788,0.259071 0.02756,0.5512149 l -0.05237,0.3775822 h -2.370224 l 0.09371,-0.5815317 1.460719,0.00276 0.01654,-0.079926 q 0.01929,-0.1295355 -0.01103,-0.2342663 -0.03032,-0.1047308 -0.112999,-0.1653645 -0.08268,-0.06339 -0.223242,-0.068902 -0.170876,-0.00276 -0.283875,0.074414 -0.110243,0.07717 -0.179145,0.2039495 -0.06615,0.1267794 -0.101975,0.2756074 -0.03583,0.146072 -0.05237,0.2811196 l -0.01102,0.1047308 q -0.01102,0.1350477 0.0083,0.2618271 0.01929,0.1267794 0.07717,0.2287541 0.06063,0.1019748 0.162608,0.1653645 0.101975,0.060634 0.256315,0.066146 0.206706,0.00551 0.38585,-0.07717 0.179145,-0.082682 0.322461,-0.2259981 l 0.377582,0.5016055 q -0.124023,0.1874131 -0.319704,0.3031682 -0.195682,0.1129991 -0.42168,0.1653645 -0.223242,0.055122 -0.435459,0.052365 z m 2.802928,-2.2489566 -0.380339,2.1938351 h -0.906748 l 0.518142,-2.9820724 h 0.843359 z m 0.97565,-0.813042 -0.118511,0.8654074 q -0.07166,-0.011024 -0.143316,-0.019293 -0.07166,-0.00827 -0.146072,-0.011024 -0.151584,-0.00276 -0.275608,0.035829 -0.121267,0.035829 -0.212217,0.1129991 -0.08819,0.074414 -0.146072,0.187413 -0.05788,0.1129991 -0.08544,0.2618271 l -0.151585,-0.110243 q 0.02756,-0.2094616 0.08819,-0.443728 0.06339,-0.2370224 0.176389,-0.446484 0.112999,-0.2094616 0.292143,-0.3389971 0.179145,-0.1322916 0.440972,-0.1322916 0.07166,0 0.14056,0.011024 0.0689,0.011024 0.14056,0.027561 z"
       id="text236"
       aria-label="TooB Warmer" />
    <path
       id="path1348"
       style="color:#000000;fill:#e0e0e0;fill-opacity:0.752941;stroke-width:0.714406;-inkscape-stroke:none"
       d="M 5.4193109,1.6360535 C 4.0746261,1.6465667 2.9804856,2.7485866 2.9805103,4.0933129 v 1.5080987 0.00443 0.00406 0.00702 c 0.00324,0.6351315 0.1709081,1.2397841 0.5330952,1.705241 0.091293,0.1173226 0.1960748,0.2241342 0.3126952,0.3186015 V 5.3666133 h 0.00259 V 4.0933129 C 3.8288705,3.2043172 4.5362516,2.4899017 5.4252198,2.4829515 6.3176074,2.4761075 7.0387059,3.1839609 7.0477631,4.0763306 v 0.016982 1.6742295 c 0,0.3851813 -0.1170262,0.6035969 -0.3182329,0.7675243 C 6.5283236,6.6989941 6.2034026,6.8056753 5.769664,6.8056753 H 5.437754 V 8.3957797 H 6.193851 V 7.5229912 C 6.5799202,7.4642455 6.9804539,7.4245038 7.2655789,7.1922063 7.6635843,6.8679419 7.8946602,6.354867 7.8946602,5.7675423 V 4.0933128 4.0693159 4.0682086 C 7.8809586,2.7185401 6.7690097,1.6257071 5.4193109,1.6360535 Z" />
    <g
       aria-label="B"
       id="text1054"
       style="font-style:italic;font-weight:900;font-size:6.35px;font-family:Roboto;-inkscape-font-specification:'Roboto, Heavy Italic';fill:#e0e0e0;fill-opacity:0.752941;stroke-width:0.285001;stop-color:#000000"
       transform="matrix(0.71440613,0,0,0.71440613,-2.144828,0.00813001)">
      <path
         id="path1085"
         style="font-style:normal;-inkscape-font-specification:'Roboto, Heavy';stroke-width:0.285"
         d="M 8.865092,5.8580404 V 8.9958333 11.74073 H 9.9533976 V 8.9958333 h 0.7441404 c 0.549837,-0.00413 0.964283,-0.116789 1.243335,-0.3379638 0.281119,-0.223242 0.42168,-0.5560389 0.42168,-0.9983887 0,-0.2439125 -0.06305,-0.4506186 -0.189136,-0.6201172 -0.12609,-0.1694982 -0.306958,-0.2852537 -0.542602,-0.3472656 0.208772,-0.078548 0.366902,-0.2005048 0.474389,-0.3658692 0.107487,-0.1653644 0.161231,-0.3648358 0.161231,-0.598413 0,-0.4051429 -0.151929,-0.7141686 -0.455786,-0.9270752 C 11.508859,4.5878339 11.18123,4.4813802 10.486698,4.4813802 H 9.9533976 c -1.0883054,0 -1.0883056,1.029605 -1.0883056,1.3766602 z m 1.0883056,-0.022757 c 0,-0.3308701 0.1341694,-0.4768142 0.3334184,-0.4952 l 0.199882,-0.018444 c 0.203885,-0.018814 0.420647,0.042375 0.530201,0.127124 0.109553,0.082682 0.164331,0.2191083 0.164331,0.4092774 0,0.1653644 -0.05064,0.2904216 -0.151929,0.3751709 -0.101285,0.08475 -0.270784,0.1281579 -0.508496,0.1302246 H 9.9533976 Z m 0,1.2412875 h 0.7627444 c 0.374137,0.00207 0.561206,0.1912032 0.561206,0.5674073 0,0.1632973 -0.05271,0.2904217 -0.15813,0.381372 -0.105419,0.088883 -0.256315,0.1333252 -0.452686,0.1333252 H 9.9533976 Z" />
    </g>
    <text
       xml:space="preserve"
       transform="scale(0.26458333)"
       id="text501"
       style="font-style:italic;font-weight:bold;font-size:22.6667px;line-height:0;font-family:Timana;-inkscape-font-specification:'Timana Bold Italic';white-space:pre;shape-inside:url(#rect503);fill:#686868;stroke:#7f7f7f;stroke-width:1.07717;stop-color:#000000" />
  </g>
</svg>
