<?xml version="1.0" encoding="UTF-8" standalone="no"?>
<!-- Created with Inkscape (http://www.inkscape.org/) -->

<svg
   width="256"
   height="36"
   viewBox="0 0 67.73333 9.525"
   version="1.1"
   id="svg5"
   xmlns="http://www.w3.org/2000/svg"
   xmlns:svg="http://www.w3.org/2000/svg">
  <defs
     id="defs2">
    <rect
       x="-14.38694"
       y="-5.4197793"
       width="35.01685"
       height="69.568077"
       id="rect503" />
  </defs>
  <g
     id="layer1">
    <g
       aria-label="TooB CE-2 Chorus"
       id="text236"
       style="font-style:italic;font-weight:bold;font-size:5.64444px;line-height:0;font-family:Timana;-inkscape-font-specification:'Timana Bold Italic';fill:#686868;stroke:#7f7f7f;stroke-width:0.285001;stop-color:#000000">
      <path
         d="m 13.638542,3.8375084 h -1.168576 l -0.564995,3.2659481 h -0.945333 l 0.567751,-3.2659481 h -1.149283 l 0.132291,-0.7468961 h 3.25768 z"
         style="font-weight:900;font-family:Roboto;-inkscape-font-specification:'Roboto, Heavy Italic';fill:#e0e0e0;fill-opacity:0.752941;stroke:none;stroke-width:0.285"
         id="path583" />
      <path
         d="m 14.614192,4.0662626 q 0.399631,0.00551 0.691775,0.2011934 0.292143,0.1929252 0.427191,0.5401906 0.137804,0.3472654 0.09922,0.7717008 l -0.0055,0.060634 Q 15.749695,6.3262435 15.316991,6.7479229 14.884287,7.1696023 14.247634,7.158578 13.850759,7.1530658 13.561372,6.9628967 13.271984,6.7699715 13.131424,6.4254622 12.99362,6.0809529 13.032205,5.6592736 q 0.0689,-0.7331158 0.501606,-1.1685755 0.43546,-0.4354598 1.080381,-0.4244355 z m -0.675238,1.593011 -0.0083,0.1626083 q -0.03859,0.6146046 0.374826,0.6256289 0.534678,0.016536 0.620116,-0.8681634 l 0.01103,-0.2508028 q 0.0055,-0.2480466 -0.09371,-0.3941186 -0.09646,-0.148828 -0.286632,-0.1543401 -0.250802,-0.00827 -0.413411,0.2067055 -0.159852,0.2122178 -0.203949,0.6724822 z"
         style="font-weight:900;font-family:Roboto;-inkscape-font-specification:'Roboto, Heavy Italic';fill:#e0e0e0;fill-opacity:0.752941;stroke:none;stroke-width:0.285"
         id="path585" />
      <path
         d="m 17.717531,4.0662626 q 0.399631,0.00551 0.691775,0.2011934 0.292144,0.1929252 0.427192,0.5401906 0.137803,0.3472654 0.09922,0.7717008 l -0.0055,0.060634 Q 18.853034,6.3262435 18.42033,6.7479229 17.987627,7.1696023 17.350973,7.158578 16.954099,7.1530658 16.664711,6.9628967 16.375323,6.7699715 16.234763,6.4254622 16.09696,6.0809529 16.135545,5.6592736 16.204447,4.9261578 16.63715,4.4906981 17.07261,4.0552383 17.717531,4.0662626 Z m -0.675238,1.593011 -0.0083,0.1626083 q -0.03859,0.6146046 0.374826,0.6256289 0.534678,0.016536 0.620117,-0.8681634 l 0.01102,-0.2508028 q 0.0055,-0.2480466 -0.09371,-0.3941186 -0.09646,-0.148828 -0.286632,-0.1543401 -0.250803,-0.00827 -0.413411,0.2067055 -0.159853,0.2122178 -0.20395,0.6724822 z"
         style="font-weight:900;font-family:Roboto;-inkscape-font-specification:'Roboto, Heavy Italic';fill:#e0e0e0;fill-opacity:0.752941;stroke:none;stroke-width:0.285"
         id="path587" />
      <path
         d="m 19.12313,7.1034565 0.69453,-4.0128442 1.276063,0.00276 q 0.755164,0.00276 1.127234,0.2866317 0.37207,0.2838757 0.338997,0.7965055 -0.04134,0.6338971 -0.69453,0.8984802 0.234266,0.082682 0.363801,0.3004121 0.132292,0.2149738 0.113,0.518142 -0.03858,0.5815317 -0.460265,0.8957241 -0.418923,0.3141925 -1.149283,0.3141925 z m 1.240233,-1.70601 -0.16812,0.9618699 0.564995,0.00276 q 0.264583,0 0.440972,-0.1295355 0.176389,-0.1322915 0.209461,-0.3500214 0.07717,-0.4602644 -0.352777,-0.482313 z m 0.107487,-0.6338971 0.443728,0.00276 q 0.614605,-0.01378 0.689019,-0.4712887 0.06614,-0.4519962 -0.468533,-0.4547523 l -0.501606,-0.00276 z"
         style="font-weight:900;font-family:Roboto;-inkscape-font-specification:'Roboto, Heavy Italic';fill:#e0e0e0;fill-opacity:0.752941;stroke:none;stroke-width:0.285"
         id="path589" />
      <path
         d="M 27.43545,5.7364436 Q 27.399621,6.158123 27.157086,6.4860959 26.917308,6.8140687 26.523189,6.9904575 26.131826,7.1668462 25.674318,7.158578 25.045933,7.1447976 24.684887,6.7534351 24.323842,6.3620725 24.290769,5.6923465 24.265959,5.2458624 24.387229,4.7194522 24.511253,4.193042 24.78686,3.8044356 25.065224,3.413073 25.44005,3.2201478 q 0.377582,-0.1956813 0.824066,-0.187413 0.655946,0.011024 1.036284,0.3941186 0.383094,0.3830943 0.416167,1.0555764 l -0.939821,-0.00276 q 0.0055,-0.3665579 -0.132292,-0.5236542 -0.137803,-0.1570962 -0.435459,-0.1681205 -0.744141,-0.024805 -0.906749,1.1575512 -0.07441,0.5346784 -0.07441,0.7634326 -0.01378,0.6779943 0.501606,0.6972868 0.333485,0.011024 0.531922,-0.1626084 0.198437,-0.1763887 0.253559,-0.4960934 z"
         style="font-weight:900;font-family:Roboto;-inkscape-font-specification:'Roboto, Heavy Italic';fill:#e0e0e0;fill-opacity:0.752941;stroke:none;stroke-width:0.285"
         id="path591" />
      <path
         d="m 30.409253,5.4029587 h -1.4745 l -0.16812,0.9563577 h 1.744595 L 30.381692,7.1034565 H 27.69452 l 0.694531,-4.0128442 h 2.692684 L 30.9522,3.8375084 h -1.747351 l -0.148828,0.8461149 h 1.477255 z"
         style="font-weight:900;font-family:Roboto;-inkscape-font-specification:'Roboto, Heavy Italic';fill:#e0e0e0;fill-opacity:0.752941;stroke:none;stroke-width:0.285"
         id="path593" />
      <path
         d="M 32.74916,5.7336876 H 31.136857 L 31.26088,5.0143522 h 1.612304 z"
         style="font-weight:900;font-family:Roboto;-inkscape-font-specification:'Roboto, Heavy Italic';fill:#e0e0e0;fill-opacity:0.752941;stroke:none;stroke-width:0.285"
         id="path595" />
      <path
         d="M 35.968255,7.1034565 H 33.24801 L 33.34723,6.4640473 34.774876,5.1383755 34.970557,4.9426942 Q 35.430821,4.4796738 35.392236,4.0690187 35.361919,3.7493141 35.061507,3.7410458 34.849289,3.7355337 34.700461,3.9146785 34.554389,4.0910673 34.51856,4.377699 l -0.901236,0.00551 q 0.02205,-0.3775822 0.228754,-0.6890186 0.206706,-0.3141925 0.551215,-0.4905812 0.347265,-0.1763888 0.738628,-0.1736327 0.587044,0.011024 0.909504,0.3197046 0.322461,0.3059242 0.28112,0.8295784 -0.02481,0.3086803 -0.203949,0.6008242 -0.176389,0.2921438 -0.515386,0.6146045 l -0.418924,0.3858504 -0.622872,0.6008242 1.51584,0.00551 z"
         style="font-weight:900;font-family:Roboto;-inkscape-font-specification:'Roboto, Heavy Italic';fill:#e0e0e0;fill-opacity:0.752941;stroke:none;stroke-width:0.285"
         id="path597" />
      <path
         d="M 41.226845,5.7364436 Q 41.191015,6.158123 40.948481,6.4860959 40.708703,6.8140687 40.314584,6.9904575 39.923222,7.1668462 39.465713,7.158578 38.837328,7.144798 38.476283,6.7534351 38.115237,6.3620725 38.082164,5.6923465 q -0.02481,-0.4464841 0.09646,-0.9728943 0.124023,-0.5264102 0.39963,-0.9150166 0.278364,-0.3913626 0.65319,-0.5842878 0.377582,-0.1956813 0.824066,-0.187413 0.655946,0.011024 1.036284,0.3941186 0.383094,0.3830943 0.416167,1.0555764 l -0.939821,-0.00276 q 0.0055,-0.3665579 -0.132292,-0.5236542 -0.137803,-0.1570962 -0.435459,-0.1681205 -0.74414,-0.024805 -0.906749,1.1575512 -0.07441,0.5346784 -0.07441,0.7634326 -0.01378,0.6779943 0.501606,0.6972868 0.333485,0.011024 0.531922,-0.1626084 0.198438,-0.1763887 0.253559,-0.4960934 z"
         style="font-weight:900;font-family:Roboto;-inkscape-font-specification:'Roboto, Heavy Italic';fill:#e0e0e0;fill-opacity:0.752941;stroke:none;stroke-width:0.285"
         id="path599" />
      <path
         d="m 42.756467,4.4466009 q 0.333485,-0.3886065 0.768945,-0.3830944 0.44924,0.011024 0.664214,0.3279729 0.21773,0.3169485 0.157096,0.8598952 l -0.30868,1.8520819 H 43.131293 L 43.44273,5.2403503 q 0.01102,-0.093707 0.0055,-0.1763888 -0.01929,-0.2728513 -0.303168,-0.2811196 -0.245291,-0.00551 -0.43546,0.1791449 l -0.380338,2.1414697 h -0.906749 l 0.735872,-4.2333301 h 0.906749 z"
         style="font-weight:900;font-family:Roboto;-inkscape-font-specification:'Roboto, Heavy Italic';fill:#e0e0e0;fill-opacity:0.752941;stroke:none;stroke-width:0.285"
         id="path601" />
      <path
         d="m 46.300778,4.0662626 q 0.39963,0.00551 0.691774,0.2011934 0.292144,0.1929252 0.427192,0.5401906 0.137803,0.3472654 0.09922,0.7717008 l -0.0055,0.060634 Q 47.43628,6.3262435 47.003577,6.7479229 46.570873,7.1696023 45.93422,7.158578 45.537345,7.1530658 45.247957,6.9628967 44.958569,6.7699715 44.81801,6.4254622 44.680206,6.0809529 44.718791,5.6592736 q 0.0689,-0.7331158 0.501605,-1.1685755 0.43546,-0.4354598 1.080382,-0.4244355 z m -0.675239,1.593011 -0.0083,0.1626083 q -0.03859,0.6146046 0.374826,0.6256289 0.534679,0.016536 0.620117,-0.8681634 l 0.01102,-0.2508028 Q 46.62875,5.080498 46.529532,4.934426 46.433069,4.785598 46.2429,4.7800859 q -0.250803,-0.00827 -0.413411,0.2067055 -0.159852,0.2122178 -0.20395,0.6724822 z"
         style="font-weight:900;font-family:Roboto;-inkscape-font-specification:'Roboto, Heavy Italic';fill:#e0e0e0;fill-opacity:0.752941;stroke:none;stroke-width:0.285"
         id="path603" />
      <path
         d="M 49.817529,4.9619868 Q 49.671457,4.9399382 49.536409,4.934426 49.12851,4.9234017 48.913537,5.2155456 l -0.336242,1.8879109 h -0.906748 l 0.518142,-2.9820724 0.846115,-0.00276 -0.0689,0.3913626 q 0.292144,-0.4519962 0.689019,-0.4519962 0.112999,0 0.281119,0.038585 z"
         style="font-weight:900;font-family:Roboto;-inkscape-font-specification:'Roboto, Heavy Italic';fill:#e0e0e0;fill-opacity:0.752941;stroke:none;stroke-width:0.285"
         id="path605" />
      <path
         d="M 51.611735,6.7782397 Q 51.27825,7.1723584 50.806961,7.1613341 50.368745,7.1558219 50.145503,6.8554098 49.925017,6.5549977 49.974627,6.0506361 l 0.32246,-1.929252 h 0.906749 l -0.327973,1.9402763 q -0.0083,0.079926 0,0.1460719 0.01929,0.2259981 0.267339,0.2342664 0.286632,0.011024 0.487825,-0.2259981 l 0.369314,-2.0946165 h 0.912261 L 52.39446,7.1034565 h -0.843359 z"
         style="font-weight:900;font-family:Roboto;-inkscape-font-specification:'Roboto, Heavy Italic';fill:#e0e0e0;fill-opacity:0.752941;stroke:none;stroke-width:0.285"
         id="path607" />
      <path
         d="M 54.563491,6.2490735 Q 54.59932,6.0671726 54.282371,5.9762221 L 54.08669,5.9266128 Q 53.607133,5.7998334 53.383891,5.5710792 53.160649,5.342325 53.17443,5.0281325 53.18821,4.598185 53.554768,4.3308457 q 0.369314,-0.2700952 0.89848,-0.2645831 0.52641,0.00551 0.851627,0.2673392 0.327973,0.2618271 0.333485,0.705555 l -0.903992,-0.00276 q 0.01102,-0.3527775 -0.311437,-0.3527775 -0.137803,0 -0.256315,0.082682 -0.118511,0.079926 -0.140559,0.2149738 -0.04685,0.223242 0.394118,0.3059242 0.383094,0.09095 0.592556,0.2122178 0.209462,0.1185111 0.319705,0.2948999 0.110243,0.1763888 0.101975,0.4244354 -0.0083,0.2700953 -0.176389,0.482313 -0.168121,0.212222 -0.487825,0.3390014 Q 54.453248,7.1668462 54.081178,7.158578 53.758717,7.1558219 53.480354,7.0235303 53.204746,6.8912388 53.04765,6.6652407 52.89331,6.4364865 52.887798,6.1415866 l 0.843359,0.00551 q 0.0055,0.3968747 0.396874,0.3913626 0.168121,0 0.286632,-0.074414 0.118511,-0.07717 0.148828,-0.2149738 z"
         style="font-weight:900;font-family:Roboto;-inkscape-font-specification:'Roboto, Heavy Italic';fill:#e0e0e0;fill-opacity:0.752941;stroke:none;stroke-width:0.285"
         id="path609" />
    </g>
    <path
       id="path1348"
       style="color:#000000;fill:#e0e0e0;fill-opacity:0.752941;stroke-width:0.714406;-inkscape-stroke:none"
       d="M 5.4193109,1.6360535 C 4.0746261,1.6465667 2.9804856,2.7485866 2.9805103,4.0933129 v 1.5080987 0.00443 0.00406 0.00702 c 0.00324,0.6351315 0.1709081,1.2397841 0.5330952,1.705241 0.091293,0.1173226 0.1960748,0.2241342 0.3126952,0.3186015 V 5.3666133 h 0.00259 V 4.0933129 C 3.8288705,3.2043172 4.5362516,2.4899017 5.4252198,2.4829515 6.3176074,2.4761075 7.0387059,3.1839609 7.0477631,4.0763306 v 0.016982 1.6742295 c 0,0.3851813 -0.1170262,0.6035969 -0.3182329,0.7675243 C 6.5283236,6.6989941 6.2034026,6.8056753 5.769664,6.8056753 H 5.437754 V 8.3957797 H 6.193851 V 7.5229912 C 6.5799202,7.4642455 6.9804539,7.4245038 7.2655789,7.1922063 7.6635843,6.8679419 7.8946602,6.354867 7.8946602,5.7675423 V 4.0933128 4.0693159 4.0682086 C 7.8809586,2.7185401 6.7690097,1.6257071 5.4193109,1.6360535 Z" />
    <g
       aria-label="B"
       id="text1054"
       style="font-style:italic;font-weight:900;font-size:6.35px;font-family:Roboto;-inkscape-font-specification:'Roboto, Heavy Italic';fill:#e0e0e0;fill-opacity:0.752941;stroke-width:0.285001;stop-color:#000000"
       transform="matrix(0.71440613,0,0,0.71440613,-2.144828,0.00813001)">
      <path
         id="path1085"
         style="font-style:normal;-inkscape-font-specification:'Roboto, Heavy';stroke-width:0.285"
         d="M 8.865092,5.8580404 V 8.9958333 11.74073 H 9.9533976 V 8.9958333 h 0.7441404 c 0.549837,-0.00413 0.964283,-0.116789 1.243335,-0.3379638 0.281119,-0.223242 0.42168,-0.5560389 0.42168,-0.9983887 0,-0.2439125 -0.06305,-0.4506186 -0.189136,-0.6201172 -0.12609,-0.1694982 -0.306958,-0.2852537 -0.542602,-0.3472656 0.208772,-0.078548 0.366902,-0.2005048 0.474389,-0.3658692 0.107487,-0.1653644 0.161231,-0.3648358 0.161231,-0.598413 0,-0.4051429 -0.151929,-0.7141686 -0.455786,-0.9270752 C 11.508859,4.5878339 11.18123,4.4813802 10.486698,4.4813802 H 9.9533976 c -1.0883054,0 -1.0883056,1.029605 -1.0883056,1.3766602 z m 1.0883056,-0.022757 c 0,-0.3308701 0.1341694,-0.4768142 0.3334184,-0.4952 l 0.199882,-0.018444 c 0.203885,-0.018814 0.420647,0.042375 0.530201,0.127124 0.109553,0.082682 0.164331,0.2191083 0.164331,0.4092774 0,0.1653644 -0.05064,0.2904216 -0.151929,0.3751709 -0.101285,0.08475 -0.270784,0.1281579 -0.508496,0.1302246 H 9.9533976 Z m 0,1.2412875 h 0.7627444 c 0.374137,0.00207 0.561206,0.1912032 0.561206,0.5674073 0,0.1632973 -0.05271,0.2904217 -0.15813,0.381372 -0.105419,0.088883 -0.256315,0.1333252 -0.452686,0.1333252 H 9.9533976 Z" />
    </g>
    <text
       xml:space="preserve"
       transform="scale(0.26458333)"
       id="text501"
       style="font-style:italic;font-weight:bold;font-size:22.6667px;line-height:0;font-family:Timana;-inkscape-font-specification:'Timana Bold Italic';white-space:pre;shape-inside:url(#rect503);display:inline;fill:#686868;stroke:#7f7f7f;stroke-width:1.07717;stop-color:#000000" />
  </g>
</svg>
