<?xml version="1.0" encoding="UTF-8" standalone="no"?>
<!-- Created with Inkscape (http://www.inkscape.org/) -->

<svg
   width="512"
   height="48"
   viewBox="0 0 135.46666 12.7"
   version="1.1"
   id="svg5"
   inkscape:version="1.4.3 (1:1.4.3+202512261035+0d15f75042)"
   sodipodi:docname="InkscapeLogo.svg"
   xmlns:inkscape="http://www.inkscape.org/namespaces/inkscape"
   xmlns:sodipodi="http://sodipodi.sourceforge.net/DTD/sodipodi-0.dtd"
   xmlns="http://www.w3.org/2000/svg"
   xmlns:svg="http://www.w3.org/2000/svg">
  <sodipodi:namedview
     id="namedview7"
     pagecolor="#2e2e2e"
     bordercolor="#000000"
     borderopacity="0.42745098"
     inkscape:showpageshadow="2"
     inkscape:pageopacity="0"
     inkscape:pagecheckerboard="0"
     inkscape:deskcolor="#d1d1d1"
     inkscape:document-units="mm"
     showgrid="false"
     inkscape:zoom="2.3617484"
     inkscape:cx="107.12403"
     inkscape:cy="49.327862"
     inkscape:window-width="2192"
     inkscape:window-height="1161"
     inkscape:window-x="0"
     inkscape:window-y="0"
     inkscape:window-maximized="1"
     inkscape:current-layer="layer1" />
  <defs
     id="defs2" />
  <g
     inkscape:label="Layer 1"
     inkscape:groupmode="layer"
     id="layer1">
    <path
       style="font-style:italic;font-weight:800;font-size:5.99722px;font-family:Roboto;-inkscape-font-specification:'Roboto, Ultra-Bold Italic';fill:#e0e0e0;fill-opacity:0.752941;stroke-width:0.285"
       d="M 14.330487,4.93302 13.592548,9.1966686 H 12.661339 L 13.402206,4.93302 Z m 1.259182,0 -0.128846,0.7408675 H 12.037605 L 12.169379,4.93302 Z m -0.746724,2.7292037 0.0059,-0.061495 q 0.03807,-0.3396863 0.166914,-0.6383759 0.128847,-0.2986897 0.342615,-0.5241711 0.213768,-0.2254814 0.503673,-0.3513996 0.289905,-0.1259182 0.650089,-0.1171332 0.345543,0.00586 0.597379,0.1376315 0.254765,0.1288465 0.415823,0.3513996 0.161058,0.2225531 0.22841,0.5095294 0.06735,0.2869764 0.03807,0.6090927 l -0.0059,0.064423 Q 17.747848,7.9784833 17.616074,8.2742446 17.484299,8.570006 17.270531,8.7925591 17.056763,9.0151122 16.766858,9.1410304 16.476953,9.2640202 16.119697,9.2552352 15.777082,9.2493786 15.522318,9.120532 15.270481,8.9916855 15.109423,8.7720608 14.948365,8.552436 14.881013,8.268388 14.813662,7.98434 14.842945,7.6622237 Z m 0.898997,-0.061495 -0.0059,0.061495 q -0.0088,0.1317748 -0.0088,0.284048 0.0029,0.1493448 0.041,0.2869763 0.041,0.1376315 0.134703,0.2254814 0.09663,0.084922 0.269407,0.090778 0.187413,0.00586 0.316259,-0.076137 0.128847,-0.081993 0.21084,-0.2196248 0.08492,-0.1405598 0.128847,-0.301618 0.04685,-0.1610581 0.0615,-0.3133313 l 0.0059,-0.061495 q 0.01171,-0.1288465 0.0088,-0.2811197 0,-0.1552015 -0.041,-0.292833 -0.03807,-0.1405599 -0.134703,-0.2284098 -0.09663,-0.090778 -0.269407,-0.096635 -0.187413,-0.00586 -0.319188,0.079065 -0.128846,0.084922 -0.21084,0.2254814 -0.08199,0.1405598 -0.125918,0.3045463 -0.04392,0.1610582 -0.0615,0.3133313 z m 2.377804,0.061495 0.0059,-0.061495 q 0.03807,-0.3396863 0.166915,-0.6383759 0.128846,-0.2986897 0.342614,-0.5241711 0.213769,-0.2254814 0.503673,-0.3513996 0.289905,-0.1259182 0.650089,-0.1171332 0.345543,0.00586 0.59738,0.1376315 0.254765,0.1288465 0.415823,0.3513996 0.161058,0.2225531 0.228409,0.5095294 0.06735,0.2869764 0.03807,0.6090927 l -0.0059,0.064423 Q 21.02465,7.9784833 20.892875,8.2742446 20.7611,8.570006 20.547332,8.7925591 20.333564,9.0151122 20.043659,9.1410304 19.753755,9.2640202 19.396498,9.2552352 19.053884,9.2493786 18.799119,9.120532 18.547283,8.9916855 18.386224,8.7720608 18.225166,8.552436 18.157815,8.268388 18.090463,7.98434 18.119746,7.6622237 Z m 0.898998,-0.061495 -0.0059,0.061495 q -0.0088,0.1317748 -0.0088,0.284048 0.0029,0.1493448 0.041,0.2869763 0.041,0.1376315 0.134703,0.2254814 0.09664,0.084922 0.269406,0.090778 0.187413,0.00586 0.31626,-0.076137 0.128846,-0.081993 0.21084,-0.2196248 0.08492,-0.1405598 0.128846,-0.301618 0.04685,-0.1610581 0.0615,-0.3133313 l 0.0059,-0.061495 q 0.01171,-0.1288465 0.0088,-0.2811197 0,-0.1552015 -0.041,-0.292833 -0.03807,-0.1405599 -0.134703,-0.2284098 -0.09663,-0.090778 -0.269406,-0.096635 -0.187414,-0.00586 -0.319188,0.079065 -0.128847,0.084922 -0.21084,0.2254814 -0.08199,0.1405598 -0.125918,0.3045463 -0.04392,0.1610582 -0.06149,0.3133313 z M 23.308747,7.354749 h -1.106909 l 0.108348,-0.638376 0.831646,0.00293 q 0.184485,0 0.354328,-0.046853 0.172772,-0.049782 0.292833,-0.1639865 0.120062,-0.1171332 0.149345,-0.3250446 0.02928,-0.1874132 -0.03221,-0.2957614 -0.05857,-0.1112765 -0.187413,-0.1581298 -0.125918,-0.049782 -0.298689,-0.05271 l -0.585667,-0.00293 -0.61202,3.5227811 h -0.928281 l 0.737939,-4.2636486 1.417312,0.00293 q 0.275263,0.00293 0.538813,0.064423 0.266478,0.058567 0.474389,0.1903415 0.207911,0.1288465 0.325045,0.3484712 0.117133,0.2196248 0.09663,0.5446694 -0.0205,0.3513996 -0.202055,0.5739527 -0.178628,0.2225531 -0.459748,0.3309013 -0.278191,0.1083482 -0.600308,0.1229899 z m -0.345543,1.8419196 h -1.338247 l 0.465605,-0.7379392 0.901925,0.00293 q 0.181557,-0.00293 0.339687,-0.061495 0.158129,-0.058567 0.263549,-0.1815564 0.108349,-0.1229899 0.137632,-0.310403 0.02635,-0.1639865 -0.0088,-0.284048 -0.03514,-0.1200616 -0.137632,-0.1874132 -0.102491,-0.07028 -0.269406,-0.079065 l -0.881427,-0.00293 0.117133,-0.638376 0.983919,0.00293 0.161058,0.248908 q 0.289905,0.011713 0.509529,0.1200616 0.222553,0.1083482 0.339687,0.3191879 0.120061,0.2079115 0.09956,0.5095295 -0.02928,0.4685328 -0.272335,0.7496525 -0.240123,0.2811197 -0.614949,0.4070379 -0.374826,0.1259182 -0.796506,0.1229898 z m 4.75268,-2.5212922 0.415823,0.00586 q 0.184485,-0.00586 0.330901,-0.076137 0.149345,-0.07028 0.240124,-0.2020548 0.09371,-0.1347032 0.114204,-0.3221163 0.01757,-0.1464165 -0.02635,-0.257693 -0.04392,-0.1112766 -0.146416,-0.1756999 -0.09956,-0.067352 -0.248908,-0.07028 -0.143488,-0.00293 -0.26355,0.05271 -0.120061,0.055638 -0.202055,0.1610581 -0.08199,0.1024916 -0.108348,0.2401231 l -0.898997,0.00586 q 0.02343,-0.3836112 0.24598,-0.6442326 0.222553,-0.2606214 0.553454,-0.3923962 0.33383,-0.1347032 0.688158,-0.1317749 0.366041,0.00586 0.673515,0.1405599 0.307475,0.1317748 0.486103,0.3982529 0.178628,0.2635497 0.155202,0.6618026 -0.01757,0.2694063 -0.152273,0.4743895 -0.131775,0.2049831 -0.342615,0.3396862 -0.21084,0.1347032 -0.459748,0.2020548 -0.24598,0.067352 -0.486103,0.067352 l -0.647161,-0.00293 z m -0.111276,0.6881576 0.07614,-0.4656045 0.550526,0.00293 q 0.248908,0.00586 0.477318,0.07028 0.231338,0.064423 0.412895,0.1932697 0.181556,0.1288466 0.278191,0.3309013 0.09663,0.2020548 0.08492,0.4831745 -0.01757,0.3221163 -0.166915,0.5651677 -0.146417,0.2430514 -0.380683,0.4041096 -0.234266,0.1581298 -0.521243,0.2371947 -0.284048,0.076137 -0.579809,0.073208 -0.278192,-0.00586 -0.518315,-0.090778 Q 27.077508,9.0795354 26.89888,8.9214056 26.720252,8.7632758 26.620689,8.534866 26.524054,8.3064563 26.524054,8.0165516 h 0.890212 q 0,0.1522732 0.05857,0.2694064 0.05857,0.1171332 0.169843,0.1844848 0.111277,0.067352 0.26355,0.073208 0.1757,0.00293 0.325044,-0.067352 0.149345,-0.073208 0.24598,-0.2049831 0.09956,-0.1317748 0.12299,-0.310403 Q 28.623667,7.7764285 28.573885,7.647582 28.527032,7.5158071 28.40697,7.4455272 28.289837,7.372319 28.102424,7.3664623 Z m 5.748312,-0.00878 h -1.106909 l 0.108349,-0.638376 0.831645,0.00293 q 0.184485,0 0.354328,-0.046853 0.172772,-0.049782 0.292833,-0.1639865 0.120062,-0.1171332 0.149345,-0.3250446 0.02928,-0.1874132 -0.03221,-0.2957614 -0.05857,-0.1112765 -0.187414,-0.1581298 -0.125918,-0.049782 -0.298689,-0.05271 l -0.585666,-0.00293 -0.612021,3.5227811 h -0.928281 l 0.737939,-4.2636486 1.417312,0.00293 q 0.275263,0.00293 0.538813,0.064423 0.266478,0.058567 0.474389,0.1903415 0.207912,0.1288465 0.325045,0.3484712 0.117133,0.2196248 0.09663,0.5446694 -0.0205,0.3513996 -0.202055,0.5739527 -0.178628,0.2225531 -0.459748,0.3309013 -0.278191,0.1083482 -0.600307,0.1229899 z M 33.007377,9.1966686 H 31.66913 l 0.465605,-0.7379392 0.901926,0.00293 q 0.181556,-0.00293 0.339686,-0.061495 0.15813,-0.058567 0.26355,-0.1815564 0.108348,-0.1229899 0.137631,-0.310403 0.02636,-0.1639865 -0.0088,-0.284048 -0.03514,-0.1200616 -0.137631,-0.1874132 -0.102492,-0.07028 -0.269407,-0.079065 l -0.881427,-0.00293 0.117133,-0.638376 0.983919,0.00293 0.161058,0.248908 q 0.289905,0.011713 0.50953,0.1200616 0.222553,0.1083482 0.339686,0.3191879 0.120061,0.2079115 0.09956,0.5095295 -0.02928,0.4685328 -0.272335,0.7496525 -0.240123,0.2811197 -0.614949,0.4070379 -0.374826,0.1259182 -0.796506,0.1229898 z M 36.790779,8.4411595 37.004547,7.070701 q 0.01171,-0.1171332 -0.0088,-0.2196248 -0.01757,-0.1024915 -0.08785,-0.1669148 -0.07028,-0.067352 -0.207912,-0.07028 -0.120061,-0.00293 -0.213768,0.043925 -0.09078,0.043925 -0.149345,0.1288466 -0.05564,0.084922 -0.07906,0.1991264 l -0.896069,0.00586 q 0.01464,-0.2694064 0.146417,-0.4656045 0.134703,-0.1961981 0.342615,-0.319188 0.207911,-0.1259182 0.453891,-0.1844848 0.245979,-0.058567 0.483174,-0.05271 0.330902,0.00586 0.59738,0.1405598 0.266478,0.1317749 0.407037,0.3806829 0.143489,0.2459797 0.111277,0.5973794 l -0.213768,1.3294618 q -0.02636,0.1727715 -0.04685,0.3660413 -0.01757,0.1903414 0.05564,0.3572563 l -0.0029,0.055638 -0.875571,0.00293 q -0.05857,-0.1815565 -0.05857,-0.3748263 0,-0.1961981 0.02928,-0.3836112 z m 0.313331,-1.1771887 -0.08199,0.5036727 -0.398253,-0.00293 q -0.117133,0.00293 -0.231338,0.03514 -0.114205,0.029283 -0.204983,0.093707 -0.09078,0.061495 -0.152274,0.1581299 -0.0615,0.093706 -0.07614,0.222553 -0.01464,0.093707 0.01464,0.1669149 0.03221,0.07028 0.09663,0.1112765 0.06442,0.040997 0.15813,0.043925 0.137632,0.00293 0.266478,-0.049782 0.131775,-0.055638 0.22841,-0.1552015 0.09663,-0.1024915 0.131775,-0.2342664 l 0.172771,0.3865396 q -0.07321,0.1610582 -0.1757,0.292833 -0.102491,0.1317749 -0.231338,0.2284098 -0.128846,0.093706 -0.286976,0.1464165 -0.155201,0.05271 -0.339686,0.049782 -0.26355,-0.00586 -0.483175,-0.1229899 -0.216696,-0.1200615 -0.345543,-0.3279729 -0.128846,-0.2079115 -0.117133,-0.4802462 0.01171,-0.3162596 0.155202,-0.5212427 0.143488,-0.2079115 0.371898,-0.327973 0.228409,-0.1200615 0.497816,-0.1698432 0.269406,-0.049782 0.535884,-0.049782 z M 39.426277,6.7544413 38.998741,9.1966686 H 38.1056 L 38.656126,6.0282155 H 39.4907 Z m -0.243051,0.7467242 -0.202055,0.00879 q 0.02928,-0.284048 0.12299,-0.5622394 0.09371,-0.2781913 0.257693,-0.5007444 0.166914,-0.2254815 0.409966,-0.354328 0.243051,-0.1317748 0.571024,-0.1259182 0.26355,0.00878 0.433393,0.1142049 0.172772,0.1024916 0.26355,0.275263 0.09371,0.1698432 0.120061,0.3865396 0.02636,0.2137681 0,0.4451062 l -0.333829,2.0088344 h -0.898998 l 0.339687,-2.0176194 q 0.01464,-0.1434882 -0.0088,-0.2576931 -0.02343,-0.1142048 -0.108349,-0.1756998 -0.08199,-0.064423 -0.245979,-0.07028 -0.1757,-0.00293 -0.301618,0.07028 -0.125918,0.07028 -0.21084,0.1932698 -0.08492,0.1200616 -0.134703,0.2694064 -0.04685,0.1464165 -0.07321,0.292833 z m 4.134801,0.9341373 0.65009,-3.7365492 h 0.898997 l -0.781864,4.497915 h -0.802362 z m -1.774568,-0.7613658 0.0059,-0.064423 q 0.03514,-0.2899047 0.131775,-0.585666 0.09956,-0.2957613 0.269406,-0.5388127 0.169843,-0.2430514 0.418752,-0.3865396 0.251836,-0.1434882 0.597379,-0.1317749 0.295761,0.011713 0.483174,0.1727715 0.190342,0.1581298 0.295762,0.4041096 0.10542,0.2430514 0.143488,0.5183144 0.041,0.2723347 0.03221,0.5095294 L 43.90955,7.682722 q -0.04685,0.2518364 -0.155201,0.532956 -0.10542,0.2781914 -0.278192,0.5183145 -0.172771,0.240123 -0.409966,0.3865395 -0.237195,0.1464165 -0.538813,0.1376316 -0.319188,-0.00878 -0.524171,-0.1552015 -0.204983,-0.1464165 -0.316259,-0.380683 -0.108349,-0.2371947 -0.14056,-0.5095294 -0.02928,-0.275263 -0.0029,-0.5388127 z m 0.901926,-0.067352 -0.0059,0.061495 q -0.01171,0.1171332 -0.01464,0.2635497 -0.0029,0.1464165 0.02343,0.284048 0.02928,0.1376316 0.111277,0.2313381 0.08492,0.093707 0.24598,0.1024916 0.222553,0.00586 0.371898,-0.1054199 0.149344,-0.1112766 0.234266,-0.2869764 0.08785,-0.1786281 0.114205,-0.3689696 l 0.041,-0.3104029 q 0.01464,-0.1259182 0.0059,-0.2635498 -0.0059,-0.1376315 -0.04685,-0.2547647 -0.041,-0.1200615 -0.134703,-0.1991264 -0.09078,-0.079065 -0.254765,-0.081993 -0.181556,-0.00586 -0.307475,0.081993 -0.125918,0.08785 -0.204983,0.2313381 -0.07614,0.1434881 -0.117133,0.3074746 -0.041,0.1610582 -0.0615,0.3074747 z m 6.694163,0.852144 -0.128846,0.7379392 H 46.802741 L 46.931587,8.4587294 Z M 47.862796,4.93302 47.121929,9.1966686 H 46.193648 L 46.931587,4.93302 Z m 1.303107,1.7160014 -0.12299,0.7145126 H 47.119001 L 47.244919,6.6490214 Z M 49.751569,4.93302 49.622723,5.6738875 H 47.411834 L 47.543608,4.93302 Z m 2.064472,3.5959894 1.010274,0.9604922 -0.623734,0.4773178 -0.992704,-0.9604922 z m 1.478807,-1.5725133 -0.02343,0.1874131 Q 53.215783,7.5597321 53.051796,7.9433433 52.88781,8.3269546 52.621332,8.6256443 52.357782,8.9214056 51.994669,9.0941771 51.631556,9.2640202 51.177665,9.2552352 50.741344,9.2464502 50.436798,9.0678221 50.132251,8.889194 49.953623,8.5905043 49.774995,8.2918146 49.7135,7.922845 49.652005,7.5509471 49.69593,7.1614792 l 0.02343,-0.1903414 q 0.05857,-0.4099663 0.222553,-0.7906492 0.166915,-0.3806829 0.430464,-0.6793726 0.266478,-0.2986896 0.629591,-0.4656044 0.363113,-0.1698432 0.814076,-0.1610582 0.433393,0.00586 0.737939,0.1844848 0.304547,0.1786281 0.483175,0.4773178 0.181556,0.2957613 0.243051,0.6676593 0.0615,0.3689696 0.01464,0.7525808 z m -0.969277,0.2049831 0.02636,-0.1991264 Q 52.375352,6.777868 52.37828,6.5523865 52.381209,6.3269051 52.331427,6.1189937 52.281646,5.9110823 52.146942,5.7734507 52.015168,5.6358192 51.763331,5.6241059 51.48514,5.6123926 51.29187,5.7353824 51.0986,5.855444 50.969754,6.0604271 50.843836,6.2624819 50.770627,6.5026049 50.697419,6.742728 50.665207,6.9652811 l -0.02343,0.1991264 q -0.02343,0.1815565 -0.02928,0.4099663 -0.0029,0.2254814 0.04393,0.4363211 0.04978,0.2108398 0.184485,0.3513996 0.134703,0.1376316 0.389468,0.1464166 0.272335,0.011713 0.465605,-0.1112766 0.196198,-0.1259182 0.325044,-0.3309013 0.128847,-0.2049831 0.202055,-0.4421778 0.07321,-0.2401231 0.102492,-0.4626762 z"
       id="text236"
       aria-label="TooB 3 Band EQ" />
    <path
       id="path1348"
       style="color:#000000;fill:#e0e0e0;fill-opacity:0.752941;-inkscape-stroke:none"
       d="M 6.6569584,2.1171834 C 4.774717,2.1318994 3.2431785,3.6744673 3.243213,5.5567668 v 2.1109822 0.0062 0.00568 0.00982 c 0.00453,0.8890342 0.2392311,1.7354052 0.7462076,2.386935 0.1277885,0.164224 0.2744584,0.313735 0.4376994,0.445967 V 7.3390869 H 4.43074 V 5.5567668 c -2.28e-5,-1.2443843 0.9901438,-2.2443973 2.2344894,-2.254126 1.249133,-0.00958 2.258501,0.9812478 2.271179,2.2303548 v 0.023771 2.3435262 c 0,0.539163 -0.163809,0.8448933 -0.445451,1.074353 -0.281642,0.2294597 -0.736455,0.3787882 -1.343587,0.3787882 h -0.464596 v 2.225771 h 1.058358 v -1.221698 c 0.540406,-0.08223 1.101059,-0.137859 1.500167,-0.4630207 0.557114,-0.4538937 0.8805656,-1.1720775 0.8805656,-1.9941935 v -2.3435262 -0.03359 -0.00155 C 10.102686,3.6324092 8.5462194,2.1027009 6.6569584,2.1171834 Z"
       sodipodi:nodetypes="ccccccscccccccsssccccsscccc" />
    <g
       aria-label="B"
       id="text1054"
       style="font-style:italic;font-weight:900;font-size:6.35px;font-family:Roboto;-inkscape-font-specification:'Roboto, Heavy Italic';fill:#e0e0e0;fill-opacity:0.752941;stroke-width:0.285001;stop-color:#000000"
       transform="translate(-3.9310512,-0.1615253)">
      <path
         id="path1085"
         style="font-style:normal;-inkscape-font-specification:'Roboto, Heavy';stroke-width:0.285"
         d="M 8.865092,5.8580404 V 8.9958333 11.74073 H 9.9533976 V 8.9958333 h 0.7441404 c 0.549837,-0.00413 0.964283,-0.116789 1.243335,-0.3379638 0.281119,-0.223242 0.42168,-0.5560389 0.42168,-0.9983887 0,-0.2439125 -0.06305,-0.4506186 -0.189136,-0.6201172 -0.12609,-0.1694982 -0.306958,-0.2852537 -0.542602,-0.3472656 0.208772,-0.078548 0.366902,-0.2005048 0.474389,-0.3658692 0.107487,-0.1653644 0.161231,-0.3648358 0.161231,-0.598413 0,-0.4051429 -0.151929,-0.7141686 -0.455786,-0.9270752 C 11.508859,4.5878339 11.18123,4.4813802 10.486698,4.4813802 H 9.9533976 c -1.0883054,0 -1.0883056,1.029605 -1.0883056,1.3766602 z m 1.0883056,-0.022757 c 0,-0.3308701 0.1341694,-0.4768142 0.3334184,-0.4952 l 0.199882,-0.018444 c 0.203885,-0.018814 0.420647,0.042375 0.530201,0.127124 0.109553,0.082682 0.164331,0.2191083 0.164331,0.4092774 0,0.1653644 -0.05064,0.2904216 -0.151929,0.3751709 -0.101285,0.08475 -0.270784,0.1281579 -0.508496,0.1302246 H 9.9533976 Z m 0,1.2412875 h 0.7627444 c 0.374137,0.00207 0.561206,0.1912032 0.561206,0.5674073 0,0.1632973 -0.05271,0.2904217 -0.15813,0.381372 -0.105419,0.088883 -0.256315,0.1333252 -0.452686,0.1333252 H 9.9533976 Z"
         sodipodi:nodetypes="cccccccsscssczccssscssccsccscscc" />
    </g>
  </g>
</svg>
