<?xml version="1.0" encoding="UTF-8" standalone="no"?>
<!-- Created with Inkscape (http://www.inkscape.org/) -->

<svg
   width="85.609207"
   height="84"
   viewBox="0 0 22.650768 22.225001"
   version="1.1"
   id="svg1"
   xmlns="http://www.w3.org/2000/svg"
   xmlns:svg="http://www.w3.org/2000/svg">
  <defs
     id="defs1">
    <filter
       style="color-interpolation-filters:sRGB"
       id="filter35"
       x="-0.081083745"
       y="-0.081083745"
       width="1.1621675"
       height="1.1790599">
      <feFlood
         result="flood"
         in="SourceGraphic"
         flood-opacity="0.670588"
         flood-color="rgb(0,0,0)"
         id="feFlood34" />
      <feGaussianBlur
         result="blur"
         in="SourceGraphic"
         stdDeviation="0.400000"
         id="feGaussianBlur34" />
      <feOffset
         result="offset"
         in="blur"
         dx="0.000000"
         dy="0.200000"
         id="feOffset34" />
      <feComposite
         result="comp1"
         operator="out"
         in="flood"
         in2="offset"
         id="feComposite34" />
      <feComposite
         result="comp2"
         operator="atop"
         in="comp1"
         in2="SourceGraphic"
         id="feComposite35" />
    </filter>
  </defs>
  <rect
     style="display:none;fill:#000000;fill-opacity:0;stroke:none;stroke-width:2.15288;stroke-linejoin:round"
     id="rect1"
     width="22.650768"
     height="22.225"
     x="4.4408921e-16"
     y="0" />
  <g
     id="layer2"
     style="display:inline"
     transform="translate(2.8587177,2.6458337)">
    <circle
       style="font-variation-settings:'GRAD' 15, 'opsz' 144, 'wdth' 132, 'wght' 200;display:inline;fill:#000000;fill-opacity:1;stroke:none;stroke-width:2.11667;stroke-linecap:butt;stroke-linejoin:round;stroke-dasharray:none;stroke-opacity:1"
       id="circle34"
       cx="8.4666653"
       cy="8.4666653"
       r="8.4666653" />
    <path
       id="path10"
       style="font-variation-settings:'GRAD' 15, 'opsz' 144, 'wdth' 132, 'wght' 200;baseline-shift:baseline;display:inline;overflow:visible;opacity:1;vector-effect:none;fill:#ffffff;fill-opacity:1;stroke:none;stroke-width:0.925474;stroke-linejoin:round;stroke-opacity:1;paint-order:stroke fill markers;enable-background:accumulate;stop-color:#000000;stop-opacity:1"
       d="m 8.4589152,2.5468613 c -3.2597966,0 -5.9198054,2.6600088 -5.9198054,5.9198054 0,3.2597973 2.6600088,5.9198053 5.9198054,5.9198053 3.2597968,0 5.9198058,-2.660008 5.9198058,-5.9198053 0,-0.797827 -0.159653,-1.5596729 -0.448123,-2.2554373 l -0.382123,0.3366895 -1.250152,1.1023713 v 4.782e-4 c 0.05509,0.2630316 0.08417,0.5358673 0.08417,0.8158983 0,2.1754753 -1.748106,3.9221463 -3.9235808,3.9221463 -2.1754745,0 -3.9216678,-1.746671 -3.9216678,-3.9221463 0,-2.1754745 1.7461933,-3.9235808 3.9216678,-3.9235808 0.4532168,0 0.8876009,0.075865 1.2917591,0.2156917 L 10.998434,3.657841 11.38008,3.3211515 C 10.517327,2.8287984 9.5196885,2.5468613 8.4589152,2.5468613 Z M 12.305975,3.972531 7.9318813,7.8310695 8.9964706,9.0946117 13.39926,5.2107259 C 13.093696,4.7489266 12.724932,4.3320266 12.305975,3.972531 Z" />
  </g>
</svg>
