<?xml version="1.0" encoding="utf-8"?>
<!-- Generator: Adobe Illustrator 16.0.0, SVG Export Plug-In . SVG Version: 6.00 Build 0)  -->
<!DOCTYPE svg PUBLIC "-//W3C//DTD SVG 1.1//EN" "http://www.w3.org/Graphics/SVG/1.1/DTD/svg11.dtd">
<svg version="1.1" id="Layer_1" xmlns="http://www.w3.org/2000/svg" xmlns:xlink="http://www.w3.org/1999/xlink" x="0px" y="0px"
	 width="24px" height="24px" viewBox="0 0 24 24" enable-background="new 0 0 24 24" xml:space="preserve" fill="#FFFFFF">
<rect x="6" y="9" width="2" height="2"/>
<rect x="6" y="13" width="2" height="2"/>
<rect x="6" y="17" width="2" height="2"/>
<rect x="10" y="17" width="3" height="2"/>
<g>
	<g>
		<path d="M17.059,5.19l-7.061,7.06V16h3.75l7.061-7.061L17.059,5.19z M12.918,14h-0.92v-0.92l5.061-5.061l0.92,0.92L12.918,14z"/>
		<path d="M23.708,6.04c0.39-0.39,0.39-1.02,0-1.41l-2.34-2.34c-0.2-0.2-0.45-0.29-0.71-0.29c-0.25,0-0.51,0.1-0.7,0.29l-1.83,1.83
			l3.75,3.75L23.708,6.04z"/>
	</g>
</g>
<path d="M15,16.641V21H4v-9V7h5h1h3.672l1.904-1.904C15.393,5.04,15.202,5,15,5h-4H8H4C2.9,5,2.01,5.9,2.01,7l-0.003,3.993L2,11v10
	c0,1.1,0.891,2,1.99,2H4h11h0.01c1.1,0,1.99-0.9,1.99-2v-6.359L15,16.641z"/>
<polygon points="11.672,9 10,9 10,10.672 "/>
</svg>
