<?xml version="1.0" encoding="utf-8"?>
<!-- Generator: Adobe Illustrator 16.0.0, SVG Export Plug-In . SVG Version: 6.00 Build 0)  -->
<!DOCTYPE svg PUBLIC "-//W3C//DTD SVG 1.1//EN" "http://www.w3.org/Graphics/SVG/1.1/DTD/svg11.dtd">
<svg version="1.1" xmlns="http://www.w3.org/2000/svg" xmlns:xlink="http://www.w3.org/1999/xlink" x="0px" y="0px" width="48px"
	 height="48px" viewBox="0 0 48 48" enable-background="new 0 0 48 48" xml:space="preserve">
<g id="Layer_1" display="none">
	<path display="inline" d="M47,41c0,3.313-2.688,6-6,6H7c-3.313,0-6-2.688-6-6V7c0-3.313,2.687-6,6-6h34c3.313,0,6,2.687,6,6V41z"/>
	<text transform="matrix(1 0 0 1 9.8389 32.5723)" fill="#FFFFFF" font-family="'PalatinoLinotype-BoldItalic'" font-size="34">fx</text>
	
		<text id="k" transform="matrix(1 0 0 1 14.5454 35.5723)" display="inline" fill="#FFFFFF" font-family="'PalatinoLinotype-BoldItalic'" font-size="34">k</text>
</g>
<g id="Composed">
	<path d="M41,1H7C3.687,1,1,3.687,1,7v34c0,3.313,2.687,6,6,6h34c3.313,0,6-2.688,6-6V7C47,3.687,44.313,1,41,1z M26.805,26.91
		c0.648,1.788,1.178,3.092,1.586,3.91c0.41,0.819,0.711,1.303,0.904,1.453c0.195,0.148,0.375,0.224,0.541,0.224
		c0.42,0,1.211-0.398,2.373-1.195l0.184,0.017l0.365,0.647l-0.051,0.232c-0.441,0.276-0.885,0.57-1.328,0.88
		c-2.113,1.472-3.529,2.208-4.25,2.208c-0.199,0-0.381-0.044-0.547-0.133s-0.369-0.302-0.607-0.64
		c-0.236-0.337-0.492-0.852-0.763-1.543c-0.271-0.692-0.681-1.777-1.229-3.254c-0.548-1.479-0.911-2.493-1.087-3.047
		c-0.62,0.643-1.054,1.148-1.303,1.52s-0.429,0.708-0.54,1.012c-0.111,0.305-0.26,0.922-0.448,1.852
		c-0.188,0.93-0.315,1.613-0.382,2.051c-0.066,0.437-0.1,0.882-0.1,1.336c-1.118,0.056-2.374,0.276-3.769,0.664l-0.282-0.415
		c0.93-3.243,1.887-7.509,2.872-12.8c0.985-5.29,1.478-8.19,1.478-8.699c0-0.266-0.075-0.465-0.224-0.598s-0.379-0.208-0.689-0.224
		c-0.31-0.017-0.896-0.03-1.76-0.042L17.6,12.177l0.116-0.714l0.149-0.149c2.413-0.299,4.665-0.819,6.757-1.561l0.414,0.365
		c-0.553,2.214-1.776,7.836-3.668,16.867c0.044-0.044,0.47-0.559,1.278-1.544c1.04-1.272,1.961-2.341,2.764-3.204
		c0.802-0.863,1.612-1.607,2.433-2.233c0.818-0.625,1.537-1.054,2.158-1.287c0.619-0.232,1.268-0.349,1.941-0.349
		c0.299,0,0.604,0.033,0.914,0.1l0.066,0.199c-0.332,1.118-0.537,1.959-0.615,2.523l-0.182,0.133
		c-0.654-0.21-1.156-0.315-1.512-0.315c-0.719,0-1.521,0.21-2.406,0.631c-0.887,0.421-1.738,1.107-2.557,2.059
		C25.773,24.053,26.158,25.123,26.805,26.91z"/>
</g>
</svg>
