<?xml version="1.0" encoding="utf-8"?>
<!-- Generator: Adobe Illustrator 16.0.0, SVG Export Plug-In . SVG Version: 6.00 Build 0)  -->
<!DOCTYPE svg PUBLIC "-//W3C//DTD SVG 1.1//EN" "http://www.w3.org/Graphics/SVG/1.1/DTD/svg11.dtd">
<svg version="1.1" xmlns="http://www.w3.org/2000/svg" xmlns:xlink="http://www.w3.org/1999/xlink" x="0px" y="0px" width="48px"
	 height="48px" viewBox="0 0 48 48" enable-background="new 0 0 48 48" xml:space="preserve">
<g id="Layer_1" display="none">
	<path display="inline" d="M47,41c0,3.313-2.687,6-6,6H7c-3.313,0-6-2.687-6-6V7c0-3.313,2.687-6,6-6h34c3.313,0,6,2.687,6,6V41z"/>
	<line display="inline" fill="none" stroke="#FFFFFF" stroke-width="5" x1="-11" y1="18.5" x2="28" y2="18.5"/>
	<line display="inline" fill="none" stroke="#FFFFFF" stroke-width="5" x1="-18" y1="29.5" x2="28" y2="29.5"/>
	<polyline display="inline" fill="none" stroke="#FFFFFF" stroke-width="5" points="19.25,9.504 33.746,24 19.25,38.496 	"/>
</g>
<g id="Combined">
	<g>
		<polygon points="30.211,24 27.211,21 1,21 1,27 27.211,27 		"/>
		<path d="M41,1H7C3.687,1,1,3.687,1,7v9h21.21l-4.728-4.728l3.535-3.535L37.281,24L21.018,40.264l-3.535-3.535L22.211,32H1v9
			c0,3.313,2.687,6,6,6h34c3.313,0,6-2.687,6-6V7C47,3.687,44.313,1,41,1z"/>
	</g>
</g>
</svg>
