<?xml version="1.0" encoding="utf-8"?>
<!-- Generator: Adobe Illustrator 16.0.0, SVG Export Plug-In . SVG Version: 6.00 Build 0)  -->
<!DOCTYPE svg PUBLIC "-//W3C//DTD SVG 1.1//EN" "http://www.w3.org/Graphics/SVG/1.1/DTD/svg11.dtd">
<svg version="1.1" xmlns="http://www.w3.org/2000/svg" xmlns:xlink="http://www.w3.org/1999/xlink" x="0px" y="0px" width="48px"
	 height="48px" viewBox="0 0 48 48" enable-background="new 0 0 48 48" xml:space="preserve">
<g id="Layer_1">
	<path d="M31.5,2.262v8.767C35.976,13.628,39,18.462,39,24c0,8.271-6.729,15-15,15c-8.271,0-15-6.729-15-15
		c0-5.538,3.024-10.372,7.5-12.971V2.262C7.49,5.38,1,13.943,1,24c0,12.682,10.318,23,23,23c12.683,0,23-10.318,23-23
		C47,13.943,40.51,5.379,31.5,2.262z"/>
	<path d="M20,25.5h8V1.354C26.7,1.126,25.365,1,24,1s-2.7,0.126-4,0.354V25.5z"/>
</g>
<g id="Composed">
</g>
</svg>
