<?xml version="1.0" encoding="utf-8"?>
<!-- Generator: Adobe Illustrator 16.0.0, SVG Export Plug-In . SVG Version: 6.00 Build 0)  -->
<!DOCTYPE svg PUBLIC "-//W3C//DTD SVG 1.1//EN" "http://www.w3.org/Graphics/SVG/1.1/DTD/svg11.dtd">
<svg version="1.1" xmlns="http://www.w3.org/2000/svg" xmlns:xlink="http://www.w3.org/1999/xlink" x="0px" y="0px" width="48px"
	 height="48px" viewBox="0 0 48 48" enable-background="new 0 0 48 48" xml:space="preserve">
<g id="Layer_1" display="none">
	<path display="inline" d="M47,41c0,3.313-2.687,6-6,6H7c-3.313,0-6-2.687-6-6V7c0-3.313,2.687-6,6-6h34c3.313,0,6,2.687,6,6V41z"/>
	<path display="inline" fill="none" stroke="#FFFFFF" stroke-width="5" d="M-5,12.5c0,0,11.333,0.167,21,0
		c6.754-0.116,11.413,19.888,18.167,20c10,0.167,24.833,0,24.833,0"/>
</g>
<g id="Combined">
	<g>
		<path d="M15.957,10c4.848-0.12,8.015,5.42,11.34,11.248c1.981,3.473,4.976,8.72,6.912,8.752c3.898,0.066,8.564,0.08,12.791,0.072
			V7c0-3.313-2.687-6-6-6H7C3.687,1,1,3.687,1,7v3.057C5.137,10.082,10.806,10.089,15.957,10z"/>
		<path d="M45.021,35.073c-3.692,0-7.569-0.018-10.896-0.073c-4.784-0.08-7.887-5.518-11.171-11.273
			C20.97,20.249,17.975,15,16.061,15c-0.006,0-0.012,0-0.018,0C10.861,15,5.165,15,1,15.001V41c0,3.313,2.687,6,6,6h34
			c3.313,0,6-2.687,6-6v-5.929C46.349,35.072,45.689,35.073,45.021,35.073z"/>
	</g>
</g>
</svg>
