<?xml version="1.0" encoding="utf-8"?>
<!-- Generator: Adobe Illustrator 16.0.0, SVG Export Plug-In . SVG Version: 6.00 Build 0)  -->
<!DOCTYPE svg PUBLIC "-//W3C//DTD SVG 1.1//EN" "http://www.w3.org/Graphics/SVG/1.1/DTD/svg11.dtd">
<svg version="1.1" xmlns="http://www.w3.org/2000/svg" xmlns:xlink="http://www.w3.org/1999/xlink" x="0px" y="0px" width="48px"
	 height="48px" viewBox="0 0 48 48" enable-background="new 0 0 48 48" xml:space="preserve">
<g id="Layer_1" display="none">
	<path display="inline" d="M47,41c0,3.313-2.687,6-6,6H7c-3.313,0-6-2.687-6-6V7c0-3.313,2.687-6,6-6h34c3.313,0,6,2.687,6,6V41z"/>
	<path display="inline" fill="none" stroke="#FFFFFF" stroke-width="5" d="M-7,20.5c0,0,6.632,0,14.601,0
		c7.815,0,10.993-10.467,13.093-10.467c3.335,0,5.959,26.467,36.474,26.467c10.001,0,24.833,0,24.833,0"/>
</g>
<g id="Combined">
	<g>
		<path d="M7.601,18c3.835,0,6.455-3.792,8.367-6.561c1.507-2.182,2.698-3.906,4.726-3.906c2.401,0,3.453,2.191,5.047,5.507
			c2.885,6.005,7.812,16.245,21.26,19.743V7c0-3.313-2.687-6-6-6H7C3.687,1,1,3.687,1,7v11H7.601z"/>
		<path d="M21.233,15.206c-0.235-0.49-0.494-1.028-0.74-1.518c-0.143,0.204-0.283,0.407-0.412,0.593
			C17.829,17.542,14.059,23,7.601,23H1v18c0,3.313,2.687,6,6,6h34c3.313,0,6-2.687,6-6v-3.056
			C30.383,34.247,24.371,21.74,21.233,15.206z"/>
	</g>
</g>
</svg>
