<?xml version="1.0" encoding="utf-8"?>
<!-- Generator: Adobe Illustrator 16.0.0, SVG Export Plug-In . SVG Version: 6.00 Build 0)  -->
<!DOCTYPE svg PUBLIC "-//W3C//DTD SVG 1.1//EN" "http://www.w3.org/Graphics/SVG/1.1/DTD/svg11.dtd">
<svg version="1.1" id="Layer_1" xmlns="http://www.w3.org/2000/svg" xmlns:xlink="http://www.w3.org/1999/xlink" x="0px" y="0px"
	 width="48px" height="48px" viewBox="0 0 48 48" enable-background="new 0 0 48 48" xml:space="preserve">
<g id="Layer_1_1_" display="none">
	<circle display="inline" cx="24" cy="23.999" r="23"/>
	<path display="inline" d="M47,41c0,3.313-2.688,6-6,6H7c-3.313,0-6-2.688-6-6V7c0-3.313,2.687-6,6-6h34c3.313,0,6,2.687,6,6V41z"/>
	<path id="full_sin_2_" fill="none" stroke="#FFFFFF" stroke-width="3" stroke-linecap="round" d="M-4.64,16.94
		c1.398,3.74,2.795,7.481,4.388,7.481 M4.129,16.94c-1.397,3.739-2.793,7.481-4.386,7.481 M4.128,16.94
		c1.397-3.74,2.795-7.481,4.387-7.481 M12.896,16.941C11.5,13.2,10.104,9.459,8.511,9.459 M12.896,16.942
		c1.398,3.741,2.795,7.481,4.385,7.481 M21.665,16.942c-1.398,3.741-2.795,7.481-4.387,7.481 M21.665,16.943
		c1.396-3.741,2.792-7.481,4.385-7.481 M30.432,16.943c-1.396-3.741-2.793-7.481-4.386-7.481 M30.432,16.941
		c1.397,3.74,2.793,7.481,4.387,7.481 M39.197,16.941c-1.396,3.74-2.793,7.481-4.387,7.481 M39.197,16.941
		c1.398-3.74,2.796-7.48,4.387-7.48 M47.966,16.942c-1.396-3.741-2.794-7.481-4.385-7.481 M47.966,16.941
		c1.396,3.74,2.793,7.481,4.39,7.481 M56.732,16.941c-1.396,3.74-2.791,7.481-4.385,7.481 M56.732,16.942
		c1.398-3.741,2.793-7.481,4.388-7.481 M65.501,16.942c-1.397-3.741-2.793-7.481-4.388-7.481 M65.501,16.94
		c1.396,3.74,2.793,7.481,4.388,7.481 M74.27,16.94c-1.396,3.739-2.793,7.481-4.386,7.481 M74.27,16.94
		c1.396-3.74,2.791-7.481,4.385-7.481 M83.038,16.941c-1.397-3.741-2.797-7.482-4.388-7.482 M83.038,16.942
		c1.396,3.741,2.795,7.481,4.385,7.481 M91.807,16.942c-1.396,3.741-2.795,7.481-4.386,7.481"/>
</g>
<g>
	<path d="M2.705,16.465c0.006-0.017,0.012-0.033,0.018-0.05c1.761-4.714,3.153-8.439,5.775-8.456c0.006,0,0.01,0.001,0.015,0
		c0.003,0.001,0.01,0,0.015,0c2.623,0.017,4.014,3.742,5.773,8.456c0.004,0.01,0.007,0.02,0.011,0.03
		c0.803,2.147,2.106,5.629,2.969,6.396c0.866-0.769,2.177-4.275,2.979-6.421h0c0,0,0-0.001,0-0.001
		c1.76-4.716,3.15-8.442,5.775-8.457c0.004,0,0.007,0,0.013,0c0.004,0,0.009,0,0.013,0c2.616,0.014,4.007,3.717,5.76,8.412
		c0.006,0.014,0.011,0.028,0.017,0.042l0.006,0.015c0.8,2.141,2.106,5.639,2.972,6.408c0.867-0.77,2.176-4.276,2.978-6.421
		c0.001-0.003,0.002-0.007,0.003-0.01c1.763-4.712,3.155-8.436,5.778-8.446c0.002,0,0.005,0,0.01,0h0.001c0.003,0,0.006,0,0.008,0
		c1.41,0.005,2.463,1.087,3.408,2.811V7c0-3.313-2.688-6-6-6H7C3.687,1,1,3.687,1,7v13.725C1.614,19.38,2.242,17.704,2.705,16.465z"
		/>
	<path d="M46.572,17.496c-0.004-0.01-0.008-0.02-0.012-0.03c-0.801-2.146-2.109-5.654-2.978-6.423
		c-0.866,0.768-2.176,4.271-2.978,6.415c-0.001,0.003-0.002,0.006-0.004,0.009c-1.757,4.706-3.146,8.427-5.761,8.455
		c-0.009,0-0.018,0.002-0.026,0c-0.01,0.001-0.018,0-0.026,0c-2.607-0.028-3.995-3.728-5.745-8.411
		c-0.006-0.014-0.011-0.029-0.017-0.043c-0.802-2.146-2.111-5.656-2.979-6.424c-0.867,0.768-2.176,4.277-2.978,6.424
		c-0.004,0.01-0.008,0.021-0.012,0.031c-1.757,4.701-3.148,8.412-5.767,8.425c-0.004,0-0.006-0.001-0.012,0
		c-0.006-0.001-0.009,0-0.012,0c-2.622-0.013-4.014-3.738-5.775-8.453c-0.004-0.01-0.008-0.021-0.011-0.031
		c-0.802-2.149-2.104-5.633-2.968-6.398c-0.867,0.768-2.178,4.277-2.98,6.423c0,0,0,0,0,0c-0.002,0.004-0.003,0.009-0.005,0.013
		h0.001C4.071,21.382,2.864,24.6,1,25.596V41c0,3.313,2.687,6,6,6h34c3.313,0,6-2.688,6-6V18.637
		C46.859,18.263,46.717,17.885,46.572,17.496z"/>
</g>
</svg>
