<?xml version="1.0" encoding="utf-8"?>
<!-- Generator: Adobe Illustrator 16.0.0, SVG Export Plug-In . SVG Version: 6.00 Build 0)  -->
<!DOCTYPE svg PUBLIC "-//W3C//DTD SVG 1.1//EN" "http://www.w3.org/Graphics/SVG/1.1/DTD/svg11.dtd">
<svg version="1.1" id="Layer_1" xmlns="http://www.w3.org/2000/svg" xmlns:xlink="http://www.w3.org/1999/xlink" x="0px" y="0px"
	 width="48px" height="48px" viewBox="0 0 48 48" enable-background="new 0 0 48 48" xml:space="preserve">
<g id="Layer_1_1_" display="none">
	<path display="inline" d="M47,41c0,3.313-2.688,6-6,6H7c-3.313,0-6-2.688-6-6V7c0-3.313,2.687-6,6-6h34c3.313,0,6,2.687,6,6V41z"/>
	<path display="inline" fill="none" stroke="#FFFFFF" stroke-width="6" d="M24,9.328c0,4.971-4.029,9-9,9H-0.605
		c-4.971,0-9-4.029-9-9V-9.328c0-4.971,4.029-9,9-9H15c4.971,0,9,4.029,9,9V9.328z"/>
	<path display="inline" fill="none" stroke="#FFFFFF" stroke-width="6" d="M24,57.328c0,4.971-4.029,9-9,9H-0.605
		c-4.971,0-9-4.029-9-9V38.672c0-4.971,4.029-9,9-9H15c4.971,0,9,4.029,9,9V57.328z"/>
</g>
<g>
	<path d="M41,1H28v8.328c0,6.617-5.383,12-12,12H1v5.344h15c6.617,0,12,5.383,12,12V47h13c3.313,0,6-2.688,6-6V7
		C47,3.687,44.313,1,41,1z"/>
	<path d="M16,32.672H1V41c0,3.313,2.687,6,6,6h15v-8.328C22,35.363,19.309,32.672,16,32.672z"/>
	<path d="M22,9.328V1H7C3.687,1,1,3.687,1,7v8.328h15C19.309,15.328,22,12.636,22,9.328z"/>
</g>
</svg>
