<?xml version="1.0" encoding="utf-8"?>
<!-- Generator: Adobe Illustrator 16.0.0, SVG Export Plug-In . SVG Version: 6.00 Build 0)  -->
<!DOCTYPE svg PUBLIC "-//W3C//DTD SVG 1.1//EN" "http://www.w3.org/Graphics/SVG/1.1/DTD/svg11.dtd">
<svg version="1.1" id="Layer_1" xmlns="http://www.w3.org/2000/svg" xmlns:xlink="http://www.w3.org/1999/xlink" x="0px" y="0px"
	 width="48px" height="48px" viewBox="0 0 48 48" enable-background="new 0 0 48 48" xml:space="preserve">
<g id="x">
</g>
<path d="M41,1H7C3.687,1,1,3.687,1,7v34c0,3.313,2.687,6,6,6h34c3.313,0,6-2.688,6-6V7C47,3.687,44.313,1,41,1z M19.996,38.5
	c0,1.381-1.119,2.5-2.5,2.5s-2.5-1.119-2.5-2.5V8.984c0-1.381,1.119-2.5,2.5-2.5s2.5,1.119,2.5,2.5V38.5z M17.496,28.019
	c-1.381,0-2.5-1.12-2.5-2.5s1.119-2.5,2.5-2.5s2.5,1.12,2.5,2.5S18.877,28.019,17.496,28.019z M29.996,38.5
	c0,1.381-1.119,2.5-2.5,2.5s-2.5-1.119-2.5-2.5V8.984c0-1.381,1.119-2.5,2.5-2.5s2.5,1.119,2.5,2.5V38.5z M37.504,31.021
	c-1.381,0-2.5-1.12-2.5-2.5s1.119-2.5,2.5-2.5s2.5,1.12,2.5,2.5S38.885,31.021,37.504,31.021z M40.004,38.5
	c0,1.381-1.119,2.5-2.5,2.5s-2.5-1.119-2.5-2.5V8.984c0-1.381,1.119-2.5,2.5-2.5s2.5,1.119,2.5,2.5V38.5z M27.496,23.016
	c-1.381,0-2.5-1.12-2.5-2.5s1.119-2.5,2.5-2.5s2.5,1.12,2.5,2.5S28.877,23.016,27.496,23.016z"/>
</svg>
