<?xml version="1.0" encoding="utf-8"?>
<!-- Generator: Adobe Illustrator 16.0.0, SVG Export Plug-In . SVG Version: 6.00 Build 0)  -->
<!DOCTYPE svg PUBLIC "-//W3C//DTD SVG 1.1//EN" "http://www.w3.org/Graphics/SVG/1.1/DTD/svg11.dtd">
<svg version="1.1" xmlns="http://www.w3.org/2000/svg" xmlns:xlink="http://www.w3.org/1999/xlink" x="0px" y="0px" width="48px"
	 height="48px" viewBox="0 0 48 48" enable-background="new 0 0 48 48" xml:space="preserve">
<g id="x">
</g>
<g id="Layer_1" display="none">
	<path display="inline" d="M47,41c0,3.313-2.688,6-6,6H7c-3.313,0-6-2.688-6-6V7c0-3.313,2.687-6,6-6h34c3.313,0,6,2.687,6,6V41z"/>
	<line display="inline" stroke="#FFFFFF" stroke-width="4" x1="-2.085" y1="35.585" x2="51.918" y2="35.585"/>
	<g display="inline">
		<line x1="-3.085" y1="17.585" x2="50.918" y2="17.585"/>
		<g>
			<line fill="none" stroke="#FFFFFF" stroke-width="4" x1="-3.085" y1="17.585" x2="-0.585" y2="17.585"/>
			
				<line fill="none" stroke="#FFFFFF" stroke-width="4" stroke-dasharray="5.0003,4.0003" x1="3.415" y1="17.585" x2="46.418" y2="17.585"/>
			<line fill="none" stroke="#FFFFFF" stroke-width="4" x1="48.418" y1="17.585" x2="50.918" y2="17.585"/>
		</g>
	</g>
</g>
<g id="Compound">
	<g>
		<path d="M47,33.585V7c0-3.313-2.688-6-6-6H7C3.687,1,1,3.687,1,7v26.585H47z M39.418,15.585h5v4h-5V15.585z M30.417,15.585h5v4h-5
			V15.585z M21.417,15.585h5v4h-5V15.585z M12.416,15.585h5v4h-5V15.585z M3.415,15.585h5v4h-5V15.585z"/>
		<path d="M1,37.585V41c0,3.313,2.687,6,6,6h34c3.313,0,6-2.688,6-6v-3.415H1z"/>
	</g>
</g>
</svg>
