<?xml version="1.0" encoding="utf-8"?>
<!-- Generator: Adobe Illustrator 16.0.0, SVG Export Plug-In . SVG Version: 6.00 Build 0)  -->
<!DOCTYPE svg PUBLIC "-//W3C//DTD SVG 1.1//EN" "http://www.w3.org/Graphics/SVG/1.1/DTD/svg11.dtd">
<svg version="1.1" xmlns="http://www.w3.org/2000/svg" xmlns:xlink="http://www.w3.org/1999/xlink" x="0px" y="0px" width="48px"
	 height="48px" viewBox="0 0 48 48" enable-background="new 0 0 48 48" xml:space="preserve">
<g id="Layer_1" display="none">
	<path display="inline" d="M47,41c0,3.313-2.687,6-6,6H7c-3.313,0-6-2.687-6-6V7c0-3.313,2.687-6,6-6h34c3.313,0,6,2.687,6,6V41z"/>
	<text transform="matrix(1 0 0 1 8.8398 22.1665)" display="inline" fill="#FFFFFF" font-family="'MyriadPro-Bold'" font-size="24">0</text>
	
		<text transform="matrix(1 0 0 1 24.8398 22.1665)" display="inline" fill="#FFFFFF" font-family="'MyriadPro-Bold'" font-size="24">1</text>
	<text transform="matrix(1 0 0 1 25.3398 41.166)" display="inline" fill="#FFFFFF" font-family="'MyriadPro-Bold'" font-size="24">0</text>
	<text transform="matrix(1 0 0 1 8.3398 41.166)" display="inline" fill="#FFFFFF" font-family="'MyriadPro-Bold'" font-size="24">1</text>
</g>
<g id="Combined">
	<g>
		<path d="M32.013,28.062c-1.345,0-2.257,1.704-2.232,5.328c-0.024,3.577,0.84,5.28,2.256,5.28s2.185-1.775,2.185-5.328
			C34.221,29.886,33.477,28.062,32.013,28.062z"/>
		<path d="M41,1H7C3.687,1,1,3.687,1,7v34c0,3.313,2.687,6,6,6h34c3.313,0,6-2.687,6-6V7C47,3.687,44.313,1,41,1z M31.009,7H34v15
			h-3V10h-0.544l-2.976,1.428L26.88,8.703L31.009,7z M18,41h-4V29h-0.044l-2.976,1.428l-0.601-2.725L14.509,26H18V41z M15.44,22.431
			c-4.032,0-5.809-3.625-5.833-8.041c0-4.512,1.921-8.088,5.953-8.088c4.176,0,5.809,3.72,5.809,7.993
			C21.369,19.118,19.425,22.431,15.44,22.431z M31.94,41.431c-4.032,0-5.809-3.624-5.833-8.041c0-4.513,1.921-8.089,5.953-8.089
			c4.176,0,5.809,3.721,5.809,7.993C37.869,38.118,35.925,41.431,31.94,41.431z"/>
		<path d="M15.513,9.062c-1.345,0-2.257,1.704-2.232,5.328c-0.024,3.577,0.84,5.281,2.256,5.281s2.185-1.776,2.185-5.329
			C17.721,10.886,16.977,9.062,15.513,9.062z"/>
	</g>
</g>
</svg>
