<?xml version="1.0" encoding="utf-8"?>
<!-- Generator: Adobe Illustrator 16.0.0, SVG Export Plug-In . SVG Version: 6.00 Build 0)  -->
<!DOCTYPE svg PUBLIC "-//W3C//DTD SVG 1.1//EN" "http://www.w3.org/Graphics/SVG/1.1/DTD/svg11.dtd">
<svg version="1.1" id="Layer_1" xmlns="http://www.w3.org/2000/svg" xmlns:xlink="http://www.w3.org/1999/xlink" x="0px" y="0px"
	 width="24px" height="24px" viewBox="0 0 24 24" enable-background="new 0 0 24 24" xml:space="preserve">
<path d="M20.953,7.993L20.949,4c0-1.1-0.891-2-1.99-2h-4h-3h-3c-1.1,0-1.99,0.9-1.99,2h1.99h4h1h5h0.006v16h0.004
	c1.1,0,1.99-0.9,1.99-2V8L20.953,7.993z"/>
<path d="M17.993,10.993L17.99,7c0-1.1-0.891-2-1.99-2h-4H9H6C4.9,5,4.01,5.9,4.01,7l-0.003,3.993L4,11v10c0,1.1,0.891,2,1.99,2H6h10
	h0.01c1.1,0,1.99-0.9,1.99-2V11L17.993,10.993z M16,12v9H6v-9V7h4h1h5V12z"/>
<rect x="8" y="9" width="6" height="2"/>
<circle cx="11" cy="15.859" r="2"/>
</svg>
