<?xml version="1.0" encoding="UTF-8" standalone="no"?>
<svg
   height="48"
   viewBox="0 -960 960 960"
   width="48"
   version="1.1"
   id="svg20"
   sodipodi:docname="folder.svg"
   inkscape:version="1.2.2 (732a01da63, 2022-12-09, custom)"
   xmlns:inkscape="http://www.inkscape.org/namespaces/inkscape"
   xmlns:sodipodi="http://sodipodi.sourceforge.net/DTD/sodipodi-0.dtd"
   xmlns="http://www.w3.org/2000/svg"
   xmlns:svg="http://www.w3.org/2000/svg">
  <defs
     id="defs24" />
  <sodipodi:namedview
     id="namedview22"
     pagecolor="#ffffff"
     bordercolor="#000000"
     borderopacity="0.25"
     inkscape:showpageshadow="2"
     inkscape:pageopacity="0.0"
     inkscape:pagecheckerboard="0"
     inkscape:deskcolor="#d1d1d1"
     showgrid="false"
     inkscape:zoom="1"
     inkscape:cx="23"
     inkscape:cy="18"
     inkscape:window-width="1920"
     inkscape:window-height="1007"
     inkscape:window-x="1440"
     inkscape:window-y="0"
     inkscape:window-maximized="1"
     inkscape:current-layer="svg20" />
  <path
     d="m 140,-160 c -16,0 -30,-6.16667 -42,-18.5 -12,-12.33333 -18,-26.16667 -18,-41.5 v -520 c 0,-15.33333 6,-29.16667 18,-41.5 12,-12.33333 26,-18.5 42,-18.5 h 281 l 60,60 h 339 c 15.33333,0 29.16667,6.16667 41.5,18.5 12.33333,12.33333 18.5,26.16667 18.5,41.5 v 460 c 0,15.33333 -6.16667,29.16667 -18.5,41.5 -12.33333,12.33333 -26.16667,18.5 -41.5,18.5 z m 0,-60 H 820 V -680 H 536 L 480,-637.98967 140,-640 Z"
     id="path18"
     sodipodi:nodetypes="ssssssccsssssssccccccc" />
</svg>
