<?xml version="1.0" encoding="UTF-8" standalone="no"?>
<svg
   height="48"
   viewBox="0 -960 960 960"
   width="48"
   version="1.1"
   id="svg20"
   sodipodi:docname="music2"
   inkscape:version="1.2.2 (732a01da63, 2022-12-09, custom)"
   xmlns:inkscape="http://www.inkscape.org/namespaces/inkscape"
   xmlns:sodipodi="http://sodipodi.sourceforge.net/DTD/sodipodi-0.dtd"
   xmlns="http://www.w3.org/2000/svg"
   xmlns:svg="http://www.w3.org/2000/svg">
  <defs
     id="defs24" />
  <sodipodi:namedview
     id="namedview22"
     pagecolor="#ffffff"
     bordercolor="#000000"
     borderopacity="0.25"
     inkscape:showpageshadow="2"
     inkscape:pageopacity="0.0"
     inkscape:pagecheckerboard="0"
     inkscape:deskcolor="#d1d1d1"
     showgrid="false"
     inkscape:zoom="6.8685062"
     inkscape:cx="63.769324"
     inkscape:cy="49.428506"
     inkscape:window-width="1920"
     inkscape:window-height="972"
     inkscape:window-x="0"
     inkscape:window-y="27"
     inkscape:window-maximized="1"
     inkscape:current-layer="svg20" />
  <path
     id="path18"
     d="m 363.00781,-840 v 450 c -11.33332,-9.33332 -24.4922,-16.65886 -39.49219,-21.99219 C 308.51564,-417.32551 291.67446,-420 273.00781,-420 c -41.99996,0 -77.52346,14.51565 -106.52343,43.51562 -28.99998,28.99998 -43.47657,64.48442 -43.47657,106.48438 0,41.99996 14.47659,77.4844 43.47657,106.48438 28.99997,28.99997 64.52347,43.51562 106.52343,43.51562 41.99996,0 77.48441,-14.51565 106.48438,-43.51562 28.99997,-28.99998 43.51562,-64.48442 43.51562,-106.48438 v -435 h 354.6875 v 246.91406 c -11.33332,-9.33332 -24.4922,-16.65886 -39.49219,-21.99218 -14.99998,-5.33333 -31.84116,-8.00782 -50.50781,-8.00782 -41.99996,0 -77.52346,14.51566 -106.52343,43.51563 -28.99998,28.99997 -43.47657,64.48441 -43.47657,106.48437 0,41.99996 14.47659,77.48441 43.47657,106.48438 28.99997,28.99997 64.52347,43.51562 106.52343,43.51562 41.99996,0 77.48441,-14.51565 106.48438,-43.51562 28.99997,-28.99997 43.52086,-64.48442 43.52031,-106.48438 V -840 Z"
     sodipodi:nodetypes="ccsssssssscccsssssssccc" />
</svg>
