<?xml version="1.0" encoding="UTF-8" standalone="no"?>
<svg
   height="48"
   viewBox="0 -960 960 960"
   width="48"
   version="1.1"
   id="svg27"
   xmlns="http://www.w3.org/2000/svg"
   xmlns:svg="http://www.w3.org/2000/svg">
  <defs
     id="defs31" />
  <path
     id="path291"
     style="stroke-width:0.959979"
     d="m 87.019875,-453.25845 c -10.860928,-10.86093 -16.291391,-24.43709 -16.291391,-40.72848 0,-16.29139 5.430463,-29.86755 16.291391,-40.72848 L 440,-887.69553 c 10.86093,-10.86093 24.43709,-16.2914 40.72848,-16.2914 16.29139,0 29.86755,5.43047 40.72848,16.2914 l 352.98013,352.98012 c 10.86092,10.86093 16.29139,24.43709 16.29139,40.72848 0,16.29139 -5.43047,29.86755 -16.29139,40.72848 l -352.98013,352.98013 c -10.86093,10.86093 -24.43709,16.29139 -40.72848,16.29139 -16.29139,0 -29.86755,-5.43046 -40.72848,-16.29139 z m 40.728475,-40.72848 352.98013,352.98014 352.98014,-352.98014 -352.98014,-352.98013 z M 440,-887.69553 72.304474,-520 Z" />
  <path
     id="path25"
     d="m 286.65411,-351.42376 48.9557,48.09359 55.94938,-37.78782 c 15.15295,8.01559 29.4317,13.45476 42.83624,16.31747 13.40453,2.86271 27.10046,4.29407 41.08781,4.29407 l 37.59099,69.56393 69.93671,-24.04679 -14.86155,-66.12868 c 14.57014,-9.73322 27.10048,-19.75273 37.59099,-30.0585 10.49049,-10.30577 20.68961,-22.61543 30.59731,-36.929 l 67.31411,14.59984 24.4778,-68.70515 -70.8109,-36.929 c 0,-13.74103 -1.45701,-27.19579 -4.37104,-40.36427 -2.91402,-13.16848 -8.45069,-27.19578 -16.60997,-42.08189 l 38.4652,-54.9641 -48.9557,-48.09359 -55.94938,37.78782 c -15.15296,-8.0156 -29.43171,-13.45476 -42.83625,-16.31747 -13.40453,-2.86271 -27.10046,-4.29408 -41.08781,-4.29408 l -37.59098,-69.56394 -69.93671,24.04679 14.86154,66.12869 c -14.57014,9.73323 -27.10048,19.75273 -37.59098,30.0585 -10.4905,10.30577 -20.68962,22.61543 -30.59733,36.92899 l -67.31408,-14.59983 -24.47784,68.70513 70.81092,36.92901 c 0,13.74103 1.45702,27.19578 4.37104,40.36427 2.91403,13.16848 8.45069,27.1958 16.60996,42.0819 z m 119.76663,-69.56394 c -20.98102,-20.61155 -31.47152,-44.94463 -31.47152,-72.99922 0,-28.05458 10.4905,-52.38766 31.47152,-72.99919 20.98102,-20.61155 45.75027,-30.91732 74.30776,-30.91732 28.55749,0 53.32674,10.30577 74.30776,30.91732 20.98102,20.61153 31.47152,44.94461 31.47152,72.99919 0,28.05459 -10.4905,52.38767 -31.47152,72.99922 -20.98102,20.61153 -45.75027,30.9173 -74.30776,30.9173 -28.5575,0 -53.32674,-10.30577 -74.30776,-30.9173 z"
     style="stroke-width:1.22538" />
</svg>
