<?xml version="1.0" encoding="UTF-8" standalone="no"?>
<!-- Created with Inkscape (http://www.inkscape.org/) -->

<svg
   width="5in"
   height="3in"
   viewBox="0 0 127 76.2"
   version="1.1"
   id="svg5"
   inkscape:version="1.2.2 (b0a8486541, 2022-12-01)"
   sodipodi:docname="calibration-physical.svg"
   xml:space="preserve"
   xmlns:inkscape="http://www.inkscape.org/namespaces/inkscape"
   xmlns:sodipodi="http://sodipodi.sourceforge.net/DTD/sodipodi-0.dtd"
   xmlns:xlink="http://www.w3.org/1999/xlink"
   xmlns="http://www.w3.org/2000/svg"
   xmlns:svg="http://www.w3.org/2000/svg"><sodipodi:namedview
     id="namedview7"
     pagecolor="#ffffff"
     bordercolor="#000000"
     borderopacity="0.25"
     inkscape:showpageshadow="2"
     inkscape:pageopacity="0.0"
     inkscape:pagecheckerboard="0"
     inkscape:deskcolor="#d1d1d1"
     inkscape:document-units="mm"
     showgrid="false"
     inkscape:zoom="1"
     inkscape:cx="216"
     inkscape:cy="278.5"
     inkscape:window-width="1867"
     inkscape:window-height="1011"
     inkscape:window-x="0"
     inkscape:window-y="0"
     inkscape:window-maximized="1"
     inkscape:current-layer="layer1" /><defs
     id="defs2"><marker
       style="overflow:visible"
       id="Arrow1"
       refX="0"
       refY="0"
       orient="auto-start-reverse"
       inkscape:stockid="Arrow1"
       markerWidth="4.0606604"
       markerHeight="6.7071066"
       viewBox="0 0 4.0606602 6.7071068"
       inkscape:isstock="true"
       inkscape:collect="always"
       preserveAspectRatio="xMidYMid"><path
         style="fill:none;stroke:context-stroke;stroke-width:1;stroke-linecap:butt"
         d="M 3,-3 0,0 3,3"
         id="path5057"
         transform="rotate(180,0.125,0)"
         sodipodi:nodetypes="ccc" /></marker><radialGradient
       gradientUnits="userSpaceOnUse"
       gradientTransform="matrix(0.00861999,-0.00574666,0.00431,0.006465,24.743123,48.93042)"
       r="702"
       fy="2081.7339"
       fx="439.60104"
       cy="2081.7339"
       cx="439.60104"
       id="radialGradient3983"
       xlink:href="#linearGradient3977" /><linearGradient
       id="linearGradient3977"><stop
         id="stop3979"
         offset="0"
         style="stop-color:#fbfbfa;stop-opacity:1;" /><stop
         id="stop3981"
         offset="1"
         style="stop-color:#29221e;stop-opacity:1" /></linearGradient><radialGradient
       r="51.998943"
       fy="2069.8623"
       fx="1095"
       cy="2069.8623"
       cx="1095"
       gradientTransform="matrix(0.00969768,0,0,0.00969771,29.659274,33.462958)"
       gradientUnits="userSpaceOnUse"
       id="radialGradient5234"
       xlink:href="#linearGradient5242" /><linearGradient
       id="linearGradient5242"><stop
         style="stop-color:#ffffff;stop-opacity:1"
         offset="0"
         id="stop5244" /><stop
         style="stop-color:#f2f2f2;stop-opacity:1"
         offset="1"
         id="stop5246" /></linearGradient><radialGradient
       r="51.998943"
       fy="2069.8623"
       fx="1095"
       cy="2069.8623"
       cx="1095"
       gradientTransform="matrix(0.00969768,0,0,0.00969771,31.928488,28.420262)"
       gradientUnits="userSpaceOnUse"
       id="radialGradient5230"
       xlink:href="#linearGradient5242" /><radialGradient
       r="51.998943"
       fy="2069.8623"
       fx="1095"
       cy="2069.8623"
       cx="1095"
       gradientTransform="matrix(0.00969768,0,0,0.00969771,29.659274,30.059137)"
       gradientUnits="userSpaceOnUse"
       id="radialGradient5226"
       xlink:href="#linearGradient5242" /><linearGradient
       gradientUnits="userSpaceOnUse"
       y2="1249.8622"
       x2="915"
       y1="1249.8622"
       x1="695"
       id="linearGradient4844"
       xlink:href="#linearGradient4838"
       gradientTransform="matrix(0.01260674,0,0,0.01260674,28.743062,28.977804)" /><linearGradient
       id="linearGradient4838"><stop
         id="stop4840"
         offset="0"
         style="stop-color:#dddddd;stop-opacity:1" /><stop
         id="stop4842"
         offset="1"
         style="stop-color:#eeeeee;stop-opacity:1" /></linearGradient><radialGradient
       gradientTransform="matrix(0.00969768,0,0,0.00969771,31.928488,31.824081)"
       gradientUnits="userSpaceOnUse"
       r="51.998943"
       fy="2069.8623"
       fx="1095"
       cy="2069.8623"
       cx="1095"
       id="radialGradient5222"
       xlink:href="#linearGradient5242" /><linearGradient
       gradientTransform="matrix(0.01260674,0,0,0.01260674,31.26441,28.977804)"
       gradientUnits="userSpaceOnUse"
       y2="899.86218"
       x2="55"
       y1="869.86218"
       x1="55"
       id="linearGradient4216"
       xlink:href="#linearGradient4218" /><linearGradient
       id="linearGradient4218"><stop
         style="stop-color:#fff6d5;stop-opacity:1"
         offset="0"
         id="stop4220" /><stop
         style="stop-color:#fff6d5;stop-opacity:0"
         offset="1"
         id="stop4222" /></linearGradient></defs><g
     inkscape:label="Layer 1"
     inkscape:groupmode="layer"
     id="layer1"><path
       id="path3774"
       d="m 34.479129,33.617244 c -2.395281,0 -4.412359,1.260674 -4.664494,3.403819 -0.252135,2.143146 2.143146,3.529888 1.134607,5.546966 -1.00854,2.017078 -3.782023,3.782022 -3.782023,7.816179 0,4.034157 3.025618,7.311909 8.824718,7.311909 5.799101,0 8.824719,-3.277752 8.824719,-7.311909 0,-4.034157 -2.773483,-5.799101 -3.782023,-7.816179 -1.008539,-2.017078 0.252135,-2.269213 0.756405,-4.034157 0.504269,-1.764943 0,-3.277752 -0.756405,-2.017078 -0.756404,1.260674 -2.017078,1.008539 -2.773482,0.504269 -0.756405,-0.504269 -0.756405,-1.008539 -0.756405,-3.403819 z"
       style="fill:#000000;fill-opacity:1;stroke:#000000;stroke-width:0.5;stroke-linecap:butt;stroke-linejoin:miter;stroke-miterlimit:4;stroke-dasharray:none;stroke-opacity:1" /><path
       style="fill:url(#radialGradient5234);fill-opacity:1;stroke:#000000;stroke-width:0.050427;stroke-linejoin:miter;stroke-miterlimit:4;stroke-dasharray:none;stroke-opacity:1"
       d="m 40.824117,53.851063 c -0.174062,0.301485 -0.559571,0.404782 -0.861056,0.230719 -0.301486,-0.174062 -0.404783,-0.559571 -0.23072,-0.861056 0.174062,-0.301486 0.559571,-0.404783 0.861057,-0.23072 0.301485,0.174062 0.404782,0.559571 0.230719,0.861057 z"
       id="path5232" /><path
       style="fill:url(#radialGradient5230);fill-opacity:1;stroke:#000000;stroke-width:0.050427;stroke-linejoin:miter;stroke-miterlimit:4;stroke-dasharray:none;stroke-opacity:1"
       d="m 43.093331,48.808367 c -0.174063,0.301485 -0.559572,0.404782 -0.861057,0.230719 -0.301485,-0.174062 -0.404782,-0.559571 -0.23072,-0.861056 0.174063,-0.301486 0.559572,-0.404783 0.861057,-0.23072 0.301485,0.174062 0.404782,0.559571 0.23072,0.861057 z"
       id="path5228" /><path
       style="fill:url(#radialGradient5226);fill-opacity:1;stroke:#000000;stroke-width:0.050427;stroke-linejoin:miter;stroke-miterlimit:4;stroke-dasharray:none;stroke-opacity:1"
       d="m 40.824117,50.447241 c -0.174062,0.301486 -0.559571,0.404783 -0.861056,0.23072 -0.301486,-0.174062 -0.404783,-0.559571 -0.23072,-0.861057 0.174062,-0.301485 0.559571,-0.404782 0.861057,-0.230719 0.301485,0.174062 0.404782,0.559571 0.230719,0.861056 z"
       id="path5224" /><path
       style="fill:#21241f;fill-opacity:1;stroke:#000000;stroke-width:0.8;stroke-linecap:butt;stroke-linejoin:miter;stroke-miterlimit:4;stroke-dasharray:none;stroke-opacity:1"
       d="m 37.882948,7.5212935 c -0.252134,1.5128081 -0.126067,3.7820205 0,4.7905595 -0.504269,0.252135 -0.882471,0.756404 -0.882471,1.638876 h -2.017079 c 0,-0.882472 -0.378202,-1.386741 -0.882472,-1.638876 0.126068,-1.008539 0.252135,-3.2777514 0,-4.7905595 0.882472,0 1.386742,-0.5042697 1.891011,-0.2521347 0.50427,-0.252135 1.00854,0.2521347 1.891011,0.2521347 z"
       id="path3808" /><path
       id="path3776"
       d="m 34.479129,37.777468 h 3.025617 L 37.000477,14.202864 h -2.017079 z"
       style="fill:#ffffff;fill-opacity:1;stroke:#000000;stroke-width:0.8;stroke-linecap:butt;stroke-linejoin:miter;stroke-miterlimit:4;stroke-dasharray:none;stroke-opacity:1" /><path
       id="path3863"
       d="m 38.513286,49.879938 c 0.126067,0 0.252134,-0.126067 0.252134,-0.252135 0,-0.126067 0,-0.378202 0,-0.504269 0,-0.126068 -0.126067,-0.252135 -0.252134,-0.252135 H 33.47059 c -0.126068,0 -0.252135,0.126067 -0.252135,0.252135 0,0.126067 0,0.378202 0,0.504269 0,0.126068 0.126067,0.252135 0.252135,0.252135 z"
       style="fill:#ffffff;fill-opacity:1;stroke:#000000;stroke-width:0.050427;stroke-linecap:butt;stroke-linejoin:miter;stroke-miterlimit:4;stroke-dasharray:none;stroke-opacity:1" /><path
       id="path3874"
       d="m 43.093331,52.212185 c -0.174063,0.301485 -0.559572,0.404782 -0.861057,0.23072 -0.301485,-0.174063 -0.404782,-0.559572 -0.23072,-0.861057 0.174063,-0.301485 0.559572,-0.404782 0.861057,-0.23072 0.301485,0.174063 0.404782,0.559572 0.23072,0.861057 z"
       style="fill:url(#radialGradient5222);fill-opacity:1;stroke:#000000;stroke-width:0.050427;stroke-linejoin:miter;stroke-miterlimit:4;stroke-dasharray:none;stroke-opacity:1" /><path
       style="fill:#ffffff;fill-opacity:1;fill-rule:evenodd;stroke:#000000;stroke-width:0.050427;stroke-linecap:butt;stroke-linejoin:miter;stroke-miterlimit:4;stroke-dasharray:none;stroke-opacity:1"
       d="m 34.100926,43.702636 h 3.782022 c 0.252135,0 0.378203,0.126067 0.378203,0.252134 v 1.891011 c 0,0.126068 -0.126068,0.252135 -0.378203,0.252135 h -3.782022 c -0.252134,0 -0.378202,-0.126067 -0.378202,-0.252135 V 43.95477 c 0,-0.126067 0.126068,-0.252134 0.378202,-0.252134 z"
       id="path4345" /><path
       id="path4308"
       d="m 37.882948,37.399266 a 0.1260674,0.1260674 0 0 1 -0.126067,0.126067 0.1260674,0.1260674 0 0 1 -0.126067,-0.126067 0.1260674,0.1260674 0 0 1 0.126067,-0.126068 0.1260674,0.1260674 0 0 1 0.126067,0.126068 z"
       style="fill:#ffc900;fill-opacity:1;stroke:#000000;stroke-width:0.050427;stroke-miterlimit:4;stroke-dasharray:none;stroke-opacity:1" /><g
       style="stroke-width:2;stroke-miterlimit:4;stroke-dasharray:none"
       id="g31519"
       transform="matrix(0.01260674,0,0,0.01260674,21.431153,30.845498)"><path
         id="path31521"
         d="m 1495,1749.8622 v 10"
         style="fill:none;fill-rule:evenodd;stroke:#000000;stroke-width:2;stroke-linecap:butt;stroke-linejoin:miter;stroke-miterlimit:4;stroke-dasharray:none;stroke-opacity:1" /><path
         id="path31523"
         d="m 1495,1849.8622 v -10"
         style="fill:none;fill-rule:evenodd;stroke:#000000;stroke-width:2;stroke-linecap:butt;stroke-linejoin:miter;stroke-miterlimit:4;stroke-dasharray:none;stroke-opacity:1" /><path
         style="fill:none;fill-rule:evenodd;stroke:#000000;stroke-width:2;stroke-linecap:butt;stroke-linejoin:miter;stroke-miterlimit:4;stroke-dasharray:none;stroke-opacity:1"
         d="m 1470,1756.5609 5,8.6603"
         id="path31525" /><path
         style="fill:none;fill-rule:evenodd;stroke:#000000;stroke-width:2;stroke-linecap:butt;stroke-linejoin:miter;stroke-miterlimit:4;stroke-dasharray:none;stroke-opacity:1"
         d="m 1520,1843.1635 -5,-8.6603"
         id="path31527" /><path
         id="path31529"
         d="m 1451.6987,1774.8622 8.6603,5"
         style="fill:none;fill-rule:evenodd;stroke:#000000;stroke-width:2;stroke-linecap:butt;stroke-linejoin:miter;stroke-miterlimit:4;stroke-dasharray:none;stroke-opacity:1" /><path
         id="path31531"
         d="m 1538.3013,1824.8622 -8.6603,-5"
         style="fill:none;fill-rule:evenodd;stroke:#000000;stroke-width:2;stroke-linecap:butt;stroke-linejoin:miter;stroke-miterlimit:4;stroke-dasharray:none;stroke-opacity:1" /><path
         style="fill:none;fill-rule:evenodd;stroke:#000000;stroke-width:2;stroke-linecap:butt;stroke-linejoin:miter;stroke-miterlimit:4;stroke-dasharray:none;stroke-opacity:1"
         d="m 1545,1799.8622 h -10"
         id="path31535" /><path
         id="path31537"
         d="m 1451.6987,1824.8622 8.6603,-5"
         style="fill:none;fill-rule:evenodd;stroke:#000000;stroke-width:2;stroke-linecap:butt;stroke-linejoin:miter;stroke-miterlimit:4;stroke-dasharray:none;stroke-opacity:1" /><path
         id="path31539"
         d="m 1538.3013,1774.8622 -8.6603,5"
         style="fill:none;fill-rule:evenodd;stroke:#000000;stroke-width:2;stroke-linecap:butt;stroke-linejoin:miter;stroke-miterlimit:4;stroke-dasharray:none;stroke-opacity:1" /><path
         style="fill:none;fill-rule:evenodd;stroke:#000000;stroke-width:2;stroke-linecap:butt;stroke-linejoin:miter;stroke-miterlimit:4;stroke-dasharray:none;stroke-opacity:1"
         d="m 1470,1843.1635 5,-8.6603"
         id="path31541" /><path
         style="fill:none;fill-rule:evenodd;stroke:#000000;stroke-width:2;stroke-linecap:butt;stroke-linejoin:miter;stroke-miterlimit:4;stroke-dasharray:none;stroke-opacity:1"
         d="m 1520,1756.5609 -5,8.6603"
         id="path31543" /></g><g
       id="g6109"
       transform="matrix(0.41779014,0,0,0.41779014,83.340472,12.51928)"><path
         d="M 85,12.5 H 69.232 C 58.347,2.495 41.653,2.495 30.768,12.5 H 15 c -2.757,0 -5,2.243 -5,5 v 70 c 0,2.757 2.243,5 5,5 h 2.5 v 1.25 c 0,0.69 0.56,1.25 1.25,1.25 h 2.5 c 0.69,0 1.25,-0.56 1.25,-1.25 V 92.5 h 55 v 1.25 c 0,0.69 0.56,1.25 1.25,1.25 h 2.5 c 0.69,0 1.25,-0.56 1.25,-1.25 V 92.5 H 85 c 2.757,0 5,-2.243 5,-5 v -70 c 0,-2.757 -2.243,-5 -5,-5 z m -19.731,0 H 34.731 c 9.088,-6.646 21.45,-6.646 30.538,0 z M 85,87.5 H 15 V 35 h 70 z m 0,-55 H 15 v -15 h 70 z"
         stroke="none"
         id="path5809" /><path
         d="m 48.75,75 h 2.5 c 0.69,0 1.25,-0.56 1.25,-1.25 0,-0.69 -0.56,-1.25 -1.25,-1.25 h -2.5 c -0.69,0 -1.25,0.56 -1.25,1.25 0,0.69 0.56,1.25 1.25,1.25 z"
         stroke="none"
         id="path5811" /><path
         d="m 56.25,75 h 2.5 C 59.44,75 60,74.44 60,73.75 60,73.06 59.44,72.5 58.75,72.5 h -2.5 C 55.56,72.5 55,73.06 55,73.75 55,74.44 55.56,75 56.25,75 Z"
         stroke="none"
         id="path5813" /><path
         d="m 63.75,75 h 2.5 c 0.69,0 1.25,-0.56 1.25,-1.25 0,-0.69 -0.56,-1.25 -1.25,-1.25 h -2.5 c -0.69,0 -1.25,0.56 -1.25,1.25 0,0.69 0.56,1.25 1.25,1.25 z"
         stroke="none"
         id="path5815" /><path
         d="m 71.25,75 h 2.5 C 74.44,75 75,74.44 75,73.75 75,73.06 74.44,72.5 73.75,72.5 h -2.5 C 70.56,72.5 70,73.06 70,73.75 70,74.44 70.56,75 71.25,75 Z"
         stroke="none"
         id="path5817" /><path
         d="m 78.75,75 h 2.5 c 0.69,0 1.25,-0.56 1.25,-1.25 0,-0.69 -0.56,-1.25 -1.25,-1.25 h -2.5 c -0.69,0 -1.25,0.56 -1.25,1.25 0,0.69 0.56,1.25 1.25,1.25 z"
         stroke="none"
         id="path5819" /><path
         d="m 48.75,80 h 2.5 c 0.69,0 1.25,-0.56 1.25,-1.25 0,-0.69 -0.56,-1.25 -1.25,-1.25 h -2.5 c -0.69,0 -1.25,0.56 -1.25,1.25 0,0.69 0.56,1.25 1.25,1.25 z"
         stroke="none"
         id="path5821" /><path
         d="m 56.25,80 h 2.5 C 59.44,80 60,79.44 60,78.75 60,78.06 59.44,77.5 58.75,77.5 h -2.5 C 55.56,77.5 55,78.06 55,78.75 55,79.44 55.56,80 56.25,80 Z"
         stroke="none"
         id="path5823" /><path
         d="m 63.75,80 h 2.5 c 0.69,0 1.25,-0.56 1.25,-1.25 0,-0.69 -0.56,-1.25 -1.25,-1.25 h -2.5 c -0.69,0 -1.25,0.56 -1.25,1.25 0,0.69 0.56,1.25 1.25,1.25 z"
         stroke="none"
         id="path5825" /><path
         d="m 71.25,80 h 2.5 C 74.44,80 75,79.44 75,78.75 75,78.06 74.44,77.5 73.75,77.5 h -2.5 C 70.56,77.5 70,78.06 70,78.75 70,79.44 70.56,80 71.25,80 Z"
         stroke="none"
         id="path5827" /><path
         d="m 78.75,80 h 2.5 c 0.69,0 1.25,-0.56 1.25,-1.25 0,-0.69 -0.56,-1.25 -1.25,-1.25 h -2.5 c -0.69,0 -1.25,0.56 -1.25,1.25 0,0.69 0.56,1.25 1.25,1.25 z"
         stroke="none"
         id="path5829" /><path
         d="m 48.75,85 h 2.5 c 0.69,0 1.25,-0.56 1.25,-1.25 0,-0.69 -0.56,-1.25 -1.25,-1.25 h -2.5 c -0.69,0 -1.25,0.56 -1.25,1.25 0,0.69 0.56,1.25 1.25,1.25 z"
         stroke="none"
         id="path5831" /><path
         d="m 56.25,85 h 2.5 C 59.44,85 60,84.44 60,83.75 60,83.06 59.44,82.5 58.75,82.5 h -2.5 C 55.56,82.5 55,83.06 55,83.75 55,84.44 55.56,85 56.25,85 Z"
         stroke="none"
         id="path5833" /><path
         d="m 63.75,85 h 2.5 c 0.69,0 1.25,-0.56 1.25,-1.25 0,-0.69 -0.56,-1.25 -1.25,-1.25 h -2.5 c -0.69,0 -1.25,0.56 -1.25,1.25 0,0.69 0.56,1.25 1.25,1.25 z"
         stroke="none"
         id="path5835" /><path
         d="m 71.25,85 h 2.5 C 74.44,85 75,84.44 75,83.75 75,83.06 74.44,82.5 73.75,82.5 h -2.5 C 70.56,82.5 70,83.06 70,83.75 70,84.44 70.56,85 71.25,85 Z"
         stroke="none"
         id="path5837" /><path
         d="m 78.75,85 h 2.5 c 0.69,0 1.25,-0.56 1.25,-1.25 0,-0.69 -0.56,-1.25 -1.25,-1.25 h -2.5 c -0.69,0 -1.25,0.56 -1.25,1.25 0,0.69 0.56,1.25 1.25,1.25 z"
         stroke="none"
         id="path5839" /><path
         d="m 48.75,55 h 2.5 c 0.69,0 1.25,-0.56 1.25,-1.25 0,-0.69 -0.56,-1.25 -1.25,-1.25 h -2.5 c -0.69,0 -1.25,0.56 -1.25,1.25 0,0.69 0.56,1.25 1.25,1.25 z"
         stroke="none"
         id="path5841" /><path
         d="m 56.25,55 h 2.5 C 59.44,55 60,54.44 60,53.75 60,53.06 59.44,52.5 58.75,52.5 h -2.5 C 55.56,52.5 55,53.06 55,53.75 55,54.44 55.56,55 56.25,55 Z"
         stroke="none"
         id="path5843" /><path
         d="m 63.75,55 h 2.5 c 0.69,0 1.25,-0.56 1.25,-1.25 0,-0.69 -0.56,-1.25 -1.25,-1.25 h -2.5 c -0.69,0 -1.25,0.56 -1.25,1.25 0,0.69 0.56,1.25 1.25,1.25 z"
         stroke="none"
         id="path5845" /><path
         d="m 71.25,55 h 2.5 C 74.44,55 75,54.44 75,53.75 75,53.06 74.44,52.5 73.75,52.5 h -2.5 C 70.56,52.5 70,53.06 70,53.75 70,54.44 70.56,55 71.25,55 Z"
         stroke="none"
         id="path5847" /><path
         d="m 78.75,55 h 2.5 c 0.69,0 1.25,-0.56 1.25,-1.25 0,-0.69 -0.56,-1.25 -1.25,-1.25 h -2.5 c -0.69,0 -1.25,0.56 -1.25,1.25 0,0.69 0.56,1.25 1.25,1.25 z"
         stroke="none"
         id="path5849" /><path
         d="m 48.75,60 h 2.5 c 0.69,0 1.25,-0.56 1.25,-1.25 0,-0.69 -0.56,-1.25 -1.25,-1.25 h -2.5 c -0.69,0 -1.25,0.56 -1.25,1.25 0,0.69 0.56,1.25 1.25,1.25 z"
         stroke="none"
         id="path5851" /><path
         d="m 56.25,60 h 2.5 C 59.44,60 60,59.44 60,58.75 60,58.06 59.44,57.5 58.75,57.5 h -2.5 C 55.56,57.5 55,58.06 55,58.75 55,59.44 55.56,60 56.25,60 Z"
         stroke="none"
         id="path5853" /><path
         d="m 63.75,60 h 2.5 c 0.69,0 1.25,-0.56 1.25,-1.25 0,-0.69 -0.56,-1.25 -1.25,-1.25 h -2.5 c -0.69,0 -1.25,0.56 -1.25,1.25 0,0.69 0.56,1.25 1.25,1.25 z"
         stroke="none"
         id="path5855" /><path
         d="m 71.25,60 h 2.5 C 74.44,60 75,59.44 75,58.75 75,58.06 74.44,57.5 73.75,57.5 h -2.5 C 70.56,57.5 70,58.06 70,58.75 70,59.44 70.56,60 71.25,60 Z"
         stroke="none"
         id="path5857" /><path
         d="m 78.75,60 h 2.5 c 0.69,0 1.25,-0.56 1.25,-1.25 0,-0.69 -0.56,-1.25 -1.25,-1.25 h -2.5 c -0.69,0 -1.25,0.56 -1.25,1.25 0,0.69 0.56,1.25 1.25,1.25 z"
         stroke="none"
         id="path5859" /><path
         d="m 48.75,65 h 2.5 c 0.69,0 1.25,-0.56 1.25,-1.25 0,-0.69 -0.56,-1.25 -1.25,-1.25 h -2.5 c -0.69,0 -1.25,0.56 -1.25,1.25 0,0.69 0.56,1.25 1.25,1.25 z"
         stroke="none"
         id="path5861" /><path
         d="m 56.25,65 h 2.5 C 59.44,65 60,64.44 60,63.75 60,63.06 59.44,62.5 58.75,62.5 h -2.5 C 55.56,62.5 55,63.06 55,63.75 55,64.44 55.56,65 56.25,65 Z"
         stroke="none"
         id="path5863" /><path
         d="m 63.75,65 h 2.5 c 0.69,0 1.25,-0.56 1.25,-1.25 0,-0.69 -0.56,-1.25 -1.25,-1.25 h -2.5 c -0.69,0 -1.25,0.56 -1.25,1.25 0,0.69 0.56,1.25 1.25,1.25 z"
         stroke="none"
         id="path5865" /><path
         d="m 71.25,65 h 2.5 C 74.44,65 75,64.44 75,63.75 75,63.06 74.44,62.5 73.75,62.5 h -2.5 C 70.56,62.5 70,63.06 70,63.75 70,64.44 70.56,65 71.25,65 Z"
         stroke="none"
         id="path5867" /><path
         d="m 78.75,65 h 2.5 c 0.69,0 1.25,-0.56 1.25,-1.25 0,-0.69 -0.56,-1.25 -1.25,-1.25 h -2.5 c -0.69,0 -1.25,0.56 -1.25,1.25 0,0.69 0.56,1.25 1.25,1.25 z"
         stroke="none"
         id="path5869" /><path
         d="m 48.75,70 h 2.5 c 0.69,0 1.25,-0.56 1.25,-1.25 0,-0.69 -0.56,-1.25 -1.25,-1.25 h -2.5 c -0.69,0 -1.25,0.56 -1.25,1.25 0,0.69 0.56,1.25 1.25,1.25 z"
         stroke="none"
         id="path5871" /><path
         d="m 56.25,70 h 2.5 C 59.44,70 60,69.44 60,68.75 60,68.06 59.44,67.5 58.75,67.5 h -2.5 C 55.56,67.5 55,68.06 55,68.75 55,69.44 55.56,70 56.25,70 Z"
         stroke="none"
         id="path5873" /><path
         d="m 63.75,70 h 2.5 c 0.69,0 1.25,-0.56 1.25,-1.25 0,-0.69 -0.56,-1.25 -1.25,-1.25 h -2.5 c -0.69,0 -1.25,0.56 -1.25,1.25 0,0.69 0.56,1.25 1.25,1.25 z"
         stroke="none"
         id="path5875" /><path
         d="m 71.25,70 h 2.5 C 74.44,70 75,69.44 75,68.75 75,68.06 74.44,67.5 73.75,67.5 h -2.5 C 70.56,67.5 70,68.06 70,68.75 70,69.44 70.56,70 71.25,70 Z"
         stroke="none"
         id="path5877" /><path
         d="m 78.75,70 h 2.5 c 0.69,0 1.25,-0.56 1.25,-1.25 0,-0.69 -0.56,-1.25 -1.25,-1.25 h -2.5 c -0.69,0 -1.25,0.56 -1.25,1.25 0,0.69 0.56,1.25 1.25,1.25 z"
         stroke="none"
         id="path5879" /><path
         d="m 48.75,40 h 2.5 c 0.69,0 1.25,-0.56 1.25,-1.25 0,-0.69 -0.56,-1.25 -1.25,-1.25 h -2.5 c -0.69,0 -1.25,0.56 -1.25,1.25 0,0.69 0.56,1.25 1.25,1.25 z"
         stroke="none"
         id="path5881" /><path
         d="m 56.25,40 h 2.5 C 59.44,40 60,39.44 60,38.75 60,38.06 59.44,37.5 58.75,37.5 h -2.5 C 55.56,37.5 55,38.06 55,38.75 55,39.44 55.56,40 56.25,40 Z"
         stroke="none"
         id="path5883" /><path
         d="m 63.75,40 h 2.5 c 0.69,0 1.25,-0.56 1.25,-1.25 0,-0.69 -0.56,-1.25 -1.25,-1.25 h -2.5 c -0.69,0 -1.25,0.56 -1.25,1.25 0,0.69 0.56,1.25 1.25,1.25 z"
         stroke="none"
         id="path5885" /><path
         d="m 71.25,40 h 2.5 C 74.44,40 75,39.44 75,38.75 75,38.06 74.44,37.5 73.75,37.5 h -2.5 C 70.56,37.5 70,38.06 70,38.75 70,39.44 70.56,40 71.25,40 Z"
         stroke="none"
         id="path5887" /><path
         d="m 78.75,40 h 2.5 c 0.69,0 1.25,-0.56 1.25,-1.25 0,-0.69 -0.56,-1.25 -1.25,-1.25 h -2.5 c -0.69,0 -1.25,0.56 -1.25,1.25 0,0.69 0.56,1.25 1.25,1.25 z"
         stroke="none"
         id="path5889" /><path
         d="m 48.75,45 h 2.5 c 0.69,0 1.25,-0.56 1.25,-1.25 0,-0.69 -0.56,-1.25 -1.25,-1.25 h -2.5 c -0.69,0 -1.25,0.56 -1.25,1.25 0,0.69 0.56,1.25 1.25,1.25 z"
         stroke="none"
         id="path5891" /><path
         d="m 56.25,45 h 2.5 C 59.44,45 60,44.44 60,43.75 60,43.06 59.44,42.5 58.75,42.5 h -2.5 C 55.56,42.5 55,43.06 55,43.75 55,44.44 55.56,45 56.25,45 Z"
         stroke="none"
         id="path5893" /><path
         d="m 63.75,45 h 2.5 c 0.69,0 1.25,-0.56 1.25,-1.25 0,-0.69 -0.56,-1.25 -1.25,-1.25 h -2.5 c -0.69,0 -1.25,0.56 -1.25,1.25 0,0.69 0.56,1.25 1.25,1.25 z"
         stroke="none"
         id="path5895" /><path
         d="m 71.25,45 h 2.5 C 74.44,45 75,44.44 75,43.75 75,43.06 74.44,42.5 73.75,42.5 h -2.5 C 70.56,42.5 70,43.06 70,43.75 70,44.44 70.56,45 71.25,45 Z"
         stroke="none"
         id="path5897" /><path
         d="m 78.75,45 h 2.5 c 0.69,0 1.25,-0.56 1.25,-1.25 0,-0.69 -0.56,-1.25 -1.25,-1.25 h -2.5 c -0.69,0 -1.25,0.56 -1.25,1.25 0,0.69 0.56,1.25 1.25,1.25 z"
         stroke="none"
         id="path5899" /><path
         d="m 48.75,50 h 2.5 c 0.69,0 1.25,-0.56 1.25,-1.25 0,-0.69 -0.56,-1.25 -1.25,-1.25 h -2.5 c -0.69,0 -1.25,0.56 -1.25,1.25 0,0.69 0.56,1.25 1.25,1.25 z"
         stroke="none"
         id="path5901" /><path
         d="m 56.25,50 h 2.5 C 59.44,50 60,49.44 60,48.75 60,48.06 59.44,47.5 58.75,47.5 h -2.5 C 55.56,47.5 55,48.06 55,48.75 55,49.44 55.56,50 56.25,50 Z"
         stroke="none"
         id="path5903" /><path
         d="m 63.75,50 h 2.5 c 0.69,0 1.25,-0.56 1.25,-1.25 0,-0.69 -0.56,-1.25 -1.25,-1.25 h -2.5 c -0.69,0 -1.25,0.56 -1.25,1.25 0,0.69 0.56,1.25 1.25,1.25 z"
         stroke="none"
         id="path5905" /><path
         d="m 71.25,50 h 2.5 C 74.44,50 75,49.44 75,48.75 75,48.06 74.44,47.5 73.75,47.5 h -2.5 C 70.56,47.5 70,48.06 70,48.75 70,49.44 70.56,50 71.25,50 Z"
         stroke="none"
         id="path5907" /><path
         d="m 78.75,50 h 2.5 c 0.69,0 1.25,-0.56 1.25,-1.25 0,-0.69 -0.56,-1.25 -1.25,-1.25 h -2.5 c -0.69,0 -1.25,0.56 -1.25,1.25 0,0.69 0.56,1.25 1.25,1.25 z"
         stroke="none"
         id="path5909" /><path
         d="m 18.75,75 h 2.5 c 0.69,0 1.25,-0.56 1.25,-1.25 0,-0.69 -0.56,-1.25 -1.25,-1.25 h -2.5 c -0.69,0 -1.25,0.56 -1.25,1.25 0,0.69 0.56,1.25 1.25,1.25 z"
         stroke="none"
         id="path5911" /><path
         d="m 26.25,75 h 2.5 C 29.44,75 30,74.44 30,73.75 30,73.06 29.44,72.5 28.75,72.5 h -2.5 C 25.56,72.5 25,73.06 25,73.75 25,74.44 25.56,75 26.25,75 Z"
         stroke="none"
         id="path5913" /><path
         d="m 33.75,75 h 2.5 c 0.69,0 1.25,-0.56 1.25,-1.25 0,-0.69 -0.56,-1.25 -1.25,-1.25 h -2.5 c -0.69,0 -1.25,0.56 -1.25,1.25 0,0.69 0.56,1.25 1.25,1.25 z"
         stroke="none"
         id="path5915" /><path
         d="m 41.25,75 h 2.5 C 44.44,75 45,74.44 45,73.75 45,73.06 44.44,72.5 43.75,72.5 h -2.5 C 40.56,72.5 40,73.06 40,73.75 40,74.44 40.56,75 41.25,75 Z"
         stroke="none"
         id="path5917" /><path
         d="m 18.75,80 h 2.5 c 0.69,0 1.25,-0.56 1.25,-1.25 0,-0.69 -0.56,-1.25 -1.25,-1.25 h -2.5 c -0.69,0 -1.25,0.56 -1.25,1.25 0,0.69 0.56,1.25 1.25,1.25 z"
         stroke="none"
         id="path5919" /><path
         d="m 26.25,80 h 2.5 C 29.44,80 30,79.44 30,78.75 30,78.06 29.44,77.5 28.75,77.5 h -2.5 C 25.56,77.5 25,78.06 25,78.75 25,79.44 25.56,80 26.25,80 Z"
         stroke="none"
         id="path5921" /><path
         d="m 33.75,80 h 2.5 c 0.69,0 1.25,-0.56 1.25,-1.25 0,-0.69 -0.56,-1.25 -1.25,-1.25 h -2.5 c -0.69,0 -1.25,0.56 -1.25,1.25 0,0.69 0.56,1.25 1.25,1.25 z"
         stroke="none"
         id="path5923" /><path
         d="m 41.25,80 h 2.5 C 44.44,80 45,79.44 45,78.75 45,78.06 44.44,77.5 43.75,77.5 h -2.5 C 40.56,77.5 40,78.06 40,78.75 40,79.44 40.56,80 41.25,80 Z"
         stroke="none"
         id="path5925" /><path
         d="m 18.75,85 h 2.5 c 0.69,0 1.25,-0.56 1.25,-1.25 0,-0.69 -0.56,-1.25 -1.25,-1.25 h -2.5 c -0.69,0 -1.25,0.56 -1.25,1.25 0,0.69 0.56,1.25 1.25,1.25 z"
         stroke="none"
         id="path5927" /><path
         d="m 26.25,85 h 2.5 C 29.44,85 30,84.44 30,83.75 30,83.06 29.44,82.5 28.75,82.5 h -2.5 C 25.56,82.5 25,83.06 25,83.75 25,84.44 25.56,85 26.25,85 Z"
         stroke="none"
         id="path5929" /><path
         d="m 33.75,85 h 2.5 c 0.69,0 1.25,-0.56 1.25,-1.25 0,-0.69 -0.56,-1.25 -1.25,-1.25 h -2.5 c -0.69,0 -1.25,0.56 -1.25,1.25 0,0.69 0.56,1.25 1.25,1.25 z"
         stroke="none"
         id="path5931" /><path
         d="m 41.25,85 h 2.5 C 44.44,85 45,84.44 45,83.75 45,83.06 44.44,82.5 43.75,82.5 h -2.5 C 40.56,82.5 40,83.06 40,83.75 40,84.44 40.56,85 41.25,85 Z"
         stroke="none"
         id="path5933" /><path
         d="m 18.75,55 h 2.5 c 0.69,0 1.25,-0.56 1.25,-1.25 0,-0.69 -0.56,-1.25 -1.25,-1.25 h -2.5 c -0.69,0 -1.25,0.56 -1.25,1.25 0,0.69 0.56,1.25 1.25,1.25 z"
         stroke="none"
         id="path5935" /><path
         d="m 26.25,55 h 2.5 C 29.44,55 30,54.44 30,53.75 30,53.06 29.44,52.5 28.75,52.5 h -2.5 C 25.56,52.5 25,53.06 25,53.75 25,54.44 25.56,55 26.25,55 Z"
         stroke="none"
         id="path5937" /><path
         d="m 33.75,55 h 2.5 c 0.69,0 1.25,-0.56 1.25,-1.25 0,-0.69 -0.56,-1.25 -1.25,-1.25 h -2.5 c -0.69,0 -1.25,0.56 -1.25,1.25 0,0.69 0.56,1.25 1.25,1.25 z"
         stroke="none"
         id="path5939" /><path
         d="m 41.25,55 h 2.5 C 44.44,55 45,54.44 45,53.75 45,53.06 44.44,52.5 43.75,52.5 h -2.5 C 40.56,52.5 40,53.06 40,53.75 40,54.44 40.56,55 41.25,55 Z"
         stroke="none"
         id="path5941" /><path
         d="m 18.75,60 h 2.5 c 0.69,0 1.25,-0.56 1.25,-1.25 0,-0.69 -0.56,-1.25 -1.25,-1.25 h -2.5 c -0.69,0 -1.25,0.56 -1.25,1.25 0,0.69 0.56,1.25 1.25,1.25 z"
         stroke="none"
         id="path5943" /><path
         d="m 26.25,60 h 2.5 C 29.44,60 30,59.44 30,58.75 30,58.06 29.44,57.5 28.75,57.5 h -2.5 C 25.56,57.5 25,58.06 25,58.75 25,59.44 25.56,60 26.25,60 Z"
         stroke="none"
         id="path5945" /><path
         d="m 33.75,60 h 2.5 c 0.69,0 1.25,-0.56 1.25,-1.25 0,-0.69 -0.56,-1.25 -1.25,-1.25 h -2.5 c -0.69,0 -1.25,0.56 -1.25,1.25 0,0.69 0.56,1.25 1.25,1.25 z"
         stroke="none"
         id="path5947" /><path
         d="m 41.25,60 h 2.5 C 44.44,60 45,59.44 45,58.75 45,58.06 44.44,57.5 43.75,57.5 h -2.5 C 40.56,57.5 40,58.06 40,58.75 40,59.44 40.56,60 41.25,60 Z"
         stroke="none"
         id="path5949" /><path
         d="m 18.75,65 h 2.5 c 0.69,0 1.25,-0.56 1.25,-1.25 0,-0.69 -0.56,-1.25 -1.25,-1.25 h -2.5 c -0.69,0 -1.25,0.56 -1.25,1.25 0,0.69 0.56,1.25 1.25,1.25 z"
         stroke="none"
         id="path5951" /><path
         d="m 26.25,65 h 2.5 C 29.44,65 30,64.44 30,63.75 30,63.06 29.44,62.5 28.75,62.5 h -2.5 C 25.56,62.5 25,63.06 25,63.75 25,64.44 25.56,65 26.25,65 Z"
         stroke="none"
         id="path5953" /><path
         d="m 33.75,65 h 2.5 c 0.69,0 1.25,-0.56 1.25,-1.25 0,-0.69 -0.56,-1.25 -1.25,-1.25 h -2.5 c -0.69,0 -1.25,0.56 -1.25,1.25 0,0.69 0.56,1.25 1.25,1.25 z"
         stroke="none"
         id="path5955" /><path
         d="m 41.25,65 h 2.5 C 44.44,65 45,64.44 45,63.75 45,63.06 44.44,62.5 43.75,62.5 h -2.5 C 40.56,62.5 40,63.06 40,63.75 40,64.44 40.56,65 41.25,65 Z"
         stroke="none"
         id="path5957" /><path
         d="m 18.75,70 h 2.5 c 0.69,0 1.25,-0.56 1.25,-1.25 0,-0.69 -0.56,-1.25 -1.25,-1.25 h -2.5 c -0.69,0 -1.25,0.56 -1.25,1.25 0,0.69 0.56,1.25 1.25,1.25 z"
         stroke="none"
         id="path5959" /><path
         d="m 26.25,70 h 2.5 C 29.44,70 30,69.44 30,68.75 30,68.06 29.44,67.5 28.75,67.5 h -2.5 C 25.56,67.5 25,68.06 25,68.75 25,69.44 25.56,70 26.25,70 Z"
         stroke="none"
         id="path5961" /><path
         d="m 33.75,70 h 2.5 c 0.69,0 1.25,-0.56 1.25,-1.25 0,-0.69 -0.56,-1.25 -1.25,-1.25 h -2.5 c -0.69,0 -1.25,0.56 -1.25,1.25 0,0.69 0.56,1.25 1.25,1.25 z"
         stroke="none"
         id="path5963" /><path
         d="m 41.25,70 h 2.5 C 44.44,70 45,69.44 45,68.75 45,68.06 44.44,67.5 43.75,67.5 h -2.5 C 40.56,67.5 40,68.06 40,68.75 40,69.44 40.56,70 41.25,70 Z"
         stroke="none"
         id="path5965" /><path
         d="m 18.75,40 h 2.5 c 0.69,0 1.25,-0.56 1.25,-1.25 0,-0.69 -0.56,-1.25 -1.25,-1.25 h -2.5 c -0.69,0 -1.25,0.56 -1.25,1.25 0,0.69 0.56,1.25 1.25,1.25 z"
         stroke="none"
         id="path5967" /><path
         d="m 26.25,40 h 2.5 C 29.44,40 30,39.44 30,38.75 30,38.06 29.44,37.5 28.75,37.5 h -2.5 C 25.56,37.5 25,38.06 25,38.75 25,39.44 25.56,40 26.25,40 Z"
         stroke="none"
         id="path5969" /><path
         d="m 33.75,40 h 2.5 c 0.69,0 1.25,-0.56 1.25,-1.25 0,-0.69 -0.56,-1.25 -1.25,-1.25 h -2.5 c -0.69,0 -1.25,0.56 -1.25,1.25 0,0.69 0.56,1.25 1.25,1.25 z"
         stroke="none"
         id="path5971" /><path
         d="m 41.25,40 h 2.5 C 44.44,40 45,39.44 45,38.75 45,38.06 44.44,37.5 43.75,37.5 h -2.5 C 40.56,37.5 40,38.06 40,38.75 40,39.44 40.56,40 41.25,40 Z"
         stroke="none"
         id="path5973" /><path
         d="m 18.75,45 h 2.5 c 0.69,0 1.25,-0.56 1.25,-1.25 0,-0.69 -0.56,-1.25 -1.25,-1.25 h -2.5 c -0.69,0 -1.25,0.56 -1.25,1.25 0,0.69 0.56,1.25 1.25,1.25 z"
         stroke="none"
         id="path5975" /><path
         d="m 26.25,45 h 2.5 C 29.44,45 30,44.44 30,43.75 30,43.06 29.44,42.5 28.75,42.5 h -2.5 C 25.56,42.5 25,43.06 25,43.75 25,44.44 25.56,45 26.25,45 Z"
         stroke="none"
         id="path5977" /><path
         d="m 33.75,45 h 2.5 c 0.69,0 1.25,-0.56 1.25,-1.25 0,-0.69 -0.56,-1.25 -1.25,-1.25 h -2.5 c -0.69,0 -1.25,0.56 -1.25,1.25 0,0.69 0.56,1.25 1.25,1.25 z"
         stroke="none"
         id="path5979" /><path
         d="m 41.25,45 h 2.5 C 44.44,45 45,44.44 45,43.75 45,43.06 44.44,42.5 43.75,42.5 h -2.5 C 40.56,42.5 40,43.06 40,43.75 40,44.44 40.56,45 41.25,45 Z"
         stroke="none"
         id="path5981" /><path
         d="m 18.75,50 h 2.5 c 0.69,0 1.25,-0.56 1.25,-1.25 0,-0.69 -0.56,-1.25 -1.25,-1.25 h -2.5 c -0.69,0 -1.25,0.56 -1.25,1.25 0,0.69 0.56,1.25 1.25,1.25 z"
         stroke="none"
         id="path5983" /><path
         d="m 26.25,50 h 2.5 C 29.44,50 30,49.44 30,48.75 30,48.06 29.44,47.5 28.75,47.5 h -2.5 C 25.56,47.5 25,48.06 25,48.75 25,49.44 25.56,50 26.25,50 Z"
         stroke="none"
         id="path5985" /><path
         d="m 33.75,50 h 2.5 c 0.69,0 1.25,-0.56 1.25,-1.25 0,-0.69 -0.56,-1.25 -1.25,-1.25 h -2.5 c -0.69,0 -1.25,0.56 -1.25,1.25 0,0.69 0.56,1.25 1.25,1.25 z"
         stroke="none"
         id="path5987" /><path
         d="m 41.25,50 h 2.5 C 44.44,50 45,49.44 45,48.75 45,48.06 44.44,47.5 43.75,47.5 h -2.5 C 40.56,47.5 40,48.06 40,48.75 40,49.44 40.56,50 41.25,50 Z"
         stroke="none"
         id="path5989" /><path
         d="m 22.5,30 c 2.761,0 5,-2.239 5,-5 0,-2.761 -2.239,-5 -5,-5 -2.761,0 -5,2.239 -5,5 0,2.761 2.239,5 5,5 z m 0,-7.5 c 1.379,0 2.5,1.121 2.5,2.5 0,1.378 -1.121,2.5 -2.5,2.5 -1.378,0 -2.5,-1.122 -2.5,-2.5 0,-1.379 1.122,-2.5 2.5,-2.5 z"
         stroke="none"
         id="path5991" /><path
         d="m 57.5,30 c 2.761,0 5,-2.239 5,-5 0,-2.761 -2.239,-5 -5,-5 -2.761,0 -5,2.239 -5,5 0,2.761 2.239,5 5,5 z m 0,-7.5 c 1.379,0 2.5,1.121 2.5,2.5 0,1.378 -1.121,2.5 -2.5,2.5 -1.378,0 -2.5,-1.122 -2.5,-2.5 0,-1.379 1.122,-2.5 2.5,-2.5 z"
         stroke="none"
         id="path5993" /><path
         d="m 76.25,30 h 5 c 0.69,0 1.25,-0.56 1.25,-1.25 v -7.5 C 82.5,20.56 81.94,20 81.25,20 h -5 C 75.56,20 75,20.56 75,21.25 v 7.5 C 75,29.44 75.56,30 76.25,30 Z M 77.5,22.5 H 80 v 5 h -2.5 z"
         stroke="none"
         id="path5995" /><path
         d="m 30,25 c 0,-1.381 1.119,-2.5 2.5,-2.5 1.381,0 2.5,1.119 2.5,2.5 0,1.381 -1.119,2.5 -2.5,2.5 C 31.119,27.5 30,26.381 30,25 Z"
         stroke="none"
         id="path5997" /><path
         d="m 37.5,25 c 0,-1.381 1.119,-2.5 2.5,-2.5 1.381,0 2.5,1.119 2.5,2.5 0,1.381 -1.119,2.5 -2.5,2.5 -1.381,0 -2.5,-1.119 -2.5,-2.5 z"
         stroke="none"
         id="path5999" /><path
         d="m 45,25 c 0,-1.381 1.119,-2.5 2.5,-2.5 1.381,0 2.5,1.119 2.5,2.5 0,1.381 -1.119,2.5 -2.5,2.5 C 46.119,27.5 45,26.381 45,25 Z"
         stroke="none"
         id="path6001" /><path
         d="m 65,25 c 0,-1.381 1.119,-2.5 2.5,-2.5 1.381,0 2.5,1.119 2.5,2.5 0,1.381 -1.119,2.5 -2.5,2.5 C 66.119,27.5 65,26.381 65,25 Z"
         stroke="none"
         id="path6003" /></g><g
       id="g8111"
       transform="translate(0,-3.1750001)"><path
         d="m 84.132883,33.008629 -1.632154,0.233235 v -0.02922 l -0.408038,-0.40804 H 77.19623 v -0.408037 4.080337 -0.408038 h 4.896461 l 0.408038,-0.408038 v -0.02922 l 1.632154,0.233233 0.816078,-0.816076 V 33.82465 Z m 0,1.697277 -0.283342,0.294277 -1.348812,-0.192758 v -0.74116 l 1.348812,-0.192757 0.283342,0.294276 z m -2.44823,0.546934 h -0.554317 v -1.632153 h 0.554317 z m -1.370394,0 H 77.19623 v -1.632153 h 3.118029 z"
         stroke="none"
         id="path7587"
         style="display:inline;stroke-width:0.163215"
         sodipodi:nodetypes="cccccccccccccccccccccccccccccccc" /><rect
         style="fill:none;fill-rule:evenodd;stroke:#000000;stroke-width:0.765;stroke-dasharray:none;stroke-opacity:1"
         id="rect8107"
         width="8.2839518"
         height="5.0504341"
         x="68.919983"
         y="31.996365" /></g><rect
       style="fill:#000000;fill-opacity:1;fill-rule:evenodd;stroke-width:0.256733"
       id="rect8113"
       width="18.84675"
       height="2.9563532"
       x="50.196411"
       y="29.868401" /><rect
       style="fill:#0000ff;fill-rule:evenodd;stroke-width:0.264583"
       id="rect8115"
       width="1.2318137"
       height="0.30795342"
       x="64.670227"
       y="31.562145" /><path
       style="fill:#000000;fill-opacity:1;stroke:#000000;stroke-width:0.8;stroke-linejoin:bevel;stroke-dasharray:none;stroke-opacity:1;marker-end:url(#Arrow1);stop-color:#000000"
       d="M 81.114936,43.633922 V 37.105307"
       id="path9007" /><text
       xml:space="preserve"
       style="font-weight:bold;font-size:3.175px;font-family:Roboto;-inkscape-font-specification:'Roboto, Bold';fill:#454545;stroke:#ffffff;stroke-width:0.499999;stroke-linejoin:bevel;stop-color:#000000"
       x="80.168747"
       y="54.768749"
       id="text16516"><tspan
         sodipodi:role="line"
         id="tspan16514"
         style="fill:#000000;fill-opacity:1;stroke-width:0.5"
         x="80.168747"
         y="54.768749" /></text><text
       xml:space="preserve"
       style="font-weight:bold;font-size:3.175px;font-family:Roboto;-inkscape-font-specification:'Roboto, Bold';text-align:end;text-anchor:end;fill:#000000;fill-opacity:1;stroke:none;stroke-width:0.499999;stroke-linejoin:bevel;stop-color:#000000"
       x="83.349434"
       y="48.551037"
       id="text16986"><tspan
         sodipodi:role="line"
         id="tspan16984"
         style="text-align:end;text-anchor:end;fill:#000000;fill-opacity:1;stroke:none;stroke-width:0.5"
         x="83.349434"
         y="48.551037">Voltage</tspan><tspan
         sodipodi:role="line"
         style="text-align:end;text-anchor:end;fill:#000000;fill-opacity:1;stroke:none;stroke-width:0.5"
         x="83.349434"
         y="52.519787"
         id="tspan17038">Level</tspan><tspan
         sodipodi:role="line"
         style="text-align:end;text-anchor:end;fill:#000000;fill-opacity:1;stroke:none;stroke-width:0.5"
         x="83.349434"
         y="56.488537"
         id="tspan17040">(dbU)</tspan></text><text
       xml:space="preserve"
       style="font-weight:bold;font-size:3.175px;font-family:Roboto;-inkscape-font-specification:'Roboto, Bold';text-align:start;text-anchor:start;fill:#000000;fill-opacity:1;stroke:none;stroke-width:0.499999;stroke-linejoin:bevel;stop-color:#000000"
       x="49.00399"
       y="67.799477"
       id="text17048"><tspan
         sodipodi:role="line"
         style="text-align:start;text-anchor:start;fill:#000000;fill-opacity:1;stroke:none;stroke-width:0.5"
         x="49.00399"
         y="67.799477"
         id="tspan17046">Figure 1: What we're trying to model</tspan></text></g></svg>
