<?xml version="1.0" encoding="utf-8"?>
<!-- Generator: Adobe Illustrator 16.0.0, SVG Export Plug-In . SVG Version: 6.00 Build 0)  -->
<!DOCTYPE svg PUBLIC "-//W3C//DTD SVG 1.1//EN" "http://www.w3.org/Graphics/SVG/1.1/DTD/svg11.dtd">
<svg version="1.1" xmlns="http://www.w3.org/2000/svg" xmlns:xlink="http://www.w3.org/1999/xlink" x="0px" y="0px" width="48px"
	 height="48px" viewBox="0 0 48 48" enable-background="new 0 0 48 48" xml:space="preserve">
<g id="Original" display="none">
	<circle display="inline" cx="24" cy="23.999" r="23"/>
	<path display="inline" fill="#FFFFFF" d="M70.464,39.718c-0.002,0-0.002,0-0.004,0c-0.006-0.002-0.012-0.003-0.017-0.003
		c-2.013-0.42-2.751-3.039-4.492-10.979c-0.002-0.009-0.004-0.016-0.005-0.024c-0.614-2.793-1.485-6.752-2.235-8.506
		c-0.751,1.455-1.621,5.067-2.233,7.609l-1.143-0.348l-1.131-0.396c1.745-7.239,2.48-9.554,4.498-9.159c0.002,0,0.006,0,0.008,0.001
		h0.001h0.001c0.003,0.001,0.005,0.001,0.008,0.002c2.021,0.411,2.756,3.027,4.503,10.982c0.002,0.006,0.004,0.016,0.005,0.022
		c0.614,2.794,1.483,6.755,2.234,8.506c0.75-1.451,1.618-5.06,2.231-7.6c0.001-0.012,0.003-0.021,0.007-0.034
		c1.748-7.271,2.485-9.587,4.514-9.182c0.637,0.127,1.153,0.613,1.153,1.088c0,0.376-0.325,0.631-0.776,0.657
		c-0.821,0.709-1.898,5.186-2.618,8.18l-1.135-0.372l1.135,0.372c-0.001,0-0.001,0-0.001,0c-0.001,0.007-0.003,0.016-0.005,0.022
		h0.002c-1.74,7.228-2.478,9.548-4.487,9.164C70.476,39.722,70.47,39.72,70.464,39.718z M16.458,28.942c-0.001,0-0.002,0-0.004,0
		c-0.004-0.002-0.008-0.002-0.012-0.003c-2.013-0.414-2.75-3.023-4.488-10.939c-0.003-0.015-0.008-0.028-0.01-0.043
		c-0.613-2.795-1.486-6.772-2.239-8.529c-0.752,1.456-1.625,5.081-2.238,7.628l-2.272-0.743c1.745-7.248,2.481-9.57,4.498-9.178
		c0.005,0,0.01,0.003,0.013,0.002c0.001,0.001,0.007,0.001,0.012,0.003c2.015,0.413,2.752,3.022,4.491,10.94
		c0.003,0.015,0.007,0.028,0.011,0.043c0.613,2.794,1.485,6.77,2.239,8.528c0.753-1.457,1.625-5.086,2.237-7.636
		c0.002-0.005,0.003-0.01,0.004-0.015c1.749-7.259,2.483-9.571,4.51-9.167C23.24,9.841,23.27,9.848,23.3,9.856
		c1.955,0.466,2.695,3.113,4.413,10.937c0.002,0.009,0.004,0.016,0.006,0.023c0.613,2.794,1.485,6.77,2.239,8.527
		c0.753-1.458,1.626-5.084,2.239-7.634c0-0.001,0-0.001,0-0.002c1.741-7.244,2.479-9.569,4.49-9.185
		c0.007,0.001,0.012,0.001,0.02,0.004c0.004-0.002,0.015,0.002,0.021,0.003c2.011,0.42,2.747,3.036,4.488,10.964
		c0.001,0.006,0.002,0.011,0.003,0.016c0.613,2.796,1.486,6.771,2.239,8.527c0.753-1.456,1.626-5.083,2.239-7.633
		c0.001-0.006,0.003-0.011,0.004-0.016c1.745-7.259,2.482-9.572,4.51-9.167c0.024,0.004,0.048,0.01,0.068,0.015
		c1.974,0.455,2.712,3.096,4.439,10.956c0.002,0.011,0.004,0.02,0.005,0.028c0.614,2.794,1.484,6.755,2.235,8.51
		c0.752-1.457,1.624-5.081,2.236-7.629l2.272,0.743c-1.742,7.246-2.479,9.567-4.495,9.179c-0.004,0-0.008-0.001-0.014-0.001
		c0-0.002-0.01-0.002-0.015-0.004c-2.017-0.416-2.754-3.033-4.496-10.98c-0.002-0.009-0.006-0.019-0.007-0.028
		c-0.613-2.789-1.482-6.745-2.232-8.497c-0.753,1.457-1.626,5.085-2.239,7.634c-0.001,0.005-0.003,0.01-0.004,0.016
		c-1.742,7.246-2.48,9.563-4.497,9.17c-0.004-0.003-0.006-0.003-0.01-0.003h-0.001l-0.001-0.001c-0.003,0-0.005,0-0.01-0.002
		c-2.017-0.411-2.754-3.021-4.497-10.963c0-0.005-0.001-0.01-0.003-0.017l-0.003-0.013c-0.613-2.79-1.485-6.759-2.238-8.515
		c-0.752,1.456-1.624,5.082-2.237,7.633c0,0,0,0,0,0.001c-1.744,7.247-2.48,9.571-4.494,9.186c-0.006-0.002-0.007,0.002-0.018-0.004
		c-0.006,0.002-0.012-0.003-0.017-0.003c-2.013-0.418-2.751-3.031-4.49-10.955c-0.002-0.008-0.004-0.016-0.006-0.023
		c-0.613-2.794-1.485-6.771-2.238-8.526c-0.752,1.455-1.623,5.075-2.236,7.622l0,0c-0.001,0.003-0.003,0.007-0.003,0.01
		c-1.744,7.252-2.48,9.576-4.497,9.188C16.467,28.944,16.463,28.944,16.458,28.942z M-37.549,18.168c-0.001,0-0.001,0-0.002-0.001
		c-0.003-0.001-0.005-0.001-0.009-0.002c-2.018-0.411-2.754-3.023-4.499-10.97c-0.002-0.008-0.004-0.016-0.005-0.022
		c-0.613-2.795-1.484-6.765-2.236-8.519c-0.753,1.456-1.626,5.083-2.24,7.633l-1.136-0.372l1.136,0.372
		c-0.002,0.008-0.004,0.017-0.007,0.025h0.001c-1.741,7.233-2.477,9.55-4.49,9.162c-0.005,0-0.008-0.002-0.015-0.003
		c-0.004-0.003-0.01-0.002-0.015-0.003c-2.015-0.415-2.752-3.032-4.498-10.981c-0.001-0.009-0.004-0.018-0.005-0.026
		c-0.613-2.792-1.482-6.749-2.233-8.499c-0.752,1.456-1.625,5.082-2.238,7.63l0,0c0,0.002-0.001,0.003-0.001,0.004
		c-1.744,7.25-2.48,9.574-4.497,9.185c-0.005-0.001-0.007-0.003-0.014-0.003c-0.004-0.003-0.01-0.002-0.015-0.003
		c-2.014-0.415-2.752-3.028-4.493-10.963c-0.001-0.005-0.003-0.011-0.004-0.016l-0.001-0.005c-0.613-2.793-1.486-6.768-2.238-8.523
		c-0.752,1.457-1.625,5.08-2.237,7.627l-2.273-0.743c1.745-7.249,2.481-9.569,4.498-9.178c0.005,0,0.011,0.001,0.012,0.002
		c0.003,0,0.009,0.001,0.014,0.002c2.016,0.414,2.753,3.026,4.495,10.964c0.002,0.006,0.003,0.011,0.004,0.017
		c0.613,2.795,1.486,6.77,2.239,8.528c0.752-1.458,1.625-5.086,2.238-7.635c0.001-0.005,0.002-0.009,0.004-0.014
		c1.747-7.26,2.482-9.573,4.509-9.168c0.022,0.004,0.044,0.009,0.066,0.014c1.976,0.451,2.715,3.091,4.443,10.964
		c0.002,0.01,0.004,0.019,0.006,0.028c0.613,2.793,1.483,6.749,2.233,8.502c0.75-1.454,1.621-5.068,2.233-7.609
		c0.002-0.008,0.004-0.017,0.005-0.025c1.745-7.253,2.483-9.576,4.5-9.185c0.004,0.001,0.008,0.002,0.013,0.002
		c0,0,0.008,0.002,0.013,0.002c2.017,0.415,2.754,3.031,4.498,10.981c0.002,0.008,0.003,0.015,0.005,0.023
		c0.613,2.792,1.483,6.753,2.234,8.507c0.753-1.456,1.626-5.085,2.239-7.635c0.001-0.005,0.003-0.01,0.004-0.015
		c1.746-7.259,2.483-9.572,4.51-9.167c0.031,0.006,0.062,0.014,0.092,0.021c1.955,0.468,2.695,3.115,4.412,10.938
		c0.002,0.008,0.003,0.015,0.005,0.023c0.613,2.794,1.486,6.77,2.239,8.527c0.751-1.452,1.621-5.062,2.233-7.61
		c0.002-0.009,0.003-0.017,0.005-0.025c1.746-7.253,2.482-9.575,4.499-9.185c0.004,0,0.007,0,0.013,0.002
		c-0.002,0,0.007,0.002,0.012,0.003c2.016,0.414,2.752,3.027,4.497,10.97c0.002,0.006,0.004,0.015,0.005,0.021
		c0.613,2.794,1.484,6.762,2.236,8.517c0.754-1.456,1.626-5.084,2.24-7.634c0.001-0.005,0.001-0.01,0.003-0.015
		c1.747-7.259,2.483-9.572,4.509-9.168C-3.773,4.45-3.751,4.455-3.729,4.46c1.976,0.45,2.714,3.09,4.442,10.963
		c0.001,0.002,0.001,0.003,0.001,0.003c0.613,2.796,1.485,6.771,2.239,8.528c0.752-1.454,1.625-5.079,2.238-7.628l2.272,0.743
		c-1.746,7.252-2.482,9.572-4.5,9.179c-0.003-0.001-0.006-0.001-0.01-0.001c-0.002-0.002-0.006-0.002-0.009-0.004
		c-2.02-0.41-2.757-3.024-4.501-10.974c0-0.002,0-0.004-0.001-0.005l0-0.005c-0.614-2.793-1.486-6.766-2.239-8.523
		c-0.753,1.457-1.625,5.085-2.239,7.635c-0.001,0.006-0.002,0.01-0.004,0.015c-1.74,7.236-2.477,9.557-4.491,9.17
		c-0.006,0-0.012,0.002-0.017-0.003c-0.011,0.001-0.012-0.002-0.017-0.003c-2.015-0.417-2.751-3.037-4.495-10.979
		c-0.002-0.008-0.003-0.015-0.005-0.022c-0.613-2.79-1.483-6.753-2.234-8.506c-0.75,1.452-1.62,5.061-2.232,7.609
		c-0.002,0.009-0.004,0.017-0.006,0.025c-1.745,7.25-2.482,9.574-4.498,9.185c-0.004,0-0.008-0.003-0.014-0.002
		c-0.004-0.003-0.01-0.003-0.015-0.003c-2.015-0.416-2.751-3.027-4.492-10.956c-0.002-0.007-0.003-0.016-0.006-0.022
		c-0.613-2.795-1.485-6.771-2.238-8.528c-0.752,1.457-1.625,5.084-2.239,7.635c-0.001,0.005-0.003,0.009-0.003,0.014
		c-1.743,7.245-2.479,9.564-4.499,9.17C-37.543,18.168-37.547,18.168-37.549,18.168z M-62.314,2.853l1.137,0.372L-62.314,2.853z
		 M-78.053,10.083c-0.001,0-0.001,0-0.001,0c-0.001-0.001-0.009-0.001-0.013-0.002c-2.017-0.414-2.753-3.028-4.497-10.973
		c-0.001-0.005-0.002-0.01-0.004-0.016c-0.613-2.793-1.485-6.763-2.237-8.517c-0.753,1.457-1.625,5.084-2.238,7.634
		c-0.107,0.446-0.698,0.642-1.331,0.437c-0.628-0.206-1.049-0.733-0.942-1.179c1.749-7.271,2.484-9.587,4.513-9.183
		c0.031,0.006,0.061,0.013,0.091,0.02c1.957,0.468,2.696,3.118,4.418,10.958c0.001,0.005,0.002,0.01,0.003,0.016
		c0.613,2.792,1.484,6.76,2.236,8.515c0.752-1.456,1.625-5.081,2.238-7.63l2.272,0.743c-1.744,7.251-2.481,9.572-4.498,9.181
		C-78.046,10.085-78.049,10.084-78.053,10.083z"/>
	<path display="inline" fill="#FFFFFF" d="M144.627,63.129c-0.002,0-0.002,0-0.004,0c-0.006-0.002-0.012-0.004-0.017-0.004
		c-2.012-0.419-2.747-3.033-4.487-10.955c-0.002-0.009-0.003-0.016-0.006-0.023c0-0.002,0-0.003,0-0.003
		c-0.613-2.795-1.486-6.77-2.239-8.527c-0.749,1.449-1.618,5.052-2.228,7.583h-0.004c-0.001,0.017-0.005,0.032-0.009,0.049
		c-1.744,7.258-2.48,9.58-4.501,9.186c-0.003-0.001-0.005-0.001-0.009-0.001h-0.001l-0.001-0.003c-0.002,0-0.005,0-0.007-0.001
		c-2.019-0.41-2.757-3.024-4.504-10.978c-0.003-0.017-0.007-0.033-0.009-0.05c-0.613-2.791-1.481-6.73-2.229-8.478
		c-0.753,1.456-1.626,5.085-2.241,7.633c-0.001,0.006-0.002,0.011-0.004,0.014c-1.739,7.246-2.478,9.565-4.496,9.171
		c-0.002-0.001-0.006-0.001-0.009-0.001l-0.001-0.002h-0.002c-0.002,0-0.005,0-0.008-0.002c-2.016-0.411-2.754-3.021-4.499-10.964
		c-0.001-0.004-0.002-0.01-0.003-0.016l-0.005-0.025c-0.613-2.787-1.483-6.75-2.234-8.504c-0.754,1.457-1.626,5.085-2.24,7.636
		c0,0.001,0,0.003-0.001,0.003c-1.742,7.241-2.479,9.564-4.489,9.183c-0.008-0.002-0.012-0.002-0.02-0.003
		c-0.005,0-0.013-0.004-0.019-0.006c-2.014-0.419-2.752-3.033-4.488-10.954c-0.001-0.007-0.004-0.016-0.005-0.022
		c-0.614-2.795-1.486-6.77-2.24-8.527c-0.752,1.458-1.625,5.086-2.24,7.634c-0.001,0.005-0.002,0.01-0.003,0.015
		c-1.74,7.247-2.479,9.563-4.497,9.17c-0.003,0-0.006-0.001-0.009-0.001H90.62h-0.001c-0.002,0-0.005-0.003-0.009-0.003
		c-2.019-0.41-2.755-3.028-4.502-10.981c-0.002-0.009-0.003-0.015-0.006-0.023c-0.613-2.793-1.484-6.755-2.235-8.507
		c-0.751,1.452-1.622,5.067-2.232,7.61l-0.001-0.002c-0.002,0.008-0.004,0.017-0.006,0.025c-1.744,7.258-2.479,9.58-4.5,9.186
		c-0.003-0.001-0.006-0.001-0.01-0.001l0,0l-0.001-0.003c-0.002,0-0.007,0-0.008-0.001c-2.021-0.411-2.759-3.021-4.497-10.951
		c-0.003-0.009-0.006-0.02-0.007-0.026L72.6,38.649c-0.611-2.786-1.482-6.748-2.233-8.502c-0.75,1.454-1.62,5.069-2.232,7.61
		l-1.143-0.35l0.039,0.013l-0.021-0.005l1.113,0.389c-1.739,7.226-2.476,9.545-4.487,9.163c-0.006-0.002-0.014-0.003-0.019-0.005
		c-0.007,0-0.013-0.002-0.02-0.004c-2.014-0.419-2.749-3.036-4.488-10.963c-0.001-0.003-0.002-0.009-0.002-0.016
		c-0.616-2.795-1.488-6.77-2.241-8.528c-0.752,1.457-1.625,5.081-2.239,7.632c0,0,0,0.002-0.001,0.002
		c-1.74,7.246-2.477,9.571-4.493,9.188c-0.006-0.001-0.013-0.003-0.019-0.006c-0.007,0-0.012-0.002-0.019-0.003
		c-2.011-0.42-2.747-3.031-4.486-10.951v-0.002c-0.002-0.008-0.004-0.018-0.006-0.023c-0.613-2.795-1.486-6.771-2.239-8.528
		c-0.753,1.457-1.626,5.085-2.239,7.635c-0.001,0.005-0.002,0.011-0.003,0.015c-1.745,7.246-2.481,9.563-4.5,9.17
		c-0.002-0.002-0.006-0.002-0.007-0.002h-0.001l-0.002-0.001c-0.003,0-0.006,0-0.008,0c-2.019-0.413-2.754-3.025-4.5-10.972
		c-0.002-0.007-0.003-0.017-0.005-0.024c-0.612-2.793-1.484-6.762-2.236-8.518c-0.753,1.457-1.627,5.084-2.239,7.635l-1.136-0.372
		l1.136,0.372c-0.002,0.008-0.005,0.017-0.008,0.025h0.002c-1.741,7.232-2.478,9.549-4.491,9.16c-0.004,0-0.01-0.003-0.015-0.001
		c-0.006-0.006-0.009-0.004-0.014-0.004c-2.016-0.415-2.752-3.034-4.499-10.981c-0.001-0.009-0.002-0.017-0.004-0.026
		c-0.613-2.793-1.483-6.749-2.233-8.499c-0.753,1.455-1.625,5.082-2.238,7.63l0,0c-0.001,0.001-0.001,0.003-0.001,0.005
		c-1.745,7.25-2.481,9.573-4.497,9.185c-0.004-0.001-0.01,0-0.015-0.003c-0.006,0-0.01-0.003-0.015-0.003
		c-2.014-0.415-2.751-3.029-4.493-10.964C5.102,25.216,5.1,25.21,5.099,25.205l-0.001-0.006c-0.613-2.793-1.485-6.768-2.238-8.523
		c-0.753,1.456-1.624,5.081-2.237,7.629l-2.273-0.744c1.745-7.248,2.48-9.568,4.497-9.177c0.005,0,0.014,0.003,0.013,0.002
		c0.005,0.001,0.008,0.002,0.013,0.002c2.016,0.413,2.752,3.026,4.496,10.965c0.001,0.006,0.002,0.011,0.004,0.015
		c0.613,2.795,1.485,6.773,2.238,8.529c0.753-1.457,1.625-5.085,2.239-7.635c0.001-0.004,0.003-0.009,0.003-0.013
		c1.748-7.261,2.484-9.574,4.509-9.169c0.023,0.004,0.045,0.009,0.067,0.014c1.977,0.451,2.715,3.09,4.443,10.965
		c0.003,0.011,0.004,0.019,0.005,0.029c0.613,2.793,1.484,6.748,2.234,8.499c0.751-1.453,1.621-5.067,2.234-7.607
		c0.001-0.009,0.003-0.017,0.004-0.025c1.746-7.254,2.483-9.575,4.5-9.185c0.005,0.002,0.007,0,0.013,0.002
		c-0.001-0.002,0.009,0.003,0.013,0.003c2.018,0.414,2.754,3.03,4.499,10.982c0.002,0.007,0.003,0.014,0.004,0.021
		c0.613,2.79,1.484,6.754,2.235,8.507c0.751-1.455,1.623-5.078,2.236-7.625h0.001c0-0.003,0.001-0.005,0.002-0.009
		c1.749-7.271,2.484-9.587,4.513-9.183c0.032,0.007,0.063,0.013,0.093,0.021c1.955,0.468,2.694,3.114,4.411,10.938
		c0.002,0.008,0.004,0.016,0.005,0.021l0.008,0.027c0.61,2.785,1.48,6.748,2.231,8.501c0.755-1.455,1.626-5.082,2.239-7.632
		c0,0,0.001-0.001,0.001-0.003c1.747-7.257,2.482-9.578,4.501-9.185c0.004,0.002,0.006,0.002,0.01,0.002l0.001,0.001h0.001
		c0.004,0.001,0.006,0.001,0.009,0.002c2.018,0.411,2.754,3.023,4.498,10.966c0.001,0.007,0.004,0.011,0.005,0.016
		c0.613,2.794,1.484,6.771,2.238,8.528c0.751-1.454,1.621-5.068,2.233-7.611l1.142,0.347l-0.036-0.011l0.018,0.007l-1.111-0.389
		c1.746-7.253,2.481-9.565,4.508-9.159c0.023,0.003,0.047,0.008,0.069,0.015c1.97,0.452,2.709,3.09,4.432,10.937
		c0.004,0.011,0.007,0.02,0.008,0.028c0.613,2.797,1.484,6.773,2.239,8.53c0.753-1.456,1.626-5.087,2.238-7.637
		c0.002-0.009,0.003-0.017,0.006-0.023l0,0c1.743-7.24,2.479-9.555,4.498-9.161c0.002,0.002,0.005,0.002,0.007,0.002h0.001h0.003
		c0.002,0.001,0.004,0.001,0.008,0.003c2.019,0.411,2.755,3.026,4.502,10.98c0.003,0.009,0.004,0.017,0.005,0.023
		c0.614,2.795,1.484,6.755,2.235,8.507c0.753-1.454,1.625-5.085,2.237-7.634c0.002-0.006,0.004-0.01,0.005-0.015
		c1.746-7.26,2.484-9.571,4.51-9.167c0.03,0.005,0.061,0.013,0.09,0.02c1.955,0.467,2.696,3.112,4.415,10.938
		c0.003,0.009,0.005,0.018,0.006,0.023c0.612,2.796,1.483,6.769,2.238,8.528c0.752-1.458,1.625-5.083,2.238-7.629
		c0-0.002,0-0.004,0.002-0.005c1.74-7.246,2.477-9.571,4.491-9.188c0.007,0.003,0.012,0.001,0.02,0.005
		c0.006,0,0.013,0.002,0.019,0.003c2.012,0.419,2.747,3.033,4.487,10.954c0.001,0.003,0.001,0.005,0.002,0.008
		c0.001,0.006,0.002,0.012,0.003,0.017c0.615,2.795,1.486,6.771,2.24,8.528c0.753-1.457,1.625-5.085,2.238-7.634
		c0.001-0.004,0.002-0.009,0.004-0.014c1.747-7.26,2.483-9.572,4.51-9.168c0.023,0.004,0.047,0.01,0.07,0.015
		c1.973,0.454,2.712,3.097,4.44,10.968c0.003,0.018,0.007,0.033,0.009,0.047c0.613,2.792,1.481,6.73,2.229,8.479
		c0.753-1.458,1.625-5.085,2.239-7.636l0,0l1.135,0.372l-1.135-0.372c0.003-0.016,0.007-0.033,0.014-0.049h-0.004
		c1.744-7.219,2.478-9.528,4.492-9.136c0.002,0.002,0.007,0.002,0.009,0.002h0.001l0.001,0.002c0.003,0,0.006,0,0.009,0.002
		c2.019,0.41,2.754,3.026,4.502,10.979c0.002,0.009,0.003,0.017,0.006,0.025c0,0.002,0,0.002,0,0.002
		c0.612,2.785,1.482,6.748,2.233,8.504c0.751-1.455,1.621-5.07,2.233-7.612l0,0c0.002-0.006,0.004-0.014,0.007-0.022
		c1.744-7.271,2.481-9.588,4.513-9.182c0.638,0.126,1.152,0.613,1.152,1.087c0,0.376-0.324,0.631-0.775,0.657
		c-0.823,0.709-1.899,5.188-2.618,8.181c-0.001,0.007-0.005,0.016-0.006,0.022h0.001c-1.741,7.228-2.478,9.548-4.487,9.164
		C144.639,63.13,144.633,63.13,144.627,63.129z M39.988,32.022l1.136,0.372L39.988,32.022z M11.849,26.263l1.137,0.371
		L11.849,26.263z M-3.89,33.494c0,0-0.001-0.002-0.001-0.002c0.001,0.002-0.008-0.002-0.013-0.002
		c-2.017-0.414-2.753-3.027-4.498-10.973c-0.001-0.006-0.001-0.011-0.003-0.017c-0.613-2.792-1.485-6.762-2.237-8.517
		c-0.753,1.457-1.625,5.085-2.239,7.634c-0.107,0.447-0.7,0.645-1.331,0.437c-0.627-0.205-1.048-0.731-0.942-1.178
		c1.749-7.271,2.485-9.589,4.514-9.184c0.031,0.007,0.061,0.014,0.091,0.021c1.957,0.467,2.697,3.118,4.418,10.958
		c0.001,0.006,0.002,0.011,0.004,0.016c0.613,2.792,1.484,6.76,2.236,8.515c0.752-1.456,1.624-5.081,2.237-7.63l2.273,0.743
		c-1.745,7.251-2.48,9.571-4.498,9.181C-3.882,33.494-3.885,33.494-3.89,33.494z"/>
</g>
<g id="Combined">
	<g>
		<path d="M38.945,23.334c-0.613-2.79-1.485-6.759-2.238-8.515c-0.752,1.456-1.624,5.082-2.237,7.633c0,0,0,0,0,0.001
			c-0.391,1.622-0.729,2.984-1.044,4.138c0.288,1.193,0.598,2.567,0.948,4.166c0.002,0.007,0.003,0.014,0.004,0.021
			c0.613,2.79,1.484,6.754,2.235,8.507c0.751-1.455,1.623-5.078,2.236-7.625h0.001c0-0.003,0.001-0.005,0.002-0.009
			c0.39-1.622,0.729-2.984,1.043-4.138c-0.287-1.189-0.595-2.558-0.944-4.15c0-0.005-0.001-0.01-0.003-0.017L38.945,23.334z"/>
		<path d="M5.092,16.735c0.033-0.136,0.067-0.279,0.099-0.409l2.272,0.743c-0.389,1.617-0.727,2.977-1.042,4.128
			c0.288,1.19,0.596,2.561,0.946,4.155c0.001,0.006,0.002,0.011,0.004,0.015c0.613,2.795,1.485,6.773,2.238,8.529
			c0.753-1.457,1.625-5.085,2.239-7.635c0.001-0.004,0.003-0.009,0.003-0.013c0.389-1.615,0.726-2.973,1.04-4.124
			c-0.285-1.183-0.592-2.544-0.939-4.125c-0.003-0.015-0.008-0.028-0.01-0.043c-0.613-2.795-1.486-6.772-2.239-8.529
			c-0.752,1.456-1.625,5.081-2.238,7.628l-2.272-0.743c1.745-7.248,2.481-9.57,4.498-9.178c0.005,0,0.01,0.003,0.013,0.002
			c0.001,0.001,0.007,0.001,0.012,0.003c2.015,0.413,2.752,3.022,4.491,10.94c0.003,0.015,0.007,0.028,0.011,0.043
			c0.012,0.053,0.025,0.113,0.037,0.167c0.584-1.045,1.223-1.387,2.107-1.21c0.023,0.004,0.045,0.009,0.067,0.014
			c0.913,0.208,1.562,0.894,2.166,2.337c0.033-0.137,0.068-0.282,0.1-0.414c0.002-0.005,0.003-0.01,0.004-0.015
			c1.749-7.259,2.483-9.571,4.51-9.167c0.031,0.006,0.06,0.013,0.09,0.021c1.955,0.466,2.694,3.113,4.412,10.937
			c0.002,0.009,0.003,0.016,0.005,0.023c0.012,0.053,0.022,0.113,0.034,0.168c0.581-1.04,1.21-1.385,2.087-1.215
			c0.005,0.002-0.005,0,0.001,0.002c-0.001-0.002-0.016,0.003-0.012,0.003c0.941,0.193,1.555,0.878,2.172,2.353
			C32.031,21.989,32,21.843,32,21.71c0-0.001,0-0.001,0-0.002c2-7.244,2.577-9.569,4.589-9.185c0.007,0.001,0.11,0.001,0.118,0.004
			c0.004-0.002,0.015,0.002,0.021,0.003c2.011,0.42,2.747,3.036,4.488,10.964c0.001,0.006,0.002,0.011,0.003,0.016
			c0.012,0.054,0.025,0.115,0.037,0.17c0.585-1.045,1.224-1.387,2.108-1.211c0.032,0.007,0.063,0.013,0.093,0.021
			c0.899,0.215,1.541,0.901,2.14,2.331c0.033-0.138,0.068-0.284,0.101-0.417c0.001-0.006,0.003-0.011,0.004-0.016
			c0.377-1.566,0.705-2.889,1.011-4.018C44.973,9.393,35.469,1,24,1C14.707,1,6.707,6.514,3.079,14.446
			C3.911,14.694,4.523,15.375,5.092,16.735z"/>
		<path d="M42.244,27.984c0.402,1.631,0.824,3.142,1.215,4.053c0.359-0.695,0.746-1.892,1.119-3.224
			c-0.402-1.632-0.824-3.143-1.215-4.054C43.004,25.456,42.617,26.652,42.244,27.984z"/>
		<path d="M28.742,25.288c0.402,1.632,0.824,3.144,1.216,4.056c0.359-0.696,0.747-1.893,1.12-3.226
			c-0.402-1.632-0.825-3.144-1.216-4.056C29.503,22.759,29.115,23.956,28.742,25.288z"/>
		<path d="M4.074,20.726c-0.402-1.63-0.824-3.139-1.214-4.05c-0.36,0.697-0.748,1.896-1.121,3.23
			c0.401,1.629,0.823,3.137,1.214,4.048C3.313,23.258,3.7,22.06,4.074,20.726z"/>
		<path d="M23.207,12.127c-0.752,1.455-1.623,5.075-2.236,7.622c-0.001,0.003-0.003,0.007-0.003,0.01
			c-0.39,1.622-0.728,2.984-1.043,4.138c0.288,1.192,0.597,2.564,0.947,4.162c0.003,0.011,0.004,0.019,0.005,0.029
			c0.613,2.793,1.484,6.748,2.234,8.499c0.751-1.453,1.621-5.067,2.234-7.607c0.001-0.009,0.003-0.017,0.004-0.025
			c0.391-1.622,0.729-2.984,1.044-4.137c-0.286-1.187-0.594-2.552-0.942-4.14c-0.002-0.008-0.004-0.016-0.006-0.023
			C24.832,17.859,23.96,13.883,23.207,12.127z"/>
		<path d="M43.47,34.332c-0.004-0.003-0.006-0.002-0.01-0.002l-0.001,0.001h-0.001c-0.003,0-0.005,0.004-0.01,0.002
			c-0.943-0.192-1.605-0.869-2.223-2.344c-0.034,0.139-0.069,0.298-0.102,0.432c-0.001,0.005-0.002,0.037-0.003,0.041
			c-1.745,7.246-2.289,9.616-4.307,9.223C36.813,41.683,37,41.789,37,41.789V42h-0.389c-0.003,0-0.006,0-0.008,0
			c-2.019-1-2.754-3.236-4.5-11.183c-0.002-0.007-0.003-0.228-0.005-0.235c-0.011-0.05-0.023-0.104-0.034-0.154
			c-0.58,1.036-1.214,1.388-2.089,1.22c-0.006-0.002-0.007,0.011-0.018,0.005c-0.006,0.002-0.012,0.014-0.017,0.014
			c-0.94-0.195-1.602-0.845-2.218-2.316c-0.033,0.139-0.068,0.354-0.101,0.486C27.621,29.844,27.618,30,27.615,30h0.002
			c-1.741,7-2.478,9.41-4.491,9.021c-0.004,0-0.01-0.141-0.015-0.139c-0.006-0.006-0.009-0.003-0.014-0.003
			c-2.016-0.415-2.752-3.032-4.499-10.979c-0.001-0.009-0.002-0.014-0.004-0.023c-0.01-0.045-0.021-0.087-0.031-0.132
			c-0.581,1.039-1.215,1.399-2.092,1.229C16.467,28.973,16.463,29,16.458,29c-0.001,0-0.002,0-0.004,0
			c-0.004,0-0.008-0.031-0.012-0.032c-0.941-0.193-1.603-0.906-2.219-2.378c-0.033,0.137-0.067,0.28-0.099,0.411
			c-0.001,0.001-0.001,0.002-0.001,0.004c-1.745,7.25-2.481,9.572-4.497,9.184c-0.004-0.001-0.01-0.002-0.015-0.005
			c-0.006,0-0.01-0.007-0.015-0.007c-2.014-0.415-2.751-3.037-4.493-10.972C5.102,25.2,5.1,25.179,5.099,25.174l-0.001-0.037
			c-0.012-0.053-0.025-0.175-0.037-0.229C4.479,25.95,3.843,26,2.963,26c-0.003,0-0.006,0-0.01,0c-0.002,0-0.02,0.121-0.023,0.119
			c-0.783-0.159-1.382-0.58-1.916-1.558C1.314,37.005,11.486,47,24,47c9.046,0,16.868-5.225,20.624-12.818
			C44.284,34.374,43.907,34.417,43.47,34.332z"/>
		<path d="M15.241,22.597c0.402,1.632,0.825,3.144,1.216,4.056c0.36-0.696,0.747-1.894,1.119-3.227
			c-0.402-1.632-0.824-3.143-1.215-4.054C16.001,20.067,15.614,21.264,15.241,22.597z"/>
	</g>
</g>
</svg>
