<?xml version="1.0" encoding="utf-8"?>
<!-- Generator: Adobe Illustrator 16.0.0, SVG Export Plug-In . SVG Version: 6.00 Build 0)  -->
<!DOCTYPE svg PUBLIC "-//W3C//DTD SVG 1.1//EN" "http://www.w3.org/Graphics/SVG/1.1/DTD/svg11.dtd">
<svg version="1.1" xmlns="http://www.w3.org/2000/svg" xmlns:xlink="http://www.w3.org/1999/xlink" x="0px" y="0px" width="48px"
	 height="48px" viewBox="0 0 48 48" enable-background="new 0 0 48 48" xml:space="preserve">
<g id="Layer_1" display="none">
	<path display="inline" d="M47,41c0,3.313-2.688,6-6,6H7c-3.313,0-6-2.688-6-6V7c0-3.313,2.687-6,6-6h34c3.313,0,6,2.687,6,6V41z"/>
	
		<text transform="matrix(1 0 0 1 9.8389 32.5723)" display="inline" fill="#FFFFFF" font-family="'PalatinoLinotype-BoldItalic'" font-size="34">fx</text>
</g>
<g id="Composed">
	<path d="M41,1H7C3.688,1,1,3.687,1,7v34c0,3.313,2.688,6,6,6h34c3.313,0,6-2.688,6-6V7C47,3.687,44.313,1,41,1z M18.538,18.776
		l-1.295,5.761c-0.531,2.369-1.052,4.46-1.561,6.275c-0.675,2.435-1.336,4.28-1.984,5.537c-0.647,1.256-1.469,2.385-2.465,3.387
		c-0.996,1.001-1.893,1.69-2.689,2.066c-0.498,0.232-0.974,0.349-1.428,0.349c-0.398,0-0.819-0.1-1.262-0.299
		c0.531-1.372,0.896-2.601,1.096-3.686l0.531-0.1c0.432,1.007,0.985,1.511,1.66,1.511c0.232,0,0.457-0.059,0.672-0.174
		c0.216-0.117,0.417-0.308,0.606-0.573c0.188-0.266,0.423-0.946,0.706-2.042s0.623-2.695,1.021-4.798l1.229-6.425l1.295-6.79
		c-0.631-0.022-1.135-0.033-1.511-0.033c-0.576,0-1.085,0.011-1.527,0.033l-0.116-0.149l0.116-0.598l0.183-0.183
		c0.254-0.088,0.758-0.243,1.511-0.465c0.752-0.221,1.333-0.426,1.743-0.614c0.033-0.077,0.105-0.382,0.216-0.913
		c0.188-0.819,0.354-1.408,0.498-1.768c0.144-0.359,0.393-0.755,0.747-1.187c0.354-0.432,1.001-1.046,1.942-1.843
		c0.94-0.797,1.812-1.48,2.615-2.05c0.802-0.57,1.405-0.932,1.81-1.087c0.404-0.155,0.849-0.232,1.336-0.232
		c0.52,0,1.018,0.094,1.494,0.282c-0.432,1.472-0.747,2.905-0.946,4.3l-0.498,0.116c-0.853-1.306-1.705-1.959-2.557-1.959
		c-0.31,0-0.601,0.097-0.872,0.291c-0.271,0.194-0.481,0.454-0.631,0.78c-0.149,0.327-0.363,1.06-0.639,2.2
		c-0.277,1.14-0.509,2.252-0.697,3.337h0.382c0.221,0,0.838-0.027,1.851-0.083c1.013-0.055,1.674-0.116,1.984-0.183l0.166,0.266
		c-0.232,0.631-0.393,1.157-0.481,1.577l-0.183,0.166c-0.388-0.022-1.151-0.033-2.291-0.033
		C19.396,18.743,18.804,18.754,18.538,18.776z M37.364,20.403l-0.714,0.133l-0.315-0.946c-0.232-0.11-0.448-0.166-0.647-0.166
		c-0.598,0-1.195,0.269-1.793,0.805c-0.598,0.537-1.483,1.658-2.656,3.362c0.343,2.258,0.642,3.833,0.896,4.724
		s0.515,1.475,0.78,1.751s0.537,0.415,0.813,0.415c0.498,0,1.345-0.515,2.54-1.544l0.199,0.017l0.382,0.614l-0.033,0.199
		c-1.937,1.693-3.201,2.703-3.794,3.03c-0.592,0.326-1.109,0.489-1.552,0.489c-0.509,0-0.969-0.199-1.378-0.598
		s-0.705-0.94-0.889-1.627c-0.182-0.687-0.423-2.003-0.722-3.951c-1.295,1.882-2.216,3.157-2.765,3.827
		c-0.547,0.669-0.995,1.164-1.344,1.485c-0.349,0.321-0.687,0.545-1.013,0.673c-0.327,0.127-0.667,0.19-1.021,0.19
		c-0.222,0-0.396-0.02-0.523-0.058c-0.127-0.039-0.435-0.169-0.921-0.391c0.177-0.487,0.321-1.106,0.432-1.859
		c0.11-0.753,0.166-1.192,0.166-1.32c0-0.127-0.006-0.251-0.017-0.373l0.83-0.083l0.199,1.063c0.332,0.133,0.625,0.199,0.88,0.199
		c0.387,0,0.808-0.142,1.262-0.423c0.454-0.283,1.096-0.966,1.926-2.051c0.83-1.084,1.367-1.82,1.61-2.208
		c-0.343-2.059-0.606-3.505-0.788-4.341c-0.184-0.835-0.449-1.383-0.797-1.644c-0.35-0.26-0.689-0.39-1.021-0.39
		c-0.421,0-0.853,0.144-1.295,0.432c-0.443,0.288-0.775,0.637-0.996,1.046l-0.199,0.066l-0.548-0.315l-0.033-0.183
		c1.106-1.749,1.749-2.883,1.926-3.403c0.886-0.454,1.721-0.681,2.507-0.681c1.052,0,1.849,0.285,2.391,0.855
		c0.542,0.57,0.907,1.201,1.096,1.893c0.188,0.692,0.371,1.729,0.548,3.113c1.594-2.335,2.676-3.791,3.245-4.366
		c0.57-0.575,1.077-0.963,1.52-1.162s0.863-0.299,1.262-0.299c0.321,0,0.703,0.089,1.146,0.266
		C37.757,17.609,37.497,18.854,37.364,20.403z"/>
</g>
</svg>
