<?xml version="1.0" encoding="UTF-8" standalone="no"?>
<!-- Generator: Adobe Illustrator 16.0.0, SVG Export Plug-In . SVG Version: 6.00 Build 0)  -->

<svg
   version="1.1"
   x="0px"
   y="0px"
   width="48"
   height="48"
   viewBox="0 0 48 48"
   enable-background="new 0 0 48 48"
   xml:space="preserve"
   id="svg141"
   xmlns="http://www.w3.org/2000/svg"
   xmlns:svg="http://www.w3.org/2000/svg"><defs
   id="defs145" />

<path
   id="path138"
   d="M 7,1 C 3.6870066,1 1,3.6870066 1,7 v 34 c 0,3.312994 2.6870066,6 6,6 h 34 c 3.312994,0 6,-2.688006 6,-6 V 7 C 47,3.6870066 44.312994,1 41,1 Z m 8.841797,6.515625 h 5.041015 c 0.588947,0 1.082064,0.1968374 1.480469,0.5917969 0.398405,0.3949594 0.597657,0.8848969 0.597657,1.46875 v 8.2421871 h -3.119141 l -2.078125,2.060547 h 5.197266 v 6.181641 h -4.574219 l -2.078125,-4.121094 h -4.78125 L 9.4492188,24 H 15.0625 l 2.078125,4.121094 h 5.820313 v 10.302734 c 0,0.583853 -0.199252,1.073791 -0.597657,1.46875 -0.398405,0.39496 -0.891522,0.591797 -1.480469,0.591797 h -5.041015 c -0.381083,0 -0.737289,-0.09431 -1.066406,-0.283203 -0.329117,-0.188894 -0.578734,-0.453432 -0.751953,-0.796875 L 9.96875,32.242188 h 3.013672 l 2.080078,4.121093 h 4.779297 V 34.302734 H 16.308594 L 14.230469,30.181641 H 8.8261719 L 5.8632812,25.03125 C 5.7939934,24.859528 5.7336065,24.687346 5.6816406,24.515625 5.6296747,24.343903 5.6035156,24.171721 5.6035156,24 c 0,-0.137377 0.086546,-0.481741 0.2597656,-1.03125 l 2.9628907,-5.150391 h 5.4042971 l 2.078125,-4.121093 h 3.533203 V 11.636719 H 15.0625 l -2.080078,4.121093 H 9.96875 l 4.054688,-7.1621089 c 0.173219,-0.343443 0.422836,-0.6079813 0.751953,-0.796875 0.329117,-0.1888936 0.685323,-0.2832031 1.066406,-0.2832031 z m 11.275391,0 h 5.041015 c 0.381084,0 0.737289,0.094309 1.066406,0.2832031 0.329117,0.1888937 0.578734,0.453432 0.751953,0.796875 L 38.03125,15.757812 H 35.017578 L 32.9375,11.636719 h -4.779297 v 2.060547 h 3.533203 l 2.078125,4.121093 h 5.404297 l 2.962891,5.150391 c 0.06929,0.171721 0.129675,0.343903 0.18164,0.515625 0.05197,0.171721 0.07813,0.343903 0.07813,0.515625 0,0.137377 -0.08655,0.481741 -0.259765,1.03125 l -2.962891,5.150391 h -5.404297 l -2.078125,4.121093 h -3.533203 v 2.060547 H 32.9375 l 2.080078,-4.121093 h 3.013672 l -4.054688,7.162109 c -0.173219,0.343443 -0.422836,0.607981 -0.751953,0.796875 -0.329117,0.188894 -0.685322,0.283203 -1.066406,0.283203 h -5.041015 c -0.588947,0 -1.082064,-0.196837 -1.480469,-0.591797 -0.398406,-0.394959 -0.597657,-0.884897 -0.597657,-1.46875 V 28.121094 h 5.820313 L 32.9375,24 h 5.613281 l -2.078125,-2.060547 h -4.78125 l -2.078125,4.121094 h -4.574219 v -6.181641 h 5.197266 L 28.158203,17.818359 H 25.039062 V 9.5761719 c 10e-7,-0.5838531 0.199251,-1.0737906 0.597657,-1.46875 0.398405,-0.3949595 0.891522,-0.5917969 1.480469,-0.5917969 z" />
</svg>
