<?xml version="1.0" encoding="UTF-8" standalone="no"?>
<!-- Generator: Adobe Illustrator 16.0.0, SVG Export Plug-In . SVG Version: 6.00 Build 0)  -->

<svg
   version="1.1"
   x="0px"
   y="0px"
   width="48px"
   height="48px"
   viewBox="0 0 48 48"
   enable-background="new 0 0 48 48"
   xml:space="preserve"
   id="svg870"
   xmlns="http://www.w3.org/2000/svg"
   xmlns:svg="http://www.w3.org/2000/svg"><defs
   id="defs874">
	
	
	
	
	
	
</defs>
<path
   id="path850"
   d="M 7 1 C 3.6870033 1 1 3.6870033 1 7 L 1 41 C 1 44.311997 3.6870033 47 7 47 L 41 47 C 44.311997 47 47 44.312997 47 41 L 47 7 C 47 3.6870033 44.312997 1 41 1 L 7 1 z M 11 10.5 L 14 10.5 L 14 12 L 14 31.083984 L 19 31.083984 L 19 19 L 19 17.5 L 22 17.5 L 22 19 L 22 31.083984 L 27 31.083984 L 27 15 L 27 13.5 L 30 13.5 L 30 15 L 30 31.083984 L 35 31.083984 L 35 23 L 35 21.5 L 38 21.5 L 38 23 L 38 31.083984 L 38.583984 31.083984 L 40.083984 31.083984 L 40.083984 34.083984 L 38.583984 34.083984 L 38 34.083984 L 35 34.083984 L 10.167969 34.083984 L 8.6679688 34.083984 L 8.6679688 31.083984 L 10.167969 31.083984 L 11 31.083984 L 11 12 L 11 10.5 z " />

</svg>
