<?xml version="1.0" encoding="utf-8"?>
<!-- Generator: Adobe Illustrator 16.0.0, SVG Export Plug-In . SVG Version: 6.00 Build 0)  -->
<!DOCTYPE svg PUBLIC "-//W3C//DTD SVG 1.1//EN" "http://www.w3.org/Graphics/SVG/1.1/DTD/svg11.dtd">
<svg version="1.1" xmlns="http://www.w3.org/2000/svg" xmlns:xlink="http://www.w3.org/1999/xlink" x="0px" y="0px" width="48px"
	 height="48px" viewBox="0 0 48 48" enable-background="new 0 0 48 48" xml:space="preserve">
<g id="Layer_1" display="none">
	<path display="inline" d="M47,41c0,3.313-2.687,6-6,6H7c-3.313,0-6-2.687-6-6V7c0-3.313,2.687-6,6-6h34c3.313,0,6,2.687,6,6V41z"/>
	<path display="inline" fill="#FFFFFF" d="M37.636,33.571L25.244,21.105c1.226-3.152,0.545-6.849-2.042-9.453
		c-2.723-2.739-6.808-3.288-10.075-1.78l5.855,5.89l-4.085,4.11l-5.992-5.891c-1.633,3.287-0.952,7.397,1.771,10.136
		c2.586,2.603,6.263,3.289,9.394,2.055L32.461,38.64c0.545,0.547,1.362,0.547,1.906,0l3.131-3.15
		C38.18,34.94,38.18,33.981,37.636,33.571z"/>
</g>
<g id="Combined">
	<path d="M41,1H7C3.687,1,1,3.687,1,7v34c0,3.313,2.687,6,6,6h34c3.313,0,6-2.687,6-6V7C47,3.687,44.313,1,41,1z M37.498,35.489
		l-3.131,3.15c-0.544,0.547-1.361,0.547-1.906,0L20.07,26.173c-3.131,1.233-6.808,0.548-9.394-2.055
		c-2.723-2.739-3.404-6.849-1.771-10.136l5.992,5.891l4.085-4.11l-5.855-5.89c3.267-1.507,7.352-0.959,10.075,1.78
		c2.587,2.604,3.268,6.301,2.042,9.453l12.392,12.466C38.18,33.981,38.18,34.94,37.498,35.489z"/>
</g>
</svg>
