<?xml version="1.0" encoding="UTF-8" standalone="no"?>
<!-- Created with Inkscape (http://www.inkscape.org/) -->

<svg
   width="24"
   height="24"
   viewBox="0 0 6.35 6.35"
   version="1.1"
   xmlns="http://www.w3.org/2000/svg"
   xmlns:svg="http://www.w3.org/2000/svg">
  <path
     id="path4452"
     d="M 3.1501953 1.1797729 C 2.3438819 1.1900494 1.6500313 1.6826477 1.3451375 2.38125 L 1.786971 2.38125 C 2.0624356 1.9000342 2.5807156 1.5761312 3.1760335 1.5761312 C 4.0608593 1.5761312 4.7733521 2.2912075 4.7733521 3.1760335 C 4.7733521 4.0608594 4.0608593 4.7733521 3.1760335 4.7733521 C 2.580068 4.7733521 2.0611725 4.450254 1.7859375 3.96875 L 1.3446208 3.96875 C 1.6524938 4.6748172 2.3583381 5.1697103 3.1760335 5.1697103 C 4.2753461 5.1697103 5.1697103 4.2753461 5.1697103 3.1760335 C 5.1697103 2.0767208 4.2753461 1.1797729 3.1760335 1.1797729 C 3.1674451 1.1797729 3.1587586 1.1796638 3.1501953 1.1797729 z " />
  <path
     id="ellipse4674"
     d="M 3.1760335 2.3300903 C 2.7944551 2.3300903 2.4622893 2.5720679 2.3455933 2.9098999 L 0.64078776 2.9098999 L 0.64078776 3.4395833 L 2.3450765 3.4395833 C 2.4612025 3.7778767 2.7937654 4.019393 3.1760335 4.0193929 C 3.651938 4.0193929 4.0488484 3.6453545 4.0488485 3.1760335 C 4.0488485 2.7067124 3.6519381 2.3300904 3.1760335 2.3300903 z M 3.1760335 2.7264486 C 3.4466224 2.7264486 3.6524902 2.9307799 3.6524902 3.1760335 C 3.6524901 3.4212871 3.4466224 3.6230347 3.1760335 3.6230347 C 2.9054446 3.6230347 2.6975099 3.4212871 2.6975098 3.1760335 C 2.6975098 2.9307799 2.9054446 2.7264486 3.1760335 2.7264486 z " />
</svg>
