<?xml version="1.0" encoding="UTF-8" standalone="no"?>
<!-- Created with Inkscape (http://www.inkscape.org/) -->

<svg
   width="24"
   height="24"
   viewBox="0 0 6.3499999 6.35"
   version="1.1"
   id="svg5"
   xmlns="http://www.w3.org/2000/svg"
   xmlns:svg="http://www.w3.org/2000/svg">
  <defs
     id="defs2" />
  <g
     id="layer1">
    <path
       style="fill-rule:evenodd;-inkscape-stroke:none"
       d="m 2.2089844,0.26367188 c -0.564979,0 -1.0234375,0.46978477 -1.0234375,1.03710932 v 3.7578125 c 0,0.5673246 0.4584585,1.0371094 1.0234375,1.0371094 H 4.140625 c 0.564979,0 1.0234375,-0.4697848 1.0234375,-1.0371094 V 1.3007812 c 0,-0.56732455 -0.4584585,-1.03710932 -1.0234375,-1.03710932 z m 0,0.52929687 H 4.140625 c 0.276179,0 0.4941406,0.21977775 0.4941406,0.50781245 v 3.7578125 c 0,0.2880348 -0.2179616,0.5078125 -0.4941406,0.5078125 H 2.2089844 c -0.276179,0 -0.4941406,-0.2197777 -0.4941407,-0.5078125 V 1.3007812 c 0,-0.2880347 0.2179617,-0.50781245 0.4941407,-0.50781245 z"
       id="rect234" />
    <path
       style="-inkscape-stroke:none"
       d="m 3.1757813,3.0429688 c -0.4352418,0 -0.7949219,0.357727 -0.7949219,0.7929687 0,0.4352417 0.3596801,0.7949219 0.7949219,0.7949219 0.4352417,0 0.7929687,-0.3596802 0.7929687,-0.7949219 0,-0.4352417 -0.357727,-0.7929687 -0.7929687,-0.7929687 z m 0,0.5292968 c 0.1492592,0 0.2636718,0.1144129 0.2636718,0.2636719 0,0.149259 -0.1144126,0.265625 -0.2636718,0.265625 -0.1492593,0 -0.2656251,-0.116366 -0.265625,-0.265625 0,-0.149259 0.1163657,-0.2636719 0.265625,-0.2636719 z"
       id="path2914" />
  </g>
</svg>
