<?xml version="1.0" encoding="UTF-8" standalone="no"?>
<!-- Created with Inkscape (http://www.inkscape.org/) -->

<svg
   width="24"
   height="24"
   viewBox="0 0 6.3499999 6.35"
   version="1.1"
   id="svg5"
   xmlns="http://www.w3.org/2000/svg"
   xmlns:svg="http://www.w3.org/2000/svg">
  <defs
     id="defs2" />
  <g
     id="layer1">
    <path
       id="path3692"
       d="M 1.7218342,0.53148711 C 1.03731,0.54023357 0.48004958,1.102787 0.48004958,1.7892914 c 0,0.69191 0.56589442,1.2578044 1.25780432,1.2578044 0.69191,0 1.2598715,-0.5658944 1.2598715,-1.2578044 0,-0.5024751 -0.2996529,-0.9383787 -0.7286377,-1.13946526 L 2.1460978,1.1831269 c 0.1950392,0.1300488 0.3224609,0.3518001 0.3224609,0.6061645 0,0.4059278 -0.324777,0.7286377 -0.7307048,0.7286377 -0.4059278,0 -0.7286376,-0.3227099 -0.7286376,-0.7286377 0,-0.3691252 0.2670204,-0.669466 0.6206339,-0.7208862 L 1.4810221,1.7143606 1.7388875,1.7737885 1.8990844,1.0782237 2.0174234,0.56300973 c -0.0053,-0.001214 -0.010694,-0.002471 -0.01602,-0.003617 -0.00604,-0.001301 -0.012021,-0.002404 -0.018087,-0.003617 -0.00465,-9.2974e-4 -0.00928,-0.001706 -0.013953,-0.002584 -0.0066,-0.001242 -0.013523,-0.002479 -0.020154,-0.003617 -0.00411,-7.0267e-4 -0.00828,-0.001405 -0.012402,-0.002067 -0.00736,-0.001187 -0.01482,-0.00256 -0.022221,-0.003617 -8.711e-4,-1.2398e-4 -0.00171,-3.9459e-4 -0.00258,-5.1676e-4 -0.010646,-0.001498 -0.021313,-0.002391 -0.032039,-0.003617 -0.00292,-3.3196e-4 -0.00586,-7.218e-4 -0.00879,-0.001034 -0.00879,-9.4149e-4 -0.017517,-0.001827 -0.026355,-0.002584 -0.00221,-1.8873e-4 -0.0045,-3.3967e-4 -0.00672,-5.1677e-4 -0.00954,-7.6485e-4 -0.019336,-0.00152 -0.028939,-0.002067 -0.00717,-4.0808e-4 -0.014505,-7.4831e-4 -0.021704,-0.001034 -0.00474,-1.8774e-4 -0.0092,-3.827e-4 -0.013953,-5.1677e-4 -0.00657,-1.8642e-4 -0.013046,-4.3271e-4 -0.019637,-5.1676e-4 -0.00537,-6.855e-5 -0.010629,0 -0.01602,0 -0.00541,0 -0.01063,-6.887e-5 -0.01602,0 z" />
    <path
       id="path3861"
       d="m 4.23951,2.741472 c -0.6845242,0.00875 -1.2417846,0.5712999 -1.2417846,1.2578043 0,0.69191 0.5658944,1.2578044 1.2578043,1.2578044 0.69191,0 1.2598715,-0.5658944 1.2598715,-1.2578044 0,-0.5024751 -0.2996529,-0.9383787 -0.7286377,-1.1394653 L 4.6637736,3.3931118 c 0.1950392,0.1300488 0.3224609,0.3518001 0.3224609,0.6061645 0,0.4059278 -0.324777,0.7286377 -0.7307048,0.7286377 -0.4059278,0 -0.7286377,-0.3227099 -0.7286377,-0.7286377 0,-0.3691252 0.2670204,-0.669466 0.620634,-0.7208862 l -0.1488281,0.6459554 0.2578654,0.059428 0.1601969,-0.6955648 0.118339,-0.515214 c -0.0053,-0.00121 -0.010694,-0.00247 -0.01602,-0.00362 -0.00604,-0.0013 -0.012021,-0.0024 -0.018087,-0.00362 -0.00465,-9.297e-4 -0.00928,-0.00171 -0.013953,-0.00258 -0.0066,-0.00124 -0.013523,-0.00248 -0.020154,-0.00362 -0.00411,-7.027e-4 -0.00828,-0.0014 -0.012402,-0.00207 -0.00736,-0.00119 -0.01482,-0.00256 -0.022221,-0.00362 -8.711e-4,-1.24e-4 -0.00171,-3.946e-4 -0.00258,-5.168e-4 -0.010646,-0.0015 -0.021313,-0.00239 -0.032039,-0.00362 -0.00292,-3.319e-4 -0.00586,-7.218e-4 -0.00878,-0.00103 -0.00879,-9.415e-4 -0.017517,-0.00183 -0.026355,-0.00258 -0.00221,-1.887e-4 -0.0045,-3.397e-4 -0.00672,-5.168e-4 -0.00954,-7.648e-4 -0.019336,-0.00152 -0.028939,-0.00207 -0.00717,-4.081e-4 -0.014505,-7.483e-4 -0.021704,-0.00103 -0.00474,-1.877e-4 -0.0092,-3.827e-4 -0.013953,-5.167e-4 -0.00657,-1.864e-4 -0.013046,-4.327e-4 -0.019637,-5.168e-4 -0.00537,-6.85e-5 -0.010629,0 -0.01602,0 -0.00541,0 -0.01063,-6.89e-5 -0.01602,0 z" />
  </g>
</svg>
