<?xml version="1.0" encoding="UTF-8" standalone="no"?>
<!-- Created with Inkscape (http://www.inkscape.org/) -->

<svg
   xmlns="http://www.w3.org/2000/svg"
   version="1.1"
   width="24"
   height="24"
   viewBox="0 -960 960 960"
   id="svg2989"
   >
  <path
     d="m 160,-120 c -22,0 -40.83333,-7.83333 -56.5,-23.5 C 87.833333,-159.16667 80,-178 80,-200 l 0,-480 c 0,-22 7.833333,-40.83333 23.5,-56.5 15.66667,-15.66667 34.5,-23.5 56.5,-23.5 l 126,0 74,-80 240,0 74,80 126,0 c 22,0 40.83333,7.83333 56.5,23.5 15.66667,15.66667 23.5,34.5 23.5,56.5 l 0,480 c 0,22 -7.83333,40.83333 -23.5,56.5 -15.66667,15.66667 -34.5,23.5 -56.5,23.5 z m 0,-80 640,0 0,-480 -162,0 -73,-80 -170,0 -73,80 -162,0 z"
     id="path2991" />
   <path
      d="m 525.94232,-463.5401 c 20.01931,2.99822 35.90064,11.34538 47.64404,25.0415 11.74291,13.69643 17.61448,30.62268 17.61475,50.77881 -2.7e-4,31.46491 -13.95533,56.27446 -41.86523,74.42871 -27.91036,18.15431 -65.69352,27.23145 -113.34961,27.23145 -14.88291,0 -29.52157,-0.92285 -43.91602,-2.76856 -14.39458,-1.8457 -30.20023,-5.083 -47.41699,-9.71191 l 5.33203,-75.9375 c 16.123,6.02547 30.38813,10.44197 42.79541,13.24951 12.40714,2.80769 25.42715,4.2115 39.06006,4.21143 20.41003,7e-5 36.10581,-3.4179 47.0874,-10.25391 10.98128,-6.83585 16.472,-15.95205 16.47217,-27.34863 -1.7e-4,-10.37098 -4.06023,-18.31042 -12.18018,-23.81836 -8.12027,-5.50768 -20.41762,-8.26158 -36.89209,-8.26172 l -45.60058,0 0,-66.81152 42.37793,0 c 15.26353,2e-4 27.3729,-2.98564 36.32812,-8.95752 8.95492,-5.97146 13.43245,-13.52761 13.43262,-22.66846 -1.7e-4,-9.69702 -4.57048,-17.58275 -13.71094,-23.65723 -9.14077,-6.07395 -21.76771,-9.11106 -37.88086,-9.11132 -12.22667,2.6e-4 -24.54843,1.18435 -36.96533,3.55224 -12.41706,2.36843 -27.25835,6.00856 -44.52392,10.92041 l -4.33594,-68.67187 c 18.74018,-5.57585 36.48919,-9.57242 53.24707,-11.98975 16.75771,-2.41665 33.81824,-3.62515 51.18164,-3.62549 39.17951,3.4e-4 69.86551,8.23031 92.0581,24.68994 22.19214,16.46026 33.28832,39.28495 33.28858,68.47412 -2.6e-4,18.86742 -5.34694,34.70725 -16.04004,47.51954 -10.6936,12.81268 -25.10764,20.6447 -43.24219,23.49609 z"
      id="path3778"
      />
</svg>
