<?xml version="1.0" encoding="UTF-8" standalone="no"?>
<!-- Created with Inkscape (http://www.inkscape.org/) -->

<svg
   width="5in"
   height="3in"
   viewBox="0 0 127 76.2"
   version="1.1"
   id="svg5"
   xml:space="preserve"
   xmlns:xlink="http://www.w3.org/1999/xlink"
   xmlns="http://www.w3.org/2000/svg"
   xmlns:svg="http://www.w3.org/2000/svg"><defs
     id="defs2"><marker
       style="overflow:visible"
       id="Arrow1"
       refX="0"
       refY="0"
       orient="auto-start-reverse"
       markerWidth="4.0606604"
       markerHeight="6.7071066"
       viewBox="0 0 4.0606602 6.7071068"
       preserveAspectRatio="xMidYMid"><path
         style="fill:none;stroke:context-stroke;stroke-width:1;stroke-linecap:butt"
         d="M 3,-3 0,0 3,3"
         id="path5057"
         transform="rotate(180,0.125,0)" /></marker><radialGradient
       gradientUnits="userSpaceOnUse"
       gradientTransform="matrix(0.00861999,-0.00574666,0.00431,0.006465,24.743123,48.93042)"
       r="702"
       fy="2081.7339"
       fx="439.60104"
       cy="2081.7339"
       cx="439.60104"
       id="radialGradient3983"
       xlink:href="#linearGradient3977" /><linearGradient
       id="linearGradient3977"><stop
         id="stop3979"
         offset="0"
         style="stop-color:#fbfbfa;stop-opacity:1;" /><stop
         id="stop3981"
         offset="1"
         style="stop-color:#29221e;stop-opacity:1" /></linearGradient><radialGradient
       r="51.998943"
       fy="2069.8623"
       fx="1095"
       cy="2069.8623"
       cx="1095"
       gradientTransform="matrix(0.00969768,0,0,0.00969771,29.659274,33.462958)"
       gradientUnits="userSpaceOnUse"
       id="radialGradient5234"
       xlink:href="#linearGradient5242" /><linearGradient
       id="linearGradient5242"><stop
         style="stop-color:#ffffff;stop-opacity:1"
         offset="0"
         id="stop5244" /><stop
         style="stop-color:#f2f2f2;stop-opacity:1"
         offset="1"
         id="stop5246" /></linearGradient><radialGradient
       r="51.998943"
       fy="2069.8623"
       fx="1095"
       cy="2069.8623"
       cx="1095"
       gradientTransform="matrix(0.00969768,0,0,0.00969771,31.928488,28.420262)"
       gradientUnits="userSpaceOnUse"
       id="radialGradient5230"
       xlink:href="#linearGradient5242" /><radialGradient
       r="51.998943"
       fy="2069.8623"
       fx="1095"
       cy="2069.8623"
       cx="1095"
       gradientTransform="matrix(0.00969768,0,0,0.00969771,29.659274,30.059137)"
       gradientUnits="userSpaceOnUse"
       id="radialGradient5226"
       xlink:href="#linearGradient5242" /><linearGradient
       gradientUnits="userSpaceOnUse"
       y2="1249.8622"
       x2="915"
       y1="1249.8622"
       x1="695"
       id="linearGradient4844"
       xlink:href="#linearGradient4838"
       gradientTransform="matrix(0.01260674,0,0,0.01260674,28.743062,28.977804)" /><linearGradient
       id="linearGradient4838"><stop
         id="stop4840"
         offset="0"
         style="stop-color:#dddddd;stop-opacity:1" /><stop
         id="stop4842"
         offset="1"
         style="stop-color:#eeeeee;stop-opacity:1" /></linearGradient><radialGradient
       gradientTransform="matrix(0.00969768,0,0,0.00969771,31.928488,31.824081)"
       gradientUnits="userSpaceOnUse"
       r="51.998943"
       fy="2069.8623"
       fx="1095"
       cy="2069.8623"
       cx="1095"
       id="radialGradient5222"
       xlink:href="#linearGradient5242" /><linearGradient
       gradientTransform="matrix(0.01260674,0,0,0.01260674,31.26441,28.977804)"
       gradientUnits="userSpaceOnUse"
       y2="899.86218"
       x2="55"
       y1="869.86218"
       x1="55"
       id="linearGradient4216"
       xlink:href="#linearGradient4218" /><linearGradient
       id="linearGradient4218"><stop
         style="stop-color:#fff6d5;stop-opacity:1"
         offset="0"
         id="stop4220" /><stop
         style="stop-color:#fff6d5;stop-opacity:0"
         offset="1"
         id="stop4222" /></linearGradient></defs><g
     id="layer1"><g
       aria-label="Figure 1: What we're trying to model"
       id="text17048"
       style="font-weight:bold;font-size:3.175px;font-family:Roboto;-inkscape-font-specification:'Roboto, Bold';stroke-width:0.499999;stroke-linejoin:bevel;stop-color:#000000"><path
         d="M 49.205528,67.799477 V 65.54225 h 1.471228 v 0.376721 h -1.00459 v 0.58291 h 0.892969 v 0.375171 h -0.892969 v 0.922425 z"
         style="stroke-width:0.5"
         id="path20101" /><path
         d="m 50.913951,65.687978 q 0,-0.100769 0.06821,-0.165882 0.06821,-0.06666 0.182935,-0.06666 0.114721,0 0.182934,0.06666 0.06821,0.06511 0.06821,0.165882 0,0.09922 -0.06821,0.165881 -0.06821,0.06511 -0.182934,0.06511 -0.114722,0 -0.182935,-0.06511 -0.06821,-0.06666 -0.06821,-0.165881 z m 0.47749,0.434082 v 1.677417 H 50.941856 V 66.12206 Z"
         style="stroke-width:0.5"
         id="path20103" /><path
         d="m 52.420836,68.459901 q -0.151929,0 -0.334864,-0.06356 -0.181384,-0.06356 -0.289904,-0.198437 l 0.198437,-0.272852 q 0.165882,0.186036 0.407727,0.186036 0.178284,0 0.277503,-0.09612 0.09922,-0.09457 0.09922,-0.271301 v -0.08992 q -0.158129,0.176733 -0.407727,0.176733 -0.311608,0 -0.492993,-0.238745 -0.181384,-0.238745 -0.184485,-0.598413 v -0.04496 q 0,-0.382923 0.181385,-0.620117 0.182934,-0.237195 0.499194,-0.237195 0.277502,0 0.430981,0.189136 l 0.01705,-0.15813 h 0.406176 v 1.620056 q 0,0.345715 -0.224792,0.53175 -0.223242,0.186035 -0.58291,0.186035 z m -0.279053,-1.478979 q 0,0.201538 0.08217,0.344165 0.08372,0.141077 0.260449,0.141077 0.204638,0 0.294555,-0.15503 v -0.703833 q -0.08837,-0.153479 -0.291455,-0.153479 -0.175183,0 -0.260449,0.144178 -0.08527,0.142627 -0.08527,0.350366 z"
         style="stroke-width:0.5"
         id="path20105" /><path
         d="m 54.591246,67.799477 -0.0124,-0.172083 q -0.164331,0.203088 -0.458887,0.203088 -0.246497,0 -0.401526,-0.144177 -0.153479,-0.144177 -0.155029,-0.472839 V 66.12206 h 0.448034 v 1.088305 q 0,0.139527 0.06666,0.198438 0.06666,0.05736 0.170532,0.05736 0.227893,0 0.31471,-0.159681 V 66.12206 h 0.449585 v 1.677417 z"
         style="stroke-width:0.5"
         id="path20107" /><path
         d="m 56.132237,66.528236 q -0.252698,0 -0.331763,0.172083 v 1.099158 H 55.350889 V 66.12206 h 0.42323 l 0.01395,0.199987 q 0.131775,-0.230993 0.373621,-0.230993 0.08527,0 0.137976,0.02015 l -0.0047,0.429431 z"
         style="stroke-width:0.5"
         id="path20109" /><path
         d="m 57.908873,67.526625 q -0.08062,0.114722 -0.244947,0.20929 -0.164331,0.09457 -0.409277,0.09457 -0.390674,0 -0.610815,-0.235644 -0.220142,-0.237195 -0.221692,-0.572058 v -0.06511 q 0,-0.379822 0.21084,-0.623218 0.21239,-0.243396 0.572058,-0.243396 0.361218,0 0.550354,0.226343 0.189136,0.226342 0.189136,0.598413 v 0.190686 h -1.068152 q 0.02325,0.16278 0.128674,0.263549 0.10542,0.09922 0.277502,0.09922 0.255799,0 0.404627,-0.187585 z m -0.706934,-1.074353 q -0.142627,0 -0.220141,0.09612 -0.07751,0.09612 -0.100769,0.251148 h 0.623217 v -0.03411 q -0.0031,-0.134875 -0.07596,-0.223242 -0.07131,-0.08992 -0.226343,-0.08992 z"
         style="stroke-width:0.5"
         id="path20111" /><path
         d="m 60.057579,65.53915 v 2.260327 H 59.609544 V 66.0709 l -0.533301,0.165881 V 65.874013 L 60.00952,65.53915 Z"
         style="stroke-width:0.5"
         id="path20113" /><path
         d="m 60.829625,67.577785 q 0,-0.10232 0.06821,-0.170532 0.06976,-0.06976 0.186036,-0.06976 0.116272,0 0.184484,0.06976 0.06821,0.06821 0.06821,0.170532 0,0.100769 -0.06821,0.170532 -0.06821,0.06821 -0.184484,0.06821 -0.116272,0 -0.186036,-0.06821 -0.06821,-0.06976 -0.06821,-0.170532 z m 0,-1.26969 q 0,-0.10232 0.06821,-0.170532 0.06976,-0.06976 0.186036,-0.06976 0.116272,0 0.184484,0.06976 0.06821,0.06821 0.06821,0.170532 0,0.100769 -0.06821,0.170532 -0.06821,0.06821 -0.184484,0.06821 -0.116272,0 -0.186036,-0.06821 -0.06821,-0.06976 -0.06821,-0.170532 z"
         style="stroke-width:0.5"
         id="path20115" /><path
         d="m 65.051072,65.54225 -0.499194,2.257227 H 64.08369 l -0.36742,-1.509986 -0.367419,1.509986 H 62.880662 L 62.378367,65.54225 h 0.463538 l 0.305408,1.601453 0.37207,-1.601453 h 0.393774 l 0.372071,1.601453 0.303857,-1.601453 z"
         style="stroke-width:0.5"
         id="path20117" /><path
         d="m 65.996751,66.453822 q -0.195337,0 -0.283704,0.150379 v 1.195276 h -0.448034 v -2.38125 h 0.448034 v 0.885217 q 0.175184,-0.21239 0.448035,-0.21239 0.246497,0 0.398425,0.145727 0.153479,0.145728 0.15503,0.497644 v 1.065052 h -0.449585 v -1.060401 q 0,-0.162781 -0.06976,-0.223242 -0.06976,-0.06201 -0.198438,-0.06201 z"
         style="stroke-width:0.5"
         id="path20119" /><path
         d="m 68.024535,67.799477 q -0.02791,-0.05891 -0.04496,-0.150379 -0.16278,0.181384 -0.423229,0.181384 -0.240296,0 -0.404627,-0.141076 -0.164331,-0.142627 -0.164331,-0.361218 0,-0.26355 0.195337,-0.407727 0.195337,-0.145728 0.578259,-0.145728 h 0.199988 v -0.09767 q 0,-0.116272 -0.06046,-0.184485 -0.05891,-0.06976 -0.187586,-0.06976 -0.240295,0 -0.240295,0.201539 h -0.448035 q 0,-0.218592 0.193787,-0.375171 0.193786,-0.15813 0.519348,-0.15813 0.289905,0 0.480591,0.147278 0.192236,0.147277 0.192236,0.441833 v 0.747241 q 0.0031,0.223243 0.06666,0.345716 v 0.02635 z m -0.37052,-0.311609 q 0.113171,0 0.192236,-0.04961 0.08062,-0.05116 0.114722,-0.111621 v -0.291455 h -0.182935 q -0.178283,0 -0.260449,0.07596 -0.08217,0.07441 -0.08217,0.184484 0,0.08372 0.05736,0.137976 0.05891,0.05426 0.161231,0.05426 z"
         style="stroke-width:0.5"
         id="path20121" /><path
         d="m 69.594981,67.788625 q -0.125574,0.04186 -0.269751,0.04186 -0.220142,0 -0.350366,-0.114721 -0.130225,-0.114722 -0.130225,-0.381372 V 66.449171 H 68.598143 V 66.12206 h 0.246496 v -0.413929 h 0.448035 v 0.413929 h 0.285254 v 0.327111 h -0.285254 v 0.838709 q 0,0.10542 0.04341,0.139526 0.04341,0.03411 0.128674,0.03411 0.06821,0 0.130225,-0.0124 z"
         style="stroke-width:0.5"
         id="path20123" /><path
         d="m 72.729674,66.12206 -0.42633,1.677417 h -0.375171 l -0.319361,-1.05575 -0.31781,1.05575 h -0.37362 L 70.489501,66.12206 h 0.432532 l 0.221691,1.066601 0.303858,-1.066601 h 0.324011 l 0.306958,1.065051 0.218591,-1.065051 z"
         style="stroke-width:0.5"
         id="path20125" /><path
         d="m 74.379186,67.526625 q -0.08062,0.114722 -0.244946,0.20929 -0.164331,0.09457 -0.409278,0.09457 -0.390674,0 -0.610815,-0.235644 -0.220142,-0.237195 -0.221692,-0.572058 v -0.06511 q 0,-0.379822 0.21084,-0.623218 0.21239,-0.243396 0.572058,-0.243396 0.361218,0 0.550354,0.226343 0.189136,0.226342 0.189136,0.598413 v 0.190686 h -1.068152 q 0.02325,0.16278 0.128674,0.263549 0.10542,0.09922 0.277502,0.09922 0.255799,0 0.404627,-0.187585 z m -0.706934,-1.074353 q -0.142627,0 -0.220141,0.09612 -0.07752,0.09612 -0.100769,0.251148 h 0.623217 v -0.03411 q -0.0031,-0.134875 -0.07596,-0.223242 -0.07131,-0.08992 -0.226343,-0.08992 z"
         style="stroke-width:0.5"
         id="path20127" /><path
         d="m 74.900084,65.64612 -0.04496,0.624768 h -0.282153 v -0.852661 h 0.327112 z"
         style="stroke-width:0.5"
         id="path20129" /><path
         d="m 75.941881,66.528236 q -0.252698,0 -0.331763,0.172083 v 1.099158 H 75.160534 V 66.12206 h 0.423229 l 0.01395,0.199987 q 0.131775,-0.230993 0.373621,-0.230993 0.08527,0 0.137976,0.02015 l -0.0047,0.429431 z"
         style="stroke-width:0.5"
         id="path20131" /><path
         d="m 77.718517,67.526625 q -0.08062,0.114722 -0.244947,0.20929 -0.164331,0.09457 -0.409277,0.09457 -0.390674,0 -0.610816,-0.235644 -0.220141,-0.237195 -0.221691,-0.572058 v -0.06511 q 0,-0.379822 0.210839,-0.623218 0.212391,-0.243396 0.572059,-0.243396 0.361218,0 0.550354,0.226343 0.189135,0.226342 0.189135,0.598413 v 0.190686 h -1.068152 q 0.02326,0.16278 0.128675,0.263549 0.10542,0.09922 0.277502,0.09922 0.255799,0 0.404627,-0.187585 z m -0.706934,-1.074353 q -0.142627,0 -0.220142,0.09612 -0.07751,0.09612 -0.100769,0.251148 h 0.623218 v -0.03411 q -0.0031,-0.134875 -0.07596,-0.223242 -0.07131,-0.08992 -0.226343,-0.08992 z"
         style="stroke-width:0.5"
         id="path20133" /><path
         d="m 79.637778,67.788625 q -0.125574,0.04186 -0.269751,0.04186 -0.220141,0 -0.350366,-0.114721 -0.130225,-0.114722 -0.130225,-0.381372 V 66.449171 H 78.64094 V 66.12206 h 0.246496 v -0.413929 h 0.448035 v 0.413929 h 0.285254 v 0.327111 h -0.285254 v 0.838709 q 0,0.10542 0.04341,0.139526 0.04341,0.03411 0.128674,0.03411 0.06821,0 0.130225,-0.0124 z"
         style="stroke-width:0.5"
         id="path20135" /><path
         d="m 80.65167,66.528236 q -0.252697,0 -0.331762,0.172083 v 1.099158 H 79.870323 V 66.12206 h 0.42323 l 0.01395,0.199987 q 0.131775,-0.230993 0.373621,-0.230993 0.08527,0 0.137976,0.02015 l -0.0047,0.429431 z"
         style="stroke-width:0.5"
         id="path20137" /><path
         d="m 81.267137,68.476955 q -0.08682,0 -0.198437,-0.02946 v -0.339514 l 0.06976,0.0015 q 0.131775,0 0.195337,-0.04341 0.06356,-0.04186 0.09612,-0.134875 l 0.04961,-0.128675 -0.587561,-1.680517 h 0.482141 l 0.311609,1.044897 0.310059,-1.044897 h 0.47904 l -0.671277,1.928564 q -0.02945,0.08372 -0.08682,0.182935 -0.05736,0.100769 -0.165881,0.172082 -0.10697,0.07131 -0.283704,0.07131 z"
         style="stroke-width:0.5"
         id="path20139" /><path
         d="m 82.649996,65.687978 q 0,-0.100769 0.06821,-0.165882 0.06821,-0.06666 0.182935,-0.06666 0.114721,0 0.182934,0.06666 0.06821,0.06511 0.06821,0.165882 0,0.09922 -0.06821,0.165881 -0.06821,0.06511 -0.182934,0.06511 -0.114722,0 -0.182935,-0.06511 -0.06821,-0.06666 -0.06821,-0.165881 z m 0.47749,0.434082 v 1.677417 H 82.677901 V 66.12206 Z"
         style="stroke-width:0.5"
         id="path20141" /><path
         d="m 84.218896,66.453822 q -0.190686,0 -0.283704,0.161231 v 1.184424 H 83.487157 V 66.12206 h 0.42013 l 0.0155,0.192236 q 0.179834,-0.223242 0.482141,-0.223242 0.237195,0 0.382922,0.141076 0.145728,0.141077 0.147278,0.491443 v 1.075904 h -0.449585 v -1.069703 q 0,-0.16123 -0.06976,-0.218591 -0.06821,-0.05736 -0.196887,-0.05736 z"
         style="stroke-width:0.5"
         id="path20143" /><path
         d="m 85.935067,68.459901 q -0.151929,0 -0.334863,-0.06356 -0.181385,-0.06356 -0.289905,-0.198437 l 0.198437,-0.272852 q 0.165882,0.186036 0.407727,0.186036 0.178284,0 0.277503,-0.09612 0.09922,-0.09457 0.09922,-0.271301 v -0.08992 q -0.15813,0.176733 -0.407727,0.176733 -0.311609,0 -0.492994,-0.238745 -0.181384,-0.238745 -0.184484,-0.598413 v -0.04496 q 0,-0.382923 0.181384,-0.620117 0.182934,-0.237195 0.499194,-0.237195 0.277503,0 0.430982,0.189136 l 0.01705,-0.15813 h 0.406177 v 1.620056 q 0,0.345715 -0.224793,0.53175 -0.223242,0.186035 -0.58291,0.186035 z m -0.279053,-1.478979 q 0,0.201538 0.08217,0.344165 0.08372,0.141077 0.260449,0.141077 0.204639,0 0.294556,-0.15503 v -0.703833 q -0.08837,-0.153479 -0.291455,-0.153479 -0.175184,0 -0.26045,0.144178 -0.08527,0.142627 -0.08527,0.350366 z"
         style="stroke-width:0.5"
         id="path20145" /><path
         d="m 88.717843,67.788625 q -0.125574,0.04186 -0.269751,0.04186 -0.220142,0 -0.350366,-0.114721 -0.130225,-0.114722 -0.130225,-0.381372 V 66.449171 H 87.721004 V 66.12206 h 0.246497 v -0.413929 h 0.448035 v 0.413929 h 0.285254 v 0.327111 h -0.285254 v 0.838709 q 0,0.10542 0.04341,0.139526 0.04341,0.03411 0.128674,0.03411 0.06821,0 0.130225,-0.0124 z"
         style="stroke-width:0.5"
         id="path20147" /><path
         d="m 88.834116,66.945265 q 0,-0.365869 0.207739,-0.609265 0.207739,-0.244946 0.586011,-0.244946 0.382922,0 0.589111,0.244946 0.206189,0.243396 0.206189,0.609265 v 0.03256 q 0,0.365869 -0.206189,0.609265 -0.206189,0.243396 -0.586011,0.243396 -0.376721,0 -0.58446,-0.237194 -0.206189,-0.237195 -0.21239,-0.595313 z m 0.449585,0.03256 q 0,0.204639 0.07751,0.348816 0.07906,0.142627 0.269751,0.142627 0.187586,0 0.2651,-0.142627 0.07906,-0.142627 0.07906,-0.381372 0,-0.199988 -0.07906,-0.345715 -0.07751,-0.147278 -0.2682,-0.147278 -0.189136,0 -0.266651,0.145728 -0.07751,0.145727 -0.07751,0.379821 z"
         style="stroke-width:0.5"
         id="path20149" /><path
         d="m 92.213753,66.453822 q -0.186035,0 -0.274401,0.15813 v 1.187525 H 91.489767 V 66.12206 h 0.421679 l 0.0155,0.184485 q 0.175183,-0.215491 0.480591,-0.215491 0.324011,0 0.444934,0.255798 0.172083,-0.255798 0.503845,-0.255798 0.241846,0 0.389124,0.142627 0.147278,0.142627 0.148828,0.489892 v 1.075904 h -0.449585 v -1.069703 q 0,-0.167431 -0.06821,-0.221691 -0.06666,-0.05426 -0.182934,-0.05426 -0.198438,0 -0.277503,0.187586 v 1.158069 h -0.448034 v -1.066602 q 0,-0.165881 -0.06821,-0.221692 -0.06821,-0.05736 -0.186036,-0.05736 z"
         style="stroke-width:0.5"
         id="path20151" /><path
         d="m 94.168676,66.945265 q 0,-0.365869 0.207739,-0.609265 0.20774,-0.244946 0.586011,-0.244946 0.382922,0 0.589111,0.244946 0.206189,0.243396 0.206189,0.609265 v 0.03256 q 0,0.365869 -0.206189,0.609265 -0.206189,0.243396 -0.58601,0.243396 -0.376722,0 -0.584461,-0.237194 -0.206189,-0.237195 -0.21239,-0.595313 z m 0.449585,0.03256 q 0,0.204639 0.07751,0.348816 0.07906,0.142627 0.269751,0.142627 0.187585,0 0.2651,-0.142627 0.07906,-0.142627 0.07906,-0.381372 0,-0.199988 -0.07906,-0.345715 -0.07752,-0.147278 -0.268201,-0.147278 -0.189136,0 -0.26665,0.145728 -0.07751,0.145727 -0.07751,0.379821 z"
         style="stroke-width:0.5"
         id="path20153" /><path
         d="m 97.070824,67.799477 -0.0217,-0.178284 q -0.165882,0.209289 -0.429432,0.209289 -0.311608,0 -0.483691,-0.241845 -0.172083,-0.241846 -0.172083,-0.607715 v -0.03256 q 0,-0.382923 0.172083,-0.620117 0.172083,-0.237195 0.486792,-0.237195 0.244946,0 0.403076,0.181384 v -0.854211 h 0.449585 v 2.38125 z m -0.657325,-0.818555 q 0,0.201538 0.07131,0.344165 0.07131,0.141077 0.248047,0.141077 0.204638,0 0.293005,-0.173633 v -0.665076 q -0.08527,-0.173633 -0.289905,-0.173633 -0.175183,0 -0.249597,0.142627 -0.07286,0.142627 -0.07286,0.384473 z"
         style="stroke-width:0.5"
         id="path20155" /><path
         d="m 99.252086,67.526625 q -0.08062,0.114722 -0.244946,0.20929 -0.164331,0.09457 -0.409278,0.09457 -0.390674,0 -0.610815,-0.235644 -0.220142,-0.237195 -0.221692,-0.572058 v -0.06511 q 0,-0.379822 0.21084,-0.623218 0.21239,-0.243396 0.572058,-0.243396 0.361218,0 0.550354,0.226343 0.189136,0.226342 0.189136,0.598413 v 0.190686 h -1.068152 q 0.02325,0.16278 0.128674,0.263549 0.10542,0.09922 0.277503,0.09922 0.255798,0 0.404626,-0.187585 z m -0.706934,-1.074353 q -0.142627,0 -0.220141,0.09612 -0.07752,0.09612 -0.100769,0.251148 h 0.623217 v -0.03411 q -0.0031,-0.134875 -0.07596,-0.223242 -0.07131,-0.08992 -0.226343,-0.08992 z"
         style="stroke-width:0.5"
         id="path20157" /><path
         d="m 100.01483,65.418227 v 2.38125 h -0.449584 v -2.38125 z"
         style="stroke-width:0.5"
         id="path20159" /></g><path
       id="path3774"
       d="m 34.479129,33.617244 c -2.395281,0 -4.412359,1.260674 -4.664494,3.403819 -0.252135,2.143146 2.143146,3.529888 1.134607,5.546966 -1.00854,2.017078 -3.782023,3.782022 -3.782023,7.816179 0,4.034157 3.025618,7.311909 8.824718,7.311909 5.799101,0 8.824719,-3.277752 8.824719,-7.311909 0,-4.034157 -2.773483,-5.799101 -3.782023,-7.816179 -1.008539,-2.017078 0.252135,-2.269213 0.756405,-4.034157 0.504269,-1.764943 0,-3.277752 -0.756405,-2.017078 -0.756404,1.260674 -2.017078,1.008539 -2.773482,0.504269 -0.756405,-0.504269 -0.756405,-1.008539 -0.756405,-3.403819 z"
       style="fill:#000000;fill-opacity:1;stroke:#000000;stroke-width:0.5;stroke-linecap:butt;stroke-linejoin:miter;stroke-miterlimit:4;stroke-dasharray:none;stroke-opacity:1" /><path
       style="fill:url(#radialGradient5234);fill-opacity:1;stroke:#000000;stroke-width:0.050427;stroke-linejoin:miter;stroke-miterlimit:4;stroke-dasharray:none;stroke-opacity:1"
       d="m 40.824117,53.851063 c -0.174062,0.301485 -0.559571,0.404782 -0.861056,0.230719 -0.301486,-0.174062 -0.404783,-0.559571 -0.23072,-0.861056 0.174062,-0.301486 0.559571,-0.404783 0.861057,-0.23072 0.301485,0.174062 0.404782,0.559571 0.230719,0.861057 z"
       id="path5232" /><path
       style="fill:url(#radialGradient5230);fill-opacity:1;stroke:#000000;stroke-width:0.050427;stroke-linejoin:miter;stroke-miterlimit:4;stroke-dasharray:none;stroke-opacity:1"
       d="m 43.093331,48.808367 c -0.174063,0.301485 -0.559572,0.404782 -0.861057,0.230719 -0.301485,-0.174062 -0.404782,-0.559571 -0.23072,-0.861056 0.174063,-0.301486 0.559572,-0.404783 0.861057,-0.23072 0.301485,0.174062 0.404782,0.559571 0.23072,0.861057 z"
       id="path5228" /><path
       style="fill:url(#radialGradient5226);fill-opacity:1;stroke:#000000;stroke-width:0.050427;stroke-linejoin:miter;stroke-miterlimit:4;stroke-dasharray:none;stroke-opacity:1"
       d="m 40.824117,50.447241 c -0.174062,0.301486 -0.559571,0.404783 -0.861056,0.23072 -0.301486,-0.174062 -0.404783,-0.559571 -0.23072,-0.861057 0.174062,-0.301485 0.559571,-0.404782 0.861057,-0.230719 0.301485,0.174062 0.404782,0.559571 0.230719,0.861056 z"
       id="path5224" /><path
       style="fill:#21241f;fill-opacity:1;stroke:#000000;stroke-width:0.8;stroke-linecap:butt;stroke-linejoin:miter;stroke-miterlimit:4;stroke-dasharray:none;stroke-opacity:1"
       d="m 37.882948,7.5212935 c -0.252134,1.5128081 -0.126067,3.7820205 0,4.7905595 -0.504269,0.252135 -0.882471,0.756404 -0.882471,1.638876 h -2.017079 c 0,-0.882472 -0.378202,-1.386741 -0.882472,-1.638876 0.126068,-1.008539 0.252135,-3.2777514 0,-4.7905595 0.882472,0 1.386742,-0.5042697 1.891011,-0.2521347 0.50427,-0.252135 1.00854,0.2521347 1.891011,0.2521347 z"
       id="path3808" /><path
       id="path3776"
       d="m 34.479129,37.777468 h 3.025617 L 37.000477,14.202864 h -2.017079 z"
       style="fill:#ffffff;fill-opacity:1;stroke:#000000;stroke-width:0.8;stroke-linecap:butt;stroke-linejoin:miter;stroke-miterlimit:4;stroke-dasharray:none;stroke-opacity:1" /><path
       id="path3863"
       d="m 38.513286,49.879938 c 0.126067,0 0.252134,-0.126067 0.252134,-0.252135 0,-0.126067 0,-0.378202 0,-0.504269 0,-0.126068 -0.126067,-0.252135 -0.252134,-0.252135 H 33.47059 c -0.126068,0 -0.252135,0.126067 -0.252135,0.252135 0,0.126067 0,0.378202 0,0.504269 0,0.126068 0.126067,0.252135 0.252135,0.252135 z"
       style="fill:#ffffff;fill-opacity:1;stroke:#000000;stroke-width:0.050427;stroke-linecap:butt;stroke-linejoin:miter;stroke-miterlimit:4;stroke-dasharray:none;stroke-opacity:1" /><path
       id="path3874"
       d="m 43.093331,52.212185 c -0.174063,0.301485 -0.559572,0.404782 -0.861057,0.23072 -0.301485,-0.174063 -0.404782,-0.559572 -0.23072,-0.861057 0.174063,-0.301485 0.559572,-0.404782 0.861057,-0.23072 0.301485,0.174063 0.404782,0.559572 0.23072,0.861057 z"
       style="fill:url(#radialGradient5222);fill-opacity:1;stroke:#000000;stroke-width:0.050427;stroke-linejoin:miter;stroke-miterlimit:4;stroke-dasharray:none;stroke-opacity:1" /><path
       style="fill:#ffffff;fill-opacity:1;fill-rule:evenodd;stroke:#000000;stroke-width:0.050427;stroke-linecap:butt;stroke-linejoin:miter;stroke-miterlimit:4;stroke-dasharray:none;stroke-opacity:1"
       d="m 34.100926,43.702636 h 3.782022 c 0.252135,0 0.378203,0.126067 0.378203,0.252134 v 1.891011 c 0,0.126068 -0.126068,0.252135 -0.378203,0.252135 h -3.782022 c -0.252134,0 -0.378202,-0.126067 -0.378202,-0.252135 V 43.95477 c 0,-0.126067 0.126068,-0.252134 0.378202,-0.252134 z"
       id="path4345" /><path
       id="path4308"
       d="m 37.882948,37.399266 a 0.1260674,0.1260674 0 0 1 -0.126067,0.126067 0.1260674,0.1260674 0 0 1 -0.126067,-0.126067 0.1260674,0.1260674 0 0 1 0.126067,-0.126068 0.1260674,0.1260674 0 0 1 0.126067,0.126068 z"
       style="fill:#ffc900;fill-opacity:1;stroke:#000000;stroke-width:0.050427;stroke-miterlimit:4;stroke-dasharray:none;stroke-opacity:1" /><g
       style="stroke-width:2;stroke-miterlimit:4;stroke-dasharray:none"
       id="g31519"
       transform="matrix(0.01260674,0,0,0.01260674,21.431153,30.845498)"><path
         id="path31521"
         d="m 1495,1749.8622 v 10"
         style="fill:none;fill-rule:evenodd;stroke:#000000;stroke-width:2;stroke-linecap:butt;stroke-linejoin:miter;stroke-miterlimit:4;stroke-dasharray:none;stroke-opacity:1" /><path
         id="path31523"
         d="m 1495,1849.8622 v -10"
         style="fill:none;fill-rule:evenodd;stroke:#000000;stroke-width:2;stroke-linecap:butt;stroke-linejoin:miter;stroke-miterlimit:4;stroke-dasharray:none;stroke-opacity:1" /><path
         style="fill:none;fill-rule:evenodd;stroke:#000000;stroke-width:2;stroke-linecap:butt;stroke-linejoin:miter;stroke-miterlimit:4;stroke-dasharray:none;stroke-opacity:1"
         d="m 1470,1756.5609 5,8.6603"
         id="path31525" /><path
         style="fill:none;fill-rule:evenodd;stroke:#000000;stroke-width:2;stroke-linecap:butt;stroke-linejoin:miter;stroke-miterlimit:4;stroke-dasharray:none;stroke-opacity:1"
         d="m 1520,1843.1635 -5,-8.6603"
         id="path31527" /><path
         id="path31529"
         d="m 1451.6987,1774.8622 8.6603,5"
         style="fill:none;fill-rule:evenodd;stroke:#000000;stroke-width:2;stroke-linecap:butt;stroke-linejoin:miter;stroke-miterlimit:4;stroke-dasharray:none;stroke-opacity:1" /><path
         id="path31531"
         d="m 1538.3013,1824.8622 -8.6603,-5"
         style="fill:none;fill-rule:evenodd;stroke:#000000;stroke-width:2;stroke-linecap:butt;stroke-linejoin:miter;stroke-miterlimit:4;stroke-dasharray:none;stroke-opacity:1" /><path
         style="fill:none;fill-rule:evenodd;stroke:#000000;stroke-width:2;stroke-linecap:butt;stroke-linejoin:miter;stroke-miterlimit:4;stroke-dasharray:none;stroke-opacity:1"
         d="m 1545,1799.8622 h -10"
         id="path31535" /><path
         id="path31537"
         d="m 1451.6987,1824.8622 8.6603,-5"
         style="fill:none;fill-rule:evenodd;stroke:#000000;stroke-width:2;stroke-linecap:butt;stroke-linejoin:miter;stroke-miterlimit:4;stroke-dasharray:none;stroke-opacity:1" /><path
         id="path31539"
         d="m 1538.3013,1774.8622 -8.6603,5"
         style="fill:none;fill-rule:evenodd;stroke:#000000;stroke-width:2;stroke-linecap:butt;stroke-linejoin:miter;stroke-miterlimit:4;stroke-dasharray:none;stroke-opacity:1" /><path
         style="fill:none;fill-rule:evenodd;stroke:#000000;stroke-width:2;stroke-linecap:butt;stroke-linejoin:miter;stroke-miterlimit:4;stroke-dasharray:none;stroke-opacity:1"
         d="m 1470,1843.1635 5,-8.6603"
         id="path31541" /><path
         style="fill:none;fill-rule:evenodd;stroke:#000000;stroke-width:2;stroke-linecap:butt;stroke-linejoin:miter;stroke-miterlimit:4;stroke-dasharray:none;stroke-opacity:1"
         d="m 1520,1756.5609 -5,8.6603"
         id="path31543" /></g><g
       id="g6109"
       transform="matrix(0.41779014,0,0,0.41779014,83.340472,12.51928)"><path
         d="M 85,12.5 H 69.232 C 58.347,2.495 41.653,2.495 30.768,12.5 H 15 c -2.757,0 -5,2.243 -5,5 v 70 c 0,2.757 2.243,5 5,5 h 2.5 v 1.25 c 0,0.69 0.56,1.25 1.25,1.25 h 2.5 c 0.69,0 1.25,-0.56 1.25,-1.25 V 92.5 h 55 v 1.25 c 0,0.69 0.56,1.25 1.25,1.25 h 2.5 c 0.69,0 1.25,-0.56 1.25,-1.25 V 92.5 H 85 c 2.757,0 5,-2.243 5,-5 v -70 c 0,-2.757 -2.243,-5 -5,-5 z m -19.731,0 H 34.731 c 9.088,-6.646 21.45,-6.646 30.538,0 z M 85,87.5 H 15 V 35 h 70 z m 0,-55 H 15 v -15 h 70 z"
         stroke="none"
         id="path5809" /><path
         d="m 48.75,75 h 2.5 c 0.69,0 1.25,-0.56 1.25,-1.25 0,-0.69 -0.56,-1.25 -1.25,-1.25 h -2.5 c -0.69,0 -1.25,0.56 -1.25,1.25 0,0.69 0.56,1.25 1.25,1.25 z"
         stroke="none"
         id="path5811" /><path
         d="m 56.25,75 h 2.5 C 59.44,75 60,74.44 60,73.75 60,73.06 59.44,72.5 58.75,72.5 h -2.5 C 55.56,72.5 55,73.06 55,73.75 55,74.44 55.56,75 56.25,75 Z"
         stroke="none"
         id="path5813" /><path
         d="m 63.75,75 h 2.5 c 0.69,0 1.25,-0.56 1.25,-1.25 0,-0.69 -0.56,-1.25 -1.25,-1.25 h -2.5 c -0.69,0 -1.25,0.56 -1.25,1.25 0,0.69 0.56,1.25 1.25,1.25 z"
         stroke="none"
         id="path5815" /><path
         d="m 71.25,75 h 2.5 C 74.44,75 75,74.44 75,73.75 75,73.06 74.44,72.5 73.75,72.5 h -2.5 C 70.56,72.5 70,73.06 70,73.75 70,74.44 70.56,75 71.25,75 Z"
         stroke="none"
         id="path5817" /><path
         d="m 78.75,75 h 2.5 c 0.69,0 1.25,-0.56 1.25,-1.25 0,-0.69 -0.56,-1.25 -1.25,-1.25 h -2.5 c -0.69,0 -1.25,0.56 -1.25,1.25 0,0.69 0.56,1.25 1.25,1.25 z"
         stroke="none"
         id="path5819" /><path
         d="m 48.75,80 h 2.5 c 0.69,0 1.25,-0.56 1.25,-1.25 0,-0.69 -0.56,-1.25 -1.25,-1.25 h -2.5 c -0.69,0 -1.25,0.56 -1.25,1.25 0,0.69 0.56,1.25 1.25,1.25 z"
         stroke="none"
         id="path5821" /><path
         d="m 56.25,80 h 2.5 C 59.44,80 60,79.44 60,78.75 60,78.06 59.44,77.5 58.75,77.5 h -2.5 C 55.56,77.5 55,78.06 55,78.75 55,79.44 55.56,80 56.25,80 Z"
         stroke="none"
         id="path5823" /><path
         d="m 63.75,80 h 2.5 c 0.69,0 1.25,-0.56 1.25,-1.25 0,-0.69 -0.56,-1.25 -1.25,-1.25 h -2.5 c -0.69,0 -1.25,0.56 -1.25,1.25 0,0.69 0.56,1.25 1.25,1.25 z"
         stroke="none"
         id="path5825" /><path
         d="m 71.25,80 h 2.5 C 74.44,80 75,79.44 75,78.75 75,78.06 74.44,77.5 73.75,77.5 h -2.5 C 70.56,77.5 70,78.06 70,78.75 70,79.44 70.56,80 71.25,80 Z"
         stroke="none"
         id="path5827" /><path
         d="m 78.75,80 h 2.5 c 0.69,0 1.25,-0.56 1.25,-1.25 0,-0.69 -0.56,-1.25 -1.25,-1.25 h -2.5 c -0.69,0 -1.25,0.56 -1.25,1.25 0,0.69 0.56,1.25 1.25,1.25 z"
         stroke="none"
         id="path5829" /><path
         d="m 48.75,85 h 2.5 c 0.69,0 1.25,-0.56 1.25,-1.25 0,-0.69 -0.56,-1.25 -1.25,-1.25 h -2.5 c -0.69,0 -1.25,0.56 -1.25,1.25 0,0.69 0.56,1.25 1.25,1.25 z"
         stroke="none"
         id="path5831" /><path
         d="m 56.25,85 h 2.5 C 59.44,85 60,84.44 60,83.75 60,83.06 59.44,82.5 58.75,82.5 h -2.5 C 55.56,82.5 55,83.06 55,83.75 55,84.44 55.56,85 56.25,85 Z"
         stroke="none"
         id="path5833" /><path
         d="m 63.75,85 h 2.5 c 0.69,0 1.25,-0.56 1.25,-1.25 0,-0.69 -0.56,-1.25 -1.25,-1.25 h -2.5 c -0.69,0 -1.25,0.56 -1.25,1.25 0,0.69 0.56,1.25 1.25,1.25 z"
         stroke="none"
         id="path5835" /><path
         d="m 71.25,85 h 2.5 C 74.44,85 75,84.44 75,83.75 75,83.06 74.44,82.5 73.75,82.5 h -2.5 C 70.56,82.5 70,83.06 70,83.75 70,84.44 70.56,85 71.25,85 Z"
         stroke="none"
         id="path5837" /><path
         d="m 78.75,85 h 2.5 c 0.69,0 1.25,-0.56 1.25,-1.25 0,-0.69 -0.56,-1.25 -1.25,-1.25 h -2.5 c -0.69,0 -1.25,0.56 -1.25,1.25 0,0.69 0.56,1.25 1.25,1.25 z"
         stroke="none"
         id="path5839" /><path
         d="m 48.75,55 h 2.5 c 0.69,0 1.25,-0.56 1.25,-1.25 0,-0.69 -0.56,-1.25 -1.25,-1.25 h -2.5 c -0.69,0 -1.25,0.56 -1.25,1.25 0,0.69 0.56,1.25 1.25,1.25 z"
         stroke="none"
         id="path5841" /><path
         d="m 56.25,55 h 2.5 C 59.44,55 60,54.44 60,53.75 60,53.06 59.44,52.5 58.75,52.5 h -2.5 C 55.56,52.5 55,53.06 55,53.75 55,54.44 55.56,55 56.25,55 Z"
         stroke="none"
         id="path5843" /><path
         d="m 63.75,55 h 2.5 c 0.69,0 1.25,-0.56 1.25,-1.25 0,-0.69 -0.56,-1.25 -1.25,-1.25 h -2.5 c -0.69,0 -1.25,0.56 -1.25,1.25 0,0.69 0.56,1.25 1.25,1.25 z"
         stroke="none"
         id="path5845" /><path
         d="m 71.25,55 h 2.5 C 74.44,55 75,54.44 75,53.75 75,53.06 74.44,52.5 73.75,52.5 h -2.5 C 70.56,52.5 70,53.06 70,53.75 70,54.44 70.56,55 71.25,55 Z"
         stroke="none"
         id="path5847" /><path
         d="m 78.75,55 h 2.5 c 0.69,0 1.25,-0.56 1.25,-1.25 0,-0.69 -0.56,-1.25 -1.25,-1.25 h -2.5 c -0.69,0 -1.25,0.56 -1.25,1.25 0,0.69 0.56,1.25 1.25,1.25 z"
         stroke="none"
         id="path5849" /><path
         d="m 48.75,60 h 2.5 c 0.69,0 1.25,-0.56 1.25,-1.25 0,-0.69 -0.56,-1.25 -1.25,-1.25 h -2.5 c -0.69,0 -1.25,0.56 -1.25,1.25 0,0.69 0.56,1.25 1.25,1.25 z"
         stroke="none"
         id="path5851" /><path
         d="m 56.25,60 h 2.5 C 59.44,60 60,59.44 60,58.75 60,58.06 59.44,57.5 58.75,57.5 h -2.5 C 55.56,57.5 55,58.06 55,58.75 55,59.44 55.56,60 56.25,60 Z"
         stroke="none"
         id="path5853" /><path
         d="m 63.75,60 h 2.5 c 0.69,0 1.25,-0.56 1.25,-1.25 0,-0.69 -0.56,-1.25 -1.25,-1.25 h -2.5 c -0.69,0 -1.25,0.56 -1.25,1.25 0,0.69 0.56,1.25 1.25,1.25 z"
         stroke="none"
         id="path5855" /><path
         d="m 71.25,60 h 2.5 C 74.44,60 75,59.44 75,58.75 75,58.06 74.44,57.5 73.75,57.5 h -2.5 C 70.56,57.5 70,58.06 70,58.75 70,59.44 70.56,60 71.25,60 Z"
         stroke="none"
         id="path5857" /><path
         d="m 78.75,60 h 2.5 c 0.69,0 1.25,-0.56 1.25,-1.25 0,-0.69 -0.56,-1.25 -1.25,-1.25 h -2.5 c -0.69,0 -1.25,0.56 -1.25,1.25 0,0.69 0.56,1.25 1.25,1.25 z"
         stroke="none"
         id="path5859" /><path
         d="m 48.75,65 h 2.5 c 0.69,0 1.25,-0.56 1.25,-1.25 0,-0.69 -0.56,-1.25 -1.25,-1.25 h -2.5 c -0.69,0 -1.25,0.56 -1.25,1.25 0,0.69 0.56,1.25 1.25,1.25 z"
         stroke="none"
         id="path5861" /><path
         d="m 56.25,65 h 2.5 C 59.44,65 60,64.44 60,63.75 60,63.06 59.44,62.5 58.75,62.5 h -2.5 C 55.56,62.5 55,63.06 55,63.75 55,64.44 55.56,65 56.25,65 Z"
         stroke="none"
         id="path5863" /><path
         d="m 63.75,65 h 2.5 c 0.69,0 1.25,-0.56 1.25,-1.25 0,-0.69 -0.56,-1.25 -1.25,-1.25 h -2.5 c -0.69,0 -1.25,0.56 -1.25,1.25 0,0.69 0.56,1.25 1.25,1.25 z"
         stroke="none"
         id="path5865" /><path
         d="m 71.25,65 h 2.5 C 74.44,65 75,64.44 75,63.75 75,63.06 74.44,62.5 73.75,62.5 h -2.5 C 70.56,62.5 70,63.06 70,63.75 70,64.44 70.56,65 71.25,65 Z"
         stroke="none"
         id="path5867" /><path
         d="m 78.75,65 h 2.5 c 0.69,0 1.25,-0.56 1.25,-1.25 0,-0.69 -0.56,-1.25 -1.25,-1.25 h -2.5 c -0.69,0 -1.25,0.56 -1.25,1.25 0,0.69 0.56,1.25 1.25,1.25 z"
         stroke="none"
         id="path5869" /><path
         d="m 48.75,70 h 2.5 c 0.69,0 1.25,-0.56 1.25,-1.25 0,-0.69 -0.56,-1.25 -1.25,-1.25 h -2.5 c -0.69,0 -1.25,0.56 -1.25,1.25 0,0.69 0.56,1.25 1.25,1.25 z"
         stroke="none"
         id="path5871" /><path
         d="m 56.25,70 h 2.5 C 59.44,70 60,69.44 60,68.75 60,68.06 59.44,67.5 58.75,67.5 h -2.5 C 55.56,67.5 55,68.06 55,68.75 55,69.44 55.56,70 56.25,70 Z"
         stroke="none"
         id="path5873" /><path
         d="m 63.75,70 h 2.5 c 0.69,0 1.25,-0.56 1.25,-1.25 0,-0.69 -0.56,-1.25 -1.25,-1.25 h -2.5 c -0.69,0 -1.25,0.56 -1.25,1.25 0,0.69 0.56,1.25 1.25,1.25 z"
         stroke="none"
         id="path5875" /><path
         d="m 71.25,70 h 2.5 C 74.44,70 75,69.44 75,68.75 75,68.06 74.44,67.5 73.75,67.5 h -2.5 C 70.56,67.5 70,68.06 70,68.75 70,69.44 70.56,70 71.25,70 Z"
         stroke="none"
         id="path5877" /><path
         d="m 78.75,70 h 2.5 c 0.69,0 1.25,-0.56 1.25,-1.25 0,-0.69 -0.56,-1.25 -1.25,-1.25 h -2.5 c -0.69,0 -1.25,0.56 -1.25,1.25 0,0.69 0.56,1.25 1.25,1.25 z"
         stroke="none"
         id="path5879" /><path
         d="m 48.75,40 h 2.5 c 0.69,0 1.25,-0.56 1.25,-1.25 0,-0.69 -0.56,-1.25 -1.25,-1.25 h -2.5 c -0.69,0 -1.25,0.56 -1.25,1.25 0,0.69 0.56,1.25 1.25,1.25 z"
         stroke="none"
         id="path5881" /><path
         d="m 56.25,40 h 2.5 C 59.44,40 60,39.44 60,38.75 60,38.06 59.44,37.5 58.75,37.5 h -2.5 C 55.56,37.5 55,38.06 55,38.75 55,39.44 55.56,40 56.25,40 Z"
         stroke="none"
         id="path5883" /><path
         d="m 63.75,40 h 2.5 c 0.69,0 1.25,-0.56 1.25,-1.25 0,-0.69 -0.56,-1.25 -1.25,-1.25 h -2.5 c -0.69,0 -1.25,0.56 -1.25,1.25 0,0.69 0.56,1.25 1.25,1.25 z"
         stroke="none"
         id="path5885" /><path
         d="m 71.25,40 h 2.5 C 74.44,40 75,39.44 75,38.75 75,38.06 74.44,37.5 73.75,37.5 h -2.5 C 70.56,37.5 70,38.06 70,38.75 70,39.44 70.56,40 71.25,40 Z"
         stroke="none"
         id="path5887" /><path
         d="m 78.75,40 h 2.5 c 0.69,0 1.25,-0.56 1.25,-1.25 0,-0.69 -0.56,-1.25 -1.25,-1.25 h -2.5 c -0.69,0 -1.25,0.56 -1.25,1.25 0,0.69 0.56,1.25 1.25,1.25 z"
         stroke="none"
         id="path5889" /><path
         d="m 48.75,45 h 2.5 c 0.69,0 1.25,-0.56 1.25,-1.25 0,-0.69 -0.56,-1.25 -1.25,-1.25 h -2.5 c -0.69,0 -1.25,0.56 -1.25,1.25 0,0.69 0.56,1.25 1.25,1.25 z"
         stroke="none"
         id="path5891" /><path
         d="m 56.25,45 h 2.5 C 59.44,45 60,44.44 60,43.75 60,43.06 59.44,42.5 58.75,42.5 h -2.5 C 55.56,42.5 55,43.06 55,43.75 55,44.44 55.56,45 56.25,45 Z"
         stroke="none"
         id="path5893" /><path
         d="m 63.75,45 h 2.5 c 0.69,0 1.25,-0.56 1.25,-1.25 0,-0.69 -0.56,-1.25 -1.25,-1.25 h -2.5 c -0.69,0 -1.25,0.56 -1.25,1.25 0,0.69 0.56,1.25 1.25,1.25 z"
         stroke="none"
         id="path5895" /><path
         d="m 71.25,45 h 2.5 C 74.44,45 75,44.44 75,43.75 75,43.06 74.44,42.5 73.75,42.5 h -2.5 C 70.56,42.5 70,43.06 70,43.75 70,44.44 70.56,45 71.25,45 Z"
         stroke="none"
         id="path5897" /><path
         d="m 78.75,45 h 2.5 c 0.69,0 1.25,-0.56 1.25,-1.25 0,-0.69 -0.56,-1.25 -1.25,-1.25 h -2.5 c -0.69,0 -1.25,0.56 -1.25,1.25 0,0.69 0.56,1.25 1.25,1.25 z"
         stroke="none"
         id="path5899" /><path
         d="m 48.75,50 h 2.5 c 0.69,0 1.25,-0.56 1.25,-1.25 0,-0.69 -0.56,-1.25 -1.25,-1.25 h -2.5 c -0.69,0 -1.25,0.56 -1.25,1.25 0,0.69 0.56,1.25 1.25,1.25 z"
         stroke="none"
         id="path5901" /><path
         d="m 56.25,50 h 2.5 C 59.44,50 60,49.44 60,48.75 60,48.06 59.44,47.5 58.75,47.5 h -2.5 C 55.56,47.5 55,48.06 55,48.75 55,49.44 55.56,50 56.25,50 Z"
         stroke="none"
         id="path5903" /><path
         d="m 63.75,50 h 2.5 c 0.69,0 1.25,-0.56 1.25,-1.25 0,-0.69 -0.56,-1.25 -1.25,-1.25 h -2.5 c -0.69,0 -1.25,0.56 -1.25,1.25 0,0.69 0.56,1.25 1.25,1.25 z"
         stroke="none"
         id="path5905" /><path
         d="m 71.25,50 h 2.5 C 74.44,50 75,49.44 75,48.75 75,48.06 74.44,47.5 73.75,47.5 h -2.5 C 70.56,47.5 70,48.06 70,48.75 70,49.44 70.56,50 71.25,50 Z"
         stroke="none"
         id="path5907" /><path
         d="m 78.75,50 h 2.5 c 0.69,0 1.25,-0.56 1.25,-1.25 0,-0.69 -0.56,-1.25 -1.25,-1.25 h -2.5 c -0.69,0 -1.25,0.56 -1.25,1.25 0,0.69 0.56,1.25 1.25,1.25 z"
         stroke="none"
         id="path5909" /><path
         d="m 18.75,75 h 2.5 c 0.69,0 1.25,-0.56 1.25,-1.25 0,-0.69 -0.56,-1.25 -1.25,-1.25 h -2.5 c -0.69,0 -1.25,0.56 -1.25,1.25 0,0.69 0.56,1.25 1.25,1.25 z"
         stroke="none"
         id="path5911" /><path
         d="m 26.25,75 h 2.5 C 29.44,75 30,74.44 30,73.75 30,73.06 29.44,72.5 28.75,72.5 h -2.5 C 25.56,72.5 25,73.06 25,73.75 25,74.44 25.56,75 26.25,75 Z"
         stroke="none"
         id="path5913" /><path
         d="m 33.75,75 h 2.5 c 0.69,0 1.25,-0.56 1.25,-1.25 0,-0.69 -0.56,-1.25 -1.25,-1.25 h -2.5 c -0.69,0 -1.25,0.56 -1.25,1.25 0,0.69 0.56,1.25 1.25,1.25 z"
         stroke="none"
         id="path5915" /><path
         d="m 41.25,75 h 2.5 C 44.44,75 45,74.44 45,73.75 45,73.06 44.44,72.5 43.75,72.5 h -2.5 C 40.56,72.5 40,73.06 40,73.75 40,74.44 40.56,75 41.25,75 Z"
         stroke="none"
         id="path5917" /><path
         d="m 18.75,80 h 2.5 c 0.69,0 1.25,-0.56 1.25,-1.25 0,-0.69 -0.56,-1.25 -1.25,-1.25 h -2.5 c -0.69,0 -1.25,0.56 -1.25,1.25 0,0.69 0.56,1.25 1.25,1.25 z"
         stroke="none"
         id="path5919" /><path
         d="m 26.25,80 h 2.5 C 29.44,80 30,79.44 30,78.75 30,78.06 29.44,77.5 28.75,77.5 h -2.5 C 25.56,77.5 25,78.06 25,78.75 25,79.44 25.56,80 26.25,80 Z"
         stroke="none"
         id="path5921" /><path
         d="m 33.75,80 h 2.5 c 0.69,0 1.25,-0.56 1.25,-1.25 0,-0.69 -0.56,-1.25 -1.25,-1.25 h -2.5 c -0.69,0 -1.25,0.56 -1.25,1.25 0,0.69 0.56,1.25 1.25,1.25 z"
         stroke="none"
         id="path5923" /><path
         d="m 41.25,80 h 2.5 C 44.44,80 45,79.44 45,78.75 45,78.06 44.44,77.5 43.75,77.5 h -2.5 C 40.56,77.5 40,78.06 40,78.75 40,79.44 40.56,80 41.25,80 Z"
         stroke="none"
         id="path5925" /><path
         d="m 18.75,85 h 2.5 c 0.69,0 1.25,-0.56 1.25,-1.25 0,-0.69 -0.56,-1.25 -1.25,-1.25 h -2.5 c -0.69,0 -1.25,0.56 -1.25,1.25 0,0.69 0.56,1.25 1.25,1.25 z"
         stroke="none"
         id="path5927" /><path
         d="m 26.25,85 h 2.5 C 29.44,85 30,84.44 30,83.75 30,83.06 29.44,82.5 28.75,82.5 h -2.5 C 25.56,82.5 25,83.06 25,83.75 25,84.44 25.56,85 26.25,85 Z"
         stroke="none"
         id="path5929" /><path
         d="m 33.75,85 h 2.5 c 0.69,0 1.25,-0.56 1.25,-1.25 0,-0.69 -0.56,-1.25 -1.25,-1.25 h -2.5 c -0.69,0 -1.25,0.56 -1.25,1.25 0,0.69 0.56,1.25 1.25,1.25 z"
         stroke="none"
         id="path5931" /><path
         d="m 41.25,85 h 2.5 C 44.44,85 45,84.44 45,83.75 45,83.06 44.44,82.5 43.75,82.5 h -2.5 C 40.56,82.5 40,83.06 40,83.75 40,84.44 40.56,85 41.25,85 Z"
         stroke="none"
         id="path5933" /><path
         d="m 18.75,55 h 2.5 c 0.69,0 1.25,-0.56 1.25,-1.25 0,-0.69 -0.56,-1.25 -1.25,-1.25 h -2.5 c -0.69,0 -1.25,0.56 -1.25,1.25 0,0.69 0.56,1.25 1.25,1.25 z"
         stroke="none"
         id="path5935" /><path
         d="m 26.25,55 h 2.5 C 29.44,55 30,54.44 30,53.75 30,53.06 29.44,52.5 28.75,52.5 h -2.5 C 25.56,52.5 25,53.06 25,53.75 25,54.44 25.56,55 26.25,55 Z"
         stroke="none"
         id="path5937" /><path
         d="m 33.75,55 h 2.5 c 0.69,0 1.25,-0.56 1.25,-1.25 0,-0.69 -0.56,-1.25 -1.25,-1.25 h -2.5 c -0.69,0 -1.25,0.56 -1.25,1.25 0,0.69 0.56,1.25 1.25,1.25 z"
         stroke="none"
         id="path5939" /><path
         d="m 41.25,55 h 2.5 C 44.44,55 45,54.44 45,53.75 45,53.06 44.44,52.5 43.75,52.5 h -2.5 C 40.56,52.5 40,53.06 40,53.75 40,54.44 40.56,55 41.25,55 Z"
         stroke="none"
         id="path5941" /><path
         d="m 18.75,60 h 2.5 c 0.69,0 1.25,-0.56 1.25,-1.25 0,-0.69 -0.56,-1.25 -1.25,-1.25 h -2.5 c -0.69,0 -1.25,0.56 -1.25,1.25 0,0.69 0.56,1.25 1.25,1.25 z"
         stroke="none"
         id="path5943" /><path
         d="m 26.25,60 h 2.5 C 29.44,60 30,59.44 30,58.75 30,58.06 29.44,57.5 28.75,57.5 h -2.5 C 25.56,57.5 25,58.06 25,58.75 25,59.44 25.56,60 26.25,60 Z"
         stroke="none"
         id="path5945" /><path
         d="m 33.75,60 h 2.5 c 0.69,0 1.25,-0.56 1.25,-1.25 0,-0.69 -0.56,-1.25 -1.25,-1.25 h -2.5 c -0.69,0 -1.25,0.56 -1.25,1.25 0,0.69 0.56,1.25 1.25,1.25 z"
         stroke="none"
         id="path5947" /><path
         d="m 41.25,60 h 2.5 C 44.44,60 45,59.44 45,58.75 45,58.06 44.44,57.5 43.75,57.5 h -2.5 C 40.56,57.5 40,58.06 40,58.75 40,59.44 40.56,60 41.25,60 Z"
         stroke="none"
         id="path5949" /><path
         d="m 18.75,65 h 2.5 c 0.69,0 1.25,-0.56 1.25,-1.25 0,-0.69 -0.56,-1.25 -1.25,-1.25 h -2.5 c -0.69,0 -1.25,0.56 -1.25,1.25 0,0.69 0.56,1.25 1.25,1.25 z"
         stroke="none"
         id="path5951" /><path
         d="m 26.25,65 h 2.5 C 29.44,65 30,64.44 30,63.75 30,63.06 29.44,62.5 28.75,62.5 h -2.5 C 25.56,62.5 25,63.06 25,63.75 25,64.44 25.56,65 26.25,65 Z"
         stroke="none"
         id="path5953" /><path
         d="m 33.75,65 h 2.5 c 0.69,0 1.25,-0.56 1.25,-1.25 0,-0.69 -0.56,-1.25 -1.25,-1.25 h -2.5 c -0.69,0 -1.25,0.56 -1.25,1.25 0,0.69 0.56,1.25 1.25,1.25 z"
         stroke="none"
         id="path5955" /><path
         d="m 41.25,65 h 2.5 C 44.44,65 45,64.44 45,63.75 45,63.06 44.44,62.5 43.75,62.5 h -2.5 C 40.56,62.5 40,63.06 40,63.75 40,64.44 40.56,65 41.25,65 Z"
         stroke="none"
         id="path5957" /><path
         d="m 18.75,70 h 2.5 c 0.69,0 1.25,-0.56 1.25,-1.25 0,-0.69 -0.56,-1.25 -1.25,-1.25 h -2.5 c -0.69,0 -1.25,0.56 -1.25,1.25 0,0.69 0.56,1.25 1.25,1.25 z"
         stroke="none"
         id="path5959" /><path
         d="m 26.25,70 h 2.5 C 29.44,70 30,69.44 30,68.75 30,68.06 29.44,67.5 28.75,67.5 h -2.5 C 25.56,67.5 25,68.06 25,68.75 25,69.44 25.56,70 26.25,70 Z"
         stroke="none"
         id="path5961" /><path
         d="m 33.75,70 h 2.5 c 0.69,0 1.25,-0.56 1.25,-1.25 0,-0.69 -0.56,-1.25 -1.25,-1.25 h -2.5 c -0.69,0 -1.25,0.56 -1.25,1.25 0,0.69 0.56,1.25 1.25,1.25 z"
         stroke="none"
         id="path5963" /><path
         d="m 41.25,70 h 2.5 C 44.44,70 45,69.44 45,68.75 45,68.06 44.44,67.5 43.75,67.5 h -2.5 C 40.56,67.5 40,68.06 40,68.75 40,69.44 40.56,70 41.25,70 Z"
         stroke="none"
         id="path5965" /><path
         d="m 18.75,40 h 2.5 c 0.69,0 1.25,-0.56 1.25,-1.25 0,-0.69 -0.56,-1.25 -1.25,-1.25 h -2.5 c -0.69,0 -1.25,0.56 -1.25,1.25 0,0.69 0.56,1.25 1.25,1.25 z"
         stroke="none"
         id="path5967" /><path
         d="m 26.25,40 h 2.5 C 29.44,40 30,39.44 30,38.75 30,38.06 29.44,37.5 28.75,37.5 h -2.5 C 25.56,37.5 25,38.06 25,38.75 25,39.44 25.56,40 26.25,40 Z"
         stroke="none"
         id="path5969" /><path
         d="m 33.75,40 h 2.5 c 0.69,0 1.25,-0.56 1.25,-1.25 0,-0.69 -0.56,-1.25 -1.25,-1.25 h -2.5 c -0.69,0 -1.25,0.56 -1.25,1.25 0,0.69 0.56,1.25 1.25,1.25 z"
         stroke="none"
         id="path5971" /><path
         d="m 41.25,40 h 2.5 C 44.44,40 45,39.44 45,38.75 45,38.06 44.44,37.5 43.75,37.5 h -2.5 C 40.56,37.5 40,38.06 40,38.75 40,39.44 40.56,40 41.25,40 Z"
         stroke="none"
         id="path5973" /><path
         d="m 18.75,45 h 2.5 c 0.69,0 1.25,-0.56 1.25,-1.25 0,-0.69 -0.56,-1.25 -1.25,-1.25 h -2.5 c -0.69,0 -1.25,0.56 -1.25,1.25 0,0.69 0.56,1.25 1.25,1.25 z"
         stroke="none"
         id="path5975" /><path
         d="m 26.25,45 h 2.5 C 29.44,45 30,44.44 30,43.75 30,43.06 29.44,42.5 28.75,42.5 h -2.5 C 25.56,42.5 25,43.06 25,43.75 25,44.44 25.56,45 26.25,45 Z"
         stroke="none"
         id="path5977" /><path
         d="m 33.75,45 h 2.5 c 0.69,0 1.25,-0.56 1.25,-1.25 0,-0.69 -0.56,-1.25 -1.25,-1.25 h -2.5 c -0.69,0 -1.25,0.56 -1.25,1.25 0,0.69 0.56,1.25 1.25,1.25 z"
         stroke="none"
         id="path5979" /><path
         d="m 41.25,45 h 2.5 C 44.44,45 45,44.44 45,43.75 45,43.06 44.44,42.5 43.75,42.5 h -2.5 C 40.56,42.5 40,43.06 40,43.75 40,44.44 40.56,45 41.25,45 Z"
         stroke="none"
         id="path5981" /><path
         d="m 18.75,50 h 2.5 c 0.69,0 1.25,-0.56 1.25,-1.25 0,-0.69 -0.56,-1.25 -1.25,-1.25 h -2.5 c -0.69,0 -1.25,0.56 -1.25,1.25 0,0.69 0.56,1.25 1.25,1.25 z"
         stroke="none"
         id="path5983" /><path
         d="m 26.25,50 h 2.5 C 29.44,50 30,49.44 30,48.75 30,48.06 29.44,47.5 28.75,47.5 h -2.5 C 25.56,47.5 25,48.06 25,48.75 25,49.44 25.56,50 26.25,50 Z"
         stroke="none"
         id="path5985" /><path
         d="m 33.75,50 h 2.5 c 0.69,0 1.25,-0.56 1.25,-1.25 0,-0.69 -0.56,-1.25 -1.25,-1.25 h -2.5 c -0.69,0 -1.25,0.56 -1.25,1.25 0,0.69 0.56,1.25 1.25,1.25 z"
         stroke="none"
         id="path5987" /><path
         d="m 41.25,50 h 2.5 C 44.44,50 45,49.44 45,48.75 45,48.06 44.44,47.5 43.75,47.5 h -2.5 C 40.56,47.5 40,48.06 40,48.75 40,49.44 40.56,50 41.25,50 Z"
         stroke="none"
         id="path5989" /><path
         d="m 22.5,30 c 2.761,0 5,-2.239 5,-5 0,-2.761 -2.239,-5 -5,-5 -2.761,0 -5,2.239 -5,5 0,2.761 2.239,5 5,5 z m 0,-7.5 c 1.379,0 2.5,1.121 2.5,2.5 0,1.378 -1.121,2.5 -2.5,2.5 -1.378,0 -2.5,-1.122 -2.5,-2.5 0,-1.379 1.122,-2.5 2.5,-2.5 z"
         stroke="none"
         id="path5991" /><path
         d="m 57.5,30 c 2.761,0 5,-2.239 5,-5 0,-2.761 -2.239,-5 -5,-5 -2.761,0 -5,2.239 -5,5 0,2.761 2.239,5 5,5 z m 0,-7.5 c 1.379,0 2.5,1.121 2.5,2.5 0,1.378 -1.121,2.5 -2.5,2.5 -1.378,0 -2.5,-1.122 -2.5,-2.5 0,-1.379 1.122,-2.5 2.5,-2.5 z"
         stroke="none"
         id="path5993" /><path
         d="m 76.25,30 h 5 c 0.69,0 1.25,-0.56 1.25,-1.25 v -7.5 C 82.5,20.56 81.94,20 81.25,20 h -5 C 75.56,20 75,20.56 75,21.25 v 7.5 C 75,29.44 75.56,30 76.25,30 Z M 77.5,22.5 H 80 v 5 h -2.5 z"
         stroke="none"
         id="path5995" /><path
         d="m 30,25 c 0,-1.381 1.119,-2.5 2.5,-2.5 1.381,0 2.5,1.119 2.5,2.5 0,1.381 -1.119,2.5 -2.5,2.5 C 31.119,27.5 30,26.381 30,25 Z"
         stroke="none"
         id="path5997" /><path
         d="m 37.5,25 c 0,-1.381 1.119,-2.5 2.5,-2.5 1.381,0 2.5,1.119 2.5,2.5 0,1.381 -1.119,2.5 -2.5,2.5 -1.381,0 -2.5,-1.119 -2.5,-2.5 z"
         stroke="none"
         id="path5999" /><path
         d="m 45,25 c 0,-1.381 1.119,-2.5 2.5,-2.5 1.381,0 2.5,1.119 2.5,2.5 0,1.381 -1.119,2.5 -2.5,2.5 C 46.119,27.5 45,26.381 45,25 Z"
         stroke="none"
         id="path6001" /><path
         d="m 65,25 c 0,-1.381 1.119,-2.5 2.5,-2.5 1.381,0 2.5,1.119 2.5,2.5 0,1.381 -1.119,2.5 -2.5,2.5 C 66.119,27.5 65,26.381 65,25 Z"
         stroke="none"
         id="path6003" /></g><g
       id="g8111"
       transform="translate(0,-3.1750001)"><path
         d="m 84.132883,33.008629 -1.632154,0.233235 v -0.02922 l -0.408038,-0.40804 H 77.19623 v -0.408037 4.080337 -0.408038 h 4.896461 l 0.408038,-0.408038 v -0.02922 l 1.632154,0.233233 0.816078,-0.816076 V 33.82465 Z m 0,1.697277 -0.283342,0.294277 -1.348812,-0.192758 v -0.74116 l 1.348812,-0.192757 0.283342,0.294276 z m -2.44823,0.546934 h -0.554317 v -1.632153 h 0.554317 z m -1.370394,0 H 77.19623 v -1.632153 h 3.118029 z"
         stroke="none"
         id="path7587"
         style="display:inline;stroke-width:0.163215" /><rect
         style="fill:none;fill-rule:evenodd;stroke:#000000;stroke-width:0.765;stroke-dasharray:none;stroke-opacity:1"
         id="rect8107"
         width="8.2839518"
         height="5.0504341"
         x="68.919983"
         y="31.996365" /></g><rect
       style="fill:#000000;fill-opacity:1;fill-rule:evenodd;stroke-width:0.256733"
       id="rect8113"
       width="18.84675"
       height="2.9563532"
       x="50.196411"
       y="29.868401" /><rect
       style="fill:#0000ff;fill-rule:evenodd;stroke-width:0.264583"
       id="rect8115"
       width="1.2318137"
       height="0.30795342"
       x="64.670227"
       y="31.562145" /><path
       style="fill:#000000;fill-opacity:1;stroke:#000000;stroke-width:0.8;stroke-linejoin:bevel;stroke-dasharray:none;stroke-opacity:1;marker-end:url(#Arrow1);stop-color:#000000"
       d="M 81.114936,43.633922 V 37.105307"
       id="path9007" /><text
       xml:space="preserve"
       style="font-weight:bold;font-size:3.175px;font-family:Roboto;-inkscape-font-specification:'Roboto, Bold';fill:#454545;stroke:#ffffff;stroke-width:0.499999;stroke-linejoin:bevel;stop-color:#000000"
       x="80.168747"
       y="54.768749"
       id="text16516"><tspan
         id="tspan16514"
         style="fill:#000000;fill-opacity:1;stroke-width:0.5"
         x="80.168747"
         y="54.768749" /></text><g
       aria-label="Voltage
Level
(dbU)"
       id="text16986"
       style="font-weight:bold;font-size:3.175px;font-family:Roboto;-inkscape-font-specification:'Roboto, Bold';text-align:end;text-anchor:end;stroke-width:0.499999;stroke-linejoin:bevel;stop-color:#000000"><path
         d="m 74.469356,46.29381 -0.787549,2.257227 H 73.198116 L 72.415218,46.29381 h 0.514697 l 0.510046,1.696021 0.511597,-1.696021 z"
         style="stroke-width:0.5"
         id="path20162" /><path
         d="m 74.509664,47.696825 q 0,-0.365869 0.207739,-0.609265 0.207739,-0.244946 0.58601,-0.244946 0.382923,0 0.589112,0.244946 0.206189,0.243396 0.206189,0.609265 v 0.03256 q 0,0.365869 -0.206189,0.609265 -0.206189,0.243396 -0.586011,0.243396 -0.376721,0 -0.58446,-0.237195 -0.206189,-0.237195 -0.21239,-0.595313 z m 0.449584,0.03256 q 0,0.204638 0.07751,0.348815 0.07906,0.142627 0.269751,0.142627 0.187586,0 0.2651,-0.142627 0.07906,-0.142626 0.07906,-0.381372 0,-0.199987 -0.07906,-0.345715 -0.07751,-0.147278 -0.268201,-0.147278 -0.189135,0 -0.26665,0.145728 -0.07751,0.145727 -0.07751,0.379822 z"
         style="stroke-width:0.5"
         id="path20164" /><path
         d="m 76.849056,46.169787 v 2.38125 h -0.449585 v -2.38125 z"
         style="stroke-width:0.5"
         id="path20166" /><path
         d="m 78.056734,48.540185 q -0.125574,0.04186 -0.269751,0.04186 -0.220142,0 -0.350366,-0.114722 -0.130225,-0.114722 -0.130225,-0.381372 V 47.200732 H 77.059896 V 46.87362 h 0.246496 v -0.413928 h 0.448035 v 0.413928 h 0.285254 v 0.327112 h -0.285254 v 0.838708 q 0,0.10542 0.04341,0.139527 0.04341,0.03411 0.128674,0.03411 0.06821,0 0.130225,-0.0124 z"
         style="stroke-width:0.5"
         id="path20168" /><path
         d="m 79.261311,48.551037 q -0.02791,-0.05891 -0.04496,-0.150379 -0.162781,0.181385 -0.42323,0.181385 -0.240295,0 -0.404627,-0.141077 -0.164331,-0.142627 -0.164331,-0.361218 0,-0.26355 0.195337,-0.407727 0.195337,-0.145728 0.57826,-0.145728 h 0.199987 v -0.09767 q 0,-0.116272 -0.06046,-0.184485 -0.05891,-0.06976 -0.187585,-0.06976 -0.240296,0 -0.240296,0.201538 h -0.448035 q 0,-0.218592 0.193787,-0.375171 0.193787,-0.15813 0.519348,-0.15813 0.289905,0 0.480591,0.147278 0.192236,0.147278 0.192236,0.441833 v 0.747242 q 0.0031,0.223242 0.06666,0.345715 v 0.02636 z m -0.37052,-0.311609 q 0.113172,0 0.192237,-0.04961 0.08061,-0.05116 0.114721,-0.111622 v -0.291455 h -0.182934 q -0.178284,0 -0.260449,0.07597 -0.08217,0.07441 -0.08217,0.184485 0,0.08371 0.05736,0.137976 0.05891,0.05426 0.16123,0.05426 z"
         style="stroke-width:0.5"
         id="path20170" /><path
         d="m 80.653474,49.211462 q -0.151929,0 -0.334863,-0.06356 -0.181384,-0.06356 -0.289905,-0.198438 l 0.198438,-0.272851 q 0.165881,0.186035 0.407727,0.186035 0.178283,0 0.277502,-0.09612 0.09922,-0.09457 0.09922,-0.271302 v -0.08992 q -0.15813,0.176734 -0.407727,0.176734 -0.311609,0 -0.492993,-0.238745 -0.181385,-0.238746 -0.184485,-0.598413 v -0.04496 q 0,-0.382922 0.181384,-0.620117 0.182935,-0.237195 0.499194,-0.237195 0.277503,0 0.430982,0.189136 L 81.055,46.87362 h 0.406177 v 1.620056 q 0,0.345715 -0.224793,0.53175 -0.223242,0.186036 -0.58291,0.186036 z m -0.279053,-1.47898 q 0,0.201538 0.08217,0.344165 0.08372,0.141077 0.260449,0.141077 0.204639,0 0.294556,-0.155029 v -0.703833 q -0.08837,-0.153479 -0.291455,-0.153479 -0.175183,0 -0.260449,0.144177 -0.08527,0.142627 -0.08527,0.350366 z"
         style="stroke-width:0.5"
         id="path20172" /><path
         d="m 83.233162,48.278185 q -0.08062,0.114722 -0.244947,0.20929 -0.164331,0.09457 -0.409277,0.09457 -0.390674,0 -0.610815,-0.235645 -0.220142,-0.237195 -0.221692,-0.572058 v -0.06511 q 0,-0.379822 0.21084,-0.623218 0.21239,-0.243396 0.572058,-0.243396 0.361218,0 0.550354,0.226343 0.189135,0.226343 0.189135,0.598413 v 0.190686 h -1.068151 q 0.02325,0.162781 0.128674,0.26355 0.10542,0.09922 0.277502,0.09922 0.255799,0 0.404627,-0.187585 z m -0.706934,-1.074353 q -0.142627,0 -0.220141,0.09612 -0.07752,0.09612 -0.10077,0.251148 h 0.623218 v -0.03411 q -0.0031,-0.134875 -0.07596,-0.223242 -0.07131,-0.08992 -0.226343,-0.08992 z"
         style="stroke-width:0.5"
         id="path20174" /><path
         d="m 77.444368,52.144616 v 0.375171 H 75.991744 V 50.26256 h 0.466638 v 1.882056 z"
         style="stroke-width:0.5"
         id="path20176" /><path
         d="m 79.109383,52.246935 q -0.08062,0.114722 -0.244947,0.20929 -0.164331,0.09457 -0.409277,0.09457 -0.390674,0 -0.610815,-0.235645 -0.220142,-0.237195 -0.221692,-0.572058 v -0.06511 q 0,-0.379822 0.21084,-0.623218 0.21239,-0.243396 0.572058,-0.243396 0.361218,0 0.550354,0.226343 0.189135,0.226342 0.189135,0.598413 v 0.190686 h -1.068151 q 0.02325,0.162781 0.128674,0.26355 0.10542,0.09922 0.277502,0.09922 0.255799,0 0.404627,-0.187585 z m -0.706934,-1.074353 q -0.142627,0 -0.220141,0.09612 -0.07752,0.09612 -0.10077,0.251148 h 0.623218 v -0.03411 q -0.0031,-0.134875 -0.07596,-0.223242 -0.07131,-0.08992 -0.226343,-0.08992 z"
         style="stroke-width:0.5"
         id="path20178" /><path
         d="m 80.785249,50.84237 -0.565857,1.677417 h -0.42633 L 79.225655,50.84237 h 0.469738 l 0.311609,1.127063 0.310059,-1.127063 z"
         style="stroke-width:0.5"
         id="path20180" /><path
         d="m 82.391353,52.246935 q -0.08061,0.114722 -0.244946,0.20929 -0.164331,0.09457 -0.409278,0.09457 -0.390674,0 -0.610815,-0.235645 -0.220142,-0.237195 -0.221692,-0.572058 v -0.06511 q 0,-0.379822 0.21084,-0.623218 0.21239,-0.243396 0.572058,-0.243396 0.361218,0 0.550354,0.226343 0.189136,0.226342 0.189136,0.598413 v 0.190686 h -1.068152 q 0.02325,0.162781 0.128674,0.26355 0.10542,0.09922 0.277502,0.09922 0.255799,0 0.404627,-0.187585 z m -0.706934,-1.074353 q -0.142627,0 -0.220141,0.09612 -0.07751,0.09612 -0.100769,0.251148 h 0.623217 v -0.03411 q -0.0031,-0.134875 -0.07596,-0.223242 -0.07131,-0.08992 -0.226343,-0.08992 z"
         style="stroke-width:0.5"
         id="path20182" /><path
         d="m 83.154097,50.138537 v 2.38125 h -0.449585 v -2.38125 z"
         style="stroke-width:0.5"
         id="path20184" /><path
         d="m 75.641377,55.570763 q 0,-0.437182 0.119373,-0.764294 0.120923,-0.328662 0.299206,-0.536401 0.178284,-0.20929 0.353467,-0.288355 l 0.08682,0.241846 q -0.173633,0.130224 -0.325562,0.449585 -0.151929,0.31781 -0.155029,0.869714 v 0.06666 q 0,0.567407 0.151929,0.889868 0.153479,0.324011 0.328662,0.457336 l -0.08682,0.237195 Q 76.23824,57.116405 76.059956,56.907116 75.881673,56.699377 75.76075,56.370714 75.641377,56.042052 75.641377,55.60642 Z"
         style="stroke-width:0.5"
         id="path20186" /><path
         d="m 77.77148,56.488537 -0.0217,-0.178284 q -0.165882,0.20929 -0.429431,0.20929 -0.311609,0 -0.483692,-0.241846 -0.172082,-0.241846 -0.172082,-0.607715 v -0.03256 q 0,-0.382922 0.172082,-0.620117 0.172083,-0.237195 0.486792,-0.237195 0.244946,0 0.403076,0.181384 v -0.854211 h 0.449585 v 2.38125 z m -0.657324,-0.818555 q 0,0.201538 0.07131,0.344165 0.07131,0.141077 0.248047,0.141077 0.204639,0 0.293005,-0.173633 v -0.665076 q -0.08527,-0.173633 -0.289904,-0.173633 -0.175184,0 -0.249598,0.142627 -0.07286,0.142627 -0.07286,0.384473 z"
         style="stroke-width:0.5"
         id="path20188" /><path
         d="m 80.036458,55.665331 q 0,0.376721 -0.162781,0.615466 -0.16123,0.238746 -0.488342,0.238746 -0.272852,0 -0.435632,-0.20929 l -0.02015,0.178284 h -0.404627 v -2.38125 h 0.449585 v 0.852661 q 0.15658,-0.179834 0.407727,-0.179834 0.330213,0 0.491443,0.240295 0.162781,0.240296 0.162781,0.612366 z m -0.767395,-0.522449 q -0.21239,0 -0.294556,0.175184 v 0.663525 q 0.08217,0.175183 0.297657,0.175183 0.187585,0 0.251147,-0.136426 0.06511,-0.137976 0.06511,-0.387573 0,-0.198437 -0.06511,-0.344165 -0.06356,-0.145728 -0.254248,-0.145728 z"
         style="stroke-width:0.5"
         id="path20190" /><path
         d="m 81.5852,54.23131 h 0.466639 v 1.488281 q 0,0.393775 -0.244947,0.596863 -0.244946,0.203089 -0.620117,0.203089 -0.379822,0 -0.623218,-0.203089 -0.243396,-0.203088 -0.243396,-0.596863 V 54.23131 H 80.7868 v 1.488281 q 0,0.223243 0.105419,0.324012 0.106971,0.100769 0.294556,0.100769 0.389124,0 0.398425,-0.404627 z"
         style="stroke-width:0.5"
         id="path20192" /><path
         d="m 83.175801,55.60642 q 0,0.42168 -0.124023,0.751892 -0.124024,0.328662 -0.308509,0.542603 -0.184484,0.21549 -0.364318,0.293005 l -0.08682,-0.237195 q 0.172083,-0.128674 0.324011,-0.449585 0.153479,-0.32091 0.15658,-0.872815 v -0.06666 q 0,-0.567408 -0.15658,-0.892969 -0.155029,-0.325562 -0.324011,-0.454236 l 0.08682,-0.238745 q 0.179834,0.07906 0.364318,0.294556 0.184485,0.21394 0.308509,0.544153 0.124023,0.328662 0.124023,0.751892 z"
         style="stroke-width:0.5"
         id="path20194" /></g></g></svg>
